<?xml version="1.0" encoding="UTF-8" standalone="no"?>
<!-- Generator: Adobe Illustrator 19.2.0, SVG Export Plug-In . SVG Version: 6.00 Build 0)  -->

<svg
   xmlns:dc="http://purl.org/dc/elements/1.1/"
   xmlns:cc="http://creativecommons.org/ns#"
   xmlns:rdf="http://www.w3.org/1999/02/22-rdf-syntax-ns#"
   xmlns:svg="http://www.w3.org/2000/svg"
   xmlns="http://www.w3.org/2000/svg"
   xmlns:sodipodi="http://sodipodi.sourceforge.net/DTD/sodipodi-0.dtd"
   xmlns:inkscape="http://www.inkscape.org/namespaces/inkscape"
   version="1.1"
   id="Layer_1"
   x="0px"
   y="0px"
   width="800px"
   height="450px"
   viewBox="0 0 800 450"
   style="enable-background:new 0 0 800 450;"
   xml:space="preserve"
   inkscape:version="0.48.3.1 r9886"
   sodipodi:docname="overlay__Close Up 5.svg"><metadata
   id="metadata3515"><rdf:RDF><cc:Work
       rdf:about=""><dc:format>image/svg+xml</dc:format><dc:type
         rdf:resource="http://purl.org/dc/dcmitype/StillImage" /></cc:Work></rdf:RDF></metadata><defs
   id="defs3513" /><sodipodi:namedview
   pagecolor="#ffffff"
   bordercolor="#666666"
   borderopacity="1"
   objecttolerance="10"
   gridtolerance="10"
   guidetolerance="10"
   inkscape:pageopacity="0"
   inkscape:pageshadow="2"
   inkscape:window-width="640"
   inkscape:window-height="480"
   id="namedview3511"
   showgrid="false"
   inkscape:zoom="0.405"
   inkscape:cx="400"
   inkscape:cy="225"
   inkscape:window-x="128"
   inkscape:window-y="24"
   inkscape:window-maximized="0"
   inkscape:current-layer="Layer_1" />
<style
   type="text/css"
   id="style3477">
	.st0{fill:#FAAF40;stroke:#FAAF40;stroke-miterlimit:10;}
</style>
<path
   class="st0"
   d="M470.8,355.3c-14.6,0-26.2-1.3-32.2-2.8c-25-6.3-29.9-19.8-33-34.3c-1.7-7.8,0.4-15.3,2.3-22.6  c1.7-6.2,3.2-12,2.1-17l-0.1-0.5c-1.8-8-1.8-8.2-0.8-9.6c0.3-0.3,0.6-0.8,0.9-1.7c1.3-3.3,11.4-5.2,18.4-6.1  c-6.1-1.8-15.6-4.7-18.1-6.9c-3.4-3-1.3-18.1-0.5-23.2c-1.9-0.3-6.4-1.4-15-5c-4-1.7-6.3-3.8-7.2-6.6c-1.7-5.2,2.1-11.5,6.1-18.1  l0.7-1.1c2.2-3.7,7.9-10.2,14.6-17.7c10.6-12.1,25.1-28.6,23.9-33.3c-2-8.2-0.1-33.8,0-34.8l2.1,0.2c0,0.3-2,26.3,0,34.2  c1.3,5.3-9.3,17.9-24.4,35.1c-6.3,7.1-12.2,13.9-14.3,17.4l-0.7,1.1c-3.8,6.2-7.3,12.1-5.9,16.4c0.7,2.2,2.7,3.9,6.1,5.3  c11.7,4.9,15.4,5,15.4,5h1.2l-0.2,1.2c-1.4,8.2-2.4,20.6-0.3,22.4c2.7,2.4,17.1,6.5,22.4,7.9l5.6,1.5l-5.8,0.6  c-9.9,0.9-21.1,3.3-22,5.4c-0.5,1.2-0.9,1.8-1.2,2.2c-0.4,0.6-0.5,0.6,1.1,7.9l0.1,0.5c1.2,5.5-0.4,11.6-2.1,18  c-1.9,7-3.8,14.3-2.3,21.6c3,13.8,7.6,26.8,31.5,32.7c22.1,5.5,122.5,7.9,162.4-46.3l1.7,1.2C573.5,345.8,510.9,355.3,470.8,355.3z"
   id="path3479" />
<path
   class="st0"
   d="M476.3,378.5l-1.8-1c6.7-11.5,0.1-22.4,0-22.5l1.7-1.1C476.6,354.3,483.6,365.9,476.3,378.5z"
   id="path3481" />
<path
   class="st0"
   d="M796.7,180.1c-12.9-13.9-13.7-27.9-13.7-28.5c0-0.9,2.8-78.5-16.2-121.5c-1.8-4.2-7.6-11.9-12.7-18.6  c-2.7-3.6-5.2-7-7-9.6l1.7-1.2c1.8,2.6,4.3,6,7,9.5c5.4,7.2,11,14.6,12.9,19c19.2,43.4,16.4,121.5,16.3,122.3  c0,0,0.8,13.8,13.2,27.1L796.7,180.1z"
   id="path3483" />
<path
   class="st0"
   d="M797.1,201.6c-131.4-49.1-411.5-97.3-414.3-97.8c-1.1-0.2-3.2-0.6-3.2-2.2c0-1.3,0.1-3.3,27.9-8.5  c11.4-2.1,22.9-3.9,26.2-4.4c-0.2-6.9,0-50.4,25.7-88.7l1.7,1.2c-27.5,40.9-25.3,87.9-25.3,88.4v0.9l-0.9,0.1  c-23.5,3.6-48.7,8.5-52.8,10.9c0.2,0.1,0.6,0.2,1.1,0.3c2.8,0.5,283.1,48.7,414.6,97.9L797.1,201.6z"
   id="path3485" />
<path
   class="st0"
   d="M593.5,271.2c-0.8,0-1.6,0-2.3-0.1c-7.1-0.8-11.8-5.3-13.3-12.7l2-0.4c1.7,8.3,7.2,10.6,11.5,11.1  c8.6,1,20.1-4.6,23.1-11.3c2-4.5,5.9-6.8,10.3-9.5c7.1-4.3,16-9.6,22.2-27c9.1-25.5,5.2-39.7-13.1-47.4c-15.9-6.8-36.7,13.8-36.9,14  l-1.5-1.5c0.9-0.9,22-21.7,39.2-14.4c19.3,8.2,23.7,23.6,14.3,50c-6.5,18.1-15.7,23.6-23.1,28.1c-4.3,2.6-7.7,4.6-9.5,8.5  C613.3,265.5,602.7,271.2,593.5,271.2z"
   id="path3487" />
<path
   class="st0"
   d="M685.6,281.2c-0.5,0-1,0-1.5-0.1c-10.4-1.5-28-18.8-28-30.1c0-4.5-0.1-9.5-0.2-14.8c-0.2-11.7-0.5-25,0.2-40.6  c0.3-6.9-1.8-12.8-6.2-17.4c-10.2-10.6-28.6-11.4-34.1-11.4c-12.5,0-28.1,10.2-40.7,18.4c-5.1,3.3-9.4,6.2-13,7.9  c-5.5,2.8-10.9,5-15.1,2.6c-5-2.9-7.7-12.1-8.7-29.9c-1.9-33.1-19.8-34.6-20.6-34.6l0.1-2.1c0.8,0,20.4,1.5,22.5,36.5  c1,16.8,3.4,25.7,7.7,28.2c3.3,1.9,8.1-0.2,13.1-2.7c3.4-1.7,7.8-4.5,12.8-7.8c12.8-8.3,28.7-18.7,41.8-18.7  c5.6,0,24.8,0.9,35.5,12.1c4.8,5.1,7.1,11.4,6.8,18.9c-0.7,15.5-0.4,28.8-0.2,40.4c0.1,5.3,0.2,10.3,0.2,14.9  c0,10.2,16.7,26.7,26.2,28c3.1,0.5,5-0.7,5.9-3.6c3.5-11.9,15.9-26.2,29.1-41.4c14-16.1,28.4-32.7,32.8-47.3l2,0.6  c-4.5,15-19.1,31.8-33.2,48c-13,15-25.3,29.2-28.7,40.6C691.3,279.4,688.9,281.2,685.6,281.2z"
   id="path3489" />
<path
   class="st0"
   d="M414.2,450.7c-0.5,0-0.6-0.2-0.8-0.4c-0.8-1-0.1-2,3.3-5.1c1.6-3.7,18.6-44,29.5-55.9  c8.4-9.1,20.5-10.5,42.6-12.9c8.3-0.9,17.7-2,28.8-3.6c40.7-6.1,96.7-29.6,128.8-48.6c8.9-5.3,23.2-12.7,38.3-20.6  c34.9-18.2,82.8-43.2,85.4-53.4c0.2-0.7,0.1-1.2-0.2-1.7c-7.8-11.7-42.7-20.8-43.1-20.9l0.5-2c1.5,0.4,36,9.4,44.3,21.8  c0.6,1,0.8,2.1,0.5,3.4c-2.8,11.1-47.3,34.3-86.5,54.7c-15.1,7.9-29.3,15.3-38.2,20.6c-32.2,19.1-88.5,42.8-129.5,48.9  c-11.2,1.7-20.6,2.7-28.9,3.6c-21.6,2.4-33.5,3.7-41.3,12.3c-10.9,11.9-29,55-29.2,55.5l-0.1,0.2l-0.2,0.2c-0.2,0.2-0.4,0.4-0.6,0.6  c10.4-5.7,41.4-26.5,60.3-41.7c9.7-7.8,18.7-11,26.8-9.7c9.3,1.6,13.8,8.6,14,8.9l0.3,0.5l-0.3,0.6c-0.1,0.2-2.4,3.9-0.3,7.8  c2,3.8,8.7,8.4,29.1,8.9c40.5,1,148.5-7,188.2-15.2c26.6-5.5,43.3,1.1,52.3,4.7c3.7,1.5,6.6,2.6,7.4,1.8l1.5,1.5  c-1.8,1.8-4.8,0.6-9.7-1.3c-8.8-3.5-25.2-10-51.2-4.6c-39.8,8.3-148,16.3-188.6,15.3c-17.2-0.4-27.6-3.8-30.9-10  c-2.1-3.9-0.7-7.8,0.1-9.2c-1.2-1.5-5.3-6.3-12.3-7.5c-7.5-1.2-15.9,1.9-25.1,9.3c-10.2,8.2-25.2,19.1-40.2,29.1  C420.6,448.5,415.8,450.7,414.2,450.7z"
   id="path3491" />
<path
   class="st0"
   d="M796.5,366.4c-3.3-15.4-10.7-17.3-17.3-19c-3.4-0.9-6.6-1.7-8.7-4.4c-3.9-5-0.7-11.3,4.3-21  c2.8-5.5,6.3-12.3,9.3-20.6c7.4-20.2-3-44.5-8-56.2c-0.4-1-0.8-1.8-1.1-2.6c-3.2-7.7-31.6-18.5-42.3-22l0.6-2  c1.6,0.5,39.3,13.1,43.5,23.2c0.3,0.8,0.7,1.6,1.1,2.6c5.1,11.9,15.7,36.7,8.1,57.7c-3.1,8.4-6.6,15.3-9.4,20.9  c-4.6,8.9-7.6,14.8-4.5,18.8c1.7,2.1,4.4,2.8,7.6,3.6c6.8,1.8,15.3,4,18.8,20.6L796.5,366.4z"
   id="path3493" />
<path
   class="st0"
   d="M506.2,450.8l-1.2-1.6c19-14.5,18.9-29,18.9-29.2h2.1C526,420.6,526.1,435.7,506.2,450.8z"
   id="path3495" />
<path
   class="st0"
   d="M385.6,450.7l-1.6-1.3c3.7-4.8,8.3-10.9,13.2-17.3c23-30.4,41.1-53.8,47-55.1c5.8-1.3,11.4-16.9,13.1-22.8  l2,0.6c-0.6,2.3-6.5,22.4-14.6,24.3c-5.7,1.3-29.8,33.2-45.8,54.3C394,439.8,389.3,445.9,385.6,450.7z"
   id="path3497" />
<path
   class="st0"
   d="M449,147c1.5,0,19.8,4.1,22.3,8.6s-13.2,1.6-18.3,0C447.9,153.9,449,147,449,147z"
   id="path3499" />
<path
   class="st0"
   d="M442.9,127.7c0,0,3.4,7.1,6,8.6s25,5.6,34.6,10.7c9.6,5.1,11.8,1.5,11.7,0C495.2,145.4,450.5,121.6,442.9,127.7  z"
   id="path3501" />
<path
   class="st0"
   d="M424.1,214.5c0,0-14.7-4.6-17.3,0C404.3,219,420.1,224.6,424.1,214.5z"
   id="path3503" />
<path
   class="st0"
   d="M443.9,283.8l-2-0.5c0.1-0.3,7.4-31.1,0.2-41.2c-7.8-10.8-4.4-30-4.2-30.8c0.4-5.1-10-10.4-14.1-12.1l0.8-1.9  c0.6,0.3,15.9,6.5,15.4,14.2c0,0.3-3.4,19.3,3.9,29.4C451.6,251.7,444.2,282.5,443.9,283.8z"
   id="path3505" />
<path
   class="st0"
   d="M690.4,301.5c-0.2-1-4.2-25.7,3.1-32.1l1.4,1.6c-5.4,4.7-3.6,23.4-2.4,30.2L690.4,301.5z"
   id="path3507" />
<path
   class="st0"
   d="M768.3,163.4c-30.7-7.1-52.1-12.6-72.8-17.8c-44.6-11.4-90.7-23.1-232.1-52.2l0.4-2  c141.5,29.1,187.6,40.9,232.2,52.2c20.7,5.3,42.1,10.7,72.7,17.8L768.3,163.4z"
   id="path3509" />
</svg>