<?xml version="1.0" encoding="UTF-8" standalone="no"?>
<!-- Generator: Adobe Illustrator 19.2.0, SVG Export Plug-In . SVG Version: 6.00 Build 0)  -->

<svg
   xmlns:dc="http://purl.org/dc/elements/1.1/"
   xmlns:cc="http://creativecommons.org/ns#"
   xmlns:rdf="http://www.w3.org/1999/02/22-rdf-syntax-ns#"
   xmlns:svg="http://www.w3.org/2000/svg"
   xmlns="http://www.w3.org/2000/svg"
   xmlns:sodipodi="http://sodipodi.sourceforge.net/DTD/sodipodi-0.dtd"
   xmlns:inkscape="http://www.inkscape.org/namespaces/inkscape"
   version="1.1"
   id="Layer_1"
   x="0px"
   y="0px"
   width="800px"
   height="450px"
   viewBox="0 0 800 450"
   style="enable-background:new 0 0 800 450;"
   xml:space="preserve"
   inkscape:version="0.48.3.1 r9886"
   sodipodi:docname="overlay__Close Up 7.svg"><metadata
   id="metadata3589"><rdf:RDF><cc:Work
       rdf:about=""><dc:format>image/svg+xml</dc:format><dc:type
         rdf:resource="http://purl.org/dc/dcmitype/StillImage" /></cc:Work></rdf:RDF></metadata><defs
   id="defs3587" /><sodipodi:namedview
   pagecolor="#ffffff"
   bordercolor="#666666"
   borderopacity="1"
   objecttolerance="10"
   gridtolerance="10"
   guidetolerance="10"
   inkscape:pageopacity="0"
   inkscape:pageshadow="2"
   inkscape:window-width="640"
   inkscape:window-height="480"
   id="namedview3585"
   showgrid="false"
   inkscape:zoom="0.405"
   inkscape:cx="400"
   inkscape:cy="225"
   inkscape:window-x="145"
   inkscape:window-y="24"
   inkscape:window-maximized="0"
   inkscape:current-layer="Layer_1" />
<style
   type="text/css"
   id="style3555">
	.st0{fill:none;stroke:#FAAF40;stroke-width:2;stroke-miterlimit:10;}
	.st1{fill:#FAAF40;stroke:#FAAF40;stroke-width:2;stroke-miterlimit:10;}
</style>
<path
   class="st0"
   d="M237.7,166.8c0,0,6.7,4.4,1.5,12s-14.5,5.9-19-4.6C220.2,174.2,232.6,166.3,237.7,166.8z"
   id="path3557" />
<path
   class="st0"
   d="M327.7,146.2c0,0,1.4,11.6-7.9,10.7c-9.3-0.9-9.3-8.2-9.3-8.2S314.2,143.1,327.7,146.2z"
   id="path3559" />
<path
   class="st1"
   d="M290.8,131.6c0,0,0.6-9.8,16-12.4s26,2.3,31.6,8.3c5.7,6-3.6,1.6-7.2,0.3c-3.6-1.3-20.1-1.3-25.2,3.9  C300.9,136.9,294.9,133.2,290.8,131.6z"
   id="path3561" />
<path
   class="st1"
   d="M237.7,140.9c0,0,5.1,0.8,3.5,6.5c-1.7,5.7-12.1,2.7-21,6.2c-13.5,5.3-27.2,21.6-27.2,21.6s-3.1-1.4,0-7.1  C196.1,162.4,217.5,134.3,237.7,140.9z"
   id="path3563" />
<path
   class="st1"
   d="M301.9,224.9c0,0-7.1-4.4-13.8,0c-6.7,4.4-3.9,4.3-3.9,4.3S300.9,228.8,301.9,224.9z"
   id="path3565" />
<path
   class="st1"
   d="M196.8,212.1c-13.8,4.4-19.2-2.8-19.2-2.8l-11.3-13.4l-2.6,5.3l12.8,14.2c4.1,7.4,20,6,23.2,4.6"
   id="path3567" />
<path
   class="st1"
   d="M279.8,194.9c0,0,22-3.2,32.2-8.9l1.4,4.9c0,0-19.8,8.1-32.5,7.8L279.8,194.9z"
   id="path3569" />
<polyline
   class="st1"
   points="367.8,161.9 344.4,134.3 345.6,142 370.3,171.2 "
   id="polyline3571" />
<path
   class="st1"
   d="M1.1,368.5c16.2-2.5,48.3-30.1,58.2-38.9c-2.6,9.2-2.8,26.3,17.9,48.4c16,17.1,16.8,32,17.5,44  c0.6,11,1.1,19.7,13.1,24.9l0.8-1.9c-10.8-4.7-11.3-12.5-11.9-23.2c-0.7-12.3-1.5-27.6-18.1-45.3c-30-32-14.6-52.9-14.4-53.1  l0.2-0.3c7.8-27,6.1-59.6,3.5-87.9c-2.6-27.9,4.9-132.5,32.9-169.5C131,25.6,168,6.5,197.3,15.8l5.2,1.7  c17.6,5.5,29.3,9.2,32.9,16.5c2,4.1,1.6,9.8-1.3,17.7c-5.3,14.2-7.3,15.4-12.5,18.4C218,72.2,213,75,204.7,83  c-17.9,17.3-18.5,19.8-23.5,43.4c-0.8,3.9-1.8,8.4-3,13.7c-1.7,7.7-3.1,15-4.5,22c-4.9,25.7-8.4,44.3-23.6,49.5  c-5.4-1.6-12.6-2-18.8,3.6c-10.1,9.1,2.8,34.7,10.5,50.1c1,2.1,2,3.9,2.7,5.4c5.8,12.3,12.7,17.1,20.4,14.5c0.3-0.1,4.1-2.1,4.8-7.4  c0.2,0.5,0.5,0.9,0.7,1.3c1.3,2.5,1.6,3,1.7,3.1c1.3,1.7,2.5,3.3,3.7,4.8c-1.7,2.4-6.1,11,0.3,32.8c2,6.9,3.5,13.4,4.9,19.7  c3.3,14.6,6.5,28.4,15.7,43l0,0l0,0c1.5,2.4,3.1,4.8,5,7.2c14,18.3,20.4,34.3,18,45c-1.2,5.4-4.6,9.6-10.1,12.5l1,1.8  c6.1-3.2,9.8-7.9,11.1-13.9c2.6-11.8-4.4-26.5-12.6-38.7c19.2,19.7,38.1,29.6,56.3,29.6c1.1,0,2.3,0,3.4-0.1  c24.3-1.7,40-21.3,44.2-27.3c1.2,10.1,3.5,18.9,4.2,21.2c-12.8,14.3-14.3,25.6-14.3,26.1l2.1,0.2c0-0.1,1.5-11.4,14.2-25.4l0.4-0.4  l-0.2-0.6c-0.1-0.3-8.1-28.2-3.4-44.9c4.4-15.7,11.4-36.3,12.5-39.5c6.2-3.2,11.4-7.5,16.9-12.1c1.2-1,2.5-2.1,3.8-3.1  c20.4-16.6,22.7-44.6,25.2-74.1c1.7-19.9-3.4-42.3-9-59c1.3-1.6,2.4-3.4,3.5-5.6c3.3-6.6,3.2-14.2-0.1-19.6  c-2.9-4.6-7.6-6.2-12.3-3.9c-1,0.5-2,0.9-3,1.4c-2.4-5.8-4.3-12.3-6.6-19.9c-1.5-5-3.2-10.7-5.2-16.9c-6.2-18.6-41.6-62.1-43.1-63.9  l-0.2-0.2c-0.5-0.4-12.3-8.9-32.8-0.1c-15,6.4-17.5,5.6-24.8,3c-2-0.7-4.4-1.6-7.6-2.4c0.8-1.8,1.6-3.9,2.6-6.5  c3.2-8.6,3.6-14.6,1.3-19.3c-4-8.1-15.3-11.6-34.1-17.6l-5.2-1.6c-1.5-0.5-2.9-0.8-4.4-1.2c8-2.2,37.7-7.8,86.6,13.4  c51.1,22.2,54.9,29.6,75.9,70.3c2.9,5.6,6.1,11.8,9.8,18.8c6.3,11.9,12,22.2,17.1,31.4c19.8,35.7,30.7,55.3,35.1,93  c0.9,7.4,3.5,30-4.4,46.9c-12.5,26.5-8.1,34.7,1.6,52.8l0.2,0.4c11.5,21.7,18.4,63.5,9.8,88.8c-2.9,8.4-7.1,13.9-12.7,16.5l0.9,1.9  c6.1-2.8,10.8-8.7,13.8-17.7c8.8-25.8,1.8-68.4-9.9-90.5l-0.2-0.4c-2-3.8-3.8-7.2-5.2-10.3c10.3,4,52.5,20.2,66.8,26.8  c11.6,5.3,22.7,37.1,32.4,65.1c3.7,10.6,7.2,20.6,10.5,28.5l1.9-0.8c-3.3-7.9-6.7-17.9-10.4-28.4c-9.9-28.4-21.1-60.6-33.5-66.3  c-15.6-7.2-63.9-25.7-68.8-27.6c-4.2-10.4-3.9-19.4,4.9-38c8.2-17.4,5.5-40.5,4.6-48.1c-4.5-38.1-16.1-59.1-35.4-93.8  c-5.1-9.1-10.8-19.5-17.1-31.3c-3.7-7-6.9-13.2-9.8-18.8C337.1,55,332.8,46.6,281,24c-58.3-25.4-89.1-13.3-90.4-12.8l0.3,0.7  C162,7.4,127.5,26.8,99.1,64.5c-28.3,37.4-35.9,142.8-33.3,170.9c2.6,28,4.2,60.3-3.4,87c-0.3,0.4-1,1.4-1.7,3.1  c-1.7,1.5-42,38.3-60,41L1.1,368.5z M364.6,184.5c-2.9-8.2-5.8-14.8-7.9-18.8c-0.8-1.5-1.6-3-2.3-4.6c1-0.5,2.1-0.9,3.1-1.4  c1.1-0.6,2.3-0.9,3.4-0.9c2.4,0,4.6,1.4,6.2,4c2.4,3.9,3.3,10.8,0,17.6C366.3,182,365.5,183.3,364.6,184.5z M313.2,185.3  c0.4-8,16.5-15.3,16.6-15.4c2.6-1.3,6.2-2.4,10.4-3.7c3.9-1.2,8.1-2.6,12.3-4.3c0.7,1.6,1.5,3.2,2.3,4.8c2.2,4.1,5.3,11.1,8.2,19.7  c-4.7,5.4-11,7.5-20.6,10.6c-2.3,0.8-4.8,1.6-7.5,2.5c-7.6,2.7-13.7,1.9-17.7-2.2C314.1,193.9,313.1,188.9,313.2,185.3z   M177.2,288.6c13.6,16.6,22.4,19.7,55.3,31.6c6.9,2.5,14.9,5.3,24.2,8.8c21.9,8.1,37.5,11.3,49.4,11.3c8,0,14.3-1.5,19.8-3.8  c-2.1,6.3-8,23.9-11.9,37.8c-1.8,6.4-1.8,14.3-1.1,21.7l-0.3-0.2c-0.2,0.3-16.2,26.2-43.8,28.1c-22.4,1.6-46-12.8-70.2-42.6  c-9-14.3-12.1-27.9-15.3-42.3c-1.4-6.4-2.9-12.9-5-19.9C172.4,299.5,175.7,291.2,177.2,288.6z M232.6,60.8c3.2,0.9,5.6,1.7,7.7,2.5  c7.6,2.7,10.5,3.7,26.3-3c18.3-7.9,29.5-0.9,30.6-0.2c2,2.5,36.7,45.4,42.6,63.1c2,6.1,3.7,11.8,5.2,16.8c2.3,7.7,4.2,14.2,6.7,20.1  c-4.1,1.6-8.3,3-12.1,4.2c-4.3,1.3-7.9,2.5-10.6,3.8c-0.7,0.3-17.4,7.9-17.8,17.1c-0.1,2.3,0.2,5.1,1.2,7.8  c-10.3-11.3-20.5-31.3-20.6-31.5l-1.8,0.9c0.1,0.2,10.9,21.3,21.5,32.6c6.4,6.8,9.4,13.3,8.7,18.7c-0.6,4.2-3.4,8-8.5,11.1l1.1,1.8  c5.6-3.5,8.8-7.7,9.4-12.6c0.1-1.1,0.1-2.2,0-3.3c0.8,0.7,1.6,1.7,2,3c0.6,2.1,0,4.6-1.8,7.3l1.7,1.1c2.2-3.3,2.9-6.4,2.1-9.1  c-0.9-3.1-3.5-4.7-4.5-5.2c-0.6-2.2-1.5-4.4-2.9-6.7c2.3,1.4,5,2.1,8.1,2.1c2.7,0,5.7-0.6,8.9-1.7c2.7-0.9,5.2-1.7,7.5-2.5  c9.4-3.1,15.8-5.2,20.7-10.3c5.3,16.3,10.1,37.9,8.5,57c-2.4,29.1-4.7,56.6-24.4,72.7c-1.3,1.1-2.6,2.1-3.8,3.1  c-17.4,14.5-31.2,26-86.7,5.5c-9.3-3.5-17.3-6.3-24.2-8.8c-37.1-13.4-42.9-15.4-59.4-37.3c-0.1-0.2-0.9-1.6-1.6-2.9  c-3-5.6-3-5.6-3.9-5.3l-0.8,0.3l0.1,0.9c0.9,6.9-3.4,9.2-3.6,9.3c-6.5,2.2-12.4-2.2-17.7-13.5c-0.7-1.5-1.6-3.4-2.7-5.5  c-6.9-13.8-19.9-39.6-11-47.6c10.1-9.2,23.5-0.3,24.1,0.1l1.2-1.7c-0.1,0-1.9-1.3-4.8-2.5c14.4-6.6,18-25,22.7-50.1  c1.3-7,2.7-14.3,4.4-22c1.2-5.3,2.2-9.8,3-13.7c4.9-23,5.4-25.4,22.9-42.3c8.1-7.8,12.9-10.6,16.5-12.6  C226.8,69.4,229.2,68,232.6,60.8z"
   id="path3573" />
<path
   class="st1"
   d="M252.1,171.9l-1.9,0.8c-0.1-0.3-2.9-6.8-16-4.2c-14.9,3-23.7,18.3-23.8,18.4l-1.8-1c0.4-0.7,9.4-16.3,25.2-19.5  C248.7,163.5,252,171.6,252.1,171.9z"
   id="path3575" />
<path
   class="st1"
   d="M340.7,145.3l-0.5,2c-29.4-7-37.1,11.1-37.4,11.9l-1.9-0.8C301,158.3,309.5,137.9,340.7,145.3z"
   id="path3577" />
<path
   class="st1"
   d="M270.3,278.1l-0.5,0.7l0.6,0.7c0.3,0.4,7.7,8.6,29.2,8.6c0.8,0,1.6,0,2.4,0c25.3-0.7,39.7-10.4,41.7-28.1  l0.1-0.5l-0.4-0.4c-0.4-0.4-10.9-10.8-19.7-10.8c-1.9,0-3.5,0.5-5,1.4c-4,2.5-8.9,4-14.7,4.3C297.4,254.3,277.5,269.2,270.3,278.1z   M272.5,278.7c7.7-9.1,26-22.3,31.4-22.7c6.1-0.4,11.4-1.9,15.7-4.6c1.1-0.7,2.4-1.1,3.9-1.1c7.1,0,16,8.1,17.9,9.9  c-2.6,20.4-22.9,25.3-39.6,25.7C283.1,286.4,274.7,280.6,272.5,278.7z"
   id="path3579" />
<path
   class="st1"
   d="M287.3,275.7L287,276l0.1,0.5c0.2,1.3,2.3,1.9,6.2,1.9c4,0,9.8-0.7,17.3-2c22.2-3.9,25.6-14.7,25.8-15.1  l0.2-0.8l-0.7-0.4c-4.1-2.5-8.6-3.8-13.3-3.8C304.4,256.4,288,274.9,287.3,275.7z M289.7,276.1c3.6-3.8,17.9-17.6,32.9-17.6  c4.1,0,7.9,1,11.5,3.1c-1.2,2.4-6.3,9.9-23.8,12.9c-7.4,1.3-13.1,1.9-17,1.9C291.4,276.4,290.4,276.2,289.7,276.1z"
   id="path3581" />
<path
   class="st1"
   d="M268.9,186.4c-5.5,0.9-68.7,15.7-71.4,16.3c-1.3,0.3-2.4,1.1-2.9,2.3c-1.8,3.9,1.7,11,2.1,11.8  c2.9,10.5,8.3,14.6,19.4,14.6l0,0c6.5,0,15.4-1.4,29.7-4.7c12.3-2.8,20.4-6.2,25.7-9.9c-1.8,4.2-2.5,10.4,2.3,18.1l1.8-1.1  c-8.4-13.5,1.4-21.4,1.8-21.7l-0.3-0.4c4.1-5.1,4.6-10.6,4.5-16.1c-0.2-6.6-2.7-9.8-7.8-9.8C272.2,185.8,270.5,186.1,268.9,186.4z   M197.9,204.7c0.7-0.2,65.9-15.4,71.3-16.3c1.6-0.3,3.2-0.5,4.6-0.5c2.9,0,5.6,0.9,5.7,7.8c0.2,8.8,0.5,20.9-34.2,29  c-14.1,3.3-22.8,4.6-29.2,4.6l0,0c-10.2,0-14.8-3.5-17.5-13.3c-1-2.1-3.3-7.6-2.1-10.1C196.7,205.2,197.2,204.9,197.9,204.7z"
   id="path3583" />
</svg>