<?xml version="1.0" encoding="UTF-8" standalone="no"?>
<!-- Generator: Adobe Illustrator 19.2.0, SVG Export Plug-In . SVG Version: 6.00 Build 0)  -->

<svg
   xmlns:dc="http://purl.org/dc/elements/1.1/"
   xmlns:cc="http://creativecommons.org/ns#"
   xmlns:rdf="http://www.w3.org/1999/02/22-rdf-syntax-ns#"
   xmlns:svg="http://www.w3.org/2000/svg"
   xmlns="http://www.w3.org/2000/svg"
   xmlns:sodipodi="http://sodipodi.sourceforge.net/DTD/sodipodi-0.dtd"
   xmlns:inkscape="http://www.inkscape.org/namespaces/inkscape"
   version="1.1"
   id="Layer_1"
   x="0px"
   y="0px"
   width="800px"
   height="450px"
   viewBox="0 0 800 450"
   style="enable-background:new 0 0 800 450;"
   xml:space="preserve"
   inkscape:version="0.48.3.1 r9886"
   sodipodi:docname="overlay__Close Up 3.svg"><metadata
   id="metadata3387"><rdf:RDF><cc:Work
       rdf:about=""><dc:format>image/svg+xml</dc:format><dc:type
         rdf:resource="http://purl.org/dc/dcmitype/StillImage" /></cc:Work></rdf:RDF></metadata><defs
   id="defs3385" /><sodipodi:namedview
   pagecolor="#ffffff"
   bordercolor="#666666"
   borderopacity="1"
   objecttolerance="10"
   gridtolerance="10"
   guidetolerance="10"
   inkscape:pageopacity="0"
   inkscape:pageshadow="2"
   inkscape:window-width="640"
   inkscape:window-height="480"
   id="namedview3383"
   showgrid="false"
   inkscape:zoom="0.405"
   inkscape:cx="400"
   inkscape:cy="225"
   inkscape:window-x="417"
   inkscape:window-y="24"
   inkscape:window-maximized="0"
   inkscape:current-layer="Layer_1" />
<style
   type="text/css"
   id="style3353">
	.st0{fill:#FAAF40;stroke:#FAAF40;stroke-miterlimit:10;}
</style>
<path
   class="st0"
   d="M296,385.1c-54,0-132.9-67.6-164.1-102.1c-26.9-29.8-42.1-78.8-45.1-145.7c-1.4-31.2,6.4-52.6,12.6-69.8  c3.3-9.1,6.1-17,7.2-24.7c3.1-22.8,6.2-42.3,6.3-42.5l2,0.3c0,0.2-3.2,19.7-6.2,42.5c-1.1,8-4,16-7.3,25.2  c-6.2,17-13.8,38.2-12.5,69c2.9,66.4,17.9,115,44.5,144.4c32.5,35.9,116.8,107.9,169.9,100.9c51.9-6.7,86.4-50.1,89.7-67.1  c2.2-11.3,15.6-25.6,27.4-38.2c5.3-5.6,10.2-10.9,13.5-15.2c10.5-14,42.6-63.2,45.6-80.1c3-16.7,16.3-44.3,25.9-64.5l1.2-2.5  c9.2-19.2,21.7-113.7,21.8-114.7l2,0.3c-0.5,3.9-12.6,95.8-22,115.3l-1.2,2.5c-9.1,18.9-22.8,47.5-25.8,63.9  c-3.1,17.3-35.4,66.9-46,81c-3.3,4.4-8.3,9.7-13.6,15.4c-11.6,12.4-24.7,26.4-26.8,37.1c-3.4,17.4-38.6,61.9-91.5,68.7  C301.1,385,298.6,385.1,296,385.1z"
   id="path3355" />
<path
   class="st0"
   d="M93,84.8c-0.5,0-0.9-0.1-1.4-0.2c-9.8-2.3-25.7-26.9-31.7-38.9C52.7,31.3,53.8,3.9,56,0.2  c0.4-0.6,0.9-0.8,1.2-0.8v2.1c0.3,0,0.5-0.2,0.5-0.2c-1.5,1.9-3.5,28.6,3.9,43.5C68.7,59,84.1,80.8,92,82.6c1,0.2,1.9,0.1,2.5-0.4  l1.3,1.6C95,84.5,94,84.8,93,84.8z"
   id="path3357" />
<path
   class="st0"
   d="M94.4,50.6c-3.4-3.8-6.5-6.3-9.5-8.8C80.7,38.3,76.7,35,72.7,29c-6.8-10.3-0.4-27-0.1-27.7l1.9,0.8  c-0.1,0.2-6.3,16.4-0.1,25.8c3.8,5.7,7.5,8.8,11.8,12.3c3,2.5,6.2,5.2,9.7,9L94.4,50.6z"
   id="path3359" />
<path
   class="st0"
   d="M300.9,134.2c-6.3,3.5-13.8,6-22.3,7.5c-1.8,0.3-3.7,0.5-5.7,0.5l0,0c-24.1,0-50.1-24.5-50.4-24.8l-1.5,1.4  c0.8,1.1,19.9,26.5,36.7,29.6c2.2,0.4,4.2,0.9,6.1,1.3c3.2,0.8,6,1.5,9,1.5c6.2,0,13.2-2.6,29.3-15.3c8.8-5,12.2-10.1,12.3-10.3  l3.8-5.9l-5.3,4.6C308.4,128.1,304.5,131.4,300.9,134.2z"
   id="path3361" />
<path
   class="st0"
   d="M478.6,113.5c-0.2,0.3-16,27.3-36.8,32.2c-1.5,0.4-3.2,0.6-4.8,0.6c-18.9,0-36.3-24.9-36.5-25.2l-1.7,1.1  c0.8,1.4,19.4,33.1,38.9,33.1l0,0c0.7,0,1.3,0,2-0.1c20.1-2.3,39.9-39.2,40.7-40.7L478.6,113.5z"
   id="path3363" />
<path
   class="st0"
   d="M318.6,111.6c-0.4,0-0.8-0.1-1.2-0.1c-1.5-0.4-4.3-1.4-7.7-2.6c-10-3.6-26.7-9.7-39-9.7c-1,0-2,0-2.9,0.1  c-6.8,0.6-14.7,2.1-22.3,3.6c-8,1.5-15.6,3-20.2,3c-1.6,0-2.9-0.2-3.7-0.5c-2.7-1.1-4.1-2.8-4-4.8c0.2-4.3,7.6-8.8,22.1-13.2  l1.6-0.5c14.3-4.4,21.5-6.6,28.8-6.6c4.9,0,9.8,1,16,2.6c17.2,4.4,40.2,14.4,40.4,14.5l0.7,0.3l-0.1,0.8  C326.8,99.7,324.8,111.6,318.6,111.6z M270.7,97.1c12.7,0,29.6,6.2,39.7,9.9c3.4,1.2,6.1,2.2,7.5,2.6c3.9,1,6.2-7,6.9-10.7  c-4.1-1.7-24-10.1-39.4-14.1c-6.1-1.6-10.8-2.5-15.5-2.5c-7,0-14.1,2.2-28.2,6.5l-1.6,0.5c-19,5.8-20.6,10.2-20.7,11.4  c-0.1,1.5,1.9,2.5,2.7,2.8c0.6,0.3,1.6,0.4,2.9,0.4c4.4,0,11.9-1.4,19.9-3c7.7-1.5,15.6-3,22.5-3.6  C268.6,97.1,269.6,97.1,270.7,97.1z"
   id="path3365" />
<path
   class="st0"
   d="M429.5,105.5L429.5,105.5c-6,0-10.5-3.3-12.8-9.2c-0.3-0.8-0.2-1.7,0.2-2.5c2.8-4.7,20.5-7,22.5-7.3  c6.1-1.2,13.9-3.7,21.6-6c8.9-2.8,17.3-5.4,23.2-6.2c3.6-0.5,6.2,0.4,8.2,2.5c3.7,3.9,3.4,10.6,3.4,10.9l-0.1,1.4l-1.3-0.5  c0,0-1.8-0.6-6-0.6c-2.6,0-5.5,0.2-8.8,0.7c-9.4,1.3-21.8,6.7-33.8,11.9c-2,0.9-3.9,1.7-5.9,2.6  C436.1,104.7,432.6,105.5,429.5,105.5z M486,76.1c-0.5,0-1,0-1.5,0.1c-5.8,0.8-14.1,3.4-22.9,6.2c-7.7,2.4-15.6,4.9-21.9,6.1  c-7.3,0.9-19.3,3.4-21,6.3c-0.2,0.3-0.2,0.5-0.1,0.7c1.4,3.6,4.4,7.9,10.9,7.9l0,0c2.8,0,6-0.8,9.6-2.3c2-0.8,3.9-1.7,5.9-2.6  c12.6-5.5,24.6-10.8,34.3-12.1c3.3-0.5,6.4-0.7,9-0.7c2.5,0,4.3,0.2,5.3,0.4c-0.1-2-0.6-5.8-2.8-8.1C489.7,76.7,488,76.1,486,76.1z"
   id="path3367" />
<path
   class="st0"
   d="M377.9,255.3l-1.2-1.7l13.3-9.5c2.6-1.8,4-4.2,4.3-7.1c0.8-9.1-9.9-20.3-10-20.4l1.5-1.4  c0.5,0.5,11.5,12,10.5,22c-0.3,3.5-2,6.4-5.1,8.5L377.9,255.3z"
   id="path3369" />
<path
   class="st0"
   d="M653.9,450.5c-0.5-7-10.9-37.2-21.8-58.4C621,370.3,550,289.7,537.8,282.7c-13.6-7.8-30.2-31.3-31.7-39.9  c-1.4-8.1-9.2-14.1-22.3-17.4c-13.5-3.4-18.1-11.1-18.2-11.4l1.8-1c0,0.1,4.4,7.3,17,10.4c14,3.5,22.3,10.1,23.9,19  c1.5,8.1,17.8,31.1,30.7,38.5c12.3,7.1,83.9,88.4,95.2,110.3c11.2,21.8,21.5,51.8,22,59.2L653.9,450.5z"
   id="path3371" />
<path
   class="st0"
   d="M242.9,407.4c-48.3,0-81.4-17.4-148.7-126.1C27.4,173.2,3.2,99,22.3,60.9c0.6-1.3,4.1-2,21.8-4.4  c9-1.2,19.1-2.6,20.9-3.6l1,1.8c-2,1.1-9.5,2.2-21.6,3.8c-7.9,1.1-18.7,2.6-20.3,3.5C5.7,99,30.6,174.4,96,280.3  c80.7,130.5,111.8,128.3,179.8,123.5c8.1-0.6,16.5-1.2,25.7-1.6c43.3-2,72-52.2,84.2-73.7c4-7.1,5.7-10,7.1-10.6l0.9,1.9l-0.4-0.9  l0.4,0.9c-0.8,0.5-3.4,5-6.1,9.7c-12.4,21.7-41.4,72.6-85.9,74.7c-9.1,0.4-17.5,1-25.7,1.6C264,406.6,253.1,407.4,242.9,407.4z"
   id="path3373" />
<path
   class="st0"
   d="M50.3,57.7c-1.4,0-33.7-0.1-50.3-6.9l0.8-1.9c16.3,6.7,49.2,6.7,49.6,6.7L50.3,57.7L50.3,57.7z"
   id="path3375" />
<path
   class="st0"
   d="M345,277.6c-1.9,0-3.8-0.1-5.9-0.3c-18.4-2-52.6-10.2-64.6-28c-4-6-5.1-12.5-3.2-19.4  c8-28.8,22.8-29.9,23.4-29.9l0.1,2.1c-0.1,0-14,1.2-21.6,28.4c-1.7,6.3-0.8,12.2,2.9,17.7c10.1,14.9,39.8,24.5,63.2,27.1  c17.1,1.9,26.6-5,30.7-9.2c5.2-5.3,6.9-11.5,6.4-15.2c-0.5-3.1-1.5-8.9-2.9-16.2c-2.7-14.8-6.9-37-9.9-58.7  c-4.3-31.1,6.3-63.4,8.7-65.8c0.4-0.4,0.8-0.4,1-0.4l-0.2,2.1c0.4,0,0.6-0.1,0.7-0.2c-1.6,1.7-12.4,32.8-8.1,64.1  c3,21.6,7.1,43.8,9.8,58.6c1.4,7.3,2.4,13.1,2.9,16.3c0.8,5.2-2,11.8-6.9,17C367.6,271.4,359.3,277.6,345,277.6z"
   id="path3377" />
<path
   class="st0"
   d="M337.2,316.6c-2.2,0-4.1-0.3-5.9-1.1c-7.8-3.6-13.6-2-18.8-0.6c-3.2,0.9-6.3,1.7-9.5,1.2  c-9.4-1.5-33.5-7.5-33.8-7.6l0.5-2c0.2,0.1,24.2,6,33.6,7.5c2.7,0.4,5.4-0.3,8.6-1.2c5.5-1.5,11.7-3.2,20.2,0.7  c5.4,2.5,13.8-0.2,24.5-3.7c3.4-1.1,7-2.3,10.8-3.4l0.6,2c-3.8,1.1-7.3,2.3-10.7,3.4C349.4,314.4,342.6,316.6,337.2,316.6z"
   id="path3379" />
<path
   class="st0"
   d="M322.8,329.7c-16.7,0-33-10-33.8-10.5l1.1-1.8c0.2,0.1,21.2,12.9,39.1,9.6s21.9-9.2,22-9.3l1.7,1.1  c-0.2,0.3-4.6,6.7-23.3,10.2C327.3,329.5,325,329.7,322.8,329.7z"
   id="path3381" />
</svg>