<?xml version="1.0" encoding="UTF-8" standalone="no"?>
<!-- Generator: Adobe Illustrator 19.2.0, SVG Export Plug-In . SVG Version: 6.00 Build 0)  -->

<svg
   xmlns:dc="http://purl.org/dc/elements/1.1/"
   xmlns:cc="http://creativecommons.org/ns#"
   xmlns:rdf="http://www.w3.org/1999/02/22-rdf-syntax-ns#"
   xmlns:svg="http://www.w3.org/2000/svg"
   xmlns="http://www.w3.org/2000/svg"
   xmlns:sodipodi="http://sodipodi.sourceforge.net/DTD/sodipodi-0.dtd"
   xmlns:inkscape="http://www.inkscape.org/namespaces/inkscape"
   version="1.1"
   id="Layer_1"
   x="0px"
   y="0px"
   width="800px"
   height="450px"
   viewBox="0 0 800 450"
   style="enable-background:new 0 0 800 450;"
   xml:space="preserve"
   inkscape:version="0.48.3.1 r9886"
   sodipodi:docname="overlay__Close Up 1.svg"><metadata
   id="metadata3289"><rdf:RDF><cc:Work
       rdf:about=""><dc:format>image/svg+xml</dc:format><dc:type
         rdf:resource="http://purl.org/dc/dcmitype/StillImage" /></cc:Work></rdf:RDF></metadata><defs
   id="defs3287" /><sodipodi:namedview
   pagecolor="#ffffff"
   bordercolor="#666666"
   borderopacity="1"
   objecttolerance="10"
   gridtolerance="10"
   guidetolerance="10"
   inkscape:pageopacity="0"
   inkscape:pageshadow="2"
   inkscape:window-width="640"
   inkscape:window-height="480"
   id="namedview3285"
   showgrid="false"
   inkscape:zoom="0.405"
   inkscape:cx="400"
   inkscape:cy="225"
   inkscape:window-x="22"
   inkscape:window-y="24"
   inkscape:window-maximized="0"
   inkscape:current-layer="Layer_1" />
<style
   type="text/css"
   id="style3231">
	.st0{fill:#FAAF40;stroke:#FAAF40;stroke-miterlimit:10;}
</style>
<path
   class="st0"
   d="M75.8,334.9l-1.8-1c0.1-0.1,6.5-12.9,7.4-41.1c0.9-29.6-1.8-61.2-6.6-77l2-0.6c4.9,15.9,7.6,47.9,6.7,77.6  C82.5,321.7,76,334.4,75.8,334.9z"
   id="path3233" />
<path
   class="st0"
   d="M281.1,449.9l-2-0.4c0,0,4-20.9,6.3-32.3c2.3-11.6,12.2-21.4,12.6-21.8l1.4,1.5c-0.1,0.1-9.9,9.8-12.1,20.7  C285.2,429,281.1,449.9,281.1,449.9z"
   id="path3235" />
<path
   class="st0"
   d="M62.2,124.8h-2.1c0.2-11.7,7.3-33.7,7.6-34.6c6-21.9,33.2-63.6,62.5-88.4l1.3,1.6c-29,24.5-55.9,65.7-61.8,87.4  C69.6,91,62.4,113.4,62.2,124.8z"
   id="path3237" />
<path
   class="st0"
   d="M287.7,397.5c-24.1,0-58.2-4.1-95.1-36.1c-48-41.6-55.1-71.6-60.3-93.5c-0.7-2.8-1.3-5.5-2-8  c-1-1.2-8.3-9.3-27.4-17.7c-18.5-8.2-34.1-29.9-47.6-66.3c-7.2-19.5-6.3-38.9,2.4-49.5c5.4-6.5,13-9.1,22.2-7.6  c25.2,4.2,26.8,10.7,26.9,11.4l-2,0.3l1-0.1l-1,0.2c0-0.1-1.7-5.9-25.2-9.7c-8.4-1.4-15.5,1-20.3,6.9c-8.3,10-9.1,28.6-2.1,47.4  c13.1,35.4,28.8,57.3,46.5,65.1c21,9.3,28,18.1,28.3,18.5l0.2,0.4c0.7,2.6,1.4,5.3,2.1,8.2c5.1,21.7,12.2,51.3,59.7,92.5  c43.3,37.5,82.6,36.1,106.2,35.3c4.8-0.2,9-0.3,12.5-0.1c22.2,1.2,33.8-41.9,40.1-65c1.4-5.1,2.6-9.6,3.6-12.5  c5.6-15.9,17.6-73.9,21.5-92.9l0.3-1.6c1.7-8.2,1.1-15.9,0.6-23.4c-0.6-8.2-1.2-16,1.9-22.6c5.7-12.2,11.8-43,10.1-56.6  c-1.8-13.9-9.8-35.6-9.8-35.8c-0.2-0.5-24.8-52.6-78.3-81.2l1-1.8c52.3,28,77.2,77.8,79.2,82.3h0.1c0.1,0.2,8.2,22.1,10,36.3  c1.8,13.9-4.5,45.3-10.3,57.7c-2.8,6.1-2.3,13.2-1.7,21.6c0.5,7.2,1.1,15.5-0.6,24L380,225c-3.9,19.1-16,77.1-21.6,93.2  c-1,2.9-2.2,7.3-3.6,12.4c-6.8,25-18.1,66.5-41.2,66.5c-0.3,0-0.6,0-1,0c-3.5-0.2-7.6,0-12.3,0.1  C296.4,397.3,292.3,397.5,287.7,397.5z"
   id="path3239" />
<path
   class="st0"
   d="M293.7,150.8c-0.1-0.1-6-8.9-14.7-9.5c-7.9-0.6-19.6,2.4-26.5,4.3c-1,0.3-1.9,0.5-2.7,0.7l-0.5-2  c0.8-0.2,1.7-0.4,2.7-0.7c7.1-1.8,18.9-4.9,27.2-4.3c9.7,0.7,16,10,16.2,10.4L293.7,150.8z"
   id="path3241" />
<path
   class="st0"
   d="M286.2,142.6c0,0,1.5,13.2-8.8,13.5s-13.6-5-12.3-14.5C265.1,141.6,274.7,138,286.2,142.6z"
   id="path3243" />
<path
   class="st0"
   d="M280.5,157.5c-5.3,0-12.3-1.1-20.8-4.9l0.9-1.9c18.2,8.3,29.6,3.1,29.7,3.1l0.9,1.9  C290.9,155.8,287.1,157.5,280.5,157.5z"
   id="path3245" />
<path
   class="st0"
   d="M379.1,166.5c-11.3-12.6-28.5-8.1-28.7-8l-0.5-2c0.2,0,18.6-4.9,30.8,8.6L379.1,166.5z"
   id="path3247" />
<path
   class="st0"
   d="M374.5,161.2c0,0,1,11.3-9.5,11.7c0,0-10.1-1-6.9-16.3C358.1,156.6,365.6,155.4,374.5,161.2z"
   id="path3249" />
<path
   class="st0"
   d="M371.1,174.3c-3.8,0-10.3-0.8-17.4-5.2l1.1-1.8c10.6,6.4,19.6,4.6,19.7,4.6l0.4,2  C374.6,174,373.3,174.3,371.1,174.3z"
   id="path3251" />
<path
   class="st0"
   d="M350.5,250l-0.7-2c16.6-5.6,13-23.6,11.5-28.9c-1-3.7-3.5-12.1-6.2-21c-3.2-10.8-6.9-23.1-8.3-28.5  c-2.6-9.6-4.7-19-4.7-19.1l2-0.4c0,0.1,2.1,9.4,4.7,19c1.5,5.3,5.1,17.6,8.3,28.4c2.7,8.9,5.2,17.3,6.2,21  C365,224.3,368.8,243.8,350.5,250z"
   id="path3253" />
<path
   class="st0"
   d="M302.6,244.4c-6-3.5-9.4-10.3-9-18.3c0.5-9.3,17-14,17.7-14.2l0.6,2c-0.2,0-15.8,4.5-16.2,12.3  c-0.4,7.2,2.6,13.4,7.9,16.4L302.6,244.4z"
   id="path3255" />
<path
   class="st0"
   d="M311.6,243.5c0,0,10.1-7.3,16.9-4.6C335.4,241.7,329,249,311.6,243.5z"
   id="path3257" />
<path
   class="st0"
   d="M340.9,248.6c0,0,4.8-6.2,9.3-3.5C354.6,247.8,351.3,252.9,340.9,248.6z"
   id="path3259" />
<path
   class="st0"
   d="M306.3,450.4l-2-0.3c3.3-23.2-0.5-53.4-0.5-53.7l2-0.3C305.8,396.5,309.6,426.9,306.3,450.4z"
   id="path3261" />
<path
   class="st0"
   d="M72.5,450.4c-31.9-32.8-42.7-67.2-42.3-86.8c0.1-5.1,1.1-8.8,2.7-10.3c3.7-3.5,5.4-6,9.3-11.9  c2.2-3.2,4.8-7.2,8.8-12.9c6.1-8.7,8.4-13.7,10.1-17.3c1.5-3.2,2.4-5.3,5-7.5c5.4-4.8,15.5-4.2,15.9-4.2l1.1,0.1l-0.1,1.1  c0,0-0.5,5.2-0.7,6.8c-0.4,3.2-2.2,5.2-4,7.2c-2.6,3-5.3,6-4.3,13.3c1.8,12.8,23.6,48.2,40.2,65.4c6.9,7.2,23.8,22.2,64.8,53.3  c1,0.8,1.6,1.2,1.9,1.5l-1.3,1.6c-0.3-0.2-0.9-0.7-1.9-1.4c-41.1-31.2-58.1-46.3-65-53.6C96,377.3,73.9,341.3,72,328.2  c-1.2-8.2,2-11.8,4.8-15c1.7-1.9,3.2-3.6,3.5-6.1c0.1-1.1,0.4-4.1,0.6-5.7c0,0,0,0-0.1,0c-2.7,0-9.5,0.4-13.3,3.7  c-2.3,2-3.1,3.8-4.5,6.9c-1.6,3.5-4.1,8.8-10.3,17.7c-4,5.7-6.7,9.7-8.8,12.9c-3.9,5.9-5.7,8.6-9.6,12.3c-0.9,0.9-1.9,3.6-2,8.9  c-0.4,19,10.3,52.8,41.7,85.2L72.5,450.4z"
   id="path3263" />
<path
   class="st0"
   d="M1.4,378.3l-0.4-2c8-1.6,21.5-16.8,25.7-22.8c1.7-2.4,3.5-3.7,5.5-3.8c2.5-0.2,4.2,1.5,4.3,1.5l-1.5,1.5  c0,0-1.2-1.1-2.7-0.9c-1.3,0.1-2.7,1.1-4,3C24.5,360.1,10.5,376.6,1.4,378.3z"
   id="path3265" />
<path
   class="st0"
   d="M38.9,451c-0.2-0.2-19.3-16.5-38.6-49.5l1.8-1c19.2,32.7,38,48.8,38.2,49L38.9,451z"
   id="path3267" />
<path
   class="st0"
   d="M331.3,449.1c-7.5-5.5-24.5-15.7-24.7-15.8l1.1-1.8c0.2,0.1,17.3,10.3,24.9,15.9L331.3,449.1z"
   id="path3269" />
<path
   class="st0"
   d="M115.4,229.6c-2.5,0-6.5-1.1-10.5-6.5c-2.6-3.7-6.8-5.5-11.5-7.6c-5.3-2.4-11.3-5.1-16.3-11.1  c-9.2-11.2-18.6-54.8-18.2-64.2c0.2-3.7,1.9-6.7,4.9-8.4c4.7-2.7,11.8-1.9,19.2,2c12.3,6.5,26.2,40.7,26.8,42.2l-1.8,0.9  c-2.8-4.7-7.8-11.2-9.9-11.2l0,0c-0.1,0-0.3,0-0.6,0.5c-0.5,1-1.4,2.3-2.3,3.8c-3.8,5.9-9.5,14.9-5.6,19.9c2.9,3.6,6.8,5.7,10.8,7.8  c3.3,1.7,6.7,3.5,9.7,6.3c4.2,3.9,7.4,5,8.1,4.5c0.3-0.2,0.5-1.6-1.4-5.6c-5.3-10.6-5.1-21.9-1.7-25.8l1.6,1.4  c-3,3.4-2.9,13.9,2,23.6c2.1,4.3,2.4,6.9,0.8,8.1c-2.3,1.8-7.2-1.4-10.7-4.6c-2.8-2.6-6-4.3-9.2-6c-4.1-2.1-8.3-4.4-11.5-8.3  c-4.9-6.1,1.3-15.9,5.4-22.3c0.9-1.5,1.7-2.7,2.2-3.7c0.7-1.3,1.6-1.6,2.3-1.6c1.8-0.1,3.9,1.8,6,4.1c-5.1-10.8-14-27.9-21.9-32.1  c-6.7-3.6-13.1-4.3-17.2-2c-2.4,1.4-3.7,3.7-3.9,6.7c-0.5,9,8.9,52.2,17.7,62.8c4.6,5.6,10.2,8.1,15.5,10.5  c4.8,2.2,9.4,4.2,12.3,8.3c5.3,7.4,10.5,5.5,10.7,5.4l0.8,1.9C117.9,229.2,116.9,229.6,115.4,229.6z"
   id="path3271" />
<path
   class="st0"
   d="M298.8,94.7c0,0,7,4.9,4.4,7.7c-2.6,2.8-5.1,6.3-6.1,6c-1.1-0.4-10.3-3.2-14.9-7.1c-4.5-3.9-20.1-8.8-25.7-9.9  s-22.9-6.3-28.9-3.9c-6,2.5,4.2-8.5,17.3-6.3C257.8,83.4,289.5,87.6,298.8,94.7z"
   id="path3273" />
<path
   class="st0"
   d="M364.5,116.9c0,0-3.4,5.3-2.1,8.1c1.3,2.8,6.2-3.5,15.4-2.5c9.2,1.1,14.2,3.2,14.2,3.2s-1.3-10.9-1.7-12.6  C389.8,111.4,371,112.3,364.5,116.9z"
   id="path3275" />
<path
   class="st0"
   d="M341,292.5c0,0-3.5-10.6-12.1-10c-8.5,0.6-13.1-8.2-33.3-1.6c-20.2,6.6-29.6,8.6-29.6,8.6s2.3,5.4,16.7,14.3  c14.4,8.9,44.6,9.5,51.7,1.7C341.5,297.7,343.7,297.5,341,292.5z M288.7,284.9L288.7,284.9c1.8-0.6,3.7-1.2,5.7-1.8  c20.2-6.6,24.7,2.2,33.3,1.6c8.5-0.6,12.1,10,12.1,10S305.8,289.9,288.7,284.9z"
   id="path3277" />
<path
   class="st0"
   d="M308.3,325.7L308.3,325.7c-7.5,0-14.7-1.5-19.8-4.2c-17.5-9.2-23.3-30.8-23.5-31.7l-0.2-0.8l0.7-0.4  c1.2-0.7,29.8-16.9,44.5-18.3c2.1-0.2,4.1-0.3,5.9-0.3c6.7,0,10.4,1.4,13.3,2.6c1.5,0.6,2.7,1.1,4.1,1.3c5.7,1,9.2,17.9,9.9,21.3  c1.1,7.7-0.6,14.2-5.1,19.4C332.1,321.5,320.9,325.7,308.3,325.7z M267.2,290c1.2,3.9,7.4,21.8,22.2,29.7c4.8,2.5,11.7,4,18.8,4l0,0  c12,0,22.6-3.9,28.3-10.5c4.1-4.7,5.7-10.7,4.6-17.7c-1.5-7.8-5-19-8.2-19.6c-1.6-0.3-3-0.8-4.5-1.4c-2.9-1.1-6.3-2.4-12.6-2.4  c-1.8,0-3.7,0.1-5.7,0.3C297.2,273.6,271.8,287.4,267.2,290z"
   id="path3279" />
<path
   class="st0"
   d="M250.5,288.6l-2-0.5c0.3-1,6.8-25.5,20.2-39.8c13.2-14.1,35.4-44.1,35.6-44.4l1.7,1.2  c-0.2,0.3-22.5,30.4-35.8,44.5C257.2,263.6,250.6,288.4,250.5,288.6z"
   id="path3281" />
<path
   class="st0"
   d="M353,298.4l-1.8-1.1c9-15.2-1.9-47.6-2-48l1.9-0.7C351.6,250,362.5,282.4,353,298.4z"
   id="path3283" />
</svg>