<?xml version="1.0" encoding="UTF-8" standalone="no"?>
<!-- Generator: Adobe Illustrator 19.2.0, SVG Export Plug-In . SVG Version: 6.00 Build 0)  -->

<svg
   xmlns:dc="http://purl.org/dc/elements/1.1/"
   xmlns:cc="http://creativecommons.org/ns#"
   xmlns:rdf="http://www.w3.org/1999/02/22-rdf-syntax-ns#"
   xmlns:svg="http://www.w3.org/2000/svg"
   xmlns="http://www.w3.org/2000/svg"
   xmlns:sodipodi="http://sodipodi.sourceforge.net/DTD/sodipodi-0.dtd"
   xmlns:inkscape="http://www.inkscape.org/namespaces/inkscape"
   version="1.1"
   id="Layer_1"
   x="0px"
   y="0px"
   width="800px"
   height="450px"
   viewBox="0 0 800 450"
   style="enable-background:new 0 0 800 450;"
   xml:space="preserve"
   inkscape:version="0.48.3.1 r9886"
   sodipodi:docname="overlay__Close Up 6.svg"><metadata
   id="metadata3552"><rdf:RDF><cc:Work
       rdf:about=""><dc:format>image/svg+xml</dc:format><dc:type
         rdf:resource="http://purl.org/dc/dcmitype/StillImage" /></cc:Work></rdf:RDF></metadata><defs
   id="defs3550" /><sodipodi:namedview
   pagecolor="#ffffff"
   bordercolor="#666666"
   borderopacity="1"
   objecttolerance="10"
   gridtolerance="10"
   guidetolerance="10"
   inkscape:pageopacity="0"
   inkscape:pageshadow="2"
   inkscape:window-width="640"
   inkscape:window-height="480"
   id="namedview3548"
   showgrid="false"
   inkscape:zoom="0.405"
   inkscape:cx="400"
   inkscape:cy="225"
   inkscape:window-x="123"
   inkscape:window-y="24"
   inkscape:window-maximized="0"
   inkscape:current-layer="Layer_1" />
<style
   type="text/css"
   id="style3518">
	.st0{fill:#FAAF40;stroke:#FAAF40;stroke-width:2;stroke-miterlimit:10;}
</style>
<path
   class="st0"
   d="M561.6,167.9c0,0-6.7,4.4-1.5,12s14.5,5.9,19-4.6C579.2,175.3,566.7,167.4,561.6,167.9z"
   id="path3520" />
<path
   class="st0"
   d="M471.7,147.3c0,0-1.4,11.6,7.9,10.7c9.3-0.9,9.3-8.2,9.3-8.2S485.2,144.2,471.7,147.3z"
   id="path3522" />
<path
   class="st0"
   d="M508.5,132.7c0,0-0.6-9.8-16-12.4s-26,2.3-31.6,8.3c-5.7,6,3.6,1.6,7.2,0.3s20.1-1.3,25.2,3.9  C498.3,137.9,504.5,134.3,508.5,132.7z"
   id="path3524" />
<path
   class="st0"
   d="M561.6,142c0,0-5.1,0.8-3.5,6.5c1.7,5.7,12.1,2.7,21,6.2c13.5,5.3,27.2,21.6,27.2,21.6s3.1-1.4,0-7.1  C603.3,163.5,581.8,135.4,561.6,142z"
   id="path3526" />
<path
   class="st0"
   d="M497.5,226c0,0,7.1-4.4,13.8,0c6.7,4.4,3.9,4.3,3.9,4.3S498.4,229.9,497.5,226z"
   id="path3528" />
<path
   class="st0"
   d="M602.6,213.2c13.8,4.4,19.2-2.8,19.2-2.8L633,197l2.6,5.3l-12.8,14.2c-4.1,7.4-20,6-23.2,4.6"
   id="path3530" />
<path
   class="st0"
   d="M519.5,196c0,0-22-3.2-32.2-8.9L486,192c0,0,19.8,8.1,32.5,7.8L519.5,196z"
   id="path3532" />
<polyline
   class="st0"
   points="431.6,163.1 454.9,135.4 453.8,143.1 429,172.4 "
   id="polyline3534" />
<path
   class="st0"
   d="M798.6,367.6c-18-2.8-58.4-39.5-60-41c-0.7-1.6-1.4-2.7-1.7-3.1c-7.6-26.7-6-58.9-3.4-87s-5-133.5-33.3-170.9  c-28.4-37.7-62.9-57.1-91.7-52.3l0.3-0.7c-1.3-0.5-32.1-12.6-90.4,12.8c-51.8,22.5-56.1,30.9-76.9,71.3c-2.9,5.6-6.1,11.8-9.8,18.8  c-6.3,11.9-12,22.2-17.1,31.3c-19.3,34.7-30.9,55.7-35.4,93.8c-0.9,7.6-3.6,30.6,4.6,48.1c8.7,18.5,9,27.5,4.9,38  c-4.9,1.9-53.2,20.4-68.8,27.6c-12.4,5.7-23.6,37.9-33.5,66.3c-3.7,10.6-7.1,20.5-10.4,28.4l1.9,0.8c3.3-7.9,6.8-17.9,10.5-28.5  c9.7-28,20.8-59.8,32.4-65.1c14.4-6.6,56.5-22.8,66.8-26.8c-1.4,3.2-3.2,6.5-5.2,10.3l-0.2,0.4c-11.7,22-18.7,64.6-9.9,90.5  c3,9,7.7,14.9,13.8,17.7l0.9-1.9c-5.6-2.5-9.9-8.1-12.7-16.5c-8.6-25.3-1.8-67.2,9.8-88.8l0.2-0.4c9.6-18.1,14-26.3,1.6-52.8  c-8-16.9-5.3-39.5-4.4-46.9c4.4-37.7,15.3-57.3,35.1-93c5.1-9.1,10.8-19.5,17.1-31.4c3.7-7,6.9-13.2,9.8-18.8  c21-40.7,24.8-48.1,75.9-70.3C568.3,6.2,598,11.8,606,14.1c-1.5,0.3-3,0.7-4.4,1.2l-5.2,1.6c-18.8,5.9-30.2,9.5-34.1,17.6  c-2.3,4.8-1.9,10.7,1.3,19.3c0.9,2.5,1.8,4.6,2.6,6.5c-3.1,0.9-5.6,1.7-7.6,2.4c-7.3,2.6-9.7,3.5-24.8-3  c-20.4-8.7-32.3-0.2-32.8,0.1l-0.2,0.2c-1.5,1.8-36.9,45.3-43.1,63.9c-2.1,6.2-3.7,11.9-5.2,16.9c-2.2,7.6-4.2,14-6.6,19.9  c-1-0.4-2-0.9-3-1.4c-4.6-2.3-9.4-0.8-12.3,3.9c-3.3,5.3-3.3,13-0.1,19.6c1.1,2.2,2.2,4,3.5,5.6c-5.6,16.7-10.6,39.1-9,59  c2.5,29.6,4.8,57.5,25.2,74.1c1.3,1,2.5,2.1,3.8,3.1c5.6,4.6,10.8,9,16.9,12.1c1.1,3.3,8.1,23.9,12.5,39.5  c4.7,16.7-3.4,44.6-3.4,44.9l-0.2,0.6l0.4,0.4c12.7,14,14.2,25.3,14.2,25.4l2.1-0.2c-0.1-0.5-1.5-11.7-14.3-26.1  c0.6-2.3,3-11.1,4.2-21.2c4.2,6,19.8,25.7,44.2,27.3c1.1,0.1,2.3,0.1,3.4,0.1c18.2,0,37.1-10,56.3-29.6  c-8.2,12.2-15.2,26.9-12.6,38.7c1.3,6,5.1,10.7,11.1,13.9l1-1.8c-5.5-2.9-8.9-7.1-10.1-12.5c-2.4-10.8,4-26.8,18-45  c1.9-2.4,3.5-4.8,5-7.2l0,0l0,0c9.2-14.6,12.4-28.5,15.7-43c1.4-6.3,2.9-12.9,4.9-19.7c6.4-21.7,2.1-30.4,0.3-32.8  c1.2-1.5,2.4-3.1,3.7-4.8c0.1-0.2,0.4-0.6,1.7-3.1c0.2-0.4,0.5-0.9,0.7-1.3c0.8,5.3,4.5,7.2,4.8,7.4c7.7,2.7,14.6-2.2,20.4-14.5  c0.7-1.5,1.6-3.3,2.7-5.4c7.7-15.3,20.6-41,10.5-50.1c-6.2-5.6-13.4-5.1-18.8-3.6c-15.3-5.2-18.8-23.8-23.6-49.5  c-1.3-7-2.7-14.3-4.5-22c-1.2-5.3-2.2-9.7-3-13.7c-5-23.6-5.6-26-23.5-43.4c-8.3-8-13.2-10.8-16.9-12.9c-5.3-3-7.2-4.2-12.5-18.4  c-3-7.9-3.4-13.6-1.3-17.7c3.6-7.3,15.2-11,32.9-16.5l5.2-1.7c29.3-9.3,66.3,9.9,96.5,49.9c27.9,37,35.5,141.6,32.9,169.5  c-2.6,28.3-4.3,60.9,3.5,87.9l0.2,0.3c0.2,0.2,15.6,21-14.4,53.1c-16.6,17.7-17.4,33-18.1,45.3c-0.6,10.7-1,18.4-11.9,23.2l0.8,1.9  c12-5.3,12.5-13.9,13.1-24.9c0.7-12,1.5-26.8,17.6-44c20.6-22.1,20.4-39.2,17.9-48.4c9.9,8.9,42,36.5,58.2,38.9L798.6,367.6z   M432.3,181.5c-3.4-6.7-2.4-13.7,0-17.6c1.6-2.6,3.8-4,6.2-4c1.1,0,2.2,0.3,3.4,0.9c1,0.5,2.1,1,3.1,1.4c-0.7,1.6-1.4,3.1-2.3,4.6  c-2.2,4-5.1,10.6-7.9,18.8C433.9,184.4,433,183.1,432.3,181.5z M481.9,198.5c-3.9,4.1-10,4.9-17.7,2.2c-2.7-0.9-5.2-1.8-7.5-2.5  c-9.6-3.1-15.8-5.2-20.6-10.6c2.9-8.6,6-15.6,8.2-19.7c0.8-1.6,1.6-3.2,2.3-4.8c4.1,1.7,8.4,3,12.3,4.3c4.2,1.3,7.8,2.5,10.4,3.7  c0.2,0.1,16.3,7.4,16.6,15.4C486.3,190,485.3,195.1,481.9,198.5z M621.1,320.2c-2,6.9-3.5,13.5-5,19.9c-3.2,14.3-6.4,28-15.3,42.3  c-24.2,29.8-47.9,44.1-70.2,42.6c-27.5-1.9-43.6-27.8-43.8-28.1l-0.3,0.2c0.7-7.4,0.7-15.2-1.1-21.7c-3.9-13.8-9.8-31.5-11.9-37.8  c5.5,2.4,11.8,3.8,19.8,3.8c11.9,0,27.4-3.2,49.4-11.3c9.3-3.4,17.3-6.3,24.2-8.8c32.9-11.8,41.7-15,55.3-31.6  C623.6,292.3,626.9,300.7,621.1,320.2z M576.8,73c3.5,2,8.4,4.8,16.5,12.6c17.5,16.9,18,19.3,22.9,42.3c0.8,3.9,1.8,8.4,3,13.7  c1.7,7.7,3.1,14.9,4.4,22c4.7,25.1,8.3,43.6,22.7,50.1c-2.9,1.2-4.8,2.4-4.8,2.5l1.2,1.7c0.6-0.4,13.9-9.2,24.1-0.1  c8.9,8-4,33.8-11,47.6c-1.1,2.1-2,3.9-2.7,5.5c-5.4,11.3-11.2,15.7-17.7,13.5c-0.2-0.1-4.5-2.4-3.6-9.3l0.1-0.9l-0.8-0.3  c-0.9-0.3-0.9-0.3-3.9,5.3c-0.7,1.3-1.4,2.7-1.6,2.9c-16.6,21.9-22.3,24-59.4,37.3c-6.9,2.5-14.9,5.3-24.2,8.8  c-55.5,20.6-69.2,9.1-86.7-5.5c-1.2-1-2.5-2.1-3.8-3.1c-19.7-16.1-22-43.6-24.4-72.7c-1.6-19.2,3.1-40.7,8.5-57  c4.9,5.1,11.3,7.2,20.7,10.3c2.3,0.8,4.8,1.6,7.5,2.5c3.2,1.1,6.2,1.7,8.9,1.7c3,0,5.8-0.7,8.1-2.1c-1.4,2.3-2.4,4.5-2.9,6.7  c-1,0.5-3.6,2.2-4.5,5.2c-0.8,2.7-0.1,5.8,2.1,9.1l1.7-1.1c-1.8-2.8-2.5-5.2-1.8-7.3c0.4-1.3,1.2-2.3,2-3c-0.1,1.1-0.1,2.3,0,3.3  c0.6,4.9,3.8,9.1,9.4,12.6l1.1-1.8c-5.1-3.1-7.9-6.8-8.5-11.1c-0.7-5.4,2.3-11.9,8.7-18.7c10.7-11.3,21.4-32.4,21.5-32.6l-1.8-0.9  c-0.1,0.2-10.4,20.3-20.6,31.5c1-2.7,1.3-5.5,1.2-7.8c-0.4-9.2-17.1-16.8-17.8-17.1c-2.7-1.3-6.4-2.5-10.6-3.8  c-3.8-1.2-8-2.6-12.1-4.2c2.5-5.9,4.4-12.4,6.7-20.1c1.5-5,3.2-10.7,5.2-16.8c5.9-17.8,40.6-60.6,42.6-63.1  c1.1-0.8,12.3-7.7,30.6,0.2c15.8,6.8,18.7,5.7,26.3,3c2.1-0.8,4.5-1.6,7.7-2.5C570.2,69.1,572.5,70.5,576.8,73z"
   id="path3536" />
<path
   class="st0"
   d="M547.2,173l1.9,0.8c0.1-0.3,2.9-6.8,16-4.2c14.8,3,23.7,18.3,23.8,18.4l1.8-1c-0.4-0.7-9.4-16.3-25.2-19.5  C550.7,164.6,547.3,172.7,547.2,173z"
   id="path3538" />
<path
   class="st0"
   d="M458.6,146.4l0.5,2c29.4-7,37.1,11.1,37.4,11.9l1.9-0.8C498.4,159.4,489.8,139,458.6,146.4z"
   id="path3540" />
<path
   class="st0"
   d="M495.5,255.1c-5.8-0.3-10.7-1.8-14.7-4.3c-1.4-0.9-3.1-1.4-5-1.4c-8.8,0-19.3,10.4-19.7,10.8l-0.4,0.4l0.1,0.5  c2,17.7,16.4,27.4,41.7,28.1c0.8,0,1.6,0,2.4,0c21.5,0,28.9-8.2,29.2-8.6l0.6-0.7l-0.5-0.7C521.9,270.4,502,255.4,495.5,255.1z   M497.5,287c-16.7-0.5-37-5.3-39.6-25.7c1.9-1.8,10.8-9.9,17.9-9.9c1.5,0,2.8,0.4,3.9,1.1c4.3,2.7,9.5,4.3,15.7,4.6  c5.4,0.3,23.7,13.6,31.4,22.7C524.6,281.7,516.3,287.5,497.5,287z"
   id="path3542" />
<path
   class="st0"
   d="M476.8,257.5c-4.8,0-9.2,1.3-13.3,3.8l-0.7,0.4l0.2,0.8c0.1,0.5,3.5,11.3,25.8,15.1c7.5,1.3,13.3,2,17.3,2  c3.9,0,6-0.7,6.2-1.9l0.1-0.5l-0.3-0.4C511.4,276,495,257.5,476.8,257.5z M506,277.5c-3.9,0-9.6-0.6-17-1.9  c-17.6-3-22.6-10.6-23.8-12.9c3.5-2,7.4-3.1,11.5-3.1c15,0,29.3,13.9,32.9,17.6C509,277.3,507.9,277.5,506,277.5z"
   id="path3544" />
<path
   class="st0"
   d="M525.5,186.9c-5.1,0-7.6,3.2-7.8,9.8c-0.1,5.4,0.4,10.9,4.5,16.1l-0.3,0.4c0.4,0.3,10.2,8.2,1.8,21.7l1.8,1.1  c4.8-7.7,4.1-13.9,2.3-18.1c5.4,3.7,13.5,7.1,25.7,9.9c14.3,3.3,23.1,4.7,29.7,4.7l0,0c11.1,0,16.6-4.1,19.4-14.6  c0.4-0.8,3.9-7.9,2.1-11.8c-0.6-1.2-1.6-2-2.9-2.3c-2.7-0.6-66-15.4-71.4-16.3C528.8,187.2,527.1,186.9,525.5,186.9z M602.9,207  c1.2,2.5-1.1,8-2.1,10.1c-2.7,9.8-7.3,13.3-17.5,13.3l0,0c-6.4,0-15.1-1.4-29.2-4.6c-34.7-8-34.4-20.1-34.2-29  c0.2-6.8,2.8-7.8,5.7-7.8c1.4,0,3,0.3,4.6,0.5c5.3,0.9,70.6,16.1,71.3,16.3C602.1,206,602.6,206.4,602.9,207z"
   id="path3546" />
</svg>