<?xml version="1.0" encoding="UTF-8" standalone="no"?>
<!-- Generator: Adobe Illustrator 19.2.0, SVG Export Plug-In . SVG Version: 6.00 Build 0)  -->

<svg
   xmlns:dc="http://purl.org/dc/elements/1.1/"
   xmlns:cc="http://creativecommons.org/ns#"
   xmlns:rdf="http://www.w3.org/1999/02/22-rdf-syntax-ns#"
   xmlns:svg="http://www.w3.org/2000/svg"
   xmlns="http://www.w3.org/2000/svg"
   xmlns:sodipodi="http://sodipodi.sourceforge.net/DTD/sodipodi-0.dtd"
   xmlns:inkscape="http://www.inkscape.org/namespaces/inkscape"
   version="1.1"
   id="Layer_1"
   x="0px"
   y="0px"
   width="800px"
   height="450px"
   viewBox="0 0 800 450"
   style="enable-background:new 0 0 800 450;"
   xml:space="preserve"
   inkscape:version="0.48.3.1 r9886"
   sodipodi:docname="overlay__Close Up 2.svg"><metadata
   id="metadata3350"><rdf:RDF><cc:Work
       rdf:about=""><dc:format>image/svg+xml</dc:format><dc:type
         rdf:resource="http://purl.org/dc/dcmitype/StillImage" /></cc:Work></rdf:RDF></metadata><defs
   id="defs3348" /><sodipodi:namedview
   pagecolor="#ffffff"
   bordercolor="#666666"
   borderopacity="1"
   objecttolerance="10"
   gridtolerance="10"
   guidetolerance="10"
   inkscape:pageopacity="0"
   inkscape:pageshadow="2"
   inkscape:window-width="640"
   inkscape:window-height="480"
   id="namedview3346"
   showgrid="false"
   inkscape:zoom="0.405"
   inkscape:cx="400"
   inkscape:cy="225"
   inkscape:window-x="81"
   inkscape:window-y="24"
   inkscape:window-maximized="0"
   inkscape:current-layer="Layer_1" />
<style
   type="text/css"
   id="style3292">
	.st0{fill:#FAAF40;stroke:#FAAF40;stroke-miterlimit:10;}
</style>
<path
   class="st0"
   d="M722.9,332.8c-0.3-0.5-6.8-13.2-7.7-42c-0.9-29.8,1.8-61.7,6.7-77.6l2,0.6c-4.8,15.7-7.5,47.4-6.6,77  c0.9,28.2,7.4,40.9,7.4,41.1L722.9,332.8z"
   id="path3294" />
<path
   class="st0"
   d="M517.6,447.7c0,0-4-20.9-6.3-32.3c-2.2-11-12-20.6-12.1-20.7l1.4-1.5c0.4,0.4,10.3,10.2,12.6,21.8  c2.3,11.4,6.3,32.3,6.3,32.3L517.6,447.7z"
   id="path3296" />
<path
   class="st0"
   d="M736.5,122.6c-0.2-11.4-7.4-33.8-7.5-34c-6-21.7-32.8-62.9-61.8-87.4l1.3-1.6C697.8,24.3,725,66,731,88  c0.3,0.9,7.3,22.9,7.6,34.6H736.5z"
   id="path3298" />
<path
   class="st0"
   d="M511,395.3c-4.5,0-8.7-0.1-12.5-0.3c-4.8-0.2-8.9-0.3-12.3-0.1c-23.8,1.2-35.3-41.2-42.2-66.5  c-1.4-5.1-2.6-9.5-3.6-12.4c-5.6-16.1-17.6-74.1-21.6-93.2l-0.3-1.6c-1.8-8.5-1.2-16.7-0.6-24c0.6-8.3,1.1-15.5-1.7-21.6  c-5.8-12.5-12-43.9-10.3-57.7c1.8-14.1,9.9-36,10-36.3h0.1c2-4.5,26.9-54.3,79.2-82.3l1,1.8C442.6,29.9,418,82,417.7,82.6  c-0.1,0.1-8,21.8-9.8,35.7c-1.7,13.6,4.4,44.4,10.1,56.6c3,6.5,2.5,14.3,1.9,22.6c-0.5,7.5-1.1,15.2,0.6,23.4l0.3,1.6  c3.9,19,15.9,77,21.5,92.9c1,2.9,2.2,7.4,3.6,12.5c6.2,22.8,17.7,65,39.3,65c0.3,0,0.5,0,0.8,0c3.6-0.2,7.7,0,12.5,0.1  c23.5,0.8,62.9,2.2,106.2-35.3c47.5-41.2,54.5-70.8,59.7-92.5c0.7-2.9,1.3-5.6,2.1-8.2l0.2-0.4c0.3-0.4,7.2-9.2,28.3-18.5  c17.7-7.9,33.4-29.8,46.5-65.1c7-18.8,6.2-37.4-2.1-47.4c-4.9-5.9-11.9-8.3-20.3-6.9c-23.5,3.9-25.2,9.7-25.2,9.7l-2-0.3  c0.1-0.7,1.7-7.3,26.9-11.4c9.2-1.5,16.9,1.1,22.2,7.6c8.7,10.6,9.7,30,2.4,49.5c-13.5,36.4-29.1,58.1-47.6,66.3  c-19,8.4-26.4,16.6-27.4,17.7c-0.7,2.5-1.3,5.1-2,8c-5.2,21.9-12.4,52-60.3,93.5C569.2,391.2,535.1,395.3,511,395.3z"
   id="path3300" />
<path
   class="st0"
   d="M505,148.7l-1.7-1.1c0.3-0.4,6.6-9.7,16.2-10.4c8.3-0.6,20.1,2.5,27.2,4.3c1,0.3,1.9,0.5,2.7,0.7l-0.5,2  c-0.8-0.2-1.7-0.4-2.7-0.7c-6.9-1.8-18.6-4.8-26.5-4.3C511,139.8,505.1,148.6,505,148.7z"
   id="path3302" />
<path
   class="st0"
   d="M512.5,140.4c0,0-1.5,13.2,8.8,13.5s13.6-5,12.3-14.5C533.7,139.4,524,135.8,512.5,140.4z"
   id="path3304" />
<path
   class="st0"
   d="M518.2,155.4c-6.6,0-10.4-1.7-10.7-1.9l0.9-1.9c0.1,0.1,11.5,5.2,29.7-3.1l0.9,1.9  C530.5,154.3,523.4,155.4,518.2,155.4z"
   id="path3306" />
<path
   class="st0"
   d="M419.6,164.4L418,163c12.2-13.5,30.6-8.7,30.8-8.6l-0.5,2C448.1,156.3,430.9,151.8,419.6,164.4z"
   id="path3308" />
<path
   class="st0"
   d="M424.2,159.1c0,0-1,11.3,9.5,11.7c0,0,10.1-1,6.9-16.3C440.6,154.5,433.1,153.3,424.2,159.1z"
   id="path3310" />
<path
   class="st0"
   d="M427.7,172.1c-2.2,0-3.6-0.3-3.7-0.3l0.4-2c0.1,0,9.1,1.8,19.7-4.6l1.1,1.8  C437.9,171.3,431.5,172.1,427.7,172.1z"
   id="path3312" />
<path
   class="st0"
   d="M448.2,247.8c-18.3-6.2-14.5-25.6-12.8-31.4c1-3.7,3.5-12.1,6.2-21c3.2-10.8,6.9-23.1,8.3-28.4  c2.6-9.5,4.6-18.9,4.7-19l2,0.4c0,0.1-2.1,9.5-4.7,19.1c-1.5,5.3-5.1,17.6-8.3,28.5c-2.6,8.9-5.2,17.3-6.2,21  c-1.5,5.4-5.1,23.3,11.5,28.9L448.2,247.8z"
   id="path3314" />
<path
   class="st0"
   d="M496.1,242.3l-1-1.8c5.4-3.1,8.3-9.2,7.9-16.4c-0.4-7.9-16-12.3-16.2-12.3l0.6-2c0.7,0.2,17.2,4.9,17.7,14.2  C505.5,231.9,502.1,238.8,496.1,242.3z"
   id="path3316" />
<path
   class="st0"
   d="M487.1,241.4c0,0-10.1-7.3-16.9-4.6C463.3,239.5,469.7,246.9,487.1,241.4z"
   id="path3318" />
<path
   class="st0"
   d="M457.8,246.4c0,0-4.8-6.2-9.3-3.5C444.1,245.6,447.4,250.7,457.8,246.4z"
   id="path3320" />
<path
   class="st0"
   d="M492.5,448.2c-3.4-23.5,0.5-53.9,0.5-54.2l2,0.3c0,0.3-3.8,30.4-0.5,53.7L492.5,448.2z"
   id="path3322" />
<path
   class="st0"
   d="M726.2,448.2l-1.5-1.4c31.4-32.3,42.1-66.2,41.7-85.3c-0.1-5.2-1.1-8-2-8.9c-3.9-3.7-5.7-6.4-9.6-12.3  c-2.1-3.2-4.8-7.2-8.8-12.9c-6.2-8.9-8.7-14.1-10.3-17.7c-1.4-3-2.2-4.9-4.5-6.9c-3.8-3.4-10.6-3.7-13.3-3.7c0,0,0,0-0.1,0  c0.2,1.6,0.4,4.5,0.6,5.7c0.3,2.5,1.8,4.2,3.5,6.1c2.8,3.2,6,6.7,4.8,15c-1.9,13.1-24,49.2-40.8,66.6c-7,7.2-23.9,22.4-65,53.6  c-1,0.7-1.6,1.2-1.9,1.4l-1.3-1.6c0.3-0.2,0.9-0.7,1.9-1.5c41-31.1,57.9-46.2,64.8-53.3c16.6-17.2,38.4-52.7,40.2-65.4  c1-7.3-1.7-10.4-4.3-13.3c-1.8-2-3.6-4.1-4-7.2c-0.2-1.6-0.7-6.8-0.7-6.8l-0.1-1.1l1.1-0.1c0.4,0,10.4-0.6,15.9,4.2  c2.6,2.3,3.6,4.4,5,7.5c1.7,3.6,4,8.6,10.1,17.3c4,5.7,6.7,9.7,8.8,12.9c4,6,5.6,8.4,9.3,11.9c1.6,1.5,2.6,5.2,2.7,10.3  C768.9,381,758.1,415.4,726.2,448.2z"
   id="path3324" />
<path
   class="st0"
   d="M797.4,376.2c-9.1-1.8-23.2-18.2-27-23.7c-1.3-1.8-2.6-2.8-4-3c-1.5-0.1-2.7,0.9-2.7,0.9l-1.5-1.5  c0.1-0.1,1.8-1.8,4.3-1.5c2,0.2,3.8,1.5,5.5,3.8c4.3,6.1,17.7,21.3,25.7,22.8L797.4,376.2z"
   id="path3326" />
<path
   class="st0"
   d="M759.8,448.9l-1.3-1.6c0.2-0.2,19-16.3,38.2-49l1.8,1C779.1,432.4,760,448.7,759.8,448.9z"
   id="path3328" />
<path
   class="st0"
   d="M467.4,447l-1.2-1.7c7.6-5.6,24.7-15.8,24.9-15.9l1.1,1.8C492,431.3,474.9,441.4,467.4,447z"
   id="path3330" />
<path
   class="st0"
   d="M683.4,227.4c-1.6,0-2.6-0.4-2.7-0.5l0.8-1.9c0.2,0.1,5.3,2,10.7-5.4c3-4.1,7.5-6.2,12.3-8.3  c5.4-2.4,10.9-4.9,15.5-10.5c8.7-10.6,18.2-53.8,17.7-62.8c-0.2-3-1.5-5.4-3.9-6.7c-4.1-2.3-10.5-1.6-17.2,2  c-7.8,4.2-16.8,21.3-21.9,32.1c2-2.3,4.1-4.2,6-4.1c0.7,0,1.7,0.3,2.3,1.6c0.5,1,1.3,2.2,2.2,3.7c4.1,6.4,10.3,16.2,5.4,22.3  c-3.2,4-7.4,6.2-11.5,8.3c-3.2,1.7-6.5,3.4-9.2,6c-3.5,3.2-8.4,6.4-10.7,4.6c-1.6-1.2-1.3-3.8,0.8-8.1c4.8-9.7,4.9-20.2,2-23.6  l1.6-1.4c3.5,3.9,3.6,15.3-1.7,25.8c-2,4-1.7,5.4-1.4,5.6c0.6,0.5,3.9-0.6,8.1-4.5c3-2.7,6.4-4.5,9.7-6.3c4.1-2.1,7.9-4.2,10.8-7.8  c4-5-1.8-14-5.6-19.9c-1-1.5-1.8-2.8-2.3-3.8c-0.3-0.5-0.5-0.5-0.6-0.5c-2.1,0-7.2,6.7-10,11.2l-1.8-0.9  c0.6-1.5,14.5-35.6,26.8-42.2c7.3-3.9,14.5-4.6,19.2-2c3,1.7,4.7,4.7,4.9,8.4c0.5,9.4-9,53-18.2,64.2c-4.9,6-11,8.7-16.3,11.1  c-4.8,2.1-8.9,4-11.5,7.6C689.9,226.4,685.9,227.4,683.4,227.4z"
   id="path3332" />
<path
   class="st0"
   d="M500,92.6c0,0-7,4.9-4.4,7.7c2.6,2.8,5.1,6.3,6.1,6c1.1-0.4,10.3-3.2,14.9-7.1c4.5-3.9,20.1-8.8,25.7-9.9  c5.6-1.1,22.9-6.3,28.9-3.9c6,2.5-4.2-8.5-17.3-6.3C540.9,81.2,509.2,85.5,500,92.6z"
   id="path3334" />
<path
   class="st0"
   d="M434.2,114.7c0,0,3.4,5.3,2.1,8.1c-1.3,2.8-6.2-3.5-15.4-2.5c-9.2,1.1-14.2,3.2-14.2,3.2s1.3-10.9,1.7-12.6  C408.9,109.3,427.7,110.1,434.2,114.7z"
   id="path3336" />
<path
   class="st0"
   d="M503.1,278.7c-20.2-6.6-24.8,2.2-33.3,1.6s-12.1,10-12.1,10c-2.7,5-0.4,5.2,6.7,13s37.3,7.2,51.7-1.7  c14.4-8.9,16.7-14.3,16.7-14.3S523.3,285.3,503.1,278.7z M510,282.8c-17.1,4.9-51.1,9.7-51.1,9.7s3.5-10.6,12.1-10  c8.5,0.6,13.1-8.2,33.3-1.6C506.3,281.6,508.2,282.2,510,282.8L510,282.8z"
   id="path3338" />
<path
   class="st0"
   d="M490.4,323.6c-12.6,0-23.8-4.2-29.8-11.2c-4.5-5.2-6.2-11.7-5.1-19.4c0.7-3.4,4.1-20.3,9.9-21.3  c1.4-0.2,2.7-0.7,4.1-1.3c2.9-1.1,6.6-2.6,13.3-2.6c1.8,0,3.8,0.1,5.9,0.3c14.7,1.5,43.3,17.6,44.5,18.3l0.7,0.4l-0.2,0.8  c-0.2,0.9-6,22.5-23.5,31.7C505.1,322,497.9,323.6,490.4,323.6z M482.8,269.9c-6.3,0-9.7,1.3-12.6,2.4c-1.5,0.6-2.9,1.1-4.5,1.4  c-3.2,0.6-6.7,11.8-8.2,19.6c-1,7,0.6,12.9,4.7,17.7c5.7,6.5,16.2,10.5,28.3,10.5c7.2,0,14-1.5,18.8-4c14.9-7.9,21-25.8,22.2-29.7  c-4.6-2.5-29.9-16.4-43-17.7C486.5,270,484.6,269.9,482.8,269.9z"
   id="path3340" />
<path
   class="st0"
   d="M548.2,286.5c-0.1-0.2-6.7-25-19.7-38.9c-13.3-14.2-35.6-44.2-35.8-44.5l1.7-1.2c0.2,0.3,22.5,30.3,35.6,44.4  c13.4,14.3,19.9,38.8,20.2,39.8L548.2,286.5z"
   id="path3342" />
<path
   class="st0"
   d="M445.8,296.2c-9.5-16,1.3-48.3,1.8-49.7l1.9,0.7c-0.1,0.3-11,32.8-2,48L445.8,296.2z"
   id="path3344" />
</svg>