<?xml version="1.0" encoding="UTF-8" standalone="no"?>
<!-- Generator: Adobe Illustrator 19.2.0, SVG Export Plug-In . SVG Version: 6.00 Build 0)  -->

<svg
   xmlns:dc="http://purl.org/dc/elements/1.1/"
   xmlns:cc="http://creativecommons.org/ns#"
   xmlns:rdf="http://www.w3.org/1999/02/22-rdf-syntax-ns#"
   xmlns:svg="http://www.w3.org/2000/svg"
   xmlns="http://www.w3.org/2000/svg"
   xmlns:sodipodi="http://sodipodi.sourceforge.net/DTD/sodipodi-0.dtd"
   xmlns:inkscape="http://www.inkscape.org/namespaces/inkscape"
   version="1.1"
   id="Layer_1"
   x="0px"
   y="0px"
   width="800px"
   height="450px"
   viewBox="0 0 800 450"
   style="enable-background:new 0 0 800 450;"
   xml:space="preserve"
   inkscape:version="0.48.3.1 r9886"
   sodipodi:docname="overlay__Close Up 4.svg"><metadata
   id="metadata3474"><rdf:RDF><cc:Work
       rdf:about=""><dc:format>image/svg+xml</dc:format><dc:type
         rdf:resource="http://purl.org/dc/dcmitype/StillImage" /></cc:Work></rdf:RDF></metadata><defs
   id="defs3472" /><sodipodi:namedview
   pagecolor="#ffffff"
   bordercolor="#666666"
   borderopacity="1"
   objecttolerance="10"
   gridtolerance="10"
   guidetolerance="10"
   inkscape:pageopacity="0"
   inkscape:pageshadow="2"
   inkscape:window-width="640"
   inkscape:window-height="480"
   id="namedview3470"
   showgrid="false"
   inkscape:zoom="0.405"
   inkscape:cx="400"
   inkscape:cy="225"
   inkscape:window-x="87"
   inkscape:window-y="24"
   inkscape:window-maximized="0"
   inkscape:current-layer="Layer_1" />
<style
   type="text/css"
   id="style3390">
	.st0{fill:#FAAF40;stroke:#FAAF40;stroke-miterlimit:10;}
</style>
<path
   class="st0"
   d="M595.2,375.1c-0.1-0.1-3.1-3.7-11.8-20.3c-3-5.7-5.5-11.1-8.2-16.9c-5.2-11-11.1-23.6-21.6-41.4  c-15.3-25.8-11.2-42.7-4.4-57.1c10.1-21.5,12.3-36.6,6.6-44.9c-1.7-2.5-4.3-5.9-7.2-9.8c-10.6-14.3-26.6-35.9-35.2-55.9  c-4.7-10.9-5.7-18.7-3.3-24c2.4-5.1,7.7-6.7,11.5-7.8l0.4-0.1c7.9-2.4,13.1,11.4,13.6,12.9c0.9,1.5,12.6,19.9,20.5,28.1  c8.7,9,15.9,19.2,18.8,26.6c2.8,7,11.3,14.1,11.4,14.2l-1.3,1.6c-0.4-0.3-9-7.5-12-15c-2.8-7.1-10-17.2-18.4-25.9  s-20.3-27.8-20.8-28.6l-0.1-0.2c-1.3-3.8-5.9-13.3-11.1-11.7l-0.4,0.1c-3.7,1.1-8.2,2.5-10.2,6.7c-2.2,4.6-1.1,12.2,3.3,22.3  c8.5,19.8,24.4,41.3,34.9,55.5c2.9,3.9,5.4,7.3,7.2,9.9c6.2,8.9,4,24.7-6.5,46.9c-6.1,12.9-11.3,28.9,4.3,55.1  c10.6,17.9,16.5,30.4,21.7,41.5c2.7,5.7,5.2,11.1,8.2,16.8c8.5,16.3,11.5,19.9,11.5,20L595.2,375.1z"
   id="path3392" />
<path
   class="st0"
   d="M632.2,170.3c-0.6-1.8-24.6-46.9-39.7-57.7c-7.2-5.1-14-10.6-20.1-15.4c-7-5.5-13-10.3-17.4-13  c-7.5-4.5-14.6,6-14.7,6.1l-1.7-1.1c2.8-4.3,10.2-11.2,17.5-6.7c4.5,2.8,10.6,7.6,17.6,13.1c6.1,4.8,12.9,10.2,20,15.3  c15.3,10.9,40.5,57.3,40.5,59.1h-2.1h1L632.2,170.3z"
   id="path3394" />
<path
   class="st0"
   d="M654.1,342.4l-5.1-10.2c-5.8-14.8-3-35.9-1-51.4c0.9-6.5,1.6-12.1,1.6-16.1c0-8,4.2-21.9,7.9-34.2  c2.7-8.8,5.2-17.1,5.2-20.4c0-4.9-4.7-14.1-10.2-24.7c-3.2-6.3-6.5-12.7-9.4-19.3c-8.5-19.3-14.1-29.1-25.1-36.7  c-11.5-7.9-25.3-16.7-25.5-16.8l1.1-1.7c0.1,0.1,14,9,25.5,16.8c11.4,7.8,17.2,17.9,25.9,37.5c2.9,6.6,6.2,13,9.4,19.2  c5.6,10.9,10.4,20.3,10.4,25.6c0,3.6-2.4,11.7-5.3,21c-3.7,12.1-7.8,25.9-7.8,33.6c0,4.1-0.7,9.8-1.6,16.3  c-2,15.2-4.8,36.1,0.8,50.3l5.1,10.1L654.1,342.4z"
   id="path3396" />
<path
   class="st0"
   d="M718.3,448.2c-0.2-0.3-15.5-28.7-29.9-48.1c-13.2-17.8-27.8-50.9-30.3-56.8c-7.6,3-58.9,23.8-64.1,35.5  c-3.8,8.6-2.6,13.1,6.4,23.9c0.7,0.8,2.2,2.3,4.2,4.2c8.3,8.2,25.6,25.1,29.5,39.2l-2,0.6c-3.7-13.5-20.8-30.2-29-38.2  c-2.1-2.1-3.6-3.5-4.3-4.4c-9-10.7-11.2-16-6.7-26.1c5.9-13.3,63.7-36,66.1-37l0.9-0.4l0.4,0.9c0.2,0.4,16.1,38,30.5,57.3  c14.4,19.5,29.9,48.1,30,48.4L718.3,448.2z"
   id="path3398" />
<path
   class="st0"
   d="M601.6,447.8l-2-0.2c1.2-11.9,0.3-21.3-0.4-28.9c-0.6-5.9-1.1-10.9-0.4-15.5l2,0.3c-0.6,4.3-0.1,9.2,0.4,15  C601.9,426.1,602.8,435.7,601.6,447.8z"
   id="path3400" />
<path
   class="st0"
   d="M586.3,446.4c-2.9-10.4-7.3-18-10.9-24.2c-4.5-7.8-7.7-13.4-5.1-19.5c3.5-8.2,15-24,21.6-32.7l0.4-0.5l0.8,0.6  l1-0.4c0.2,0.5,0,0.8-0.5,1.6c-11.1,14.7-18.8,26.5-21.3,32.3c-2.2,5.1,0.7,10.1,5,17.7c3.6,6.2,8.1,14,11.1,24.6L586.3,446.4z"
   id="path3402" />
<path
   class="st0"
   d="M678.7,378.9l-1.7-1.2l17.4-25.1c-0.8-3.3-5.5-23.1-6.1-33.2c-0.5-7.1-6.2-10-9.7-11.1  c2.5,4.3,6.1,14.3-5.2,25.6L663,344.3c-0.9,0.9-1.5,1.5-2,1.9l-0.7-0.7l0.7,0.7l-0.1,0.1l0,0l0,0c-0.8,0.7-1,0.5-1.4,0.1l-0.7-0.7  l0.8-0.9l0,0c0.4-0.4,2.7-2.7,12.4-12.3c13.7-13.7,4-24.6,3.5-25l-1.9-2.1l2.8,0.4c0.1,0,13.2,1.9,14,13.6  c0.7,10.7,6.1,33.1,6.2,33.3l0.1,0.4L678.7,378.9z"
   id="path3404" />
<path
   class="st0"
   d="M797.3,412.6c-44.4-7-59.5-26.5-67.6-36.9c-1.5-2-2.8-3.6-4-4.9c-7.8-8-30.3-16.9-30.6-17l0.7-1.9  c0.9,0.4,23.2,9.1,31.3,17.4c1.3,1.3,2.6,3.1,4.2,5.1c8.5,11,22.8,29.3,66.3,36.2L797.3,412.6z"
   id="path3406" />
<path
   class="st0"
   d="M671.5,333.2c-0.3-6.8-2.3-66.2,5.6-73.6c2.2-2,4.8-4.1,7.9-6.6c8.2-6.5,18.3-14.7,26.7-26.7  c8.9-12.8,9.1-15.5,9.8-22.9c0.2-2.2,0.4-4.7,0.9-8c1-6.7,3.6-29.1-5.3-36.7c-3.1-2.7-7.5-3.2-13-1.5c-22.5,7-27.7,21.8-27.7,21.9  l-0.1,0.3l-3.2,4.4c-0.5,0.7-1.3,1-2.1,0.8c-4.8-1.3-10.7-27.4-11.8-39.9c-0.6-6.7-3.5-12.6-6.8-19.4c-4.5-9.1-10-20.4-12.1-38  c-3.7-30.7-24.4-36.9-44.4-43c-24.4-7.3-64,2.3-85.5,8.7c-28.5,8.5-42.9,35.7-43,36l-0.3,0.6h-0.6c-2.1,0-4.5-2-6.5-5.3  c-3.6-6.1-5.8-16.7-0.2-26.9c1.2-2.2,2.4-4.7,3.7-7.4c7.7-16,19.3-40.1,52.9-51.8l0.7,1.9c-32.8,11.4-44.2,35.1-51.7,50.7  c-1.3,2.7-2.6,5.3-3.8,7.5c-5.2,9.4-3.1,19.2,0.2,24.8c1.5,2.5,3.1,3.9,4.2,4.2C468.4,83,483.1,59,509.9,51  c21.7-6.5,61.7-16.2,86.7-8.7c20.7,6.2,42,12.6,45.9,44.7c2.1,17.2,7.3,27.9,11.9,37.3c3.4,7,6.4,13.1,7,20.1  c1.4,15.5,7.7,37.3,10.3,38.2l3-4.3c0.6-1.7,6.4-16,29-23.1c6.2-2,11.3-1.3,15,1.9c9.7,8.3,7,31.7,6,38.6c-0.5,3.2-0.7,5.7-0.9,7.9  c-0.7,7.5-1,10.6-10.2,23.9c-8.6,12.3-18.8,20.5-27.1,27.2c-3,2.4-5.7,4.5-7.8,6.5c-6.1,5.7-5.6,54-4.9,72.1L671.5,333.2z"
   id="path3408" />
<path
   class="st0"
   d="M675.2,268.3l-0.6-2c16.3-4.6,31.9-16.9,45.1-35.7c8.5-12.1,9.6-21.5,11.4-35.7c1.4-11,3.1-24.6,8.8-44.1  c8.5-28.8,4.7-61.9-11.4-98.5l-0.2-0.6c-4-9-33.2-10.3-44.2-10.1h-1.3l0.2-1.3c0-0.2,4.2-23.5-16.2-39.9l1.3-1.6  c18.7,14.9,17.7,35.4,17.1,40.7c6.9-0.1,40.1,0.2,44.9,11.3l0.2,0.6c16.2,37,20.1,70.7,11.5,99.9c-5.7,19.3-7.4,32.9-8.8,43.8  c-1.8,14-3,24.1-11.8,36.7C708,251,692,263.6,675.2,268.3z"
   id="path3410" />
<path
   class="st0"
   d="M260.2,378.9l-1.7-1.1c2.4-3.7,5.1-9.1,8.1-15.4c8.4-17.1,18.9-38.4,32.6-43.3s34.7-28.2,48.6-43.6  c4.3-4.7,8-8.8,10.7-11.6c6.7-6.7,8.7-14.8,11-24.2c1.6-6.5,3.4-13.8,7-21.4c9.3-19.3,21-33.3,28.5-34.1c5-0.5,5.5-8.1,5.5-11  L380,179c-2.5,1.5-37.3,22.1-38.7,51.5l-2.1-0.1c1.5-31.5,38.3-52.4,39.9-53.3l0.3-0.1l33-6.2l0.1,1.2c0,0.6,0.9,13.6-7.3,14.4  c-6.6,0.7-18.2,14.8-26.9,32.9c-3.5,7.4-5.2,14.3-6.9,21c-2.4,9.7-4.5,18.1-11.5,25.2c-2.7,2.7-6.4,6.8-10.6,11.5  c-14,15.5-35.2,39-49.5,44.1c-12.9,4.6-23.2,25.5-31.4,42.3C265.3,369.6,262.7,375.1,260.2,378.9z"
   id="path3412" />
<path
   class="st0"
   d="M188.3,330.5l-1.5-1.4c0.4-0.5,41.1-45.5,44-61.7c2.2-12.7-3.7-37.4-7.2-52.2c-1.1-4.5-1.9-8-2.3-10.1  c-1.5-9,23-33.1,25.8-35.9l1.4,1.5c-7.4,7.2-26.3,27.3-25.2,34.1c0.3,2,1.2,5.5,2.2,10c3.6,14.9,9.5,39.9,7.2,53  C229.8,284.6,190,328.7,188.3,330.5z"
   id="path3414" />
<path
   class="st0"
   d="M516,336c-8.5,0-14.5-2.7-20.7-5.5c-2.2-1-4.4-2-6.8-2.9c-16.4-6.1-21.3-30.1-25.1-49.4l-0.8-3.8  c-2-9.7-5.5-20-8.8-29.9c-3.2-9.6-6.3-18.7-8.2-27.4c-3.9-18.1-0.1-27.4,0.1-27.8l1.9,0.8c0,0.1-3.7,9.2,0.1,26.6  c1.9,8.6,4.9,17.6,8.1,27.2c3.4,10,6.9,20.3,8.9,30.2l0.8,3.8c3.8,18.8,8.5,42.2,23.8,47.9c2.4,0.9,4.7,1.9,6.9,2.9  c13.5,6.1,26.3,11.9,69.1-13.2l1,1.8C541.8,331.6,526.9,336,516,336z"
   id="path3416" />
<path
   class="st0"
   d="M528,449.5l-0.6-0.9c-1.2-1.7-29.8-42.8-28.8-63.3c0.1-1.8,0.2-3.8,0.3-5.8c-1.3,5.9-2.2,17.5-2.4,30.1v1.2  l-1.2-0.2c-0.5-0.1-12.1-2.4-21.3-13.5c-9.3-11.1-11.1-35.5-5.6-44.9c5.2-8.9,32.2-20.5,33.3-21l0.4-0.2l0.4,0.2  c1,0.4,1,0.4-0.6,30.6c-0.4,8.1-0.9,16.6-1.2,23.6c-0.9,18.2,23.6,54.9,27.8,61.1c5.7-4.6,38.1-30.8,42.4-34.7l1.4,1.5  c-4.7,4.3-41.8,34.3-43.4,35.5L528,449.5z M501.1,333.8c-5.6,2.5-26.8,12.3-31,19.6c-5.1,8.7-3.2,32.2,5.4,42.5  c7,8.5,15.8,11.6,18.9,12.5c0.1-8.8,0.9-30.8,4.7-34.4c0.2-4,0.4-8.1,0.6-12.2C500.4,349.9,501.1,337.8,501.1,333.8z"
   id="path3418" />
<path
   class="st0"
   d="M476.1,216.1c-3-3.6-4.3-7.5-3.9-11.6c0.9-8.7,8.9-15.3,9.3-15.6l1.3,1.6c-0.1,0.1-7.8,6.3-8.5,14.2  c-0.4,3.6,0.8,7,3.4,10.1L476.1,216.1z"
   id="path3420" />
<path
   class="st0"
   d="M536.6,208.9l-2-0.5c2.2-8.3-4.5-11.3-4.8-11.4l0.8-1.9C530.7,195.1,539.2,198.9,536.6,208.9z"
   id="path3422" />
<path
   class="st0"
   d="M532.7,263.2c-6.3-2.5-17.2-6.2-19.8-5.6c-0.8,0.2-1.5,0.5-2.2,0.7c-2.5,0.9-4.7,1.7-11.5-0.2  c-7.8-2.3-21,5-21.2,5l-1-1.8c0.6-0.3,14.1-7.7,22.7-5.2c6.1,1.8,7.9,1.1,10.2,0.3c0.7-0.3,1.5-0.5,2.4-0.8c4.1-1,19.3,5,21,5.6  L532.7,263.2z"
   id="path3424" />
<path
   class="st0"
   d="M504,268.4c-7.6,0-13.1-1.9-13.5-2l0.7-1.9c0.1,0,12.3,4.2,25.1,0l0.6,2C512.3,267.9,507.9,268.4,504,268.4z"
   id="path3426" />
<path
   class="st0"
   d="M489.5,213.2c-0.2-1.4-3.6-2-7.7-1.4s-7.2,2.1-7,3.5s3.6,2,7.7,1.4C486.5,216.1,489.7,214.5,489.5,213.2z"
   id="path3428" />
<path
   class="st0"
   d="M523.9,213.6c0.2-1.3-2.9-3-6.9-3.7c-4.1-0.7-7.5-0.1-7.8,1.2c-0.2,1.4,2.9,3,6.9,3.7  C520.2,215.5,523.7,215,523.9,213.6z"
   id="path3430" />
<path
   class="st0"
   d="M276.2,171c-14,0-25.3-15-25.3-33.4s11.4-33.4,25.3-33.4s25.3,15,25.3,33.4S290.2,171,276.2,171z M276.2,106.2  c-12.8,0-23.3,14.1-23.3,31.4s10.4,31.4,23.3,31.4s23.3-14.1,23.3-31.4S289,106.2,276.2,106.2z"
   id="path3432" />
<path
   class="st0"
   d="M276.2,190.7c-20.9,0-38-22.6-38-50.4s17-50.4,38-50.4s38,22.6,38,50.4S297.1,190.7,276.2,190.7z M276.2,92  c-19.8,0-35.9,21.7-35.9,48.3s16.1,48.3,35.9,48.3s35.9-21.7,35.9-48.3S296,92,276.2,92z"
   id="path3434" />
<path
   class="st0"
   d="M453.3,190.7c-20.9,0-38-22.6-38-50.4s17-50.4,38-50.4c20.9,0,38,22.6,38,50.4S474.3,190.7,453.3,190.7z   M453.3,92c-19.8,0-35.9,21.7-35.9,48.3s16.1,48.3,35.9,48.3s35.9-21.7,35.9-48.3C489.3,113.7,473.2,92,453.3,92z"
   id="path3436" />
<path
   class="st0"
   d="M453.3,171c-14,0-25.3-15-25.3-33.4s11.4-33.4,25.3-33.4c14,0,25.3,15,25.3,33.4C478.7,156,467.3,171,453.3,171  z M453.3,106.2c-12.8,0-23.3,14.1-23.3,31.4s10.4,31.4,23.3,31.4c12.8,0,23.3-14.1,23.3-31.4C476.6,120.3,466.2,106.2,453.3,106.2z"
   id="path3438" />
<path
   class="st0"
   d="M320.8,101.5L320.8,101.5c-6.7,0-19.2-5.4-21.3-10.1c-0.3-0.8-0.3-1.5,0.1-2.2c2.2-3.8,16.8-5.2,19.7-5.4h0.3  l0.3,0.1c6.6,3.2,8.6,8,8.3,11.5c-0.3,3-2.2,5.3-5.1,6C322.4,101.5,321.7,101.5,320.8,101.5z M319.2,85.8  c-6.7,0.6-16.5,2.3-17.8,4.4c-0.1,0.1-0.1,0.2,0,0.4c1.6,3.6,13.2,8.9,19.4,8.9l0,0c0.7,0,1.3-0.1,1.7-0.2c2-0.5,3.3-2.1,3.5-4.2  C326.4,92.4,324.7,88.5,319.2,85.8z"
   id="path3440" />
<path
   class="st0"
   d="M346.8,106.4c-11.8,0-20.7-7.6-21.1-8l1.3-1.6c0.1,0.1,10.4,8.8,22.9,7.3c5-0.6,9.6-4.8,10.4-9.5  c0.6-3.7-1.2-6.9-5.2-8.9c-7.6-1-27.6-2.5-31.1,1.9l-1.6-1.3c4.9-6.2,30.3-3.1,33.2-2.7l0.3,0.1c4.9,2.5,7.3,6.5,6.5,11.2  c-1,5.6-6.2,10.4-12.1,11.2C349,106.3,347.9,106.4,346.8,106.4z"
   id="path3442" />
<path
   class="st0"
   d="M381.4,96.8c-4.5,0-9.5-0.8-11.7-1.2c-4.9-1-8.5-1.9-8.5-1.9l-0.8-0.2v-7.1l0.7-0.2c0.5-0.2,11.6-4,17.4-5.1  c6.5-1.3,10.9,6.2,11.4,11.5c0.1,0.9-0.2,1.6-0.7,2.3C388,96.1,385.4,96.8,381.4,96.8z M362.4,91.8c1.3,0.3,4.2,1,7.7,1.7  c2,0.4,7,1.2,11.3,1.2c4.6,0,5.9-0.9,6.2-1.3c0.2-0.2,0.2-0.4,0.2-0.7c-0.4-4.3-3.9-10.7-9-9.7c-4.9,0.9-13.9,3.9-16.4,4.8  L362.4,91.8L362.4,91.8z"
   id="path3444" />
<rect
   x="282"
   y="90"
   class="st0"
   width="18.5"
   height="2.1"
   id="rect3446" />
<path
   class="st0"
   d="M668,449l-0.9-1.9c29.8-14.1,29.9-14.1,32.8-14c1.2,0,3.1,0.1,9.8-1.6l0.5,2c-7,1.8-9,1.7-10.4,1.7  C697.6,435.1,697.3,435,668,449z"
   id="path3448" />
<path
   class="st0"
   d="M104.4,446.6l-2-0.4c2.7-13.6,25.4-27.2,28.4-28.9c1.2-2.4,9.7-19.4,22.1-36.2c13.2-17.8,27.9-52.5,28.1-52.9  l0.4-0.9l0.9,0.4c2.3,0.9,55.6,21.8,61,34.1c4.2,9.3,2.1,14.2-6.2,24.1c-2.1,2.5-4.6,5.3-7.5,8.6c-1.6,1.8-3.4,3.8-5.3,6  c-18.8,21.5-21.7,25.7-25.6,37.6l-2-0.7c4.1-12.3,7-16.6,26-38.3c1.9-2.2,3.7-4.2,5.3-6c2.9-3.3,5.4-6.1,7.4-8.5  c8.3-10,9.4-14.1,5.9-22c-4.8-10.7-51.8-29.8-59-32.7c-2.5,5.7-15.8,36-27.9,52.4c-13.2,17.9-22,35.9-22.1,36.1l-0.1,0.3l-0.3,0.2  C131.9,419.1,107.1,433.3,104.4,446.6z"
   id="path3450" />
<path
   class="st0"
   d="M198,438.9l-0.3-2c36.4-5.5,38.8-44,37.7-51.4l2-0.3C238.5,392.9,236.1,433.2,198,438.9z"
   id="path3452" />
<path
   class="st0"
   d="M248.8,446.4h-2.1c0-15.1,5.6-29.1,10.1-40.4c3.7-9.2,6.5-16.5,4.9-20.4c-3.4-7.9-14.3-14-17.6-15.7l-0.9-0.4  l0.3-1l1.9,0.9l-0.9-0.4l0.5-0.9c3.5,1.8,15,8.2,18.7,16.8c2,4.7-1,12.3-4.8,22C254.3,417.8,248.8,431.7,248.8,446.4z"
   id="path3454" />
<path
   class="st0"
   d="M212.8,447.3c-6.7-3.2-12.9-6.1-18.5-8.8c-28.7-13.7-44.4-21.3-59.9-25.3l0.5-2c15.6,4.1,31.5,11.7,60.3,25.4  c5.6,2.7,11.8,5.6,18.5,8.8L212.8,447.3z"
   id="path3456" />
<path
   class="st0"
   d="M276.6,447.3l-0.8-1.9c13.3-5.8,29.9-27.9,44.6-47.3c8.6-11.4,16.8-22.2,23.5-28.8c15.8-15.4,36.7-16.2,56.9-17  c3.6-0.1,7.1-0.3,10.7-0.5c20.2-1.2,41.3-0.4,49.2-0.1c1.4,0.1,2.3,0.1,2.7,0.1v2.1c-0.4,0-1.3,0-2.8-0.1c-7.9-0.3-29-1.1-49,0.1  c-3.6,0.2-7.2,0.4-10.7,0.5c-20.7,0.8-40.3,1.6-55.5,16.4c-6.6,6.5-14.7,17.2-23.3,28.6C307.2,419,290.4,441.3,276.6,447.3z"
   id="path3458" />
<path
   class="st0"
   d="M439.6,95.5c-27.8,0-50.6-1.9-50.9-1.9l0.2-2.1c0.2,0,23,1.9,50.7,1.9L439.6,95.5L439.6,95.5z"
   id="path3460" />
<path
   class="st0"
   d="M612.6,170.5c-0.1-0.2-11.8-21.2-30.4-40.6c-2.2-2.3-4.3-4.5-6.4-6.7c-16.1-16.8-29.9-31.4-41.9-34.5  c-3.8-1-6.6-0.7-8.3,0.9c-2.9,2.6-2.1,8.1-2.1,8.2l0.2,1.1l-1.1,0.1c-18.1,1.4-49.1-0.2-49.4-0.2l0.1-2.1c0.3,0,30,1.6,48.1,0.3  c-0.1-2,0-6.4,2.8-8.9c2.3-2.1,5.7-2.5,10.2-1.3c12.5,3.3,26.6,18,42.9,35.1c2.1,2.2,4.2,4.4,6.4,6.7c18.8,19.5,30.6,40.8,30.8,41  L612.6,170.5z"
   id="path3462" />
<path
   class="st0"
   d="M279.2,190.7l-0.2-2c1.2-0.1,119.9-13.2,144.6-19.6l0.5,2C399.3,177.5,280.4,190.6,279.2,190.7z"
   id="path3464" />
<path
   class="st0"
   d="M453.5,190.7l-0.3-2c0.5-0.1,54.1-9.2,85.9-19.2l0.6,2C507.8,181.5,454.1,190.6,453.5,190.7z"
   id="path3466" />
<path
   class="st0"
   d="M361.4,161.8c-4.8,0-8.2-1.2-10.4-3.7c-4-4.6-2.9-12.4-1.7-20.7c0.5-3.8,1.1-7.8,1.1-11.3  c0-4.8,2.2-8.5,6.5-10.8c6.5-3.5,16.2-2.7,18.5-1.6c2.6,0.2,30.5,2.7,45.7,1.3l0.2,2.1c-16,1.5-46-1.3-46.3-1.3h-0.3l-0.2-0.1  c-1.1-0.7-10.5-1.8-16.8,1.6c-3.5,1.9-5.3,4.9-5.3,8.9c0,3.7-0.6,7.7-1.1,11.6c-1.1,7.8-2.2,15.2,1.2,19.1c1.8,2,4.6,3,8.8,3  c3.4,0,9.6-0.8,16.9-1.8c14.4-1.9,32.4-4.4,40.6-1.9l-0.6,2c-7.7-2.3-25.5,0-39.7,1.9C371.3,160.9,365,161.8,361.4,161.8z"
   id="path3468" />
</svg>