<?xml version="1.0" encoding="UTF-8" standalone="no"?>
<!-- Generator: Adobe Illustrator 19.2.0, SVG Export Plug-In . SVG Version: 6.00 Build 0)  -->

<svg
   xmlns:dc="http://purl.org/dc/elements/1.1/"
   xmlns:cc="http://creativecommons.org/ns#"
   xmlns:rdf="http://www.w3.org/1999/02/22-rdf-syntax-ns#"
   xmlns:svg="http://www.w3.org/2000/svg"
   xmlns="http://www.w3.org/2000/svg"
   xmlns:sodipodi="http://sodipodi.sourceforge.net/DTD/sodipodi-0.dtd"
   xmlns:inkscape="http://www.inkscape.org/namespaces/inkscape"
   version="1.1"
   id="Layer_1"
   x="0px"
   y="0px"
   width="800px"
   height="450px"
   viewBox="0 0 800 450"
   style="enable-background:new 0 0 800 450;"
   xml:space="preserve"
   inkscape:version="0.48.3.1 r9886"
   sodipodi:docname="overlay__Long 2.svg"><metadata
   id="metadata4460"><rdf:RDF><cc:Work
       rdf:about=""><dc:format>image/svg+xml</dc:format><dc:type
         rdf:resource="http://purl.org/dc/dcmitype/StillImage" /></cc:Work></rdf:RDF></metadata><defs
   id="defs4458" /><sodipodi:namedview
   pagecolor="#ffffff"
   bordercolor="#666666"
   borderopacity="1"
   objecttolerance="10"
   gridtolerance="10"
   guidetolerance="10"
   inkscape:pageopacity="0"
   inkscape:pageshadow="2"
   inkscape:window-width="640"
   inkscape:window-height="480"
   id="namedview4456"
   showgrid="false"
   inkscape:zoom="0.405"
   inkscape:cx="400"
   inkscape:cy="225"
   inkscape:window-x="0"
   inkscape:window-y="24"
   inkscape:window-maximized="0"
   inkscape:current-layer="Layer_1" />
<style
   type="text/css"
   id="style4376">
	.st0{fill:#FAAF40;stroke:#FAAF40;stroke-miterlimit:10;}
</style>
<g
   id="g4378">
	<path
   class="st0"
   d="M438.5,293.5l-0.3-2c4.4-0.7,12-6.7,15.2-9.3c0.6-0.5,1.1-0.9,1.4-1.1c0,0,0.1-0.1,0.2-0.3   c0.2-1.3-1.6-4.3-3-6l1.6-1.3c0.6,0.8,3.7,4.9,3.4,7.6c-0.1,0.7-0.4,1.3-1,1.7c-0.3,0.2-0.8,0.6-1.4,1.1   C451,286.7,443.5,292.7,438.5,293.5z"
   id="path4380" />
	<path
   class="st0"
   d="M441,283.7v-2.1c3,0,8.8-5,10.4-8.9c0.3-0.8,0.6-1.9,0-2.5c-3.3-3.2-8.9-11.8-9.2-12.2l1.7-1.1   c0.1,0.1,5.7,8.8,8.9,11.8c0.8,0.8,1.5,2.2,0.5,4.8C451.5,277.9,445.1,283.7,441,283.7z"
   id="path4382" />
	<path
   class="st0"
   d="M418.5,300c-5,0-7.7-1-8.1-3c-0.6-2.6,2.8-5.1,4.9-6.2c3.2-1.6,4.8-7,5.1-8.2c-0.7-3.9,2.9-20.2,3.8-23.8   c-0.1-1.3-0.6-11.9-5.3-25.3c-5.1-14.7-2.1-38.6-2-39.6l0.9-6.3c0,0,0.1-13.5-1-24.6l2-0.2c1.2,11.2,1,24.8,1,25l-0.9,6.5   c0,0.2-3.1,24.4,1.9,38.6c5.1,14.6,5.4,25.6,5.4,26.1v0.1v0.1c-1.8,7.8-4.4,21.1-3.7,23.2l0.1,0.3l-0.1,0.3   c-0.1,0.3-1.9,7.5-6.2,9.7c-2.4,1.3-4.1,3.1-3.9,3.9c0,0.1,0.5,1.4,6.1,1.4c8.4,0,14.5-0.6,17.2-3.4c1.1-1.1,1.6-2.7,1.5-4.6v-0.3   l0.1-0.3c0.1-0.1,5.2-9.1,3.3-15c-1.6-4.8,1.5-16.2,4.2-26.3c1-3.9,2-7.6,2.6-10.4c0.1-0.4,8.4-26,8-35.6c-0.3-10.1-4.4-33-7-40.2   l1.9-0.9c0.2,0.3,4.5,8.1,5.4,10.7c0.2,0.5,4.1,11.7,4.6,18.2l0.1,1.7c0.4,4.9,0.5,5.9-1,10.4c-0.7,2.3-0.3,4.1,0,4.8   c0-0.1,0-0.1,0-0.2c1.1-4.1,1.8-5.3,3-5.1c0.6,0.1,1.6,0.2,1.6,5.4c0.1,1.7-0.3,4-0.6,6.2c-0.3,2.1-0.9,5.9-0.3,6.5   c0.3-0.2,2.2-1.8,3-19.7c0-0.1-0.5-20.8-2.9-32.4c-1.9-9-8.9-26.5-11-29c-1-1.2-3.3-1.8-5.8-2.4c-2.5-0.6-5.1-1.3-7-2.8   c-4.1-3.1-3.7-7.1-3.7-7.3l2,0.2l-1-0.1l1,0.1c0,0.1-0.2,3,2.9,5.4c1.6,1.2,4,1.8,6.3,2.4c2.8,0.7,5.4,1.4,6.8,3.1   c2.5,3.1,9.5,20.9,11.5,29.9c2.5,11.8,2.9,32.6,2.9,32.8c-0.6,12.9-1.7,19.4-3.7,21.2c-0.6,0.5-1.2,0.6-1.5,0.6   c-0.6,0-1.1-0.3-1.5-0.7c-1.1-1.3-0.7-4-0.1-8.1c0.3-2.1,0.7-4.4,0.6-5.8c0-0.5,0-1.1,0-1.6c-0.1,0.5-0.3,1.1-0.5,1.8   c-0.3,1.1-0.8,1.8-1.6,2c-0.6,0.2-1.2-0.1-1.8-0.6c-0.4-0.5-0.8-1.2-1-2.1c-1.4,11.6-7.6,30.8-7.9,31.7c-0.6,2.8-1.6,6.5-2.6,10.4   c-2.5,9.3-5.6,20.9-4.2,25.1c2,6.2-2.4,14.7-3.3,16.4c0,2.4-0.7,4.3-2.1,5.8C433.9,299.3,427.4,300,418.5,300z M452.8,170.2   c2.2,9.9,4.4,24,4.7,31.5c0-0.1,0-0.1,0.1-0.2c1.3-4.1,1.3-4.8,0.9-9.6l-0.1-1.8c-0.5-6.2-4.5-17.6-4.5-17.7   C453.6,171.9,453.3,171.1,452.8,170.2z"
   id="path4384" />
	<path
   class="st0"
   d="M395.5,221.9c-0.1,0-0.3,0-0.4-0.1c-1.2-0.3-1.2-1.8-1.2-2.4c-0.1-3.1,3-7.5,6.4-12.2c1.9-2.6,3.7-5.1,4.6-7.1   c1.3-2.6,3.9-14.8,4.8-19.5c-0.5-5.5-1.1-10.2-1.7-14.4c-1.1-8.6-1.9-14.8-0.9-20.6c1.2-6.6,7.4-8.3,11.6-9.5   c1.6-0.5,3.1-0.9,3.7-1.4c1.5-1.3,1.8-4,1.8-5h2.1c0,0.2,0,4.4-2.5,6.5c-0.9,0.8-2.5,1.3-4.5,1.8c-4.1,1.2-9.2,2.6-10.1,7.9   c-1,5.5-0.2,11.6,0.9,19.9c0.6,4.2,1.2,9,1.7,14.6v0.1v0.1c-0.1,0.7-3.3,16.7-5,20.2c-1.1,2.2-2.9,4.7-4.8,7.4   c-2.8,3.9-6,8.3-6,10.8c1-1.1,2.5-3.6,3.1-4.5c3.2-5.1,5.6-5.4,6-5.4c0.3,0,2.5,0.4,2.4,3.8c0.4-0.8,0.8-2,0.9-3.4   c0.2-2.4,2.5-7,2.8-7.6c1.3-2.3,6.6-14.7,6.6-14.9l1.9,0.8c-0.2,0.5-5.4,12.7-6.7,15c-0.6,1.3-2.4,5.1-2.5,6.8   c-0.3,2.9-1.8,5.9-3.2,6.5c-0.5,0.2-1,0.2-1.4-0.1c-0.7-0.6-0.7-1.6-0.5-2.4c0.2-1.6-0.1-2.3-0.4-2.5c-0.4,0.1-2,0.9-4.2,4.4   C398,220.2,396.7,221.9,395.5,221.9z"
   id="path4386" />
	<path
   class="st0"
   d="M429.9,133.6L429.9,133.6c-2,0-4.9-1-7.6-5.5s-3.7-8.6-3.1-12.1c0.9-7.3,3.1-11.6,6.6-12.8   c0.7-0.2,1.5-0.4,2.3-0.4c4.7,0,10.2,3.7,11.2,9.8c1.2,7.2-1.8,16.4-4.3,18.9C434.3,132.1,432.4,133.6,429.9,133.6z M428.1,104.9   c-0.6,0-1.2,0.1-1.6,0.3c-3.4,1.2-4.7,6.6-5.2,11v0.3c-0.5,3,0.4,6.6,2.9,10.7c1.7,2.9,3.7,4.5,5.8,4.5l0,0c1.8,0,3.2-1.1,3.7-1.6   c1.9-1.9,4.9-10.4,3.7-17.1C436.3,107.3,431.3,104.9,428.1,104.9z"
   id="path4388" />
	<path
   class="st0"
   d="M426.1,259.1l-2-0.3c2.1-12.6,7.7-45.8,7.5-48.7l2.1-0.1C433.9,213.7,426.5,257.3,426.1,259.1z"
   id="path4390" />
	<path
   class="st0"
   d="M437.3,291.7c-1.2,0-2-1.2-3.1-2.9c-1-1.4-2.2-3.2-3.6-4.1c-3.3-2-9.1,0.1-9.2,0.1l-0.7-1.9   c0.3-0.1,6.8-2.4,10.9,0.1c1.8,1.1,3.2,3.1,4.3,4.7c0.4,0.6,1,1.4,1.3,1.8c0,0,0,0,0-0.1l1.8,0.9   C438.6,291.2,438,291.6,437.3,291.7C437.4,291.7,437.4,291.7,437.3,291.7z"
   id="path4392" />
	<path
   class="st0"
   d="M418.2,205.7c-0.8,0-1.2,0-1.3,0l0.1-2.1c0.1,0,14.9,0.6,37.8-7.2l0.7,1.9   C435.8,205.2,422.3,205.7,418.2,205.7z"
   id="path4394" />
	<path
   class="st0"
   d="M431.7,140.3c-5.4,0-9.2-3.8-9.4-4l1.5-1.4c0,0,3.6,3.6,8.4,3.4c3.1-0.2,6.1-1.9,8.9-5.3l1.6,1.3   c-3.1,3.8-6.6,5.9-10.4,6C432.1,140.2,431.9,140.3,431.7,140.3z"
   id="path4396" />
</g>
<g
   id="g4398">
	<path
   class="st0"
   d="M499.4,272.8c-10.2-6.4-7.4-19.5-6.8-21.8c-10-24.6-5.7-50.1-5.1-53.2c-1.7-4.2-2.1-15.5-2.1-16l2.1-0.1   c0.1,3.3,0.7,12.6,2,15.5l0.1,0.3l-0.1,0.3c-0.1,0.3-5.5,27,5,52.7l0.1,0.3l-0.1,0.4c0,0.1-4,13.7,5.8,19.9L499.4,272.8z"
   id="path4400" />
	<path
   class="st0"
   d="M554.5,425.2c-8.3,0-13.3-1.4-16-4.5c-2.2-2.5-2.8-5.9-1.8-10.8c1.7-8.9,0.3-10.7,0.3-10.7l1.3-1.6   c0.7,0.5,2.3,2.8,0.4,12.7c-0.8,4.2-0.3,7.1,1.4,9c2.7,3.1,8.8,4.2,19.2,3.7c4.7-0.3,7.5-1.3,8.3-3c1.3-2.7-2.2-7.6-5-11.5   c-1.2-1.7-2.4-3.3-3.2-4.7l1.8-1c0.7,1.3,1.8,2.8,3,4.5c3.3,4.6,7.1,9.7,5.2,13.5c-1.2,2.5-4.5,3.9-10.1,4.2   C557.6,425.2,556,425.2,554.5,425.2z"
   id="path4402" />
	<path
   class="st0"
   d="M560.3,414.4c-9-4.2-12.3-0.4-12.5-0.3l-1.6-1.3c0.2-0.2,4.4-5.2,14.9-0.3L560.3,414.4z"
   id="path4404" />
	<path
   class="st0"
   d="M520.8,397.2c-2.5,0-5-0.7-6.9-2c-2.9-2.1-4-5.4-3-9.2c2.2-8.6,1.8-10.9,1.8-11l2-0.5c0.1,0.3,0.6,2.8-1.8,12   c-1,3.8,0.7,5.9,2.2,7c3.3,2.3,8.7,2.2,12.7-0.4c6.8-4.5,6.7-5.5,2.7-16.8l1.9-0.7c4.1,11.5,4.6,13.9-3.5,19.2   C526.5,396.4,523.6,397.2,520.8,397.2z"
   id="path4406" />
	<path
   class="st0"
   d="M556.2,404.5c-7.6,0-18.6-2.7-20.1-8.2s-1-11.7-0.5-17.7c0.1-1.4,0.2-2.8,0.3-4.1c-2.8,1.8-7.3,2.7-11.1,3   c-5.1,0.3-11.3-0.4-13.3-3.5c-1.6-2.5-1.4-4.7-1-7.5c0.4-3.3,1-7.9-1.5-15.6c-8.7-27.3-8.7-29-8.7-38.3v-2.7   c-0.3-24.4,0.5-63.8,0.5-64.2h2.1c0,0.4-0.8,39.7-0.5,64.1v2.7c0,9,0.1,10.7,8.6,37.7c2.6,8.1,2,13,1.6,16.5   c-0.3,2.7-0.5,4.3,0.7,6.2c1.2,1.8,5.9,2.9,11.5,2.5c5.7-0.3,10.5-2,11.5-4v-4.1l1.9,4.6c-0.1,2.2-0.2,4.5-0.4,6.9   c-0.5,5.8-1,11.9,0.4,17c1.3,4.6,14.1,7.4,21,6.5c2.4-0.3,2.9-0.9,2.9-1.1c0-1.8,0.9-4.5,1.9-7.9c1.7-5.3,4-12.5,4.3-20.4   c0.3-6.8-1.2-10.5-2.5-13.4c-1.1-2.6-2-4.8-0.9-7.8c1.9-5.2,3.8-21.4,0.6-42.8c-3.2-20.9,8.6-58.9,9.1-60.5l2,0.6   c-0.1,0.4-12.1,39.1-9,59.6c3.3,21.8,1.3,38.4-0.7,43.8c-0.8,2.2-0.2,3.8,0.8,6.3c1.2,3,2.9,7,2.6,14.3c-0.3,8.3-2.7,15.6-4.4,21   c-1,3.2-1.8,5.8-1.8,7.3c0,1.1-0.8,2.6-4.7,3.1C558.4,404.4,557.4,404.5,556.2,404.5z"
   id="path4408" />
	<path
   class="st0"
   d="M515.6,389.1l-1.8-1c0.2-0.3,4-6.8,17.8-3.6l-0.5,2C519,383.6,515.7,388.8,515.6,389.1z"
   id="path4410" />
	<path
   class="st0"
   d="M536.1,371.9c-1.1-9.1-4.5-38.9-2.6-41.7c1.4-2.1-1.2-23-2.1-27.7c-0.5-2.8-4-28.4-4-41.1h2.1   c0,12.6,3.4,38,4,40.7c0,0.2,4.1,25.7,1.8,29.2c-1,2,0.8,22.3,3,40.3L536.1,371.9z"
   id="path4412" />
	<path
   class="st0"
   d="M587.7,165.5c0-0.1-1.2-9.8-4.3-25.5c-3.1-15.6-9.4-17.2-14.5-18.5c-5.7-1.4-16.6-6.3-17.1-6.5l0.8-1.9   c0.1,0,11.3,5,16.8,6.3c5.4,1.3,12.7,3.1,16,20.1c3.1,15.8,4.3,25.6,4.3,25.7L587.7,165.5z"
   id="path4414" />
	<path
   class="st0"
   d="M545.8,112.8c-2.6-1.3-4.2-2.9-4.7-4.8c-0.6-2.1,0.5-3.8,0.5-3.8l1.7,1.1l-0.9-0.6l0.9,0.6c0,0-0.6,1-0.2,2.2   c0.4,1.3,1.6,2.5,3.6,3.4L545.8,112.8z"
   id="path4416" />
	<path
   class="st0"
   d="M486.3,164.3c0-0.1-0.1-12.1-0.6-21.8c-0.5-10.4,6.8-15.9,10.7-17.3c3.7-1.3,16.7-8,16.9-8.1l0.9,1.8   c-0.5,0.3-13.3,6.8-17.1,8.2c-3.4,1.2-9.7,6-9.3,15.3c0.4,9.7,0.6,21.7,0.6,21.8L486.3,164.3z"
   id="path4418" />
	<path
   class="st0"
   d="M543,254.7c-3.7,0-6.7-0.3-8.2-0.9c-3.6-1.4-5.5-4.7-6.5-7.9c-0.8,3.1-2.3,5.5-4.3,6.8   c-2.2,1.5-4.9,1.7-7.8,0.5l-1-0.4c-6.3-2.5-11.7-5.2-16-7.4c-1.1-0.5-2.1-1-3-1.5c-4.3-2.1-2.8-9.9-1.5-16.7c0.4-2,0.7-3.9,0.9-5.4   c0.5-4.9,1.8-18.1,1.8-33.4h2.1c0,15.4-1.3,28.7-1.8,33.6c-0.2,1.6-0.5,3.5-0.9,5.6c-1.1,5.5-2.5,13.1,0.4,14.5   c0.9,0.5,1.9,1,3,1.5c4.3,2.2,9.6,4.8,15.9,7.3l1,0.4c2.3,0.9,4.3,0.8,5.9-0.3c2.7-1.8,4.3-6.4,4.2-12.3l0,0h2.1l0,0l0,0l0,0   c0,0.2,0.2,10.7,6.5,13.1c5.3,2,33-0.6,39.1-4.4c0.7-0.4,0.9-0.8,0.9-0.9c0.1-2.3-0.6-5.6-1.4-9.7c-1-4.5-2.2-10.2-2.7-16.7   l2.1-0.1c0.5,6.3,1.7,11.9,2.6,16.4c0.9,4.3,1.6,7.6,1.5,10.2c-0.1,0.9-0.7,1.7-1.8,2.5C570.8,252.4,553.8,254.7,543,254.7z"
   id="path4420" />
	<path
   class="st0"
   d="M528,115.2c-0.3,0-0.6,0-0.8-0.1c-4.2-0.5-7.5-4.9-13.6-13.3c-3.8-5.2-3.7-8.4-3.5-12.5   c0.1-3,0.2-6.4-1.1-11.6l2-0.5c1.3,5.5,1.2,9.2,1.1,12.1c-0.1,4-0.2,6.6,3.2,11.2c5.5,7.7,8.8,12,12.1,12.5c2.8,0.3,6.2-2,11.1-6.1   c12.3-10.3,8.4-18.2,8.3-18.3l-0.2-0.5l0.3-0.5c1.9-3.6,4-9.5,2.7-11.1c-0.7-0.8-2.5-0.3-3.6,0l-0.7-2c2.7-0.9,4.7-0.7,5.8,0.6   c2.5,3-1,10.5-2.2,12.9c0.8,2.1,2.8,10.3-9.1,20.3C534.8,112.9,531.3,115.2,528,115.2z"
   id="path4422" />
	<path
   class="st0"
   d="M570,193.8c-5.9,0-6.9-4-8.4-9.6l-0.2-0.6c-2.5-9.2,1.3-11.1,1.7-11.3l0.4-0.2l0.4,0.1c0,0,1.8,0.6,4.7,0.6   l0,0c4.4,0,11.1-1.4,18-8.3l0.4-0.4l0.5,0.1c0.2,0,6.1,1.2,7.8,9.9c1.5,7.4,1.5,11.8-14.4,17.1C576,193,572.6,193.8,570,193.8z    M563.8,174.4c-0.6,0.6-2,2.7-0.4,8.7l0.2,0.6c1.6,6,2.4,8.1,6.4,8.1c2.3,0,5.6-0.7,10.3-2.3c15-5,14.3-8.5,13.1-14.8   c-1.2-5.9-4.5-7.7-5.7-8.1c-7.3,7-14.3,8.4-19,8.4l0,0C566.3,175,564.6,174.6,563.8,174.4z"
   id="path4424" />
	<path
   class="st0"
   d="M546.7,238.3c-2.5,0-5.5-0.9-9.2-2.4c-0.5-0.3-9.7-5.9-9.1-11.7c0.2-2.7,2.5-4.9,6.7-6.5   c7.3-2.8,9.6-2.3,11.2-1.9c1,0.2,1.5,0.3,3.3-0.6c1.3-0.7,3.2-2.8,5.5-5.2c6.1-6.6,14.5-15.6,23.8-12.7l-0.6,2   c-8-2.6-15.9,5.9-21.7,12.1c-2.5,2.7-4.4,4.7-6,5.6c-2.3,1.2-3.3,1.1-4.7,0.8s-3.4-0.7-10.1,1.9c-3.4,1.3-5.2,2.9-5.4,4.8   c-0.3,3.7,5.7,8.2,8,9.7c9.5,3.8,11.9,2.6,14.2-3c1.6-4,14.5-9.7,29.8-16.2c4.6-1.9,8.6-3.6,9.6-4.3c2.4-1.6,2.4-4.7-0.3-10.4   c-2.2-4.7-2.1-13.5-2.1-13.9h2.1c0,0.1,0,8.7,1.9,13c1.3,2.9,4.5,9.7-0.5,13c-1.2,0.8-4.8,2.3-9.9,4.5c-9.5,4-27.3,11.6-28.7,15.1   C552.7,236.5,550.2,238.3,546.7,238.3z"
   id="path4426" />
	<path
   class="st0"
   d="M497.6,191L497.6,191c-2.7,0-13.4-10.8-13.6-10.9c-4-4-1.5-11.7-0.2-15.8c0.3-1,1.2-1.6,2.3-1.6   c3.6,0,11,6.8,12.5,8.1l0.2,0.2l0.1,0.2c4.1,10.8,0.1,18.8,0,19.1C498.6,190.8,498.1,191,497.6,191z M486.1,164.8   c-0.3,0-0.3,0-0.3,0.2c-1.1,3.4-3.3,10.6-0.2,13.7c3.9,4,9.7,9.1,11.7,10.1c0.8-1.9,2.8-8.5-0.2-16.6   C493.8,169.2,488.2,164.8,486.1,164.8z"
   id="path4428" />
	<path
   class="st0"
   d="M516.4,323.9c-5.4,0-9.9-1.5-10.2-1.7l0.7-1.9c0.1,0,13,4.5,20.8-2.1l1.3,1.6   C525.3,323,520.6,323.9,516.4,323.9z"
   id="path4430" />
	<path
   class="st0"
   d="M514.4,83.6l-1.3-1.6c0.1-0.1,3.6-2.8,7.9-1.1l-0.8,1.9C517.1,81.5,514.5,83.5,514.4,83.6z"
   id="path4432" />
	<path
   class="st0"
   d="M539,81.8c-3.7-1.4-5.1-0.2-5.1-0.1l-1.5-1.4c0.2-0.2,2.4-2.3,7.4-0.3L539,81.8z"
   id="path4434" />
	<path
   class="st0"
   d="M518.3,83.2c-0.1,0.6-0.7,1.1-1.3,0.9c-0.6-0.1-1.1-0.7-1-1.4c0.1-0.6,0.7-1.1,1.4-0.9   C518,82,518.4,82.6,518.3,83.2z"
   id="path4436" />
	<path
   class="st0"
   d="M537.4,81.9c-0.1,0.6-0.7,1.1-1.3,1s-1.1-0.7-1-1.3c0.1-0.6,0.7-1.1,1.3-1C537,80.6,537.4,81.2,537.4,81.9z"
   id="path4438" />
	
		<rect
   x="570.9"
   y="192.6"
   transform="matrix(0.9083 -0.4184 0.4184 0.9083 -29.33 257.2159)"
   class="st0"
   width="2.1"
   height="5.8"
   id="rect4440" />
	<path
   class="st0"
   d="M546.2,77.2c-0.6,0-1.1-0.4-1.4-0.8c-1.5-1.6-11.4-11.9-12.6-15l1.9-0.8c0.8,2.1,7.4,9.3,11.8,14   c0.2-0.9,0.4-2.8,0.4-6.7c0-10.2-10.3-12.9-10.4-12.9l0.5-2c0.1,0,12,3.1,12,14.9c0,8.2-0.9,9.1-1.9,9.3   C546.4,77.2,546.3,77.2,546.2,77.2z"
   id="path4442" />
	<path
   class="st0"
   d="M506.8,78.6l-0.3-0.6c-0.1-0.1-6.2-14.1,3.6-20.1c8.7-5.4,15.3-8.4,22.2-7.7c1.8,0.2,3,0.8,3.8,1.7   c2,2.5-0.4,6.6-2.4,8.7c-0.6,0.7-16.4,17.8-26.2,17.9L506.8,78.6z M530.2,52.1c-5.7,0-11.5,2.9-19,7.5c-7.2,4.4-4.1,14.2-3.1,16.9   c9.1-0.9,23.9-17,24.1-17.2c1.6-1.7,3.3-4.7,2.3-6.1c-0.4-0.5-1.2-0.8-2.4-1C531.5,52.2,530.9,52.1,530.2,52.1z"
   id="path4444" />
	<path
   class="st0"
   d="M521.3,146.2l-0.9-1.2c-2-2.7-4.7-4.7-7.1-6.5c-3.7-2.8-6.9-5.3-6.7-9.3c0.3-6.2,9.3-15.4,9.7-15.8l1.1-1.2   l0.6,1.5c0.1,0.3,1,3.1-1.4,9.2c-2.2,6.3,9.9,12.5,10,12.5l1,0.5L521.3,146.2z M516.2,116.7c-2.6,2.9-7.3,8.8-7.5,12.7   c-0.2,2.9,2.5,4.9,5.9,7.5c2.1,1.6,4.5,3.4,6.5,5.8l3.6-5.8c-3.2-1.8-12.4-7.7-10-14.5C515.7,119.8,516,118,516.2,116.7z"
   id="path4446" />
	<path
   class="st0"
   d="M520.2,159.3c-0.4,0-1.2-0.2-1.8-1.2c-1.3-2-1.5-6.5,1-11.5c4.3-8.8,26.1-34.3,27-35.3l0.3-0.4h0.5   c0.6,0,5.6,0.4,6.2,3.5c0.6,3.2-3.3,11.8-12,21.2c-3.3,3.6-6.7,6.7-9.6,9.4c-5,4.6-8.9,8.2-9.4,11.3   C522.1,158.9,520.9,159.3,520.2,159.3z M547.7,113c-2.8,3.3-22.5,26.5-26.4,34.5c-2.5,5-1.8,8.7-1.1,9.6c0.1-0.2,0.2-0.5,0.3-1.1   c0.6-3.8,4.8-7.6,10-12.5c2.9-2.7,6.3-5.8,9.5-9.3c8.9-9.7,11.9-17.5,11.5-19.4C551.2,113.7,549,113.1,547.7,113z"
   id="path4448" />
	<path
   class="st0"
   d="M562.6,173.5c-0.6-2.7-5-23.8-5.2-24.7l2-0.4c0,0.2,4.6,22,5.2,24.7L562.6,173.5z"
   id="path4450" />
	<path
   class="st0"
   d="M497.4,173.4c-1.2-8.3-0.3-24.2-0.3-24.9l2.1,0.1c0,0.2-0.9,16.5,0.3,24.5L497.4,173.4z"
   id="path4452" />
</g>
<path
   class="st0"
   d="M517,114.2c0,0,2.5-3.4,2.7-5.9"
   id="path4454" />
</svg>