<?xml version="1.0" encoding="UTF-8" standalone="no"?>
<!-- Generator: Adobe Illustrator 19.2.0, SVG Export Plug-In . SVG Version: 6.00 Build 0)  -->

<svg
   xmlns:dc="http://purl.org/dc/elements/1.1/"
   xmlns:cc="http://creativecommons.org/ns#"
   xmlns:rdf="http://www.w3.org/1999/02/22-rdf-syntax-ns#"
   xmlns:svg="http://www.w3.org/2000/svg"
   xmlns="http://www.w3.org/2000/svg"
   xmlns:sodipodi="http://sodipodi.sourceforge.net/DTD/sodipodi-0.dtd"
   xmlns:inkscape="http://www.inkscape.org/namespaces/inkscape"
   version="1.1"
   id="Layer_1"
   x="0px"
   y="0px"
   width="800px"
   height="450px"
   viewBox="0 0 800 450"
   style="enable-background:new 0 0 800 450;"
   xml:space="preserve"
   inkscape:version="0.48.3.1 r9886"
   sodipodi:docname="overlay__Long 3.svg"><metadata
   id="metadata4475"><rdf:RDF><cc:Work
       rdf:about=""><dc:format>image/svg+xml</dc:format><dc:type
         rdf:resource="http://purl.org/dc/dcmitype/StillImage" /></cc:Work></rdf:RDF></metadata><defs
   id="defs4473" /><sodipodi:namedview
   pagecolor="#ffffff"
   bordercolor="#666666"
   borderopacity="1"
   objecttolerance="10"
   gridtolerance="10"
   guidetolerance="10"
   inkscape:pageopacity="0"
   inkscape:pageshadow="2"
   inkscape:window-width="640"
   inkscape:window-height="480"
   id="namedview4471"
   showgrid="false"
   inkscape:zoom="0.405"
   inkscape:cx="400"
   inkscape:cy="225"
   inkscape:window-x="332"
   inkscape:window-y="24"
   inkscape:window-maximized="0"
   inkscape:current-layer="Layer_1" />
<style
   type="text/css"
   id="style4463">
	.st0{fill:#FAAF40;stroke:#FAAF40;stroke-miterlimit:10;}
</style>
<path
   class="st0"
   d="M65.8,393.8c-10.3,0-18.7-5.6-22.9-8.9l-0.4-0.3v-0.5c0.4-6.5,4.8-9.2,8.6-11.6c2.5-1.6,4.9-3.1,6.3-5.5  c-1-10.1-2.8-19.7-5.6-29.5c-0.1-0.4-0.1-1,0-1.9c0-0.4,0.1-1.1,0.1-1.5c-1.7-1.5-1.7-3-1.7-4.7c0-0.9,0-2-0.3-3.2  c-0.1-0.5-0.3-0.8-0.7-1.2c-0.5-0.6-1.1-1.4-1.2-2.8c-0.2-2.8,0.5-4.2,1.1-5.4c0.4-0.7,0.7-1.4,0.8-2.3c0.6-4,0.3-8.5,0.1-13.2  c-0.2-4.6-0.5-9.3-0.1-14.5c-1.9-1.9-4.7-2.9-7.6-4c-3.3-1.2-6.8-2.5-9-5.1l-0.2-0.3V277c0.1-3,0.6-6,1-8.9c0.4-2.2,0.7-4.2,0.8-6.2  l0.2-2.3c0.8-11.1,2.3-31.8-1.9-38.4c-0.4-0.7-0.8-1.3-1.1-1.9c-0.8-1.3-1.4-2.5-2.5-3.6c-1-1.1-1.5-2.7-2-4.5  c-0.5-1.5-1-3.3-1.9-5.1c-0.2-0.3-1.1-1.1-1.7-1.6c-1.2-1.1-1.9-1.6-2.1-2.2c-0.3-0.8-0.2-1.7-0.1-2.4c0.1-0.5,0.1-1.1,0-1.4  c-0.5-1.9-1.1-5.6-1.9-11.4c-0.7-4.9-1.9-13.2,0-24.7c0.1-0.6,0.6-0.8,0.9-0.9c0.6-0.2,0.9-0.4,1-0.8c0.8-15.5,6.5-29.8,15.3-38.2  l0.2-0.2l0.3-0.1c0.8-0.2,1.6-0.4,2.5-0.6c2.9-0.7,5.8-1.3,8.5-3c0.5-0.3,1.3-0.5,3.4-0.8c1.2-0.2,3.5-0.6,4-0.9c0,0,0-0.6,0.1-1  c0.3-1.8,0.8-5.2,4.5-5.2c0.1,0,0.2,0,0.3,0c-2.1-6.9-3.7-14.1-5.2-21l-0.2-0.8l0.8-0.3c2.3-1,2.8-3.4,3.4-6  c0.4-1.8,0.8-3.7,1.9-4.9c1-1.2,2.4-1.4,3.6-1.4c0.9-0.1,1.6-0.1,2.2-0.6c0.7-0.5,1-1,1.4-1.5c0.9-1.3,1.7-2.2,4.8-2.5  C83.7,70.6,90,78,95,85c0.9,0.2,2.6,0,4.2-0.1c1.1-0.1,2.2-0.3,3.2-0.3c2.7,0,4.2,1,4.3,3.1c0.3,2,0,3.6-1,4.8  c-1.5,1.8-4.4,2.1-7,2.1c-0.8,0-1.7,0-2.5-0.1c-0.3,0-0.5,0-0.8,0c0.5,8.9-0.8,16.6-3.7,23.2c1.8,2.2,5.4,2.9,9.1,3.6  c3.3,0.7,6.8,1.3,9.1,3.2l0.3,0.3c4.2,8.3,7.8,18.4,10.3,29.6c0.1-0.5,0.3-0.9,0.4-1.4c1.2-4.3,2.6-9.2,4.7-13.6  c0.4-0.8,1.2-1,1.6-1c0.1,0,0.1,0,0.2,0c0,0,0-0.2,0-0.4c0.1-1.9,1.5-3.8,3-5.7c1-1.3,2.1-2.6,2.7-4l0.2-0.5l0.5-0.1  c2.3-0.4,4.2-1.1,6.3-1.8c3.1-1.1,6.4-2.2,10.7-2.2c0.8,0,1.5,0,2.3,0.1c-3-9.6-6.6-22.2-3.3-31.1c1.6-4.3,2-4.7,5.4-7.5l0.5-0.4  c0.4-0.3,0.9-0.9,1.5-1.5c0.9-1,1.7-1.9,2.5-2.3c0.5-0.3,1.4-0.2,2.4-0.1c0.4,0.1,0.8,0.1,1.1,0.1l0,0l0,0c1.9-2,7.4-2.8,13.9-2.1  l0.5,0.1l0.3,0.5c0.9,1.6,2.1,3.2,3.5,4.9c3.7,4.5,8.2,10,6,20.2c-0.1,0.7-0.7,0.9-1.1,1c-0.6,0.2-0.7,0.3-0.8,0.7  c0,0.1,0,0.3,0,0.5c0.1,0.6,0.1,1.2-0.1,1.7c-0.2,0.5-0.4,1.1-0.7,1.8c-0.8,2-1.8,4.7-3.1,7.6c-0.4,0.8-1.2,1-1.5,1  c-0.1,0-0.2,0-0.2,0s0,0.2,0,0.4v0.3c-0.1,1.5-0.1,3-1.3,3.8c3.8,4.7,10,6.7,19,6.1h0.5l0.3,0.4c0.9,0.9,1.7,2.1,2.6,3.6l0.8-0.3  c4.2-1.9,8.6-3.8,12-6.5c-1-1.9-3-2.9-5.1-4c-2.2-1.1-4.4-2.3-5.8-4.6c-5.3-5.9-5.5-7-7.6-15.1l-0.1-0.2c0-0.1-0.1-0.3-0.2-0.5  c-0.6-1.9-1.9-6.2,2.2-9.8c0-0.3-0.1-0.8-0.1-1.1c-0.2-1-0.3-1.9,0.1-2.6c0.8-1.2,2.4-2,3.8-2.8c0.8-0.4,1.5-0.8,2-1.2  c0.4-0.3,1.1-1.1,1.7-1.8c1.1-1.2,1.7-1.8,2.2-2.1c1.1-0.6,3-0.4,4.7-0.2c1.2,0.2,2.3,0.3,3,0.1c0.6-0.1,1.2-0.3,1.7-0.4  c1.7-0.5,3.4-0.9,7.8-1.5h0.3c0.3,0,0.7,0,1.1,0.1c0.7,0.1,1.5,0.1,1.9,0.1c1.5-1.7,3.4-2.3,6.3-2l0.5,0.1l0.3,0.5  c0.7,1.3,1.6,2.5,2.5,3.8c3,4.3,6.4,9.2,3.5,15.4c3.4,5.1,3.9,9.4,4.4,13.9c0.2,2.1,0.5,4.2,1,6.6l0.2,1.1l-1.1,0.2  c-0.7,0.1-0.8,0.8-0.9,2.9c0,0.6,0,1.3-0.1,1.8l-0.1,1l-1-0.1c-0.7,0-1.3-0.1-2-0.1c-2.4,0-2.5,0.7-2.6,1.1c0,3.3,3.4,4.4,7.9,5.6  c1,0.3,1.9,0.5,2.7,0.8c3.1,1.1,6.2,1.8,9.3,2.4c2,0.4,3.8,0.8,5.7,1.3l0.4,0.1l0.2,0.4c1.4,2.6,2.2,6.4,3,10.5  c0.5-6.2,1.3-11.9,2.4-16.2c2.4-9.5,9.9-16.6,20.2-19.2c-0.8-1.4-2-2-3.9-2h-1l-0.2-0.7c-0.5-1.5-0.5-3-0.6-4.5c0-2-0.1-4-1.1-6.2  c-0.3,0-0.6,0.1-1,0.1c-0.6,0.1-1.1,0.2-1.5,0.2c-0.2,0-0.9,0-1.3-0.5c-0.7-0.8-0.4-2.2-0.2-3.6c0.1-0.6,0.3-1.7,0.2-2  c-1.7-1.3-1.7-2.7-1.7-4.6c0-1.2,0-2.9-0.4-5.3c-0.1-0.3-0.1-0.6-0.2-1c-0.7-2.9-1.9-8.4,2.4-13l0.6-0.6c1.3-1.4,3.4-3.8,5.2-5.1  c0.6-0.4,1.5-0.4,2.7-0.2c0.4,0.1,0.8,0.1,1.1,0.1c1.6-1.6,5.9-2.2,9.5-2.2c2.9,0,7.4,0.4,12.2,2.1l0.3,0.2  c7.7,6.4,10.5,24.3,5.9,36.8c-0.1,0.4,0,0.6,0,0.6l0,0c0,0,0.2,0.1,0.7,0.1c0.6,0,1.3-0.1,2-0.2c0.8-0.1,1.6-0.2,2.3-0.2  c0.4,0,1.6,0,2.3,0.9c0.4,0.5,0.5,1.3,0.4,2.2c0.3,0.8,0.8,1.3,1.5,1.9c0.8,0.7,1.6,1.5,2,2.8c7.2,0.8,12.1,3.8,16.9,6.7l1.9,1.1  l0.1,0.4c7.2,21.7,4,42.9,0,56.9c0,0.1,0.1,0.7,0.1,1.1c0.2,1.5,0.3,2.5-0.4,3.1c-1.4,1.2-1.7,5.1-2,8.9c-0.2,3.3-0.5,6.6-1.4,9.4  c-0.3,0.8-1,1-1.4,1.1s-0.4,0.1-0.5,0.5c-0.4,8,1.2,22.2,1.9,28c1.5,12.1,2.7,35.4,1.9,58.3c0.9,4.4-2.3,5.2-4.5,5.8  c-1.9,0.5-2.8,0.8-3,1.9l0.2,2.6c1.3,14.2,2.5,27.6,1.6,42.5c-0.2,2.9-0.6,5.8-1,8.6c-0.7,4.8-1.5,9.2-0.8,13.8  c0.6,4.8,2.8,8.6,4.8,12.3c2.4,4.5,4.8,8.7,4.6,14.1v0.7l-0.7,0.2c-0.8,0.2-1.8,0.7-2.9,1.2c-3,1.3-6.7,3-10.8,3l0,0  c-2.8,0-5.4-0.8-7.8-2.4c-3-1.5-1.9-4.1-1.1-5.9c0.3-0.6,0.5-1.2,0.6-1.8c-0.8-0.4-1.8-1.3-1.8-2.5c-0.1-1.7-0.2-3.9,0-5.8  c0.2-2.2,1-4.6,1.8-6.9c0.9-2.7,1.9-5.5,1.9-8c0-2.2-0.5-4.1-1.1-6c-0.3-1-0.6-2.1-0.8-3.2c-0.1-0.7,0-1.6,0.1-3.2  c0.1-1,0.3-2.7,0.2-3.5c-0.1,0-0.1,0-0.2,0c-0.3,0-0.6,0-0.8,0c-0.9,0-1.2-0.6-1.2-0.8c-0.3-1.3-0.6-2.7-0.8-4.2  c-0.3-1.8-0.7-3.6-1-5.2c-0.9-3.4-1-8.1-1.2-13.1c-0.4-10.4-0.8-22.1-7.4-27.3c-4.9,1.4-5,5.9-4.5,12c0.1,1.4,0.2,2.6,0.2,3.8  c-0.1,3.6,0.5,6.9,1,10.1c0.5,3,1,5.8,0.9,8.7c-0.1,4.4-1.1,8.5-2,12.5c-0.9,4.1-1.8,8-1.8,11.9c0.1,6.1,1.7,11.9,3.4,17.5  c2.1,7.2,4,14,2.2,20.3l-0.2,0.6l-0.6,0.1c-7.5,1.9-11.9,1.5-19.3-1.8h-11.5l-0.3-0.3c-1.7-1.8-3.6-3.7-5.6-5.6l-1.1-1.1l1.4-0.6  c0.7-0.3,0.8-1.6,0.9-2.8c0.2-1.9,0.5-4.5,3.2-4.8c0.3,0,0.4,0,0.5,0c1.1,0,1.8-0.4,2.7-0.8c1-0.5,2.1-1.2,4-1.1  c1.1-1.4,1.9-2.8,2.7-4.5c0.7-1.3,1.4-2.8,2.5-4.4c3.4-5.4,0.6-17.9-1.7-27.9L289,330c-2.5-11-2.1-32.8-1.9-39.5  c-1.1-2.7-4.5-3.3-8.2-3.9c-3.1-0.5-6.3-1.1-8.4-3l-0.3-0.3v-0.4c0-4,0-7.9,0-11.7c-0.1-13.6-0.2-26.5,1.9-39.2  c1.2-6.9,2.3-12.2,3.8-18.8c0.1-0.4,0-0.9,0-1.5c-0.1-0.7-0.2-1.5,0-2.3c0.2-0.7,0.3-1.5,0.5-2.5c0.3-1.6,0.7-3.8,1.4-6.9  c0.2-0.9,0.7-1.5,1.1-2s0.7-0.9,0.8-1.6c0.2-2.2-0.4-4.5-1-7c-1.1-4.3-2.3-9.3,0.9-13.7c-0.3-0.5-1.1-0.9-3.3-0.9  c-0.4,0-0.8,0-1.2,0c-0.1,0-0.1,0-0.2,0c0,1.2-0.1,2.3-0.3,3.4c-1.5,7.2-5.8,11.8-12.8,13.7c1.2,3.9,1.2,7.6,1.2,11.5  c0,2.7,0,5.4,0.4,8.2c0.3,2.3,1,4.8,1.7,7.3c0.9,3.2,1.8,6.5,2,9.7c0.4,6.9-0.3,13.5-1,20.5c-0.8,7.8-1.7,15.9-0.9,24.6l0.1,1.1  h-1.1c-0.3,0-0.5,0.1-0.7,1.6c0,0.4-0.1,0.8-0.2,1.1c1,3.9-1.8,4.8-3.5,5.2c-1.8,0.5-2.3,0.8-2.2,2.2v0.2v0.2  c-1.6,7.7-1.1,14.8-0.5,23.1c0.4,6.3,1,13.5,0.5,21.8c-0.3,5.2-1.1,10.3-2,15.3c-1.3,7.6-2.7,15.5-1.8,23.7c1.6,2,4.2,3,6.9,4.1  c3,1.2,6.1,2.4,8,5l0.1,0.2v0.2c0.3,2.1,0,3.7-1,4.9c-1.5,1.8-4.4,2.1-7,2.1c-0.8,0-1.7,0-2.5-0.1c-0.4,0-0.8,0-1.2,0  c-2.1,3.4-6.7,3.8-10.5,3.8c-1.1,0-2.1,0-3.3-0.1h-0.4l-0.3-0.3c-3.9-3.8-4-7.1-4.1-11.2V377c-0.1-2.4,0.5-4.3,1-6.3  c0.5-1.7,0.9-3.3,0.8-5c-0.1-1.6-0.4-2.5-0.8-3.5c-0.4-1-0.8-2.2-1-3.9c-0.3-2.4-0.4-4.4-0.5-6.4c-0.2-3.2-0.3-6.2-1.4-10.4  c-1.6-6.6-2-15.5-2.4-24.9c-0.6-13-1.2-26.4-4.8-36.4c-3.1-0.2-4,3-5,7.4c-0.2,1.1-0.5,2.2-0.8,3.2c-0.6,2-1,3.5-1.3,4.9  c-0.2,0.9-0.4,1.7-0.6,2.6c-2.2,8.3-2.4,22.2-2.7,35.6c-0.2,8.8-0.3,17.9-1,25.6c1,0.9,1.1,2.2,1.2,3.4c0.1,0.8,0.1,1.6,0.5,2.2  c0.5,1.1,1.6,2.1,2.6,3.1c2.6,2.5,5.9,5.6,5,12.5l-0.1,1.1l-1.1-0.2c-1-0.2-1.9-0.3-2.9-0.3c-3.1,0-5.1,1-7.2,2.1  c-2.3,1.2-4.6,2.4-8.2,2.4c-1.3,0-2.7-0.2-4.3-0.5l-0.8-0.2v-0.8c0.1-4.8,0.8-8.8,1.5-12.6c1.1-5.8,2.1-11.4,0.4-19.1  c-0.3-1.6-0.6-3.1-0.9-4.6c-0.3-1.6-0.5-3-0.9-4.4c-0.6-0.2-1.9-0.7-2-2.5c-0.1-1.6-0.4-2.2-0.9-3c-0.3-0.6-0.7-1.3-1-2.4  s-0.2-2.2,0-3.3c0.1-0.9,0.2-1.7,0-2.4c0,0-0.1-0.1-0.2-0.3c-1.1-2.1-3.5-6.4-1.3-8.2c0.2-0.1,0.3-0.2,0.4-0.3  c-0.4-0.5-0.9-1.3-0.8-2.7c0.2-2.7,0.5-5.5,0.9-8.4c0.9-8.3,1.9-16.9,1-27.1v-0.2v-0.2c0.3-1.2,0.3-1.9,0-2.4  c-0.1,1.5-0.2,3-0.4,4.5c-0.8,8.5-2.1,17.2-3.4,25.6c-2,13.3-4.1,27-4.1,40v1.3l-1.3-0.3c-1.7-0.4-3.3-0.7-4.6-0.7  c-5.8,0-7.3,4-9.1,8.7c-0.6,1.4-1.1,2.9-1.8,4.3c0.3,2.8,2.4,3.9,4.7,5.2c1.3,0.7,2.7,1.5,3.8,2.6c1.4-1,3.6-1.6,5.8-1.6  c3.9,0,6.3,1.9,6.4,4.9c0.3,2.7-0.1,4.9-1.5,6.5c-2.4,3-7.2,3.3-11.8,3.7c-0.8,0.1-1.7,0.1-2.5,0.2c-6.2,3.3-13,4.5-21,3.8l-0.6-0.1  l-0.2-0.6c-2-4.9,0.2-9.3,1.9-12.8c0.8-1.7,1.6-3.3,1.8-4.7c0.2-1.2-0.1-3.2-0.3-5.4c-0.5-4-1-8.6,0.4-11.7c0.4-0.8,1.2-1,1.6-1  c0.1,0,0.2,0,0.2,0s0-0.2,0-0.3c-0.2-1.6-1-2.8-1.8-4.1c-1-1.5-2-3.1-2-5.4v-0.4l0.2-0.3c2.2-2.4,2-4.9,1.7-7.8  c-0.1-1.5-0.3-3.1-0.1-4.7c0.2-2,0.6-3.6,1-5.3c0.3-1.3,0.6-2.6,0.9-4.1c0.1-0.7,0-1.6,0-2.4c-0.1-1.1-0.2-2.2,0-3.2  s0.7-1.6,1.1-2.1c0.4-0.5,0.7-0.9,0.8-1.6c0.2-1.7,0.1-3.7,0-5.7s-0.2-3.9,0-5.5c0.1-1,0.4-1.7,0.7-2.5c0.6-1.4,1.2-3,1.1-6.7  c0-1.9-0.5-3.8-1-5.8c-0.4-1.7-0.9-3.5-1-5.4c-1.5,3.3-2,7.2-2.6,11.3c-0.2,1.9-0.5,3.8-0.8,5.7c-0.4,2.1-0.9,4.2-1.3,6.3  c-1,4.6-2.1,9.4-2.4,14.2c-0.3,4.2-0.2,8.7,0,13.4c0.1,4.2,0.3,8.6,0,12.9l-0.1,1.2l-1.2-0.3c-2.3-0.5-3.5,0-4.9,0.8  c-1.1,0.6-2.3,1.3-4.2,1.3c-0.4,0-0.8,0-1.2-0.1c-1.3,4.9-1.3,9-1.4,13.4c0,2-0.1,4-0.2,6.1l0,0l-1-0.1l0,0l-0.1,0.9  c-0.2,0-0.5,0.2-0.8,0.4c2.6,2.6,3.1,10.3-0.1,14.3l-0.3,0.4h-0.5l0,0c-1,0-1.9,0-2.7,0s-1.6,0-2.4,0c-2.7,3.8-8.4,4.3-13.5,4.3  c-1.9,0-3.9-0.1-5.9-0.2l-1.4,0.4c-4.9,1.4-10.9,3.2-16.4,3.2c-4.8,0-8.4-1.3-11.1-3.9l-0.3-0.3V384c0-2.2,0.6-3.3,1.2-4.4  c0.3-0.5,0.5-1,0.8-1.6c0.2-0.6,1-1.5,1.7-2c-0.2-0.2-0.5-0.4-0.7-0.4l0,0c0.4,0,0.7-0.2,0.9-0.7l-2-0.6c0-0.1,0.1-0.2,0.1-0.3  l0.1-0.4c0.5-1.6,1.2-3,1.8-4.4c1.7-3.7,3.2-7,1.7-13.1c-0.1-0.5-0.4-0.8-0.7-1.2c-0.5-0.6-1.1-1.3-1.2-2.7c-0.3-3.1-0.5-6-0.6-8.9  c-0.4-8-0.8-14.9-4.8-20.7l-0.1-0.2v-0.2c-0.8-5.1-0.1-9.4,0.4-13.2c0.6-4.1,1.1-7.7-0.4-10.9l-0.1-0.2v-0.2  c0.1-4.4-2.2-6.3-4.9-8.5c-0.8-0.6-1.6-1.3-2.3-2l-0.3-0.3v-0.5c0.5-5.5,0-10.4-1.4-15.1c-0.8,1.4-0.6,4.3-0.4,7.4  c0.2,2.7,0.4,5.5,0,8l-1-0.2l0,0l0.3,0.9c-0.3,0.2-1.1,0.9-1.2,1.2c-0.5,1.9-0.6,3.4-0.7,5.2c-0.2,2.1-0.4,4.4-1.1,7.9  c-0.2,0.9-0.7,1.5-1.1,2s-0.7,0.8-0.8,1.6c-0.1,1.5,0.4,3.5,0.9,5.6c0.4,1.8,0.9,3.7,1,5.6c0.6,9.2-0.6,18.6-1.8,27.8l-0.1,0.6  c-0.2,1.6-0.5,3.3-0.9,4.9c-0.6,2.9-1.1,5.7-1,8c0.2,4.5,1.7,8.9,3.2,13.2c2.2,6.7,4.5,13.6,2.4,20.9l-0.2,0.5l-0.5,0.2  C71.3,393.3,68.6,393.8,65.8,393.8z M44.6,383.5c4.1,3.2,11.9,8.2,21.2,8.2c2.4,0,4.7-0.3,6.9-1c1.6-6.5-0.4-12.7-2.6-19.2  c-1.5-4.4-3-9-3.3-13.8c-0.1-2.6,0.5-5.6,1-8.5c0.3-1.6,0.6-3.2,0.8-4.8l0.1-0.6c1.2-9.1,2.4-18.4,1.8-27.4c-0.1-1.7-0.5-3.5-1-5.2  c-0.5-2.2-1-4.3-0.9-6.2c0.1-1.4,0.7-2.2,1.2-2.8c0.3-0.4,0.6-0.7,0.7-1.2c0.7-3.4,0.9-5.6,1.1-7.6c0.2-1.9,0.3-3.5,0.8-5.6  c0.2-0.8,1.1-1.8,1.9-2.3c0.2-2.1,0.1-4.5-0.1-6.9c-0.4-4.7-0.7-9.2,2.6-10.3l1-0.3l0.3,1c1.8,5.3,2.4,10.7,2,16.8  c0.6,0.5,1.2,1.1,1.8,1.6c2.6,2.2,5.6,4.6,5.6,9.9c1.6,3.7,1.1,7.5,0.4,11.8c-0.5,3.6-1.1,7.7-0.5,12.4c4.2,6.3,4.6,13.4,5,21.6  c0.1,2.8,0.3,5.7,0.6,8.8c0.1,0.7,0.4,1.1,0.8,1.6s0.9,1.1,1.1,2c1.6,6.8-0.2,10.7-1.9,14.4c-0.6,1.2-1.1,2.5-1.6,3.8  c0.4,0.2,0.8,0.5,1.1,0.8c0.4,0.4,0.6,0.9,0.6,1.5l0,0l-0.1,0.4v0.1l-1-0.2l0.4,0.9c-0.3,0.2-1.2,1-1.3,1.3  c-0.3,0.8-0.6,1.4-0.9,1.9c-0.5,0.9-0.9,1.6-0.9,2.9c2.3,2,5.4,3,9.4,3c5.3,0,11.1-1.7,15.9-3.1l1.7-0.5h0.2c2.1,0.1,4.1,0.2,6,0.2  c4.5,0,9.3-0.4,11.6-3.1l-0.4-1.3h2.1c0.8,0,1.7,0,2.6,0c0.8,0,1.5,0,2.3,0c2.4-3.5,1.7-9.8-0.1-11.3c-0.6-0.5-0.8-1.2-0.6-1.8  c0.3-0.8,1.3-1.5,2.1-1.8c0.1-1.8,0.1-3.5,0.1-5.1c0.1-4.8,0.2-9.3,1.7-14.9l0.3-1l1,0.2c2.3,0.5,3.5,0,4.9-0.8  c1.2-0.7,2.8-1.6,5.2-1.3c0.1-3.8,0-7.7-0.1-11.5c-0.1-4.8-0.3-9.2,0-13.6c0.4-5,1.4-9.8,2.5-14.5c0.5-2.1,0.9-4.2,1.3-6.3  c0.3-1.8,0.6-3.7,0.8-5.6c0.7-5.6,1.5-11.4,5-15.6l2.6-3.1l-0.8,4c-0.6,2.9,0.1,5.6,0.8,8.5c0.5,2,1,4.1,1.1,6.3  c0.1,4.1-0.7,6-1.3,7.5c-0.3,0.7-0.5,1.3-0.6,2c-0.2,1.4-0.1,3.2,0,5.2c0.1,2.1,0.2,4.3,0,6.1c-0.2,1.3-0.8,2-1.2,2.6  c-0.3,0.4-0.6,0.7-0.7,1.2c-0.2,0.8-0.1,1.7,0,2.6c0.1,1,0.2,2,0,3c-0.3,1.6-0.6,2.9-0.9,4.3c-0.4,1.7-0.8,3.2-1,5.1  c-0.2,1.5,0,2.9,0.1,4.3c0.3,3,0.5,6.1-2,9.1c0.1,1.5,0.8,2.6,1.6,3.9c0.9,1.4,1.9,2.9,2.1,5c0.3,2.3-1.4,2.5-2,2.6h-0.1  c-1,2.7-0.5,7-0.1,10.5c0.3,2.4,0.5,4.5,0.3,6c-0.3,1.7-1.1,3.4-2,5.3c-1.6,3.3-3.3,6.7-2,10.5c7.5,0.6,13.7-0.6,19.4-3.7l0.4-0.1  c0.9-0.1,1.8-0.2,2.7-0.2c4.2-0.3,8.5-0.6,10.3-2.9c1-1.2,1.3-2.8,1-5.1c0-2.7-3-3-4.3-3c-2.1,0-4.3,0.7-5.2,1.6l-0.9,0.9l-0.7-1  c-0.9-1.2-2.3-2-3.8-2.8c-2.6-1.4-5.5-3-5.8-7.1v-0.3l0.1-0.3c0.7-1.3,1.3-2.8,1.9-4.3c1.8-4.7,3.8-10.1,11.1-10.1  c1.2,0,2.5,0.1,3.9,0.4c0.2-12.8,2.2-26.1,4.1-39c1.3-8.4,2.6-17,3.4-25.5c0.2-2.1,0.4-4.2,0.5-6.4l0.1-1.5l1.4,0.6  c1.6,0.7,3.4,2,2.5,5.7c0.9,10.4-0.1,19-1,27.4c-0.3,2.8-0.6,5.6-0.9,8.3c-0.1,0.9,0.2,1.1,0.4,1.4c0.2,0.2,0.6,0.6,0.6,1.2  c0,0.7-0.5,1.2-1.4,1.9c-0.1,0.1-0.8,0.8,1.8,5.6c0.3,0.5,0.4,0.7,0.4,0.9c0.2,1,0.1,2.1,0,3.1c-0.1,0.9-0.2,1.8,0,2.5  c0.2,0.8,0.5,1.4,0.8,1.9c0.5,0.9,1,1.9,1.1,3.9c0,0.4,0.1,0.5,0.7,0.6c0.4,0.1,1,0.3,1.2,1c0.4,1.5,0.7,3.2,1,4.9  c0.3,1.4,0.5,3,0.9,4.5c1.8,8.2,0.8,13.9-0.4,19.9c-0.6,3.5-1.3,7.1-1.5,11.4c1.1,0.2,2.1,0.3,3,0.3c3.1,0,5.1-1,7.2-2.2  c2.3-1.2,4.6-2.4,8.2-2.4c0.7,0,1.4,0,2.1,0.1c0.4-5.1-2.1-7.5-4.5-9.7c-1.2-1.2-2.4-2.3-3.1-3.7c-0.5-1-0.6-2.1-0.7-3  c-0.1-1.3-0.2-1.9-0.8-2.2l-0.6-0.3l0.1-0.7c0.7-7.7,0.9-17,1.1-26c0.2-14.2,0.5-27.6,2.7-36.1c0.2-0.9,0.4-1.7,0.6-2.5  c0.3-1.5,0.7-3,1.3-5.1c0.3-0.9,0.5-1.9,0.7-3c1-4.4,2.2-9.9,7.9-9l0.6,0.1l0.2,0.6c3.9,10.4,4.5,24.2,5.2,37.6  c0.4,9.3,0.9,18.1,2.4,24.5c1.1,4.4,1.2,7.5,1.4,10.8c0.1,1.9,0.2,3.9,0.5,6.2c0.2,1.5,0.5,2.5,0.9,3.4c0.4,1.1,0.8,2.3,1,4.1  c0.1,2-0.4,3.9-0.9,5.7c-0.5,1.8-1,3.6-1,5.6v0.8c0.1,4,0.1,6.5,3.2,9.5c0.9,0,1.9,0.1,2.8,0.1c5.2,0,7.9-1,9-3.3l0.3-0.6h0.7  c0.6,0,1.3,0,1.9,0c0.8,0,1.6,0.1,2.4,0.1c2.1,0,4.4-0.2,5.4-1.3c0.5-0.6,0.7-1.6,0.5-3c-1.5-2-4.2-3-6.9-4.1c-3-1.2-6.1-2.4-8-5.1  l-0.2-0.2v-0.3c-0.9-8.6,0.4-16.7,1.8-24.6c0.8-4.9,1.7-10,2-15c0.4-8.2-0.1-15.3-0.5-21.5c-0.6-8.4-1.1-15.6,0.5-23.5  c-0.3-3,2.1-3.7,3.7-4.2c1.9-0.5,2.6-0.8,2-3l-0.1-0.3l0.1-0.3c0.1-0.3,0.1-0.7,0.2-1.1c0.1-1,0.3-2.6,1.6-3.1  c-0.7-8.5,0.1-16.4,0.9-24.1c0.7-6.9,1.4-13.4,1-20.2c-0.2-2.9-1.1-6.1-2-9.2c-0.7-2.5-1.4-5.1-1.8-7.6c-0.4-3-0.4-5.8-0.4-8.5  c0-4.1,0-8-1.4-11.9l-0.4-1.1l1.1-0.3c6.9-1.6,11-5.6,12.4-12.3c0.2-1.2,0.3-2.5,0.2-3.9l-0.1-1.1h1.1l0,0c0.4,0,0.8,0,1.2,0  c0.4,0,0.8,0,1.3,0c1.6,0,4.9,0,5.5,2.9l0.1,0.5l-0.3,0.4c-3,3.8-2,8-0.9,12.4c0.6,2.5,1.3,5.1,1.1,7.7c-0.1,1.4-0.7,2.1-1.2,2.8  c-0.3,0.4-0.6,0.7-0.7,1.2c-0.7,3-1.1,5.2-1.4,6.8c-0.2,1.1-0.3,1.9-0.5,2.6c-0.1,0.4,0,1,0,1.6c0.1,0.7,0.2,1.4,0,2.2  c-1.5,6.6-2.6,11.8-3.7,18.7c-2.1,12.4-2,25.2-1.9,38.8c0,3.7,0.1,7.4,0,11.3c1.6,1.3,4.3,1.8,7,2.2c4.2,0.7,8.5,1.4,9.9,5.4  l0.1,0.2v0.2c-0.4,13.3-0.1,30.5,1.9,39.2l0.3,1.3c2.4,10.4,5.3,23.4,1.4,29.5c-1,1.6-1.7,2.9-2.4,4.3c-1,1.9-1.9,3.5-3.3,5.2  l-0.4,0.4l-0.5-0.1c-1.5-0.2-2.3,0.3-3.3,0.8c-1,0.6-2.2,1.2-4.2,1.1c-0.7,0.1-0.9,0.8-1.1,2.9c-0.1,1.3-0.3,2.7-1,3.6  c1.6,1.5,3.1,3.1,4.5,4.6l11.3,0.1c6.9,3.2,10.8,3.6,17.5,2c1.4-5.6-0.4-11.9-2.4-18.6c-1.7-5.8-3.4-11.7-3.5-18.1  c0-4.2,0.9-8.2,1.8-12.4c0.9-3.9,1.8-7.9,1.9-12.1c0.1-2.7-0.4-5.4-0.9-8.3c-0.5-3.3-1.1-6.6-1-10.5c0-1.1-0.1-2.3-0.2-3.6  c-0.4-5.3-0.9-12.6,6.6-14.3l0.5-0.1l0.4,0.3c7.7,5.7,8.2,18.2,8.6,29.2c0.2,4.9,0.3,9.5,1.2,12.7c0.4,1.6,0.8,3.5,1.1,5.3  c0.2,1.1,0.4,2.3,0.6,3.3l0,0c0.3,0,0.6,0,0.8,0c0.2,0,0.6,0,1,0.3c0.9,0.8,0.7,2.6,0.4,5.5c-0.1,1-0.2,2.2-0.2,2.6  c0.2,1,0.5,2,0.8,3c0.6,2,1.1,4.1,1.1,6.6c0,2.9-1,5.9-2,8.7c-0.8,2.3-1.6,4.4-1.7,6.4c-0.2,1.8-0.1,3.9,0,5.5c0,0.4,0.7,0.8,1,0.9  l-0.2,1l1-0.1c0,0.1,0,0.2,0,0.2v0.3l0,0c0,1-0.4,1.9-0.8,2.9c-0.9,2.1-1,2.7,0.3,3.3c2.2,1.5,4.3,2.1,6.8,2.1l0,0  c3.7,0,7.2-1.5,10-2.8c0.9-0.4,1.7-0.8,2.5-1c-0.1-4.6-2.2-8.4-4.4-12.4c-2.1-3.9-4.3-7.9-5-13c-0.7-4.8,0.1-9.7,0.8-14.4  c0.4-2.7,0.9-5.6,1-8.3c0.8-14.7-0.4-28.1-1.6-42.2l-0.3-2.9V289c0.4-2.7,2.7-3.2,4.6-3.7c2.4-0.6,3.5-1,2.9-3.5v-0.1v-0.1  c0.8-22.8-0.4-46-1.9-58.1c-0.7-5.8-2.3-20.2-1.9-28.3c0.1-1.9,1.4-2.3,2-2.4l0,0c0.8-2.5,1-5.6,1.2-8.6c0.3-4.5,0.6-8.3,2.6-10.1  c0-0.3-0.1-1.1-0.1-1.5c-0.1-0.9-0.2-1.5,0-1.9c3.9-13.6,7-34.3,0.1-55.4l-1.2-0.7c-5-3-9.7-5.9-16.8-6.4l-0.8-0.1l-0.1-0.8  c-0.2-1.1-0.8-1.7-1.6-2.4c-0.8-0.8-1.7-1.6-2.1-3.1l-0.1-0.3l0.1-0.3c0.1-0.5,0.1-0.7,0.1-0.7s0-0.1-0.7-0.1c-0.6,0-1.3,0.1-2,0.2  c-0.8,0.1-1.6,0.2-2.3,0.2l0,0c-0.4,0-1.6,0-2.3-0.9c-0.5-0.6-0.6-1.4-0.3-2.5c4.3-11.6,1.7-28.6-5.2-34.5C306,61.7,302,61,298.2,61  c-4.6,0-7.5,1-8,1.7c-0.5,0.6-1.6,0.6-2.9,0.4c-0.4-0.1-0.8-0.1-1.1-0.1c-1.6,1.1-3.7,3.5-4.8,4.8l-0.6,0.7  c-3.5,3.8-2.5,8.4-1.9,11.2c0.1,0.4,0.2,0.8,0.2,1.1c0.5,2.6,0.5,4.4,0.5,5.6c0,1.8,0,2.3,1,3.1c0.9,0.8,0.7,2.3,0.4,3.8  c-0.1,0.5-0.2,1.2-0.2,1.7c0.3,0,0.6-0.1,0.9-0.1c1.5-0.2,2.6-0.2,2.9,0.6c1.4,2.8,1.4,5.3,1.5,7.5c0,1.2,0,2.2,0.3,3.2  c2.9,0.1,4.8,1.6,5.8,4.4l0.4,1.1l-1.1,0.2c-10.2,2.2-17.6,8.9-19.9,18c-1.6,6.4-2.7,16.4-2.7,26.1l-2,0.2c-0.3-1.8-0.6-3.6-0.9-5.4  c-0.9-5.7-1.7-11-3.3-14.3c-1.7-0.4-3.3-0.8-5.1-1.2c-3.1-0.7-6.3-1.3-9.5-2.5c-0.7-0.3-1.6-0.5-2.5-0.7c-4-1-9.5-2.5-9.4-7.8  c0.4-3,3.6-3,4.6-3c0.3,0,0.7,0,1.1,0c0-0.2,0-0.4,0-0.7c0-1.6,0.1-3.7,1.6-4.6c-0.4-2.1-0.7-4-0.9-5.9c-0.6-4.6-1-8.6-4.4-13.5  l-0.3-0.5l0.3-0.6c2.9-5.4,0-9.5-3-13.8c-0.8-1.1-1.6-2.3-2.3-3.5c-2.3-0.1-3.4,0.5-4.2,1.5c-0.4,0.5-1.1,0.5-1.7,0.5  c-0.5,0-1.2-0.1-1.8-0.1c-0.4,0-0.8-0.1-1-0.1c-4.3,0.5-5.9,1-7.6,1.4c-0.6,0.2-1.1,0.3-1.8,0.5c-1,0.2-2.4,0.1-3.8-0.1  c-1.4-0.2-2.9-0.3-3.5,0c-0.2,0.1-1,1-1.6,1.6c-0.8,0.8-1.5,1.6-2,2c-0.7,0.5-1.5,0.9-2.3,1.4c-1.3,0.7-2.5,1.3-3.1,2.2  c0,0.1,0.1,0.7,0.2,1.1c0.2,1.1,0.4,2.2-0.4,2.9c-3.3,2.7-2.3,6-1.7,7.7c0.1,0.2,0.1,0.5,0.2,0.6l0.1,0.2c2,8,2.2,8.7,7.2,14.4  c1.2,1.9,3.1,2.9,5.1,3.9c2.6,1.3,5.2,2.7,6.4,5.8l0.3,0.7l-0.5,0.5c-3.7,3.2-8.4,5.3-13.1,7.4l-2.4,1.1l-0.5-0.8  c-0.9-1.5-1.7-2.7-2.5-3.7c-10.1,0.6-17.1-2-21.1-8l-0.8-1.3l1.5-0.3c0.8-0.2,0.9-0.3,1.1-2.5v-0.3c0.1-2.1,1.4-2.3,2-2.4h0.1  c1.2-2.8,2.2-5.4,3-7.4c0.3-0.7,0.5-1.4,0.7-1.8c0-0.1,0-0.5,0-0.8s0-0.6,0-0.8c0.1-1.7,1.4-2.3,2-2.5c1.8-9-2-13.6-5.7-18.1  c-1.3-1.6-2.5-3.1-3.5-4.7c-1.3-0.1-2.6-0.2-3.9-0.2c-5,0-7.3,1.2-7.8,1.8c-0.5,0.6-1.2,0.6-1.5,0.6c-0.4,0-0.9-0.1-1.5-0.2  c-0.4-0.1-0.8-0.1-1.1-0.1c-0.4,0.2-1.3,1.2-1.9,1.9c-0.6,0.7-1.2,1.3-1.7,1.7l-0.5,0.4c-3.2,2.6-3.3,2.7-4.8,6.7  c-3.2,8.7,0.8,21.7,3.8,31.3l0.5,1.6l-1.6-0.2c-1.2-0.2-2.5-0.3-3.6-0.3c-4,0-7,1-10.1,2.1c-1.9,0.7-3.9,1.4-6.1,1.8  c-0.7,1.4-1.7,2.7-2.7,3.9c-1.3,1.7-2.5,3.3-2.6,4.6c-0.1,1.8-1.1,2.2-1.9,2.4c-0.1,0-0.1,0-0.1,0c-2,4.2-3.3,8.8-4.5,13.2  c-0.5,1.9-1,3.6-1.5,5.3l-1.2,3.8l-0.8-3.9c-2.5-12.3-6.3-23.9-10.9-32.8c-2-1.5-5.1-2.1-8.1-2.7c-4.2-0.8-8.5-1.7-10.7-4.9  l-0.3-0.5l0.2-0.5c3.1-6.8,4.3-14.6,3.7-23.9l-0.1-1.1H94c0.6,0,1.3,0,1.9,0c0.8,0,1.6,0.1,2.4,0.1c2.1,0,4.4-0.2,5.4-1.3  c0.6-0.7,0.7-1.7,0.5-3.2c0-0.6-0.1-1.3-2.2-1.3c-0.9,0-2,0.1-3,0.2c-2,0.2-4.1,0.4-5.3,0l-0.3-0.1l0-0.1  c-4.7-6.6-10.6-13.7-19.7-12.7c-2.3,0.3-2.7,0.7-3.3,1.6c-0.4,0.5-0.9,1.2-1.8,1.9c-1.1,0.8-2.3,0.9-3.3,1c-1.1,0.1-1.7,0.2-2.1,0.7  c-0.8,0.9-1.1,2.4-1.4,4.1c-0.6,2.6-1.2,5.5-3.8,7.1c1.5,7.1,3.2,14.7,5.4,21.7l0.6,1.8l-1.8-0.5c-0.6-0.2-1.1-0.2-1.5-0.2  c-1.6,0-2.1,1.1-2.4,3.4c-0.1,0.9-0.2,1.6-0.7,2.1c-0.6,0.7-2,1-5.1,1.5c-1,0.2-2.4,0.4-2.7,0.6c-2.9,1.9-6.2,2.6-9.1,3.3  c-0.7,0.2-1.5,0.3-2.2,0.5c-8.2,8-13.7,22-14.5,36.7c-0.1,1.5-1.3,2.2-2,2.5c-1.8,11-0.6,18.5,0.1,23.6c0.8,5.7,1.4,9.3,1.9,11.2  c0.2,0.7,0.1,1.5,0,2.2c-0.1,0.6-0.1,1.1,0,1.5c0.1,0.2,0.9,0.9,1.5,1.4c1.2,1,1.9,1.7,2.2,2.3c1,2,1.6,3.8,2,5.5  c0.5,1.6,0.9,3,1.5,3.7c1.2,1.3,2,2.6,2.8,4c0.3,0.6,0.7,1.2,1.1,1.8c4.6,7.2,3.1,27.5,2.2,39.6l-0.2,2.3c-0.1,2-0.5,4.2-0.9,6.4  c-0.5,2.7-0.9,5.5-1,8.2c1.8,2,4.8,3.1,7.9,4.2c3.2,1.2,6.6,2.4,8.8,4.9l0.3,0.3v0.4c-0.4,5.2-0.2,10,0.1,14.6  c0.3,4.8,0.5,9.4-0.1,13.6c-0.2,1.3-0.6,2.1-1,2.9c-0.6,1.1-1,2.1-0.9,4.4c0,0.7,0.3,1.1,0.8,1.6c0.4,0.5,0.9,1.1,1.1,2  c0.3,1.5,0.4,2.7,0.4,3.7c0,1.6,0,2.3,1.2,3.3c0.7,0.6,0.6,1.6,0.4,3.1c0,0.4-0.1,1-0.1,1.2c2.8,10,4.7,19.9,5.7,30.2v0.3l-0.2,0.3  c-1.7,3-4.5,4.8-7.2,6.5C48.6,376.4,45.2,378.5,44.6,383.5z M128,373.3l-2-0.7c-1.6-0.6-3.4-1.1-5.1-1.6c-2.9-0.8-5.8-1.7-8.4-3  l-0.5-0.2l-0.1-0.5c-0.3-2.2-1.6-3.3-3.1-4.7c-0.8-0.7-1.6-1.4-2.3-2.4l-0.2-0.2v-0.3c-0.6-9.5,0.1-18.7,0.9-27.6  c0.5-6.7,1.1-13.1,1-19.4c0-1.5-0.4-3.3-0.9-5.3s-0.9-4-1-6l-0.1-1.6c-0.2-3.9-0.5-8.3,2.1-12.1c1.1-3,4.3-3.6,7.2-4.2  c3.7-0.8,6-1.4,5.9-4.7c-1.3-7.6-1.7-16.5-2.1-25.1c-0.5-10.9-1-22.1-3.5-31l-0.2-0.8l0.7-0.4c1.6-1,2.6-4.5,3.1-6.3l0.2-0.6  c0.6-1.9,1.3-5.9,1.8-8.6l0.4-2.7l0,0l0.4-4.9c0.3-3.8,0.4-7.8,0.3-11.8v-0.9l0.8-0.2c1.4-0.3,4.2-0.6,7.1-0.3l1.4,0.2l-0.5,1.3  c-1.1,2.5-2.5,4.8-3.9,7c-1.1,1.7-2.2,3.4-3.2,5.3l-2.3,4.5l1.4,2.2c0.4,0.7,0.5,1,0.5,1.1c1.3,5.3,0.3,9.8-0.6,13.4  c-0.9,3.6-1.2,5.5,0.3,6.7c1,0.8,0.3,2.1-0.5,3.4c-0.8,1.4-2,3.3-1.2,4.3c1.3,2.1,3.7,2.6,6.1,3c2.9,0.5,6.2,1.1,7.2,4.9  c3,19,5.8,40.2,1.9,53.1c-1.2,4.1-1.8,7.2-2.5,10.6c-0.4,2-0.8,4-1.3,6.3c-0.4,1.6-0.7,3.1-1.1,4.6c-1.5,5.8-2.8,11.2-2.6,17.7  c0.1,2.9,1,3.7,1.9,4.5c0.7,0.6,1.5,1.4,1.9,2.8c0.9,3.8,0.5,7.1,0.1,10.4c-0.4,2.9-0.7,5.6-0.1,8.4c0.9,3.5-0.9,4.7-2.2,5.6  c-1,0.7-1.5,1.1-1.5,2.1v0.8l-0.7,0.2c-0.7,0.2-1.2,0.5-1.4,0.8c0,0.1-0.2,0.3,0.1,1L128,373.3z M113.9,366.4  c2.3,1.1,4.9,1.9,7.5,2.6c1.2,0.4,2.5,0.7,3.7,1.1c0-0.3,0.1-0.6,0.3-0.8c0.4-0.7,1-1.2,2-1.6c0.3-1.7,1.5-2.5,2.4-3.1  c1.2-0.8,1.9-1.3,1.3-3.4c-0.7-3.3-0.3-6.3,0.1-9.2c0.4-3.2,0.8-6.2-0.1-9.6c-0.2-0.8-0.6-1.2-1.2-1.8c-1.1-1-2.4-2.2-2.5-6  c-0.2-6.8,1.2-12.3,2.7-18.3c0.4-1.5,0.8-3,1.1-4.5c0.5-2.2,0.9-4.2,1.3-6.2c0.6-3.4,1.2-6.6,2.5-10.8c3.8-12.5,1-33.5-1.9-52.1  c-0.6-2.3-2.5-2.7-5.5-3.3c-2.6-0.5-5.5-1-7.2-3.5c0.6,5.7,0.9,11.8,1.1,17.7c0.4,8.5,0.8,17.3,2.1,24.9c0.2,5.3-4.1,6.2-7.5,6.9  c-2.6,0.5-5,1-5.7,3l-0.1,0.3c-2.2,3.2-2,7.1-1.8,10.9l0.1,1.6c0.1,1.8,0.5,3.7,1,5.6c0.5,2,0.9,3.9,0.9,5.7  c0.1,6.4-0.5,12.8-1,19.5c-0.7,8.7-1.5,17.8-0.9,27c0.5,0.7,1.2,1.2,1.9,1.8C111.7,362.4,113.4,363.8,113.9,366.4z M118,222.9  c0.7,2.8,1.3,5.9,1.7,9c0.4-1,0.9-2,1.4-2.7c0.2-0.3,0.5-0.8,0.6-1.1c-2.1-2.1-1.4-5.1-0.6-8.5c0.5-2.2,1.1-4.7,1.2-7.5  c-0.3,1.2-0.5,2.3-0.8,3.2l-0.2,0.6C120.8,217.9,119.9,221.3,118,222.9z M124.5,187.5c0,2.3,0,4.6-0.1,6.8c0.4-0.6,0.7-1.1,1.1-1.7  c1.2-1.8,2.3-3.5,3.2-5.3C127.2,187.2,126,187.3,124.5,187.5z"
   id="path4465" />
<path
   class="st0"
   d="M535.1,107.1c0.3-1.7,0.7-3.6,0-5.5c-0.1-0.4-0.4-0.6-1.9-2c-1.2-1.2-2.9-2.7-3.9-3.9c-0.8-1-1.5-1.9-2.1-2.7  c-2.5-3.3-3.8-4.9-8-5.2c-2.3-0.1-3.9-1.1-5.5-1.9c-1.7-1-3.4-2-5.9-1.8h-0.4l-0.3,0.3c-2.2,2.1-1.3,3.7-0.8,4.8  c0.3,0.6,0.5,1,0.5,1.5c-0.2,1.9-0.9,4.1-1.6,6.4c-1.2,3.7-2.5,7.9-2.2,12.6v0.2l0.1,0.2c2.3,3.9,8.2,4.3,13.5,4.3  c1.2,0,2.3,0,3.5,0c2.2,0,4.4-0.1,6.4,0c1.2,0.1,2.5,0.4,3.8,0.8s2.5,0.7,3.6,0.7c2,0,2.8-1.2,3.1-2.2l0.2-0.8l-0.7-0.4  C534.4,111.1,534.6,109.7,535.1,107.1z M530.9,113c-1.3-0.4-2.8-0.8-4.2-0.8c-1,0-2-0.1-3.1-0.1s-2.3,0-3.5,0  c-6.2,0.1-12.8,0.3-15-3c-0.2-4.2,1-8,2.1-11.6c0.7-2.4,1.4-4.6,1.7-6.8c0.1-1.1-0.3-2-0.7-2.7c-0.5-0.9-0.7-1.2,0.1-2l0,0  c1.6,0,2.9,0.7,4.4,1.6c1.7,1,3.6,2.1,6.4,2.2c3.3,0.2,4,1.2,6.5,4.4c0.6,0.8,1.3,1.7,2.2,2.8c1.1,1.3,2.8,3,4.1,4.2  c0.5,0.5,1.2,1.1,1.4,1.3c0.4,1.3,0.2,2.7-0.1,4.2c-0.4,2.2-0.9,4.8,1.6,6.8C534.1,113.8,532.5,113.5,530.9,113z"
   id="path4467" />
<path
   class="st0"
   d="M774.6,203.5c2.1-8.3,2.7-16.6,1.9-24.8c-0.1-1.3-0.7-2.1-1.2-2.7c-0.3-0.4-0.6-0.7-0.7-1.2  c-1.2-5.4-1.8-10.2-2.3-14.4c-0.4-3.5-0.8-6.8-1.5-10c-1.5-6.8-2.4-10.2-3.9-11.7c0-0.3,0.1-0.8,0.1-1.2c0.2-1,0.3-1.8-0.1-2.5  c-0.1-0.2-0.4-0.6-3.9-4c-1.1-1-2.3-1.8-3.6-2.5c-0.7-0.4-1.5-0.9-2.2-1.4c-0.4-0.3-0.9-0.9-1.4-1.5c-0.8-0.9-1.5-1.9-2.5-2.4  c-1.6-0.8-3-1-4.3-1.2c-1-0.1-2-0.3-3-0.6c-0.5-0.7-1-1.5-1.5-2.4c-1-1.6-2-3.3-3.5-4.6c1.6-4.3,2.1-9.3-0.4-11.6  c0-0.3,0.1-0.9,0.1-1.3c0.1-1,0.2-1.7,0-2.2c-0.6-1.6-0.9-5.8-1.2-9.2c-0.2-3.2-0.4-5.1-0.7-5.9c-0.4-0.9-1.2-1.1-1.8-1.1  c0-0.1,0-0.2-0.1-0.4c-0.2-2.9-2.5-4.5-4.6-5.9c-1.9-1.3-3.1-2.1-2.9-3.4l0.1-1.1h-22.4l-0.3,0.6c-1.6,3.1-4,5.5-7.1,7.1l-0.4,0.2  l-0.1,0.4c-0.2,0.5-0.7,1-3.1,1c-0.5,0-1,0-1.5,0s-1.1,0-1.6,0c-1.7,0-3.5,0.2-4.6,1.5c-0.7,0.9-0.9,2-0.5,3.6  c-0.1,1.3,0.1,2.3,0.8,3.1c1.3,1.5,3.6,1.5,5.9,1.5c2.6,0,4.3,0.1,4.6,1.1c0.1,2.4-0.7,3.7-1.8,5.2c-0.8,1.1-1.6,2.3-2,3.9l-0.3,1.2  l1.2,0.1c2.9,0.1,3,3.1,2.8,8.1c-0.1,1.4-0.1,2.8,0,3.9c-0.1,0.9,0.1,1.7,0.6,2.2c0.7,0.8,1.9,1,2.9,1c0.5,0,1.1,0,1.6-0.1  c0.5,0,1-0.1,1.5-0.1c1.1,0,1.3,0.2,1.4,0.3c0,0,0.2,0.4-0.2,1.6c-1,0.4-2.2,1.4-2.2,3.6c-0.2,0-0.4,0-0.7,0c-1.7,0-3.9,0.1-4.7,1.9  c-2.5,0.5-3.3,2.6-3.9,4.3c-0.7,1.9-1.2,3-2.8,3.1h-1v1c0,0.9,0,1.8,0,2.8s0,1.9,0,2.9c0,0.3-0.3,0.5-0.6,0.7l-1.1-1.1l-0.2,2.3  c-0.3,3.5-0.2,7.4,0,11.3c0.2,3.9,0.4,7.9,0,11.2c-0.2,1.7-0.6,3.1-1,4.5c-0.5,1.7-0.9,3.2-0.9,5c0,1.1,0.2,2.2,0.4,3.3  c-0.3-0.7-0.6-1.3-0.9-1.9c-5.3-10.3-8.8-20.4-11.2-31.7l-0.2-0.8l-0.8-0.1c-3.5-0.2-5.2-2.8-6.5-4.8c-0.9-1.3-1.6-2.4-2.7-2.7  c-0.4-0.1-0.7-0.1-1.1-0.1c0-0.2,0-0.5,0-0.7c0.4-1.4,1-2.9,1.6-4.6c2.8-8,6.7-19,4-27.7c-0.3-0.9-1.1-1.4-2-1.8  c-1.1-0.6-1.7-1-1.7-1.7c-0.3-5.3-7.7-8.1-10.3-8.5c-3.6-0.5-6.1,0.4-9,1.6c-1.7,0.7-3.7,1.5-6.4,2.2l-0.7,0.2l-0.1,0.7  c-0.2,1.7-1,3.3-1.8,4.9c-0.7,1.3-1.4,2.7-1.9,4.3c-0.6,2.2-0.9,4.5-1.2,6.7c-0.2,1.6-0.4,3.2-0.7,4.6c-0.4,1.6-0.8,3.3-1.4,5.1  c-1.6,5.4-3.2,10.9-1,15.3c-6.3,3-11,6.1-13.9,10.9c-0.6-3.9-1.8-7.9-2.5-10c-0.2-0.5-0.3-0.9-0.3-1.1l-0.9,0.1l0.8-0.5  c-0.3-0.5-0.5-1-0.7-1.5c-0.3-0.8-0.6-1.6-1.3-2.4l-0.2-0.2l-0.2-0.1c-2.2-0.7-3.1-2.1-3-4.6v-0.8l-0.8-0.2  c-1.2-0.3-2.4-0.6-3.6-0.9c-3.6-0.9-7.1-1.7-8.8-4c0.1-4.5,2-8.1,3.8-11.6c1.7-3.2,3.4-6.5,3.7-10.5c0.2-2.4-0.4-4.8-1.1-7.3  c-0.9-3.5-1.8-7-0.8-11.3l0.1-0.5l-0.3-0.4c-3.2-4.4-8.4-6.9-14.6-6.9c-6.3,0-12.6,2.5-17,6.7l-0.3,0.2v0.3  c-0.2,1.7-0.5,3.2-0.8,4.8c-0.9,4.7-1.8,9.6-1,16.2c0.5,2.2,1.9,3.4,3.2,4.4c1.8,1.5,3.2,2.7,2.4,6.4c-1.1,4.1-5.3,5.4-9.3,6.7  c-1.3,0.4-2.6,0.8-3.8,1.3c0.7-5.8-1.4-7.9-3.2-9.7c-1.5-1.6-2.9-2.9-2.5-6.8l0.1-0.7l-0.6-0.3C545,96,533.9,90.2,527,80.4l-0.3-0.5  h-1c-3.3,0-5.6-0.9-8.1-1.9s-5.2-2.1-8.9-2.1c-0.7,0-1.3,0-2,0.1c0.6-4.8-1.4-5.7-4.1-6.4c-0.8-0.2-1.6-0.4-2.3-0.8  c-3.2-2-6.7-3.1-10.2-3.1c-7.6,0-14,5.3-15.8,13.1c-0.6,2.5-0.4,5.3-0.1,8.2c0.2,2.8,0.5,5.7,0.1,8.8V96v0.2  c0.5,2.2,1.9,3.4,3.2,4.4c1.7,1.4,3.1,2.5,2.5,5.8c-3.7,1.2-6.1,4-8.4,6.7c-1.4,1.7-2.8,3.3-4.5,4.5c-2.2,1.6-4.7,2.7-7.3,3.8  c-3.3,1.4-6.8,2.9-9.7,5.7l-0.3,0.3v0.4c-0.2,2-0.5,4.1-0.7,6.1c-0.2,1.5-0.4,2.9-0.5,4.4c-1.1-2.4-2.3-4.5-3.6-6.2l-0.2-0.2  c-2.7-2-6.1-3.3-9.3-4.6c-4.1-1.6-7.9-3.1-10.5-5.8c4.6-4.5,5.5-12.6,6.4-20.4c0.2-2,0.4-3.9,0.7-5.9l0.1-0.5l-0.3-0.4  c-0.5-0.5-1-1-1.5-1.6c-4.7-5-10.6-11.2-17.9-11.9c-1.7-0.2-3.4,0.5-4.9,1.1c-2.1,0.8-4.1,1.5-6.1,0.8l-0.9-0.3l-0.4,0.8  c-0.8,1.6-1.9,3.2-3.1,4.9c-2.7,4-5.8,8.5-6.4,14.3c-0.8,7.5,1.1,11.6,2.7,14.8c0.4,0.9,0.8,1.7,1.1,2.6c0.2,0.6,0.7,0.9,1.1,1  c-0.5,0.2-1,0.5-1.3,1.1c0,0.1-0.1,0.2-0.1,0.3c-26.9,0.1-28.5,25.5-30.1,50.1c-0.4,6.2-0.8,12.6-1.6,18.4l-0.1,0.4l0.3,0.3  c0.8,1.1,1.3,2.7,1.7,4.3c0.5,1.8,1,3.7,2.1,5.1l0.3,0.3c3.2,1.6,5.9,3.1,5.1,8.2c-0.2,0.8-0.5,1.4-0.8,1.9c-0.5,0.9-1,1.9-1.1,3.9  c0,0.4-0.1,0.5-0.6,0.6c-0.4,0.1-1,0.3-1.2,1c-0.3,1.2-0.1,2.6,0.1,4c0.4,3.2,0.3,4.3-1.2,4.7l-0.8,0.2v0.8c0,3.8,1.4,5.1,2.5,6.1  c0.6,0.5,1.1,0.9,1.3,1.7c1.9,7.8,1.3,16.3,0.5,25.4c-0.5,6.4-1,13.1-0.6,19.5c0.3,4,1.1,7.9,1.8,11.8c0.8,4.1,1.6,8.3,1.9,12.6  c0.7,10.2,0.6,20.7,0.6,30.8c-0.1,12.3-0.2,23.9,1.2,33.8c-1.1,0.3-1.3,1.3-1.4,1.7c0,0.2-0.1,0.5-0.2,0.6c-1.6,2.3-2.4,3-3.7,4  c-0.5,0.4-1.1,0.8-1.7,1.4c-0.9,0.8-2,1.4-3.1,1.9c-2.4,1.3-5.1,2.7-4.8,6.4l0.1,0.7l0.6,0.2c5.4,1.7,12.3,2.8,17.7,2.8  c3,0,5.5-0.3,7.4-1l0.5-0.2l0.2-0.4c2-5.2,1.5-10.2,1-15.1c-0.5-4.8-1-9.7,0.8-15l0.1-0.3c0.1-1.7,1.2-2.2,3.2-2.9  c2.2-0.8,5.2-2,4.4-6.5c1.8-6.2,1.6-12.6,1.5-18.8c-0.1-4.3-0.2-8.7,0.4-13c0.4-2.8,2.5-8,3.4-8.7c1.9-1.6,1.6-4.2,1.3-6.5  c-0.3-2.3-0.5-3.9,0.6-4.8c2.1-1.7,1.7-5.8,1.2-10.1c-0.3-3.2-0.7-6.9,0.3-8.1c0.1-0.1,0.2-0.2,0.5-0.3c0,11.7,1.5,22.1,2.9,32.2  c1.8,12.2,3.6,24.9,2.7,40v0.1v0.1c0.4,2,2.2,2.7,3.5,3.3c1.8,0.7,2.8,1.1,2.1,3.8v0.2v0.2c0.8,10.9-0.6,15.4-3.6,20  c-0.5,0.8-1.5,1.4-2.4,2c-1.4,0.9-2.8,1.8-2.9,3.4c-0.1,1.1,0.4,2.2,1.7,3.4l0.4,0.3l0.5-0.1c2.6-0.3,5.2,0.4,7.7,1  c2,0.5,3.9,1,5.8,1c2.3,0,4.2-0.7,5.9-2.2l0.3-0.3v-0.4c0.7-5.5-0.2-9.6-1-13.5s-1.6-7.6-0.9-12.9c0.2-2.8,2.1-3.9,4.2-5.3  c2.5-1.6,5.3-3.4,5.2-8c-0.3-3.9-0.1-7.9,0.1-11.7c0.2-4.1,0.3-7.9-0.1-10.9c-0.3-2-0.5-3.1-0.6-3.8c-0.2-0.8-0.2-0.8,0-1.5  c0.1-0.4,0.3-1,0.5-1.9c0.2-0.8,0.1-1.6,0-2.3c-0.1-0.5-0.1-1.1,0-1.5c0.5-2.8,0.9-5.4,1.4-7.8c0.9-4.9,1.7-9.6,2.4-14.7l0.8-5.7  c1.2-8.8,2.5-18,3-26.3c0.1-2.2,0-4.5-0.1-6.7c-0.2-2.9-0.3-5.7,0.1-8.2c0.4-2.6,0.8-2.9,1.8-3.7c0.4-0.3,1-0.8,1.6-1.4  c0.7-0.7,0.8-2.2,0.4-6.8c-0.1-0.7-0.1-1.2-0.1-1.5c0-3.8-2-9.7-3.1-13.2c-0.3-1-0.6-1.7-0.7-2.1c-0.6-2.5-0.7-4.2-0.7-5.7  c-0.1-1.8-0.1-3.4-1.2-5.6c-0.1-0.5,0-0.9,0.2-1.2c0.4-0.5,1.6-0.7,2.7-0.9c1.6-0.2,3.8-0.5,4.5-2.4c0.2,0,0.3-0.1,0.5-0.2  c1,1.9,2.3,3.7,3.5,5.2c1.3,1.7,2.5,3.3,2.8,4.5l0.2,1c2.2,8.7,3.5,14,7.1,19.6c-13.5,37.8-13.3,77.8-13.1,128.6v6.4  c-0.2,1.5-1.2,2.2-2.4,3.1c-1.5,1.1-3.4,2.4-3.3,5.6c-2.7,0.4-5.3,1-6.7,3c-1,1.4-1.2,3.2-0.7,5.6l0.1,0.3l0.2,0.2  c5.4,5.5,15.7,6,25,6c1.7,0,3.4,0,5.1,0h3.9l-0.3-1.3c-1.3-5.3,0.1-10.3,1.6-15.5c0.9-3.3,1.9-6.8,2.2-10.5c0.7-8,0.7-18.2,0-26.5  c-0.8-10-0.7-16.4,0-26.1c0.2-2.5,0.2-4.8,0.2-6.7c0-3.8,0-6.5,1.3-7.6c0.7-0.6,0.6-1.7,0.4-3c-0.1-0.4-0.1-1-0.1-1.2  c0.6-1.7,1.4-3,2.2-4.2c0.7-1.2,1.4-2.3,1.6-3.4c0.2-0.7,0.1-1.4,0-2.1c-0.1-0.5-0.2-1.2,0-1.5c0.1-0.3,0.9-0.9,1.4-1.3  c1-0.8,2-1.6,2.3-2.4c0.9-2,1.5-4.4,2.1-6.7c1.3-5.1,2.6-10,7.1-11.3c-0.8,11.4,0.3,22.1,1.2,30.8c0.3,3.4,0.7,6.5,0.8,9.3  c0.8,13.8-1.7,26.7-4.2,39.2c-2.6,13.2-5.1,25.6-3.3,37.9c0.3,2,1.3,3.9,2.3,5.7c1.6,2.9,3.1,5.7,1.6,8.8l-0.7,1.5h1.6  c1.1,0,2.1,0,3.2,0c1.3,0,2.5,0,3.8,0c8,0,16.7-0.6,18.5-8.5c0.6-4.5-2.2-5.8-4.5-6.9c-2.4-1.1-4.2-1.9-3.1-6  c2.3-5.1,2.1-10.6,1.8-15.8c-0.1-3.1-0.2-6,0.1-8.9c0.1-0.7,0.4-1.1,0.8-1.6c0.4-0.5,0.9-1.1,1.1-2.1c1.1-5.2,1.4-8.6,1.6-12  c0.1-1,0.2-2.1,0.3-3.2c0.5-5.5,0.5-10.9,0.5-16.1c0-7.4,0-14.3,1.3-21.4c0.5-2.9,1.5-5.6,2.6-8.4c1.2-3.3,2.5-6.6,3-10.4  c0.4-2.8,0.2-5.7,0-8.6c-0.2-2.7-0.4-5.6,0-8.3c0.2-2,0.6-4,0.9-6.2c1.2-7.1,2.5-14.3-0.5-21.3c2.5-0.7,3.2-2.9,3.7-4.7  c0.3-1,0.6-2.1,1.3-3c0.3-0.5,1.1-1,1.9-1.5c2.4-1.6,5.9-4,3.9-8.8c-4.6-13.8-14.3-42.6-5.7-62.9c1.9-1.9,5-3.3,8.3-4.8  c1.5-0.7,3.1-1.4,4.7-2.2c-1.4,3-2.5,6.7-3.4,11.4c-0.7,3.2-0.9,6.2-1.1,9c-0.2,2.5-0.3,5.2-0.8,7.9c-0.4,2.5-1.2,5-1.9,7.3  c-1.2,4.1-2.4,8.1-1.9,11.8c0.9,6.3,4.7,11.3,8.3,16.2c5.2,6.8,10,13.3,6.7,22.7v0.2c-0.1,1-1.1,1.2-3.8,1.2c-2.3,0-4.8,0.1-5.6,2.3  l-0.1,0.2c-0.4,3.7-2,6.3-3.6,9c-1.7,2.8-3.4,5.7-3.9,9.8l-0.1,0.4l0.3,0.3c2.7,3.3,7.8,4.1,12.7,4.9c4.8,0.7,9.3,1.4,11.5,4.2  c2.5,35.8,3.2,81.5,1.9,125.4v0.9l0.9,0.1c0.6,0.1,1.2,0.1,1.8,0.1h1.6c2.2,0,3.1,0.3,3.2,1l0.2,0.9l1-0.2c0.2,0,0.4-0.1,0.6,0  c0.2,0.2,0.2,1.4,0.2,2c0,1.3,0,2.6,0.8,3.5c0.8,0.8,2.1,0.9,4.1,0.1c4.5-0.2,10.5-0.1,16.2,0c3.3,0.1,6.6,0.2,9.8,0.2  c7.7,0,13.1-0.5,17.5-1.7c5.6,0,11.4,0.5,17.6,1c6.2,0.5,12.7,1.1,18.8,1.1c9.5,0,16.5-1.3,22-4l0.5-0.2l0.1-0.5  c0.3-2-0.1-3.6-1-4.7c-1.8-2.1-5.2-2.2-8.4-2.3c-4.1-0.1-6.8-0.4-7.4-2.4c5.8-13.6,5.9-32,5.6-54.7c-0.1-0.5,0.1-0.7,0.7-1.3  c0.5-0.5,1.2-1.2,1.2-2.3c0.1-1.5,0.9-2.5,1.8-3.6c0.9-1.1,1.8-2.3,1.9-3.9c0-0.3,0.1-0.4,0.1-0.4s0.2-0.1,0.3-0.1  c0.4-0.1,1.1-0.3,1.4-1.1c0.6-1.6,0.8-3.8,1.1-6c0.2-1.8,0.4-3.7,0.8-5.3c0.5-2.2,0.8-3.8,1-5.2c0.1-0.6,0.2-1.1,0.3-1.6  c0.6,0.4,1.4,0.4,1.7,0.4c0.7,0,1.5-0.1,2.3-0.2c0.7-0.1,1.4-0.2,2-0.2s0.7,0.1,0.7,0.1s0.1,0.2-0.1,0.7v0.2  c-0.2,6.1-1.1,11.9-2.1,17.5c-1.4,8.6-2.9,17.6-1.7,27.7c0.3,2.3,1.2,4.7,2.2,6.9c0.7,1.6,1.3,3.1,1.6,4.5c3,13.3,1.7,24.2,0.1,38  l-0.2,1.6l0.4,0.4c1.8,1.5,4.5,2.3,8,2.3c4.2,0,8.8-1.1,11.8-2.1l0.5-0.2l0.1-0.5c1.2-4.8-0.7-9.2-2.6-13.4c-1.4-3-2.8-6.2-3-9.5  c-0.1-2.1,0.5-3.4,1-4.7c0.4-0.8,0.7-1.6,0.8-2.6c0.3-1.9,0.1-3.8,0-5.7c-0.2-2-0.3-3.8,0-5.6c0.5-2.6,1.5-5.3,2.5-8.1  c1.5-4.1,3.1-8.3,3.1-12.7c0-2-0.7-3.2-1.2-4.2c-0.3-0.6-0.6-1.1-0.7-1.6c-1.4-7.8,0.6-12.6,2.6-17.3c0.4-0.9,0.8-1.9,1.1-2.8  c0.3-0.8,0.5-1.8,0.7-2.9c0.6-3.4,1.3-6,3.7-5.9c0.3,0.2,0.6,0.2,1,0.2c1.1,0,2.6-1,3.5-1.9c0,0.1,0,0.5,0,0.7c-0.1,0.7-0.2,2,1,2.7  c0.9,0.5,1.7,1,2.5,1.4c2.1,1.1,3.7,1.9,4.6,3.8c1.9,4.1,2,12.2,1.8,16.4c0,0.4-0.2,0.5-0.8,0.7c-0.4,0.1-0.9,0.3-1,1l-0.3,1.2  c-0.6,2.9-1.3,6.5-1.6,10.1c-0.4,5.4,0.3,11.7,0.9,17.7c0.6,5.8,1.3,11.3,0.9,16.1c-0.2,3.7-1.3,7.1-2.4,10.4  c-1.5,4.5-2.8,8.8-1.3,12.6l0.2,0.4l0.4,0.2c3.9,1.5,10.7,2.3,18.2,2.3s14.3-0.9,18.2-2.3l0.7-0.3l-0.1-0.8  c-0.4-5.5-5.1-6.5-8.5-7.3c-1.3-0.3-2.5-0.6-3.1-1c-0.2-0.2-0.6-1.1-0.8-1.7c-0.3-0.8-0.6-1.5-0.9-1.9c-0.5-0.6-1.7-0.6-2.9-0.4  c-0.4,0.1-0.7,0.1-1.1,0.2c-2.1-2.2-3.8-8.3-3.3-10.1c0.6-2.2,1.3-4.1,2-5.9s1.3-3.4,1.8-5.3c0.1-0.5,0.3-0.6,0.7-0.8  c0.4-0.2,0.9-0.4,1.1-1c2.8-7,4-14.3,5-20.7c0.2-1.3,0.4-2.6,0.7-3.9c0-0.2,0.3-0.7,0.6-1.1c1.1-2,3-5.4,1-7.4s-1.8-6.2-1.6-10.3  c0.1-1.9,0.2-3.9,0-5.7c0.4-0.7,1.8-0.8,3.7-0.8c2,0,4.2-0.1,5.3-1.5c0.7-0.9,0.8-2.1,0.4-3.6c-0.7-8.2,0.1-15.1,0.9-21.8  c0.8-6.5,1.5-13.1,1-21.1c4.6-8.2,8.4-16.6,5.7-28c1.8-1.5,2.8-3.8,3.9-6.1c0.5-1,0.9-2.1,1.5-3.2c0.2-0.3,0.9-0.9,1.4-1.3  c1-0.8,2-1.6,2.4-2.5c0.3-0.8,0.2-1.7,0.1-2.6C774.6,204.4,774.6,203.8,774.6,203.5z M772.6,203c-0.2,0.7-0.1,1.4,0,2.1  c0.1,0.5,0.2,1.2,0,1.5c-0.2,0.4-1.1,1.2-1.8,1.7c-0.9,0.7-1.6,1.3-1.9,1.9c-0.6,1.1-1.1,2.2-1.6,3.3c-1.1,2.4-2,4.5-3.7,5.7  l-0.6,0.4l0.2,0.7c2.8,11.2-0.8,19-5.5,27.4l-0.2,0.3v0.3c0.6,7.9-0.2,14.5-1,21c-0.8,6.8-1.6,13.8-0.9,22.4c0.2,0.7,0.3,1.6,0,2  c-0.5,0.7-2.2,0.7-3.6,0.7c-2.3,0-4.9,0.1-5.7,2.3l-0.1,0.2v0.2c0.1,1.8,0,3.8,0,5.7c-0.2,4.5-0.4,9.2,2.2,11.8  c0.9,0.9-0.7,3.6-1.4,4.9c-0.5,0.8-0.7,1.3-0.8,1.7c-0.2,1.3-0.4,2.6-0.7,3.9c-1.1,6.6-2.2,13.4-4.8,20.1c0,0-0.1,0-0.1,0.1  c-0.5,0.2-1.5,0.7-1.9,2.1c-0.4,1.8-1.1,3.4-1.7,5.1c-0.7,1.9-1.5,3.8-2,6.2c-0.7,2.7,1.4,9.7,4,12.3c0.6,0.5,1.7,0.5,2.8,0.2  c0.3-0.1,0.7-0.1,1-0.1c0.1,0.3,0.4,0.8,0.5,1.2c0.5,1.3,0.9,2.2,1.5,2.6c1,0.7,2.3,1,3.9,1.3c3.6,0.8,6.2,1.6,6.8,4.6  c-3.8,1.2-9.9,1.9-16.7,1.9c-7,0-13.3-0.8-17-2.1c-1-3,0.2-6.6,1.5-10.8c1-3.3,2.2-7,2.5-10.9c0.3-4.9-0.3-10.8-1-16.4  c-0.7-6-1.3-12.2-0.9-17.4c0.3-3.5,1-7.1,1.6-9.9l0.2-0.8c0.6-0.2,1.9-0.9,2-2.5c0.1-1.2,0.5-11.9-2-17.4c-1.2-2.6-3.3-3.7-5.5-4.8  c-0.8-0.4-1.6-0.8-2.4-1.3c-0.1-0.1,0-0.5,0-0.7c0.1-0.7,0.2-2.2-1.3-2.9v-0.1l-0.9-0.1l-0.1,1l-0.1,0.1l-0.8-0.5  c-0.3,0.4-1.6,1.5-2.2,1.5l-0.2-0.2h-0.3c-4.7-0.6-5.6,4.3-6.2,7.5c-0.2,1-0.3,1.9-0.6,2.5c-0.3,0.9-0.7,1.8-1.1,2.7  c-2,4.7-4.2,10.1-2.7,18.5c0.2,0.9,0.5,1.6,0.9,2.2c0.5,0.9,1,1.7,0.9,3.2c-0.1,4-1.6,8.1-3,12c-1,2.8-2.1,5.7-2.6,8.5  c-0.4,2-0.2,4.1,0,6.1c0.1,1.8,0.3,3.6,0,5.2c-0.1,0.6-0.4,1.3-0.7,2c-0.6,1.4-1.4,3.1-1.2,5.7c0.3,3.7,1.7,7,3.2,10.2  c1.7,3.9,3.4,7.6,2.6,11.5c-2.7,0.9-6.8,1.8-10.5,1.8c-2.7,0-4.9-0.5-6.3-1.5l0.1-0.5c1.7-14,3-25.1-0.1-38.7  c-0.4-1.6-1-3.1-1.7-4.8c-0.9-2.1-1.8-4.3-2-6.3c-1.1-9.9,0.3-18.7,1.7-27.2c0.9-5.6,1.9-11.5,2.1-17.6c0.2-1,0.1-1.8-0.3-2.4  c-0.7-0.9-1.9-0.9-2.3-0.9c-0.7,0-1.5,0.1-2.3,0.2c-0.7,0.1-1.4,0.2-2,0.2c-0.5,0-0.7-0.1-0.7-0.1s-0.1-0.2,0.1-0.9  c0-0.2,0-0.4,0-0.6l0.2-3.1l-1.9,1.9c-0.4,0.4-0.7,0.9-0.8,1.4c-0.4,1.6-0.6,2.9-0.9,4.3c-0.2,1.4-0.5,2.9-1,5.1  c-0.4,1.8-0.6,3.7-0.9,5.6c-0.2,2-0.5,4-0.9,5.3l0,0c-0.6,0.1-1.9,0.4-2,2.4c0,0.9-0.7,1.7-1.5,2.7c-1,1.2-2.2,2.7-2.3,4.8  c0,0.3-0.2,0.5-0.6,0.9c-0.6,0.6-1.4,1.5-1.3,2.9c0.3,18.6,0.6,39.8-5.5,54l-0.1,0.3l0.1,0.3c0.8,4.1,5.4,4.3,9.4,4.4  c2.8,0.1,5.8,0.2,6.9,1.6c0.5,0.6,0.7,1.4,0.6,2.6c-5.2,2.4-11.8,3.6-20.6,3.6c-6,0-12.4-0.5-18.6-1c-6-0.5-12.2-1-17.9-1h-0.3  c-4.2,1.1-9.5,1.6-17.1,1.6c-3.2,0-6.5-0.1-9.7-0.2c-3.3-0.1-6.6-0.2-9.8-0.2c-2.5,0-4.8,0.1-6.8,0.2l-0.4,0.1  c-0.9,0.4-1.4,0.5-1.7,0.5c0,0-0.2,0-0.3-0.1c-0.2-0.2-0.2-1.3-0.2-2c0-1.3,0-2.6-0.8-3.5c-0.4-0.4-0.9-0.6-1.5-0.7  c-1-1.8-3.5-1.8-4.9-1.8h-1.6c-0.2,0-0.4,0-0.6,0c1.3-43.8,0.6-89.2-1.9-124.9v-0.3l-0.2-0.2c-2.7-3.7-7.9-4.5-13-5.3  c-4.3-0.7-8.8-1.4-11.1-3.8c0.5-3.5,2-5.9,3.6-8.5c1.7-2.8,3.4-5.6,3.9-9.7c0.3-0.7,1.7-0.8,3.6-0.9c2.2,0,5.3-0.1,5.7-2.9  c3.6-10.4-1.8-17.6-7.1-24.6c-3.5-4.7-7.2-9.5-7.9-15.3c-0.4-3.2,0.7-7,1.8-10.9c0.7-2.4,1.5-4.9,1.9-7.6c0.5-2.8,0.7-5.5,0.9-8.1  c0.2-2.9,0.4-5.7,1-8.8c1.3-6.2,2.8-10.5,4.9-13.9l0.6-0.9c0.3-0.5,0.7-0.9,1-1.4l1.1-1.4h-0.4v-0.1h-0.1l-1.4-0.2  c-1-0.1-1.7,0-2.1,0.5c-0.4,0.5-0.3,1.1-0.2,1.7v0.2l-0.1,0.1c-2.4,1.5-5,2.7-7.5,3.8c-3.6,1.6-6.9,3.1-9,5.4l-0.2,0.3  c-9,21.1,0.9,50.5,5.6,64.7c1.3,3.1-0.4,4.5-3.1,6.4c-1,0.7-1.9,1.3-2.4,2c-0.8,1.2-1.2,2.5-1.6,3.6c-0.7,2.3-1.1,3.3-3.3,3.5  l-1.5,0.1l0.7,1.4c3.3,6.8,2.1,14.2,0.9,21.3c-0.4,2.1-0.7,4.2-1,6.3c-0.3,2.9-0.2,5.9,0,8.7c0.2,2.9,0.4,5.6,0,8.2  c-0.5,3.6-1.7,6.8-2.9,10c-1,2.8-2.1,5.7-2.7,8.7c-1.4,7.3-1.4,14.3-1.4,21.8c0,5.2,0,10.5-0.5,15.9c-0.1,1.1-0.2,2.2-0.3,3.2  c-0.3,3.4-0.5,6.6-1.6,11.7c-0.1,0.5-0.3,0.8-0.7,1.2c-0.5,0.6-1,1.3-1.2,2.6c-0.4,3-0.2,6.2-0.1,9.2c0.2,5,0.4,10.2-1.7,15.1  c-1.6,5.9,1.7,7.4,4.2,8.5c2.2,1,3.7,1.7,3.3,4.6c-1.3,5.6-7.2,6.8-16.4,6.8c-1.2,0-2.5,0-3.8,0c-0.6,0-1.2,0-1.7,0  c0.9-3.4-0.7-6.5-2.2-9.2c-0.9-1.7-1.8-3.3-2-5c-1.7-11.9,0.7-24.2,3.3-37.2c2.5-12.6,5.1-25.7,4.2-39.7c-0.2-2.8-0.5-6-0.8-9.4  c-0.9-8.9-2-20-1-31.8l0.1-1.3l-1.3,0.2c-6.9,0.8-8.6,7.3-10.1,13c-0.6,2.2-1.2,4.5-2,6.3c-0.2,0.4-1.1,1.2-1.7,1.7  c-1.1,0.9-1.7,1.5-2,2.1c-0.4,0.8-0.2,1.7-0.1,2.6c0.1,0.5,0.1,1,0.1,1.4c-0.2,0.8-0.8,1.7-1.4,2.8c-0.8,1.3-1.6,2.8-2.3,4.6  c-0.2,0.5-0.1,1.1,0,2.1c0,0.4,0.1,1,0.1,1.4c-1.8,1.7-1.8,4.6-1.9,9c0,1.9,0,4.1-0.2,6.6c-0.7,9.9-0.8,16.3,0,26.4  c0.7,8.2,0.7,18.2,0,26.1c-0.3,3.5-1.2,6.9-2.2,10.1c-1.4,5.1-2.8,9.9-1.8,15.3h-1.4c-1.7,0-3.4,0-5.1,0c-8.7,0-18.4-0.4-23.3-5.2  c-0.3-1.7-0.2-2.9,0.4-3.7c1-1.5,3.5-1.9,6.3-2.3l1-0.2l-0.2-1c-0.4-2.7,0.8-3.5,2.4-4.6c1.4-1,3-2.1,3.3-4.6v-6.5  c-0.3-50.7-0.5-90.8,13.1-128.3l0.2-0.5l-0.3-0.4c-3.6-5.4-4.9-10.6-7.1-19.3l-0.2-1c-0.4-1.7-1.7-3.3-3.2-5.3  c-1.3-1.7-2.8-3.7-3.7-5.8L453,194l-1,0.6c-0.5,0.3-0.9,0.5-1.4,0.5l-0.8,0.1l-0.1,0.8c-0.1,0.9-0.8,1.1-2.9,1.4  c-1.5,0.2-3.2,0.4-4.1,1.7c-0.5,0.7-0.7,1.7-0.5,2.9l0.1,0.3c0.9,1.9,1,3.2,1,4.9c0,1.5,0.1,3.4,0.8,6.1c0.1,0.4,0.4,1.2,0.7,2.2  c1,3.2,3,9,3,12.6c0,0.3,0,0.9,0.1,1.6c0.1,1.3,0.4,4.6,0.2,5.2c-0.6,0.6-1,0.9-1.4,1.2c-1.3,1-2.1,1.7-2.6,5  c-0.5,2.8-0.3,5.8-0.1,8.7c0.1,2.1,0.2,4.4,0.1,6.5c-0.5,8.2-1.8,17.3-3,26.1l-0.8,5.8c-0.7,5.1-1.5,9.7-2.4,14.6  c-0.4,2.5-0.9,5.1-1.4,7.9c-0.1,0.7-0.1,1.4,0,2s0.1,1.2,0,1.6c-0.2,0.9-0.4,1.4-0.5,1.8c-0.3,1-0.3,1.2-0.1,2.4  c0.1,0.7,0.3,1.7,0.6,3.6c0.4,2.8,0.2,6.6,0.1,10.5c-0.2,3.9-0.3,8-0.1,11.9c0.1,3.5-1.9,4.7-4.2,6.2c-2.3,1.4-4.8,3-5.2,6.8  c-0.7,5.5,0.2,9.6,1,13.5c0.8,3.8,1.5,7.4,1,12.4c-1.2,1-2.6,1.5-4.2,1.5s-3.4-0.5-5.3-0.9c-2.5-0.6-5.1-1.3-7.9-1.1  c-0.5-0.6-0.8-1.1-0.8-1.4c0.1-0.6,1-1.2,2-1.9c1.1-0.7,2.3-1.5,3-2.6c3.2-4.9,4.8-9.8,3.9-21.1c1.1-4.3-1.6-5.3-3.4-6  c-1.3-0.5-2-0.8-2.3-1.7c0.9-15.2-1-27.9-2.7-40.2c-1.5-10.3-3-20.9-2.9-32.9v-0.9l-0.9-0.1c-1.4-0.2-2.4,0.2-3.2,1  c-1.7,1.9-1.3,5.7-0.9,9.7c0.3,3.2,0.8,7.3-0.5,8.3c-2,1.7-1.7,4.3-1.3,6.7c0.3,2.3,0.4,3.8-0.5,4.6c-1.6,1.3-3.8,7.2-4.1,10.1  c-0.6,4.5-0.5,9-0.4,13.3c0.1,6.1,0.3,12.4-1.5,18.4l-0.1,0.2l0.1,0.2c0.6,3-0.8,3.6-3,4.4c-1.9,0.7-4.2,1.6-4.5,4.6  c-1.9,5.7-1.4,10.8-0.9,15.8c0.5,4.7,0.9,9.1-0.7,13.7c-1.6,0.5-3.7,0.7-6.2,0.7c-5,0-11.3-1-16.4-2.5c0.1-1.8,1.4-2.6,3.7-3.8  c1.2-0.6,2.4-1.3,3.5-2.2c0.6-0.5,1.2-1,1.6-1.3c1.4-1.1,2.4-1.9,4.2-4.5c0.3-0.5,0.4-1,0.5-1.3c0-0.1,0-0.1,0-0.2  c0.1,0,0.2,0,0.3,0l1.4,0.3l-0.2-1.5c-1.5-10-1.4-22-1.3-34.7c0.1-10.1,0.1-20.6-0.6-30.9c-0.3-4.5-1.1-8.7-2-12.9  c-0.8-4-1.5-7.7-1.8-11.5c-0.5-6.3,0.1-12.8,0.6-19.2c0.7-9.3,1.4-18-0.6-26.1c-0.4-1.4-1.2-2.1-1.9-2.8c-0.9-0.8-1.7-1.5-1.8-3.8  c2.7-1.2,2.3-4.3,2-6.7c-0.1-1-0.3-2-0.2-2.8c0.6-0.2,1.9-0.7,2-2.5c0.1-1.6,0.4-2.2,0.9-3.1c0.3-0.6,0.7-1.3,1-2.5  c1-6.6-2.8-8.7-6-10.3c-0.7-1.1-1.1-2.6-1.6-4.2c-0.4-1.7-0.9-3.3-1.8-4.7c0.8-5.8,1.2-12.1,1.6-18.2c1.6-25.1,3-48.9,29.3-48.1  l2,0.1l-1.1-1.6c0.2-0.1,0.4-0.1,0.6-0.1c0.5-0.1,1.2-0.2,1.4-1c0.1-0.6,0.2-1.4-0.3-2s-1.2-0.7-1.7-0.7c0,0,0,0-0.1,0  c-0.3-0.8-0.7-1.6-1.1-2.5c-1.5-3.2-3.2-6.7-2.5-13.7c0.5-5.2,3.5-9.5,6.1-13.3c1-1.5,2-2.9,2.8-4.4c0.6,0.1,1.1,0.2,1.7,0.2  c1.8,0,3.5-0.7,5-1.3c1.4-0.6,2.7-1.1,4-1c6.6,0.6,12.1,6.5,16.6,11.2c0.4,0.4,0.8,0.8,1.2,1.2c-0.2,1.8-0.5,3.6-0.7,5.4  c-0.9,7.8-1.8,15.9-6.4,19.7l-0.8,0.6l0.6,0.8c2.9,3.6,7.5,5.4,12,7.2c3.1,1.2,6.3,2.4,8.7,4.2c1.9,2.5,3.5,5.6,4.8,9.5l1.5,4.6  l0.5-4.8c0.3-2.9,0.6-5.7,1-8.6c0.2-1.9,0.5-3.9,0.7-5.8c2.6-2.3,5.6-3.6,8.8-5c2.6-1.1,5.3-2.3,7.7-4c1.9-1.3,3.4-3.1,4.8-4.9  c2.3-2.7,4.5-5.3,8-6.2l0.6-0.2l0.1-0.6c1.1-5-1.2-6.9-3.1-8.5c-1.1-0.9-2.1-1.7-2.5-3.1c0.4-3.3,0.1-6.4-0.1-9.1  c-0.2-2.9-0.4-5.3,0.1-7.5c1.6-6.9,7.1-11.5,13.8-11.5c3,0,6.2,1,9.1,2.8c0.9,0.6,2,0.9,2.9,1.1c2.1,0.5,3.2,0.8,2.3,5.4l-0.3,1.4  l1.5-0.2c1.1-0.2,2.1-0.2,3.1-0.2c3.3,0,5.6,0.9,8.1,1.9s5.1,2.1,8.8,2.1c7,9.8,17.9,15.6,27.6,20.2c-0.2,4.3,1.6,6.1,3.1,7.7  c1.7,1.8,3.2,3.3,2.6,8.4c-0.1,0.6-0.2,1.1-0.3,1.5l-0.6,2.4l2.6-1.6c1.2-0.8,3-1.3,4.8-1.9c4.3-1.4,9.3-3,10.7-8.2  c1.1-5-1.2-6.9-3.1-8.5c-1.2-1-2.2-1.8-2.5-3.1c-0.7-6.1,0.2-10.7,1-15.5c0.3-1.5,0.6-3,0.8-4.6c3.9-3.7,9.7-5.9,15.3-5.9  c5.3,0,9.8,2,12.7,5.7c-0.9,4.6,0.1,8.4,1,11.8c0.6,2.3,1.2,4.5,1,6.6c-0.3,3.6-1.8,6.5-3.5,9.7c-2,3.8-4,7.7-4,12.9v0.3l0.2,0.3  c2.1,3.2,6.3,4.2,10.3,5.2c0.9,0.2,1.8,0.4,2.7,0.7c0.1,2.9,1.6,4.8,4.2,5.7c0.3,0.4,0.5,0.9,0.7,1.5c0.2,0.5,0.4,1.1,0.7,1.7  c0.1,0.3,0.2,0.6,0.3,1.2c0.8,2.7,2.8,8.9,2.7,13.3v2.3l-0.6,0.7c-0.1,0-0.3,0-0.4,0c-0.3,0-0.6,0-0.8,0c-1,0-1.2,0.7-1.2,0.9  c-0.1,0.6,0,1.6,0.1,3.1c0.1,1,0.3,2.8,0.2,3.6c-0.1,0-0.1,0-0.2,0c-0.3,0-0.6-0.1-0.8-0.1c-0.9,0-1.2,0.6-1.2,0.8  c-0.3,1-0.1,2,0,3.1c0.1,0.8,0.2,1.7,0.1,2.3c0,0,0,0-0.1,0c-0.6,0.1-1.7,0.4-1.9,2.3c-0.5,4.8-0.3,10.1,0,15.2l0.2,3.7  c0.5,9.3,0.9,18.9,3.6,26.7c0.3,0.8,1,1,1.4,1.1s0.4,0.1,0.4,0.5v0.3c0.1,1.7,0.2,3.3,1.8,4.1c-0.7,5.7-0.3,11.1,0,16.4  c0.3,5,0.6,9.8,0.1,14.8c-0.4,3.5-1.5,7-2.8,10.6c-1.1,3.2-2.2,6.5-2.8,10s-0.8,7.5-0.9,11.3c-0.1,3.6-0.3,7.4-0.9,10.7  c-0.8,0.5-1.8,1.5-2,2.3c-0.2,0.6-0.1,1.7,0.1,3.3c0.1,1,0.3,2.6,0.2,3.4c-0.1,0-0.1,0-0.2,0c-0.3,0-0.6,0-0.8,0  c-0.9,0-1.2,0.6-1.2,0.8c-0.6,2.5-0.9,5.1-1.2,7.8c-0.5,4.1-0.9,8.3-2.5,12.7c-0.4,1.1-1.1,2.2-1.7,3.2c-0.9,1.4-1.8,2.9-2.1,4.5  c-0.6,4-0.3,8.1-0.1,12c0.2,3.5,0.5,7.1,0.1,10.5s-1.3,6.3-2.2,9.4c-0.5,1.7-1,3.5-1.5,5.5l-0.1,0.3l0.1,0.3c1.4,3.2,5.1,4,8.8,4.8  c1.8,0.4,3.6,0.7,4.9,1.4c0.7,0.3,1.9,0.2,3.2,0c0.8-0.1,1.6-0.2,2-0.2c0,0.3-0.1,0.7-0.2,0.9c-0.2,1-0.4,2.1,0.3,2.8  c0.5,0.5,1.1,0.9,1.7,1.3c0.5,0.3,1,0.7,1.4,1.1l1.4,1.6l0.4-2.1c0.8-4.4,0.7-8.3,0.7-12c0-3.1-0.1-5.9,0.4-8.8  c0.6-4,1.9-8.5,3.7-12.9c0.2-0.5,0.1-1.2,0-2.2c0-0.4-0.1-1-0.1-1.3c1.4-1.4,2.5-5.3,4.1-11.4c0.6-2.1,1.1-4.1,1.6-5.9  c0.7-2.1,1.3-4.2,2-6.3c1.8-5.4,3.6-10.9,5.5-18.1c1.4-5.1,2.2-14.3,0-23c-0.5-2.1-0.6-4.1-0.7-6c-0.1-2.5-0.2-4.9-1.2-7.2  c0-0.2,0-0.8,0.1-1.2c0.2-1.3,0.3-2.4-0.4-3s-0.7-1.5-0.7-3s0.1-3.2-1.1-4.4c-0.5-0.5-2.6-3.7-3.5-7c-0.2-0.9-0.4-1.7-0.6-2.4  c-0.5-1.9-0.9-3.4-1.2-5c-0.2-1-0.4-5.7-0.2-6.7c1.3-1.3,1.7-2.6,0.2-8.4c-0.6-2.2-1.1-6.1-1.7-10.1c-0.6-4-1.2-8.6-2-12.4  c-0.1-0.6-0.7-0.8-1.1-1c-0.6-0.2-0.8-0.4-0.8-0.7c0-0.1,0-0.3,0-0.5c0-0.5,0.1-1.2-0.1-1.7c-0.8-2.1-1.4-5.2-2.1-8.7  c-0.5-2.4-1-5.2-1.6-8c-1.4-5.8-1.8-20.5-0.3-28.2l0.3-1.7l0.7-2c2.5-6.7,7.6-10.1,15.6-13.8l1.1-0.5l-0.7-1  c-2.5-3.7-0.9-9.2,0.6-14.6c0.5-1.7,1-3.6,1.4-5.3c0.3-1.5,0.5-3.2,0.7-4.8c0.3-2.1,0.6-4.4,1.1-6.4c0.4-1.4,1.1-2.6,1.7-3.9  c0.8-1.5,1.7-3.1,2-5c2.5-0.7,4.3-1.4,6-2.1c2.8-1.2,4.8-1.9,7.9-1.5c1.7,0.2,8.3,2.6,8.5,6.5c0.1,1.9,1.7,2.8,2.8,3.4  c0.4,0.2,0.9,0.5,1,0.6c2.5,8.1-1.2,18.7-4,26.4c-0.6,1.8-1.2,3.4-1.7,4.9l-0.1,0.3l0.1,0.3c0.1,0.3,0,0.4,0,0.4  c-0.1,0.1-0.4,0.1-1,0.2l-1.2,0.1l0.3,1.2c0.1,0.6,0.5,2,1.8,2c0.6,0,1.1-0.4,1.5-0.7c0.3-0.3,0.7-0.6,1.2-0.6  c0.3,0.1,1,1.1,1.5,1.8c1.4,2,3.4,5,7.3,5.6c2.4,11.2,6,21.2,11.2,31.5c0.4,0.7,0.7,1.5,1.1,2.3c0.9,2,1.9,4.3,3.4,6l2,2.3l-0.2-3  c-0.1-1.6-0.5-3.4-1-5c-0.5-1.8-0.9-3.4-0.9-4.9s0.4-2.9,0.8-4.5c0.4-1.4,0.8-3,1-4.8c0.4-3.5,0.2-7.6,0-11.6  c-0.2-3.5-0.3-7.2-0.1-10.3c0.9-0.4,1.9-1.3,1.9-2.6c0.1-1,0-2,0-3c0-0.6,0-1.2,0-1.8c2.3-0.5,3.1-2.6,3.7-4.3  c0.7-1.9,1.2-3,2.8-3.1h0.9l0.1-0.9c0.1-0.7,0.8-0.8,2.9-0.9c0.6,0,1.3,0,1.8-0.1l1-0.1l-0.1-1c-0.3-2.2,0.7-2.5,1.1-2.6l0.5-0.1  l0.2-0.5c0.5-1.1,1-2.8,0.2-4c-0.7-1.1-2.1-1.2-3.1-1.2c-0.5,0-1.1,0-1.6,0.1c-0.5,0-1,0.1-1.5,0.1c-1,0-1.3-0.2-1.3-0.3  c-0.1-0.1-0.1-0.3-0.1-0.8c-0.1-1.2,0-2.6,0-3.9c0.1-4,0.3-8.9-3.5-10c0.3-0.8,0.8-1.5,1.3-2.2c1.1-1.6,2.3-3.4,2.1-6.6  c-0.7-2.9-4-2.9-6.6-2.9c-1.7,0-3.7,0-4.4-0.8c-0.3-0.3-0.4-0.9-0.3-1.6v-0.2v-0.2c-0.2-0.7-0.3-1.6,0.1-2c0.5-0.6,1.9-0.7,2.9-0.7  c0.5,0,1,0,1.5,0s1.1,0,1.6,0c1.2,0,3.9,0,4.9-2c3.1-1.7,5.6-4.1,7.3-7.2h19.1c0.4,1.9,2.2,3.1,3.8,4.1c1.8,1.2,3.6,2.4,3.7,4.3  c0.1,1.9,1.1,2.3,2,2.4c0.2,0.8,0.4,3.1,0.5,5.1c0.3,3.7,0.6,7.9,1.3,9.7c0,0.2,0,0.8-0.1,1.2c-0.2,1.3-0.3,2.4,0.4,3  c1.6,1.3,1.5,5.7-0.3,10.1l-0.3,0.8l0.7,0.5c1.5,1.1,2.5,2.8,3.6,4.5c0.6,0.9,1.1,1.9,1.8,2.8l0.2,0.2l0.3,0.1  c1.4,0.6,2.6,0.7,3.8,0.9c1.2,0.2,2.4,0.3,3.7,1c0.6,0.3,1.3,1.1,1.9,1.8c0.6,0.7,1.1,1.4,1.8,1.8c0.7,0.5,1.5,1,2.3,1.5  c1.2,0.7,2.3,1.4,3.3,2.3c2.9,2.7,3.4,3.4,3.5,3.4l0,0c0,0.2-0.1,0.8-0.1,1.2c-0.2,1.2-0.4,2.3,0.4,2.9c1.1,0.9,2.1,4.6,3.4,10.7  c0.7,3.1,1,6.3,1.5,9.8c0.5,4.3,1.1,9.1,2.3,14.6c0.2,1,0.7,1.6,1.1,2c0.4,0.5,0.7,0.9,0.8,1.6C775.3,186.8,774.7,194.9,772.6,203z   M622,203.9c0.8,3.6,1.4,8,1.9,11.8c0.6,4.3,1.1,8,1.8,10.3c1.4,5.4,0.9,5.9,0.3,6.5c-1.2,1.2-0.3,8.3-0.3,8.4  c0.3,1.7,0.7,3.3,1.3,5.2c0.2,0.7,0.4,1.5,0.6,2.4c0.9,3.5,3.1,7.1,4,8c0.6,0.6,0.6,1.7,0.5,2.9c0,1.5-0.1,3.3,1.2,4.5  c0,0.3-0.1,0.9-0.1,1.3c-0.1,1-0.2,1.7,0,2.2c0.8,2.1,1,4.3,1.1,6.6c0.1,2,0.2,4.1,0.8,6.4c2.1,8.4,1.3,17.1,0,22  c-1.9,7.1-3.7,12.6-5.4,18c-0.7,2.2-1.4,4.3-2.1,6.4c-0.5,1.8-1.1,3.8-1.7,5.9c-1.1,4-2.6,9.6-3.6,10.5c-0.7,0.6-0.6,1.7-0.4,3  c0.1,0.4,0.1,1,0.1,1.2c-1.8,4.6-3.2,9.2-3.8,13.4c-0.5,3.1-0.4,6-0.4,9.2c0,3.1,0.1,6.3-0.4,9.8c-0.1-0.1-0.2-0.1-0.3-0.2  c-0.5-0.3-1-0.6-1.2-0.8c0-0.2,0.1-0.8,0.2-1.1c0.2-1,0.4-2-0.2-2.8c-0.5-0.6-1.3-0.6-1.8-0.6c-0.6,0-1.4,0.1-2.1,0.2  c-0.6,0.1-1.3,0.2-1.7,0.2c-0.2,0-0.3,0-0.3,0l0,0c-1.6-0.8-3.5-1.2-5.4-1.6c-3.1-0.6-6-1.3-7.1-3.3c0.5-1.8,0.9-3.4,1.4-5  c1-3.2,1.9-6.2,2.3-9.8c0.4-3.6,0.2-7.3-0.1-10.9c-0.3-3.9-0.5-7.8,0.1-11.6c0.2-1.1,1-2.4,1.8-3.7c0.7-1.2,1.5-2.3,1.9-3.6  c1.7-4.6,2.1-9,2.6-13.2c0.3-2.4,0.5-4.7,1-6.8l0,0c0.7,0,1.2,0.2,1.7-0.2c0.9-0.8,0.8-2.5,0.5-5.4c-0.1-1-0.2-2.3-0.2-2.6  c0.1-0.3,0.9-1,1.2-1.2l-0.3-0.9l0,0l1,0.2c0.7-3.6,0.8-7.6,1-11.5c0.1-3.7,0.3-7.6,0.9-11c0.6-3.4,1.7-6.6,2.8-9.7  c1.3-3.7,2.5-7.3,2.9-11c0.5-5.2,0.2-10.2-0.1-15.1c-0.3-5.4-0.7-11,0.1-16.8l0.1-0.9l-0.9-0.2c-0.8-0.2-0.9-0.3-1.1-2.5v-0.3  c-0.1-1.9-1.4-2.3-2-2.4l0,0c-2.5-7.4-3-16.8-3.4-25.8l-0.2-3.7c-0.3-5-0.5-10.2,0-14.9c0-0.4,0.1-0.5,0.1-0.5s0.2-0.1,0.3-0.1  c0.4-0.1,1.1-0.3,1.4-1c0.5-1.1,0.3-2.3,0.1-3.5c-0.1-0.5-0.1-1-0.2-1.5c0.4,0,0.6,0.1,1,0c-0.3,7.5,0.2,16.1,1.2,20.2  c0.7,2.7,1.2,5.5,1.6,7.9c0.7,3.7,1.3,6.9,2.2,9.1c0,0.1,0,0.6,0,0.8c0,0.3,0,0.6,0,0.8C620.1,203,621.2,203.6,622,203.9z"
   id="path4469" />
</svg>