<?xml version="1.0" encoding="UTF-8" standalone="no"?>
<!-- Generator: Adobe Illustrator 19.2.0, SVG Export Plug-In . SVG Version: 6.00 Build 0)  -->

<svg
   xmlns:dc="http://purl.org/dc/elements/1.1/"
   xmlns:cc="http://creativecommons.org/ns#"
   xmlns:rdf="http://www.w3.org/1999/02/22-rdf-syntax-ns#"
   xmlns:svg="http://www.w3.org/2000/svg"
   xmlns="http://www.w3.org/2000/svg"
   xmlns:sodipodi="http://sodipodi.sourceforge.net/DTD/sodipodi-0.dtd"
   xmlns:inkscape="http://www.inkscape.org/namespaces/inkscape"
   version="1.1"
   id="Layer_1"
   x="0px"
   y="0px"
   width="800px"
   height="450px"
   viewBox="0 0 800 450"
   style="enable-background:new 0 0 800 450;"
   xml:space="preserve"
   inkscape:version="0.48.3.1 r9886"
   sodipodi:docname="overlay__Long 1.svg"><metadata
   id="metadata4373"><rdf:RDF><cc:Work
       rdf:about=""><dc:format>image/svg+xml</dc:format><dc:type
         rdf:resource="http://purl.org/dc/dcmitype/StillImage" /></cc:Work></rdf:RDF></metadata><defs
   id="defs4371" /><sodipodi:namedview
   pagecolor="#ffffff"
   bordercolor="#666666"
   borderopacity="1"
   objecttolerance="10"
   gridtolerance="10"
   guidetolerance="10"
   inkscape:pageopacity="0"
   inkscape:pageshadow="2"
   inkscape:window-width="640"
   inkscape:window-height="480"
   id="namedview4369"
   showgrid="false"
   inkscape:zoom="0.405"
   inkscape:cx="400"
   inkscape:cy="225"
   inkscape:window-x="271"
   inkscape:window-y="24"
   inkscape:window-maximized="0"
   inkscape:current-layer="Layer_1" />
<style
   type="text/css"
   id="style4325">
	.st0{fill:#FAAF40;stroke:#FAAF40;stroke-miterlimit:10;}
	.st1{fill:#00A69C;stroke:#00A69C;stroke-miterlimit:10;}
</style>
<path
   class="st0"
   d="M572.1,245.1l-3.8-4.3l1.5-1.4l2.9,3.2c5-2.1,8.4-4.2,9.5-5c-2.2-11.6-20.7-72.1-20.9-72.7l2-0.6  c0.8,2.6,19.4,63.4,21.1,73.6l0.1,0.4l-0.3,0.4c-0.8,1-5.8,3.9-11.3,6.2L572.1,245.1z"
   id="path4327" />
<path
   class="st0"
   d="M487.4,304.8l-0.8-1c-0.4-0.5-8.9-12.3-6.5-19.9c2.3-7.2,11.1-21.6,11.5-22.2l1.8,1.1  c-0.1,0.1-9.1,14.7-11.3,21.7c-1.6,5.1,2.8,12.9,5,16.3c0.2-1.7,0.1-4.9-1.8-10.5l-0.1-0.4l0.2-0.4c0.2-0.3,3.8-8.1,7.3-11.3  c0.4-0.3,1.6-1.4,2.8-0.9c1.5,0.6,1.6,2.8,1.8,5.6c0.1,1.2,0.2,2.5,0.4,3.6c0.2,1.3,0.5,2.1,0.7,2.5c0.1-0.3,0.3-0.7,0.5-1.4  c0.5-1.5,0.3-3.5,0.2-5.8c-0.3-4.1-0.6-9.2,1.7-15.2l1.9,0.7c-2.2,5.6-1.8,10.5-1.6,14.4c0.2,2.5,0.3,4.7-0.2,6.6  c-0.5,1.5-1.2,3.2-2.6,3.2c-0.8,0-1.9-0.6-2.7-4.5c-0.2-1.2-0.3-2.5-0.4-3.8s-0.2-3.2-0.5-3.7c-0.1,0.1-0.3,0.2-0.6,0.5  c-2.8,2.5-5.9,8.7-6.6,10.3c3.4,10.4,1.1,13.4,0.8,13.8L487.4,304.8z"
   id="path4329" />
<path
   class="st0"
   d="M606.9,280.1h-1.3c-0.6,0-15.2-0.6-19.7-7.1c-4.3-6.2-8.4-17.6-8.6-18l1.9-0.7c0,0.1,4.2,11.5,8.4,17.6  c3,4.4,11.9,5.7,16,6.1c-1.2-1.2-3.8-3.1-9.4-5l-0.4-0.1l-0.2-0.4c-0.2-0.3-4.1-8-4.4-12.7c0-0.5-0.2-2.1,1-2.8  c1.4-0.8,3.2,0.5,5.5,2c1,0.7,2.1,1.4,3.1,1.9c1.2,0.6,2,0.9,2.4,1c-0.1-0.3-0.3-0.7-0.8-1.3c-0.8-1.2-2.1-1.8-3.6-2.4  c-2.7-1.2-6-2.6-9.3-8.2l1.8-1.1c3,5,5.9,6.3,8.4,7.4c1.7,0.7,3.3,1.4,4.5,3.1c0.9,1.3,1.8,2.9,0.9,4c-0.5,0.6-1.6,1.2-5.2-0.7  c-1.1-0.6-2.2-1.3-3.3-2s-2.6-1.8-3.3-1.9c0,0.1,0,0.4,0,0.8c0.3,3.8,3.2,10,4,11.5c10.3,3.7,11.3,7.4,11.3,7.8L606.9,280.1z"
   id="path4331" />
<path
   class="st0"
   d="M505.9,270.3l-17.6-8.9l6.2-12.2l17.6,8.9L505.9,270.3z M491.1,260.5l13.9,7.1l4.3-8.5l-13.9-7.1L491.1,260.5z"
   id="path4333" />
<path
   class="st0"
   d="M576.2,256.7l-6.3-12.1l15.7-8.1l6.3,12.1L576.2,256.7z M572.7,245.5l4.4,8.5l12.1-6.2l-4.4-8.5L572.7,245.5z"
   id="path4335" />
<path
   class="st0"
   d="M591.3,393.8c-2,0-3.4-1.7-5-3.6c-1.3-1.5-2.8-3.4-5.1-5.3c-0.7-0.6-72.2-68.2-71.8-72.8  c0.3-3.3,8.8-50.3,9.1-52.3l2,0.4c-3,16.6-8.7,48.6-9.1,52c2.2,5.3,64,65.2,71.1,71.2c2.5,2.1,4.1,4,5.4,5.6c2.5,3,3.1,3.6,5.3,2.2  c1.8-1.2,3.9-3.9,6-6.8c3.1-4.2,6.7-9,10.8-10.7c1.7-0.7,1.8-1.5,1.8-1.8c0.2-1.5-1.3-5.2-13.2-13.4c-9.6-6.7-31.5-26.2-41.5-36.4  c-8.7-8.9-8.4-10.6-8.4-11.2l0.2-0.6c0.8-3.8,8.7-39.2,13.6-52.1l1.9,0.7c-5,13.5-13.5,51.8-13.6,52.2v0.1c0.2,0.5,1.2,2.7,7.8,9.5  c9.9,10.2,31.6,29.6,41.2,36.2c9.8,6.8,14.4,11.8,14.1,15.3c-0.1,1.1-0.7,2.5-3.1,3.5c-3.6,1.5-7,6-10,10c-2.3,3.1-4.4,5.9-6.6,7.3  C593.2,393.5,592.2,393.8,591.3,393.8z"
   id="path4337" />
<path
   class="st0"
   d="M526.9,401.7c-2.6,0-9.1-1.5-27.1-8.8c-1.3-0.5-3.4-1.4,4.7-38.8c3.9-18.1,8.4-36.3,8.5-36.4l2,0.5  c-8.1,32.8-15.8,69.3-14.2,73c15.5,6.3,24.1,8.8,26.3,8.6c-2.4-11.4,7.9-55.3,9-58l1.9,0.8c-1.2,3-11.4,47.1-8.8,57.2  c0.2,0.6,0,1.2-0.5,1.6C528.4,401.4,528.1,401.7,526.9,401.7z"
   id="path4339" />
<path
   class="st0"
   d="M488.1,413.5c-9.4,0-15.1-1.1-17.2-3.5c-2.5-2.7-3.4-5.9-2.2-8.3c0.7-1.4,2.8-3.8,8.8-3.3  c11.6,1,23.9-7.2,24-7.3l1.2,1.7c-0.5,0.4-13,8.7-25.4,7.6c-3.5-0.3-6,0.5-6.8,2.1s0,3.9,1.9,6c2,2.2,10.1,4.2,37,1.5  c2.8-0.3,5.3-0.3,7.3-0.3c3.3,0,5.5,0,6.6-1.2s1.6-3.9,1.4-9.1l2.1-0.1c0.2,6-0.3,9-1.9,10.6c-1.7,1.8-4.4,1.8-8.1,1.8  c-2,0-4.3,0-7.1,0.3C501,413,493.9,413.5,488.1,413.5z"
   id="path4341" />
<path
   class="st0"
   d="M586.4,415.1c-3.8,0-5.6-1-6.5-2.1c-0.8-1.1-0.9-2.4-0.3-3.7c0.9-1.7,3.4-2.9,6.1-4.1c2.2-1,4.4-2,5.4-3.2  c1.7-2,1.7-7.9,1.5-10l2.1-0.2c0.1,0.9,0.6,8.5-2,11.5c-1.3,1.5-3.7,2.6-6.1,3.7c-2.2,1-4.6,2.1-5.2,3.2c-0.3,0.6-0.3,1.1,0.1,1.5  c1.1,1.4,5.5,2.1,14.4-0.1c9.9-2.4,13.7-10.3,17-17.3c1.3-2.7,2.5-5.2,4-7.2c4.1-5.3,3.2-7,3.1-7l-0.2-0.3c-1.8-4-8.1-7.2-8.1-7.3  l0.9-1.8c0.3,0.1,6.8,3.5,9,8.1c0.7,0.8,1.7,3.3-3.1,9.5c-1.3,1.8-2.5,4.2-3.8,6.8c-3.4,7-7.5,15.7-18.4,18.4  C592.1,414.7,588.9,415.1,586.4,415.1z"
   id="path4343" />
<path
   class="st0"
   d="M509.6,191.4c-0.1-8.2,0.1-15.3,0.7-21c1.2-10.6,3.9-16.6,6.3-21.9c1.5-3.4,2.9-6.3,3.5-9.8l2,0.3  c-0.7,3.8-2.1,7-3.6,10.4c-2.4,5.2-5,11-6.2,21.2c-0.6,5.6-0.9,12.6-0.7,20.7L509.6,191.4z"
   id="path4345" />
<path
   class="st0"
   d="M514.4,261.2c-1.1,0-1.1-0.4-1.8-10.6l2.1-0.1c0.3,4.9,0.6,7.2,0.7,8.3c5.7-0.1,41.6-1,53-2.7  c0.5-1.7,0.2-9.4-0.3-15.9c-0.4-2-1.1-9.9-2-19.9c-1.1-12.3-2.5-27.6-3.9-38.3c-1.1-8.3-0.9-15.6-0.7-22c0.2-8.8,0.5-16.4-2.6-24.1  c-5.4-13.8-8.1-15.5-13.1-18.5l1.1-1.8c5.8,3.5,8.6,5.6,14,19.5c3.2,8.1,3,15.9,2.7,24.9c-0.2,6.3-0.4,13.5,0.7,21.7  c1.4,10.8,2.8,26.1,3.9,38.4c0.9,9.6,1.6,17.9,2,19.8c1.4,17.8,0,18-1,18.2c-11.2,1.8-48.2,2.7-53.8,2.8  C514.9,261.2,514.5,261.2,514.4,261.2z"
   id="path4347" />
<path
   class="st0"
   d="M519,142.7l2.6-12.9l0.2-0.2c10.1-11.9,19.7-18.2,20.1-18.5l0.3-0.2l0.4,0.1c1.6,0.3,3.1,1.4,4.8,3.6  c0.6,0.8,2.3,2.9-26.1,26.3L519,142.7z M523.4,130.7l-1.3,6.7c11.2-9.4,22.4-19.5,23.4-21.8c-1.1-1.4-2-2.1-3-2.5  C540.7,114.4,532.2,120.5,523.4,130.7z"
   id="path4349" />
<path
   class="st0"
   d="M510.5,259.2l-15.7-7.5l0.2-0.8c0.8-3.5,20.7-86.2,29.4-105.2c8.6-18.7,22.9-21.4,24.5-21.7  c0.6-0.2,1.3-0.4,1.9-0.4c6.2,0,9.6,11.1,9.8,11.6v0.2v0.2c-0.7,27.2-47.8,119-49.8,122.9L510.5,259.2z M497.2,250.5l12.4,6  c5-9.7,48.2-95.4,49.1-120.9c-0.9-2.9-4-9.9-7.7-9.9c-0.4,0-0.8,0.1-1.3,0.3l-0.2,0.1c-0.1,0-14.7,2.2-23.1,20.5  C518.2,164.3,499.3,241.7,497.2,250.5z"
   id="path4351" />
<path
   class="st0"
   d="M523.8,120.5L523.8,120.5c-3.4,0-6.6-1.8-8.9-3.2l-0.7-0.4c-3.3-1.9-4.8-5.8-6.1-9c-0.7-1.7-1.4-3.5-2.1-3.9  c-2.6-1.5-3.3-2.7-3.4-2.9l-0.2-0.4l0.1-0.4c2-5.9,5.9-16.9,6-17c1.7-11,14-11.9,14.2-11.9c7.4,0.2,12.5,2.9,15.5,7.9  c5,8.6,2.3,21.9-2.6,31.3C532.4,117.3,528.4,120.5,523.8,120.5z M504.9,100.6c0.3,0.3,0.9,1,2.3,1.7c1.3,0.8,2,2.6,3,5  c1.1,2.8,2.5,6.4,5.2,7.9l0.7,0.4c2.2,1.3,4.9,2.9,7.8,2.9l0,0c3.8,0,7.2-2.8,10.2-8.6c4.5-8.6,7.3-21.4,2.7-29.3  c-2.6-4.4-7.2-6.8-13.7-6.9c-0.3,0-10.8,0.8-12.2,10.3C510.6,84.2,506.9,94.6,504.9,100.6z"
   id="path4353" />
<path
   class="st0"
   d="M541.7,112.8c-3.5-2.7-2.8-15.4-2.7-18l2.1,0.1c-0.4,5.8,0,14.7,1.9,16.2L541.7,112.8z"
   id="path4355" />
<polygon
   class="st1"
   points="332,450.1 331.1,448.2 404.6,413.1 404.6,26.1 653.8,26.1 653.8,413 733.5,447 732.7,448.9   651.8,414.4 651.8,28.2 406.7,28.2 406.7,414.4 "
   id="polygon4357" />
<rect
   y="411.3"
   class="st1"
   width="405.7"
   height="2.1"
   id="rect4359" />
<rect
   x="652.8"
   y="411.3"
   class="st1"
   width="145.4"
   height="2.1"
   id="rect4361" />
<rect
   x="554.4"
   y="111"
   class="st0"
   width="73.8"
   height="2.1"
   id="rect4363" />
<rect
   x="587.3"
   y="125"
   class="st0"
   width="57.3"
   height="2.1"
   id="rect4365" />
<path
   class="st0"
   d="M524.1,128.3c0,0,2.2-5.4,1.9-9.2"
   id="path4367" />
</svg>