<?xml version="1.0" encoding="UTF-8" standalone="no"?>
<!-- Generator: Adobe Illustrator 19.2.0, SVG Export Plug-In . SVG Version: 6.00 Build 0)  -->

<svg
   xmlns:dc="http://purl.org/dc/elements/1.1/"
   xmlns:cc="http://creativecommons.org/ns#"
   xmlns:rdf="http://www.w3.org/1999/02/22-rdf-syntax-ns#"
   xmlns:svg="http://www.w3.org/2000/svg"
   xmlns="http://www.w3.org/2000/svg"
   xmlns:sodipodi="http://sodipodi.sourceforge.net/DTD/sodipodi-0.dtd"
   xmlns:inkscape="http://www.inkscape.org/namespaces/inkscape"
   version="1.1"
   id="Layer_1"
   x="0px"
   y="0px"
   width="800px"
   height="450px"
   viewBox="0 0 800 450"
   style="enable-background:new 0 0 800 450;"
   xml:space="preserve"
   inkscape:version="0.48.3.1 r9886"
   sodipodi:docname="overlay__Result 3.svg"><metadata
   id="metadata3192"><rdf:RDF><cc:Work
       rdf:about=""><dc:format>image/svg+xml</dc:format><dc:type
         rdf:resource="http://purl.org/dc/dcmitype/StillImage" /></cc:Work></rdf:RDF></metadata><defs
   id="defs3190" /><sodipodi:namedview
   pagecolor="#ffffff"
   bordercolor="#666666"
   borderopacity="1"
   objecttolerance="10"
   gridtolerance="10"
   guidetolerance="10"
   inkscape:pageopacity="0"
   inkscape:pageshadow="2"
   inkscape:window-width="640"
   inkscape:window-height="480"
   id="namedview3188"
   showgrid="false"
   inkscape:zoom="0.405"
   inkscape:cx="400"
   inkscape:cy="225"
   inkscape:window-x="376"
   inkscape:window-y="24"
   inkscape:window-maximized="0"
   inkscape:current-layer="Layer_1" />
<style
   type="text/css"
   id="style3088">
	.st0{fill:none;stroke:#FAAF40;stroke-width:3;stroke-miterlimit:10;}
</style>
<path
   class="st0"
   d="M115.3,339.6c0,0,23.6,14.7,36,5.4c12.4-9.2,13.8-8.4,5.4-11.8c-8.4-3.5-20.2-4.9-26.2-6.4  c-5.9-1.5-8.9-9.9-9.9-13.8s-13.8,0-13.8,0s11.8-4.5,17.3-10.6c5.4-6.1,6.2-6.8,7.4-14.4c2.5-15.3,16.4-14.7,16.4-19.4  c0-7.8-27,0-34.2,7.4c-17.4,17.9-19.7,27.6-17.3,37C99,322.3,105.3,334.6,115.3,339.6z"
   id="path3090" />
<path
   class="st0"
   d="M152.2,344.3c0,0-0.9,5.3,9.8,3.7c10.7-1.6,14.9-4.5,17.2-7.8s4.7-6.4,4.7-6.4c10.9-1,19.2-6.6,25.6-15.5  c6.4-8.9,10.4-17.8,10.4-23.7c0-8.1-12.7-17.1-29.4-22.9c-17.4-6-42.4-3.3-42.4-3.3"
   id="path3092" />
<path
   class="st0"
   d="M182.6,335.6c0,0,5.9-1.8,11.8-0.6"
   id="path3094" />
<path
   class="st0"
   d="M235.4,301.8c0,0-12.8,13.5-17.8,19.7c-4.9,6.3-14.9,13-19.9,13.2c-5,0.1-4.4,0.5-1.6,2c2.8,1.5,5.4,3.8,12.3,1  c6.9-2.8,43.3-21.7,43.8-21.7c0,0-6.4-3.9-10-7.7C238.5,304.4,235.4,301.8,235.4,301.8z"
   id="path3096" />
<path
   class="st0"
   d="M217.3,288.1c0,0,4-0.3,8,2.3c3.9,2.6,8.1,6.6,9.4,7.4c1.3,0.8,0.2-2.2,4.3-5.5s17.1-10.2,17.1-10.2  s-5.1-0.8-11.3,0s-12.3,3.2-16.9,3.5c-3,0.2-11.7,1-11.7,1"
   id="path3098" />
<path
   class="st0"
   d="M215.3,285.7c0,0,10.5-23.6,13.3-29.7s11-17.8,14.1-21.5c3.1-3.8,34.4-0.7,43.7-2.3c9.4-1.6,33.9-5.6,33.9-5.6"
   id="path3100" />
<path
   class="st0"
   d="M235,298c0,0-0.2,2.1,0.3,3.8"
   id="path3102" />
<path
   class="st0"
   d="M245.2,310.9c0,0,6.2-8.6,7.3-11.1s-1.7-7.5-1.1-9.6c0.6-2.1-8.9-0.4-8.9-0.4"
   id="path3104" />
<path
   class="st0"
   d="M331.4,264c0,0-59.6,13.6-80.1,25.9"
   id="path3106" />
<path
   class="st0"
   d="M252.5,299.9c0,0,25.8,0.6,31.2,0.9"
   id="path3108" />
<path
   class="st0"
   d="M192.8,335.1c0,0,3.9,3.2,8.9,6c4.9,2.7,6.6,9.2,9,11.8c2.5,2.6,12.4,2.3,12.4,2.3l15.8,0.8l4.4-10.4  c0,0,9.5,5.5,13.8,6.3s34.4-27.6,48.2-40.3c13.8-12.7,35.5-34.5,35.5-34.5s-47.8,19.2-63.5,26.6c-15.3,7.2-25.2,12.2-25.2,12.2"
   id="path3110" />
<path
   class="st0"
   d="M340.8,277.1c0,0,20.7-6.9,34.2-7.9c0,0-40.5-5.1-49.3-5.8c-8.9-0.7-19.6-0.5-35.4,2.9s-57.7,13-65.9,19.4"
   id="path3112" />
<path
   class="st0"
   d="M218.7,278.1c0,0,11.5-15.8,14.5-18.8s9.2,4.7,9.2,4.7l13.6-16.5c0,0,45.2-3,59.4,0c14.1,3,63.5,18.7,72.4,24.7  "
   id="path3114" />
<path
   class="st0"
   d="M212.8,354.1c0,0,13.8,28.9,19.8,42.4c5.9,13.5,10.4,18.8,20.1,20.7c9.8,2,105.2,15.5,141.4,8.9  c0,0,7.6,0.7,11.2-8.2c3.6-8.9,48-86.8,48-86.8s2.6-3.6,0-5.6s-29.9-20.7-29.9-20.7s-3-2.3-5.6,3.9c-2.6,6.3-42.8,61.2-42.8,61.2  s-69.6-7.2-83.7-3.7"
   id="path3116" />
<path
   class="st0"
   d="M288.5,241.2c0,0,44.4-1.6,59.9,0s55.6,0,55.6,0"
   id="path3118" />
<path
   class="st0"
   d="M246.2,158l24.2,55.9c0,0-0.7,2.3,24.7,7.9c25.3,5.6,72.4,1,82.2,1.3c9.9,0.3,10.9,9.5,19.7,13.2  c8.9,3.6,32.6,23,32.6,23s0-13.7,9.2-17.4s23-8.3,27.3-6.7s4.3,12.2,4.3,12.2s2.3-4.6,2.6-9.9c0.3-5.3-7.9-11.8-22.7-19.7  c-14.8-7.9-31.6-22-31.6-22"
   id="path3120" />
<path
   class="st0"
   d="M320.4,201.7c0,0,92.4-5.6,118.4-6.3"
   id="path3122" />
<path
   class="st0"
   d="M453.3,325.4c0,0,4.7-8.8,5.4-12.5c0.7-3.7-4.9-7.9-11.6-10.9s-19.7-8.1-19.7-8.1l-5.4,10.4"
   id="path3124" />
<path
   class="st0"
   d="M454.4,306.2c0,0,8-4.2,10.2-12.3c0,0,1.1-5.2,3.5-5.5c2.3-0.4,3.3,0,3.9,2.1"
   id="path3126" />
<path
   class="st0"
   d="M429.1,293.9c0,0-0.5-4-2.5-8.2s-2.5-6-1.7-8.7c0.7-2.6,5.4-7.6,5.4-7.6"
   id="path3128" />
<path
   class="st0"
   d="M429.6,259.3c0,0,0,10.7,2,13.4c2,2.7,5.7,4.2,7.6,6.7c2,2.5,4.4,2.5,5.2-2.3c0.7-4.9-4.2-10.3-7.4-12"
   id="path3130" />
<path
   class="st0"
   d="M463.7,296.6c6.2,1.4,8.4-6.1,8.4-6.1c4.9-1.7,5.4-9.4,5.4-9.4c3.5,1.4,7.3-4,6-9.1c0,0-1.2-3.5-3.6-4.2v-4.6"
   id="path3132" />
<path
   class="st0"
   d="M440.4,267.7c0,0,0.3-4.6,1.3-6.9c1-2.2,8.5-8.9,12.8-12.8c4.3-3.9,8-4,10.4-1.9c2.5,2.1,2.5,4.4,2.5,4.4  s2.9-0.4,5.7,2.5c1.7,1.7,1.7,3.3,1.7,3.3s5.7,1.2,5.1,6.9"
   id="path3134" />
<line
   class="st0"
   x1="465.4"
   y1="263.1"
   x2="474.7"
   y2="256.2"
   id="line3136" />
<line
   class="st0"
   x1="457.5"
   y1="257.4"
   x2="467.3"
   y2="250.5"
   id="line3138" />
<path
   class="st0"
   d="M468.7,288.2c0,0,1.2-2.1,1.4-4.4c0.1-2.3,0.6-6.3,2-7.8s3.2-3.1,4.4,0c1.2,3.1,1,5,1,5"
   id="path3140" />
<path
   class="st0"
   d="M473.7,274.6c0,0-1-2.4-0.3-4.8c0.7-2.3,2.9-1.7,4.9-0.1c0,0-0.8-2.6,1.6-2"
   id="path3142" />
<path
   class="st0"
   d="M467.3,273.6c0,0-15.6-13.4-17.8-16.2"
   id="path3144" />
<path
   class="st0"
   d="M162.9,172.8c0,0,22,3,33.9,1.3c11.8-1.6,22.4-4.9,29.3-8.6c6.9-3.6,20.1-14.5,21.6-23.7  c1.4-9.2,0.1-16.1-6.8-22.4c-6.9-6.2-23-15.5-30.6-17.4c-7.6-2-23.4,2.3-34.2,5.6c-10.9,3.3-23.4,6.6-28,14.5s-6.9,5.3-6.9,5.3  s3.9,4.9,6.9,19.7C151,161.9,154.7,171.9,162.9,172.8z"
   id="path3146" />
<path
   class="st0"
   d="M189.8,178.1c0,0-5.3,0.2-16.1,0c-14.5-0.3-19.1-3-24.4-5.9c-5.3-3-9.9-13.2-13.8-24.7  c-3.9-11.5-1.3-18.8,2.6-21.1c0,0-0.8-17.4,14.1-21.7c14.9-4.3,29-5.9,29-5.9"
   id="path3148" />
<path
   class="st0"
   d="M187.9,104.3c0,0-6.6-1.2-6.7-5.6c0-8.6,11.5-2,11.5-2s3.1,1.6,7.6,1.4c4.6-0.2,6.7,1.3,7.2,3.4"
   id="path3150" />
<path
   class="st0"
   d="M192.5,174.6c0,0-4.7,2.7-1.7,5.5c3.6,3.3,9.5-0.2,13.1-3.1c3.6-2.9,7.1-2.8,10.2-4.4c3.1-1.6,3.5-3.4,3.5-3.4"
   id="path3152" />
<path
   class="st0"
   d="M240.3,154.3c0,0,32,20.5,38.6,22.5l7.2-9.2l25.7,16.4l103.6-38.5c0,0-99.3-27.3-122.4-32.6  c-23-5.3-54.7-12.1-64.1-6.6c0,0,9.2-16.1,15.1-19.7c5.9-3.6,26.6-10.5,26.6-10.5l13,12.2l16-12.2l129.9,74.8"
   id="path3154" />
<path
   class="st0"
   d="M241.5,153c0,0,2.9,2.2,17.4,2.7c11.2,0.4,129.6-8.5,149.3-12.2"
   id="path3156" />
<path
   class="st0"
   d="M245,154.1c-0.3,0.3,19.1-14.5,18.4-19.8s-15.2-17.8-18.4-20.4c-3.3-2.6-8.6-8.1-16.1-7.6"
   id="path3158" />
<path
   class="st0"
   d="M289.5,154.4c0,0-24.5-14-26-18.7"
   id="path3160" />
<path
   class="st0"
   d="M263.1,133c0,0,6.8-11.4,19.3-22.8"
   id="path3162" />
<path
   class="st0"
   d="M266.1,138.8c0,0,0.6-4.3-1.2-8.6"
   id="path3164" />
<path
   class="st0"
   d="M271.4,143c0,0,6.3-2.4,12.1-3.5c5.8-1.1,3.9-10.2,0.9-11.1c-3.1-0.9-11.4-4.1-13.2-6.3"
   id="path3166" />
<path
   class="st0"
   d="M285.1,138.8c0,0,41.4,10.9,61.6,11"
   id="path3168" />
<path
   class="st0"
   d="M285.1,128.8c0,0,19.2-6.4,40.3-7.7"
   id="path3170" />
<path
   class="st0"
   d="M241.5,88.6c0,0,13-47.1,18.4-58s61.3-13,94.7-15.3c49.3-3.5,89.9-5.4,89.9-5.4"
   id="path3172" />
<path
   class="st0"
   d="M320.4,50.9c0,0,12,1.5,64.3-1s34.5-1.1,34.5-1.1"
   id="path3174" />
<path
   class="st0"
   d="M130.4,293.3c0,0,33.2-7.5,89.5,1.4"
   id="path3176" />
<line
   class="st0"
   x1="148"
   y1="147.1"
   x2="248"
   y2="134.5"
   id="line3178" />
<line
   class="st0"
   x1="196.7"
   y1="174.1"
   x2="187.9"
   y2="104.3"
   id="line3180" />
<line
   class="st0"
   x1="224.3"
   y1="145"
   x2="223"
   y2="128.8"
   id="line3182" />
<path
   class="st0"
   d="M158.1,333.7c0,0,9.7-39.7,1.8-66"
   id="path3184" />
<path
   class="st0"
   d="M192.8,299.9c0,0,1.8-8-0.3-16.1"
   id="path3186" />
</svg>