<?xml version="1.0" encoding="UTF-8" standalone="no"?>
<!-- Generator: Adobe Illustrator 19.2.0, SVG Export Plug-In . SVG Version: 6.00 Build 0)  -->

<svg
   xmlns:dc="http://purl.org/dc/elements/1.1/"
   xmlns:cc="http://creativecommons.org/ns#"
   xmlns:rdf="http://www.w3.org/1999/02/22-rdf-syntax-ns#"
   xmlns:svg="http://www.w3.org/2000/svg"
   xmlns="http://www.w3.org/2000/svg"
   xmlns:sodipodi="http://sodipodi.sourceforge.net/DTD/sodipodi-0.dtd"
   xmlns:inkscape="http://www.inkscape.org/namespaces/inkscape"
   version="1.1"
   id="Layer_1"
   x="0px"
   y="0px"
   width="800px"
   height="450px"
   viewBox="0 0 800 450"
   style="enable-background:new 0 0 800 450;"
   xml:space="preserve"
   inkscape:version="0.48.3.1 r9886"
   sodipodi:docname="overlay__Result 2.svg"><metadata
   id="metadata3085"><rdf:RDF><cc:Work
       rdf:about=""><dc:format>image/svg+xml</dc:format><dc:type
         rdf:resource="http://purl.org/dc/dcmitype/StillImage" /></cc:Work></rdf:RDF></metadata><defs
   id="defs3083"><inkscape:perspective
     sodipodi:type="inkscape:persp3d"
     inkscape:vp_x="0 : 225 : 1"
     inkscape:vp_y="0 : 1000 : 0"
     inkscape:vp_z="800 : 225 : 1"
     inkscape:persp3d-origin="400 : 150 : 1"
     id="perspective3196" /></defs><sodipodi:namedview
   pagecolor="#ffffff"
   bordercolor="#666666"
   borderopacity="1"
   objecttolerance="10"
   gridtolerance="10"
   guidetolerance="10"
   inkscape:pageopacity="0"
   inkscape:pageshadow="2"
   inkscape:window-width="640"
   inkscape:window-height="480"
   id="namedview3081"
   showgrid="false"
   inkscape:zoom="0.405"
   inkscape:cx="400"
   inkscape:cy="225"
   inkscape:window-x="465"
   inkscape:window-y="24"
   inkscape:window-maximized="0"
   inkscape:current-layer="Layer_1" />
<style
   type="text/css"
   id="style3023">
	.st0{fill:none;stroke:#FAAF40;stroke-width:3;stroke-miterlimit:10;}
	.st1{fill:#FAAF40;stroke:#FAAF40;stroke-width:3;stroke-miterlimit:10;}
</style>
<path
   class="st0"
   d="M466.1,85.4c0,0-8.1,32.4-6.6,48.3c1.4,16,10,54.2,24.3,68c14.3,13.7,29.3,22.7,45,20.3  c15.7-2.3,37.9-9.8,49.3-32.1c11.4-22.4,14.3-39.1,13.6-65s-10-64.5-31.4-77.3C538.9,34.7,516,34,503.9,38.3  C491.6,42.5,468.5,74.8,466.1,85.4z"
   id="path3025" />
<path
   class="st0"
   d="M338.7,445c0,0,10.4-0.7,19.6-6.1c9.3-5.4,27.1-37.9,29.8-43.2c2.6-5.4-0.1-16.1-0.1-16.1s-1.7-5.1-10.4-12.5  c-11.4-9.7-16.1-10.7-27.1-12.1c-11.1-1.4-17.1-2.5-22.5,0s-10,7.9-10.7,16.8s2.1,19.6,15,23.9c0,0,19.3,6.1,27.9,5.4"
   id="path3027" />
<path
   class="st0"
   d="M347.5,399.7c0,0,5.5,15,0,20c0,0-1.6,10.4-13.4,11.1c0,0-3.9,5.7-10.7,2.9c0,0-1.4,4.6-17.1-5.7  c0,0,3.6,6.1,0,9.3c-3.6,3.2-8.2,1.8-8.2,1.8s-6.8,2.1-20.7-6.8c-13.9-8.9-38.2-31.1-41.4-43.9c-3.2-12.9,2.9-17.5,4.6-31.4  c1.8-13.9,11.8-13.3,18.6-19.7c6.8-6.4,18.9-18.5,22.1-23.5s7.5-7.1,13.6-7.5s6.1-0.4,6.1-0.4s14.8-5.7,16.3-17.1s0.3-19.3,0-33.6  c-0.3-14.3,1.3-27.5,0-36.4s-3.1-33.2-2.4-36.8s3.6-9.3,13.9-5c10.4,4.3,13.6,12.7,16.1,20.5c2.5,7.7,5,37.4,6.8,48.1  c1.8,10.7,0.8,32.1,1.7,45.4c0.8,13.2,6.2,18.9,5.1,27.5s15.1,45.5,15.1,45.5"
   id="path3029" />
<path
   class="st0"
   d="M252.7,353.3c0,0.7,3.6,23.5,8.9,30.2c3.5,4.3,38,40.4,44.6,44.4"
   id="path3031" />
<path
   class="st0"
   d="M279.4,326.5c0,0,1.4,15.7,7.1,24.6s25.9,55.7,30.6,62.1s11.2,16.4,16.9,17.5"
   id="path3033" />
<path
   class="st0"
   d="M323.4,433.6c0,0-9.4-7.7-6.2-11.8c3.2-4.1,4.3-2.7,4.3-2.7"
   id="path3035" />
<path
   class="st0"
   d="M307.4,430.7c0,0-6.5-6.5-9.9-6.1c-3.3,0.5-8.1,4-6.7,7.9c1.4,3.8,7.1,6.4,7.1,6.4"
   id="path3037" />
<path
   class="st0"
   d="M347.5,419.7c0,0-4.9-16.2-12.3-14.5s-12.3,3.9-10.3,10.6c2.5,8.4,4.8,12.7,4.8,12.7"
   id="path3039" />
<path
   class="st0"
   d="M346.1,384.7c0,0,4.1-5.5,1.3-13.1c-2.8-7.6-5.6-10-10.4-10.9c-4.8-1-5.2,1.7-6.2,4.3c-1,2.6-4.3,13.9-1.7,20.5  C331.8,392,342.5,388,346.1,384.7z"
   id="path3041" />
<path
   class="st0"
   d="M371.8,368.5c0,0,5.7,16-5.2,24.8"
   id="path3043" />
<path
   class="st0"
   d="M363,365.1c0,0-9.3,12.1-3.1,23.8"
   id="path3045" />
<path
   class="st0"
   d="M243.3,390.6c0,0,4.2-8.7,12.1-6.9"
   id="path3047" />
<path
   class="st0"
   d="M247.3,394.2c0,0,6,1.5,11-3.6"
   id="path3049" />
<path
   class="st0"
   d="M265.2,369.7c0,0,4.9-11.1,14.3-12.9"
   id="path3051" />
<path
   class="st0"
   d="M270.9,377c0,0,10.9-2.2,15.7-9.5"
   id="path3053" />
<path
   class="st0"
   d="M292.8,344.7c0,0,0.5-13.6,18.3-15"
   id="path3055" />
<path
   class="st0"
   d="M301.3,353.3c0,0,13.1-3.9,15.9-11.5"
   id="path3057" />
<path
   class="st0"
   d="M319.9,308.5c0,0-1.7,13.8,1.2,20c2.9,6.2,13,24.8,13,24.8"
   id="path3059" />
<path
   class="st0"
   d="M326.8,227.9c0,0,10.1,1.4,16.2,0"
   id="path3061" />
<path
   class="st0"
   d="M324.4,263.6c0,0,10.1,4.3,24-1.4"
   id="path3063" />
<path
   class="st1"
   d="M348.2,217.7c-1.1-8.8-2.2-16.8-3.4-20.4c-2.5-7.7-5.7-16.2-16.1-20.5s-13.2,1.4-13.9,5  c-0.5,2.5,0.2,15.6,1.2,26.1l0,0c4.8,1.4,5.2,5,5.2,5s0.8,5.8,5.6,4.7c4.8-1.1,7.6-5.3,11.6-3.4  C342.2,216.1,343.4,218.4,348.2,217.7z"
   id="path3065" />
<path
   class="st0"
   d="M249.3,408.3c0,0,4.9,13.5,12,20.1c7.1,6.7,9.5,21.6,9.5,21.6"
   id="path3067" />
<line
   class="st0"
   x1="367.8"
   y1="450.1"
   x2="370.4"
   y2="437.5"
   id="line3069" />
<path
   class="st0"
   d="M352.9,277.1c0,0,11.4-16.2,30.9-24.8c19.5-8.6,20.5-23.3,32.4-15.2c0,0,1.4-9.3,14.3-9.2c0,0,1-51.3,14.3-69.4  c0,0,6.2-14.3,4.8-21.9c-1.4-7.6-4.8-52.4,4.8-74.8c9.5-22.4,34-53.8,71.3-53.3s57.8,20,68.2,35.7c10.5,15.7,13.8,55.2,12.9,77.1  c-1,21.9-1.9,37.1-1.9,37.1s11.4,9.5,14.8,31.4c0,0,13.8-2.9,17.1,10s12.9,1,22.9,3.8c10,2.9,17.6-1.2,32.9,20.6  c15.2,21.8,42.9,72.3,56.2,88.5s19,51.5,29.5,61.9c10.5,10.5,20,24.6,20,24.6"
   id="path3071" />
<path
   class="st0"
   d="M430.4,227.9c0,0,0,19.6,28.9,42c25.9,20,36.4,11,50.4,36.4c14,25.5,24.8,30.8,24.8,30.8s39.3-10.3,62.9-41.7  c23.6-31.4,42.9-16.4,32.1-47.9c-10.7-31.4,12.1-30.9,14.3-29.7c2.1,1.2,17.8-13,37.1-6.6"
   id="path3073" />
<line
   class="st0"
   x1="522.8"
   y1="35.9"
   x2="522.8"
   y2="222.4"
   id="line3075" />
<line
   class="st0"
   x1="463.3"
   y1="98.1"
   x2="589.6"
   y2="98.1"
   id="line3077" />
<line
   class="st0"
   x1="503.3"
   y1="160.4"
   x2="541.8"
   y2="160.4"
   id="line3079" />
</svg>