<?xml version="1.0" encoding="UTF-8" standalone="no"?>
<!-- Generator: Adobe Illustrator 19.2.0, SVG Export Plug-In . SVG Version: 6.00 Build 0)  -->

<svg
   xmlns:dc="http://purl.org/dc/elements/1.1/"
   xmlns:cc="http://creativecommons.org/ns#"
   xmlns:rdf="http://www.w3.org/1999/02/22-rdf-syntax-ns#"
   xmlns:svg="http://www.w3.org/2000/svg"
   xmlns="http://www.w3.org/2000/svg"
   xmlns:sodipodi="http://sodipodi.sourceforge.net/DTD/sodipodi-0.dtd"
   xmlns:inkscape="http://www.inkscape.org/namespaces/inkscape"
   version="1.1"
   id="Layer_1"
   x="0px"
   y="0px"
   width="800px"
   height="450px"
   viewBox="0 0 800 450"
   style="enable-background:new 0 0 800 450;"
   xml:space="preserve"
   inkscape:version="0.48.3.1 r9886"
   sodipodi:docname="overlay__Result 1.svg"><metadata
   id="metadata45"><rdf:RDF><cc:Work
       rdf:about=""><dc:format>image/svg+xml</dc:format><dc:type
         rdf:resource="http://purl.org/dc/dcmitype/StillImage" /></cc:Work></rdf:RDF></metadata><defs
   id="defs43" /><sodipodi:namedview
   pagecolor="#ffffff"
   bordercolor="#666666"
   borderopacity="1"
   objecttolerance="10"
   gridtolerance="10"
   guidetolerance="10"
   inkscape:pageopacity="0"
   inkscape:pageshadow="2"
   inkscape:window-width="640"
   inkscape:window-height="480"
   id="namedview41"
   showgrid="false"
   inkscape:zoom="0.405"
   inkscape:cx="400"
   inkscape:cy="225"
   inkscape:window-x="327"
   inkscape:window-y="24"
   inkscape:window-maximized="0"
   inkscape:current-layer="Layer_1" />
<style
   type="text/css"
   id="style3">
	.st0{fill:none;stroke:#FAAF40;stroke-width:3;stroke-miterlimit:10;}
</style>
<path
   class="st0"
   d="M565,140.8c6.1-1.2,5.5,3.4,1.5,11.9c-4,8.6-11.3,9.8-11.3,9.8c-21.1,25.7-38.5,20.8-42.5,10.1  c-2.9-7.7-4.3-19.3-2.4-40.4c1.8-21.1,18.3-27.5,18.3-27.5s10.4-5.5,26.3-1.2c3.4,0.9,25.3,13.9,14.6,39.1"
   id="path5" />
<path
   class="st0"
   d="M519.3,179.7c0,0-10.5-79.9,26.8-77.9"
   id="path7" />
<path
   class="st0"
   d="M509.5,140.7c0,0,14,5.5,55.5,0"
   id="path9" />
<path
   class="st0"
   d="M513.6,163.5c0,0,4.5,1.2,13.2,1.2"
   id="path11" />
<path
   class="st0"
   d="M553.9,164.1c0,0-2,12.2,4.1,21.3c6.1,9.2,20.2,17.1,33,20.2c12.8,3.1,19.3,19.6,21.1,40.4s2.1,52,4,58.4  c1.8,6.4,9.8,27.8,8,47.7c-1.8,19.9,0.9,50.8,0.3,55.3c-0.6,4.6,2.5,14.7,2.5,14.7s-4.3,12.5-7,15s-15,6.7-16.5,3.4  c-1.5-3.4,0-3.7,0-3.7s-7-0.9-4.9-5.2c0,0-2.1-4,1.1-6c0.5-0.3,1-0.5,1.7-0.7c5.5-1.5,0.3-5.8,3.7-16.5s5.8-5.2,3.4-16.5  s-12.2-54.4-14.7-63.6c-2.4-9.2-4.6-12.5-4.6-25.3c0-6.4-5.5-37.3-5.5-37.3"
   id="path13" />
<path
   class="st0"
   d="M433,201c-4.7-19.8-19.9-48.3-19.3-53.2s4.9-10.1,6.1-14.1s1.8-10.1,4.6-13.8c2.8-3.7,5.5-11.9,0.3-10.7  c-5.2,1.2-7.3,6.1-8.3,9.8s-2.8-8.9-2.8-8.9"
   id="path15" />
<path
   class="st0"
   d="M521.7,180.6c0,0-2.8,6.6-17.8,7.8s-24.2,1.5-31.5,4c-7.3,2.4-18.3-0.3-39.4,5.5"
   id="path17" />
<path
   class="st0"
   d="M400.4,166.5c0,0,8.4,29.6,10.5,38.5s2.8,16.2,14.7,16.5c11.9,0.3,37.6,5.4,50.8,5.3"
   id="path19" />
<path
   class="st0"
   d="M477.3,218.1c0,0-1.6,34.9-7.7,73.1c0,0-3.6,16.9-8.3,37.9"
   id="path21" />
<path
   class="st0"
   d="M590.2,236.1c-1.6,6.2-11.2,50.8-22.4,116.8"
   id="path23" />
<path
   class="st0"
   d="M198.6,158.2c8.9-12.8,4.4-39.8,4.4-39.8c-9.8-14.7-9.7-40.4,8.7-49.8c22.8-11.6,53.7-7.9,70.2,23.2  c0,0,5.1,12.6,2.7,17.3c-5,10-4.1,12.1,0.6,17.5c7.9,9.2-1.7,9.6-1.7,9.6s0.5,18.7-5.7,28.2c-4.4,6.8-34.4-4.6-35.3-39  c0,0-9.4-1.1-11.9-11.1s0.9-14.1,9.6-10.2"
   id="path25" />
<path
   class="st0"
   d="M378.7,103.2c0,0-5.1-7-6.6-4.6c0,0-0.4,2.4,0,9.3s-0.5,10.8-0.2,13.3s7.8,11.6,6.7,20.8  c-1.3,11.5-7.8,43-12.4,56s-11.5,23.2-11.5,23.2s-42.2-11-64.7-27s-38.1-23.4-62.4-27.8c-24.3-4.3-28.4-10.9-42.6-9.4  c-14.2,1.5-41.2,25.1-47.8,44c-1.8,5.2-6.7,109.8,13.5,143.4"
   id="path27" />
<path
   class="st0"
   d="M256.5,158.5c0,0-4.1,10.6,0,16"
   id="path29" />
<path
   class="st0"
   d="M378.7,109.1c0,0,0.5-7.8,0-17s3.8-21.4,6.2-21.7c2.4-0.3,2.6,4.1,2.1,15.3c-0.4,10.2,0.7,16.1,0.7,16.1"
   id="path31" />
<path
   class="st0"
   d="M387,88.4c0,0,4.5-20.6,6.6-23.6s5.3,1.1,5.4,4.6c0.1,3.4-2.2,8.9-2.4,14.2c-0.2,5.3-0.2,18.2-0.2,18.2  s2.8-18.7,4.1-22.6c1.4-3.9,3.9-10.5,3.9-10.5s4.4-0.2,2.5,9.2c-1.8,9.4-2.1,15.1-1.4,21.3s2.3,3,3.9-2.1s7.6-14.7,9.6-12.8  c2.1,1.8-1.1,13.5-3.7,18.3c-2.5,4.9-5.3,24.1-5.3,24.1s-5,14.4-7.6,19.3c-2.5,4.8-3.2,35.3-4.8,45.6c-1.6,10.3-4.1,36.7-5.5,50  s-3.6,21.1-13.5,20.4s-70.4-2.5-90.3-5.3c-20-2.8-27.8,2.1-27.8,2.1"
   id="path33" />
<path
   class="st0"
   d="M285.5,256.3c0,0,6.3,81.1,9.3,93"
   id="path35" />
<path
   class="st0"
   d="M147.6,214.3c0,0,0,79.8,6.9,103.6"
   id="path37" />
<line
   class="st0"
   x1="407.2"
   y1="75.7"
   x2="409.4"
   y2="97.1"
   id="line39" />
</svg>