<?xml version="1.0" encoding="UTF-8" standalone="no"?>
<!-- Generator: Adobe Illustrator 19.2.0, SVG Export Plug-In . SVG Version: 6.00 Build 0)  -->

<svg
   xmlns:dc="http://purl.org/dc/elements/1.1/"
   xmlns:cc="http://creativecommons.org/ns#"
   xmlns:rdf="http://www.w3.org/1999/02/22-rdf-syntax-ns#"
   xmlns:svg="http://www.w3.org/2000/svg"
   xmlns="http://www.w3.org/2000/svg"
   xmlns:sodipodi="http://sodipodi.sourceforge.net/DTD/sodipodi-0.dtd"
   xmlns:inkscape="http://www.inkscape.org/namespaces/inkscape"
   version="1.1"
   id="Layer_1"
   x="0px"
   y="0px"
   width="800px"
   height="450px"
   viewBox="0 0 800 450"
   style="enable-background:new 0 0 800 450;"
   xml:space="preserve"
   inkscape:version="0.48.3.1 r9886"
   sodipodi:docname="overlay__Detail 3.svg"><metadata
   id="metadata3772"><rdf:RDF><cc:Work
       rdf:about=""><dc:format>image/svg+xml</dc:format><dc:type
         rdf:resource="http://purl.org/dc/dcmitype/StillImage" /></cc:Work></rdf:RDF></metadata><defs
   id="defs3770" /><sodipodi:namedview
   pagecolor="#ffffff"
   bordercolor="#666666"
   borderopacity="1"
   objecttolerance="10"
   gridtolerance="10"
   guidetolerance="10"
   inkscape:pageopacity="0"
   inkscape:pageshadow="2"
   inkscape:window-width="640"
   inkscape:window-height="480"
   id="namedview3768"
   showgrid="false"
   inkscape:zoom="0.405"
   inkscape:cx="400"
   inkscape:cy="225"
   inkscape:window-x="205"
   inkscape:window-y="24"
   inkscape:window-maximized="0"
   inkscape:current-layer="Layer_1" />
<style
   type="text/css"
   id="style3748">
	.st0{fill:#00A69C;stroke:#00A69C;stroke-miterlimit:10;}
</style>
<polygon
   class="st0"
   points="112.7,322.7 92.5,319.1 92.8,317.1 112.2,320.5 530.7,22.3 798.9,269.8 797.5,271.4 530.5,24.9 "
   id="polygon3750" />
<rect
   x="529.6"
   y="23.6"
   class="st0"
   width="2.1"
   height="425.3"
   id="rect3752" />
<path
   class="st0"
   d="M180.5,396.2V332l0.5-0.3l302.3-199.4v73.1l-0.5,0.3L180.5,396.2z M182.6,333.1v59.4l298.6-188.2v-68.1  L182.6,333.1z"
   id="path3754" />
<polygon
   class="st0"
   points="389,449.8 388.1,448 480.5,401.9 480.5,280.8 197.5,449.8 196.5,448 482.5,277.2 482.5,403.2 "
   id="polygon3756" />
<path
   class="st0"
   d="M783.9,390.5L578,203.3V132l205.9,186.8V390.5z M580.1,202.3l201.8,183.5v-66.2l-201.8-183V202.3z"
   id="path3758" />
<polygon
   class="st0"
   points="652.6,448.9 578,394.9 578,276.7 768.2,447.3 766.8,448.9 580.1,281.3 580.1,393.8 653.8,447.3 "
   id="polygon3760" />
<path
   class="st0"
   d="M89.8,319.1c-10.6,0-16.3-1.8-17.3-5.5c-1.9-6.9,14.9-16.9,16.8-18l417-296.9l1.2,1.7l-417,297  c-6.8,4-17.1,11.7-16,15.8c0.4,1.5,2.9,3.9,15,3.9L533.3-1.2l0.6,0.6l265,247.4l-1.4,1.5L533.2,1.5l-443,317.6H89.8  C89.9,319.1,89.9,319.1,89.8,319.1z"
   id="path3762" />
<rect
   x="676.9"
   y="-52.6"
   transform="matrix(0.6851 -0.7284 0.7284 0.6851 131.2106 529.3586)"
   class="st0"
   width="2.1"
   height="331.1"
   id="rect3764" />
<rect
   x="111.4"
   y="321.6"
   class="st0"
   width="2.1"
   height="127.3"
   id="rect3766" />
</svg>