<?xml version="1.0" encoding="UTF-8" standalone="no"?>
<!-- Generator: Adobe Illustrator 19.2.0, SVG Export Plug-In . SVG Version: 6.00 Build 0)  -->

<svg
   xmlns:dc="http://purl.org/dc/elements/1.1/"
   xmlns:cc="http://creativecommons.org/ns#"
   xmlns:rdf="http://www.w3.org/1999/02/22-rdf-syntax-ns#"
   xmlns:svg="http://www.w3.org/2000/svg"
   xmlns="http://www.w3.org/2000/svg"
   xmlns:sodipodi="http://sodipodi.sourceforge.net/DTD/sodipodi-0.dtd"
   xmlns:inkscape="http://www.inkscape.org/namespaces/inkscape"
   version="1.1"
   id="Layer_1"
   x="0px"
   y="0px"
   width="800px"
   height="450px"
   viewBox="0 0 800 450"
   style="enable-background:new 0 0 800 450;"
   xml:space="preserve"
   inkscape:version="0.48.3.1 r9886"
   sodipodi:docname="overlay__Detail 5.svg"><metadata
   id="metadata3848"><rdf:RDF><cc:Work
       rdf:about=""><dc:format>image/svg+xml</dc:format><dc:type
         rdf:resource="http://purl.org/dc/dcmitype/StillImage" /></cc:Work></rdf:RDF></metadata><defs
   id="defs3846" /><sodipodi:namedview
   pagecolor="#ffffff"
   bordercolor="#666666"
   borderopacity="1"
   objecttolerance="10"
   gridtolerance="10"
   guidetolerance="10"
   inkscape:pageopacity="0"
   inkscape:pageshadow="2"
   inkscape:window-width="640"
   inkscape:window-height="480"
   id="namedview3844"
   showgrid="false"
   inkscape:zoom="0.405"
   inkscape:cx="400"
   inkscape:cy="225"
   inkscape:window-x="61"
   inkscape:window-y="24"
   inkscape:window-maximized="0"
   inkscape:current-layer="Layer_1" />
<style
   type="text/css"
   id="style3832">
	.st0{fill:#FAAF40;stroke:#FAAF40;stroke-miterlimit:10;}
</style>
<path
   class="st0"
   d="M592.2,447.8c-20.1-27.2-36.5-95.8-48.6-145.9c-2.6-11-5.2-21.5-7.4-30.1c-11.4-44.2-14.8-84.6-15.1-89.4  l-12.9-9.6l1.2-1.7l13.7,10.2v0.5c0,0.4,3.1,42.8,15.1,89.5c2.2,8.7,4.7,19.1,7.4,30.1c12,49.9,28.4,118.3,48.2,145.1L592.2,447.8z"
   id="path3834" />
<polygon
   class="st0"
   points="623.5,448.8 601.6,448.8 601.4,448.1 507.8,138 509.8,137.4 603.1,446.7 620.7,446.7 515.1,133.6   517,132.9 "
   id="polygon3836" />
<path
   class="st0"
   d="M508.5,137.7c-6.8,0-12.4-6.5-12.4-14.4s5.5-14.4,12.4-14.4c6.8,0,12.4,6.5,12.4,14.4S515.3,137.7,508.5,137.7z   M508.5,110.9c-5.7,0-10.3,5.5-10.3,12.4c0,6.8,4.6,12.4,10.3,12.4c5.7,0,10.3-5.5,10.3-12.4C518.8,116.5,514.2,110.9,508.5,110.9z"
   id="path3838" />
<path
   class="st0"
   d="M523.3,448.8l-0.3-0.6c-0.1-0.3-15.3-28.3-45.7-33.6c-7.4-1.3-13.7-3-19.7-4.6c-19.6-5.2-35.1-9.3-73.9,3.2  c-51,16.4-151.6-4.8-170.8-36.1c-4.1-6.7-7.6-13.9-11.3-21.6c-12.9-26.6-26.2-54.1-65.7-56.3C59.5,295.1,0.2,215.9-0.4,215.1  l1.7-1.2c0.6,0.8,59.4,79.2,134.7,83.3c40.7,2.2,54.3,30.3,67.4,57.4c3.7,7.6,7.2,14.8,11.2,21.4c18.5,30,119.2,51.1,168.4,35.3  c39.4-12.7,55.9-8.3,75-3.2c6,1.6,12.2,3.3,19.6,4.5c29.1,5.1,44.6,30.1,46.9,34.1l54.2-0.6c-47.8-60.6-69.9-264.7-70.9-273.8  c-1-1.2-6.9-8-20.1-10.4c-15.1-2.7-101.4-46.8-129.4-67.5c-26.6-19.7-66.4-38.2-81.9-38.2c-15.6,0-43.8-3.1-57.8-23.8  c-13.9-20.5-16.8-31.8-17-32.2l2-0.5c0,0.1,3,11.4,16.7,31.6c13.5,19.9,40.9,22.9,56.1,22.9c15.8,0,56.2,18.8,83.1,38.6  c27.8,20.5,113.6,64.4,128.5,67.1c15.3,2.8,21.3,11.1,21.6,11.4l0.2,0.2v0.3c0.2,2.2,22.6,215.7,71.8,274.6l1.4,1.7L523.3,448.8z"
   id="path3840" />
<path
   class="st0"
   d="M2.4,110.6l-1.5-1.4c24.4-27.2,77.5-68.1,78-68.5l0.2-0.1C79.4,40.4,115.6,23,129-1.3l1.8,1  C117.4,24,82.2,41.4,80.1,42.5C77.7,44.3,26.3,84,2.4,110.6z"
   id="path3842" />
</svg>