<?xml version="1.0" encoding="UTF-8" standalone="no"?>
<!-- Generator: Adobe Illustrator 19.2.0, SVG Export Plug-In . SVG Version: 6.00 Build 0)  -->

<svg
   xmlns:dc="http://purl.org/dc/elements/1.1/"
   xmlns:cc="http://creativecommons.org/ns#"
   xmlns:rdf="http://www.w3.org/1999/02/22-rdf-syntax-ns#"
   xmlns:svg="http://www.w3.org/2000/svg"
   xmlns="http://www.w3.org/2000/svg"
   xmlns:sodipodi="http://sodipodi.sourceforge.net/DTD/sodipodi-0.dtd"
   xmlns:inkscape="http://www.inkscape.org/namespaces/inkscape"
   version="1.1"
   id="Layer_1"
   x="0px"
   y="0px"
   width="800px"
   height="450px"
   viewBox="0 0 800 450"
   style="enable-background:new 0 0 800 450;"
   xml:space="preserve"
   inkscape:version="0.48.3.1 r9886"
   sodipodi:docname="overlay__Detail 4.svg"><metadata
   id="metadata3829"><rdf:RDF><cc:Work
       rdf:about=""><dc:format>image/svg+xml</dc:format><dc:type
         rdf:resource="http://purl.org/dc/dcmitype/StillImage" /></cc:Work></rdf:RDF></metadata><defs
   id="defs3827" /><sodipodi:namedview
   pagecolor="#ffffff"
   bordercolor="#666666"
   borderopacity="1"
   objecttolerance="10"
   gridtolerance="10"
   guidetolerance="10"
   inkscape:pageopacity="0"
   inkscape:pageshadow="2"
   inkscape:window-width="640"
   inkscape:window-height="480"
   id="namedview3825"
   showgrid="false"
   inkscape:zoom="0.405"
   inkscape:cx="400"
   inkscape:cy="225"
   inkscape:window-x="240"
   inkscape:window-y="24"
   inkscape:window-maximized="0"
   inkscape:current-layer="Layer_1" />
<style
   type="text/css"
   id="style3775">
	.st0{fill:#FAAF40;stroke:#FAAF40;stroke-miterlimit:10;}
	.st1{fill:#00A69C;stroke:#00A69C;stroke-miterlimit:10;}
</style>
<path
   class="st0"
   d="M395,72.5l-2-0.6c1.9-6.1-12.5-26.3-18.1-33.6l1.6-1.3C378.6,39.8,397.5,64.3,395,72.5z"
   id="path3777" />
<path
   class="st0"
   d="M350.3,129.3c-1.1-8-18.9-19.8-19-19.9l1.1-1.7c0.8,0.5,18.7,12.4,19.9,21.3L350.3,129.3z"
   id="path3779" />
<path
   class="st0"
   d="M270.7,294.9c-0.7,0-1.3-0.1-1.8-0.3c-1.3-0.5-2.2-1.5-2.5-2.9c-1.7-6.8,6.8-30.8,16.3-56.8  c2.4-6.7,4.6-12.4,5.6-15.7c4.2-13.3,9.8-16.6,10-16.8l1,1.8l-0.5-0.9l0.5,0.9c-0.1,0-5.1,3.2-9.1,15.6c-1.1,3.3-3.2,9.1-5.6,15.8  c-6.7,18.3-18,48.9-16.3,55.6c0.2,0.8,0.6,1.2,1.2,1.5c6.1,2.1,27.9-14.1,38.4-21.9l1.5-1.1c12.7-9.5,27.2-20.2,31.2-29.4l1.9,0.8  c-4.2,9.6-18.9,20.6-31.8,30.2l-1.5,1.1C294.5,283.4,278.3,294.9,270.7,294.9z"
   id="path3781" />
<path
   class="st0"
   d="M315.5,175.8l-1.6-1.3c11.8-14.6,44.8-21.9,73.8-28.4c9-2,17.6-3.9,25-5.9c15-4,25.2-4.7,35.2-5.4  c11.3-0.8,22-1.5,38.9-6.9c31.8-10.1,73.5-36.7,73.9-37l1.1,1.7c-0.4,0.3-42.3,27-74.4,37.2c-17.2,5.5-28,6.2-39.4,7  c-9.8,0.7-20,1.4-34.8,5.4c-7.5,2-16.1,3.9-25.1,6C359.5,154.5,326.9,161.8,315.5,175.8z"
   id="path3783" />
<path
   class="st0"
   d="M644.9,274.2c-38-0.4-65.1-15.9-84.9-27.3c-8.1-4.6-15.1-8.6-20.7-10.3c-21.4-6.4-42.8-11.6-69.6-6.4  c-24.7,4.8-53.7,8.6-93.9,12.2c-34,3.1-56.3-6.2-56.6-6.3l0.8-1.9c0.2,0.1,22.1,9.1,55.6,6.1c40.2-3.6,69.1-7.4,93.7-12.2  c27.2-5.3,48.9,0,70.5,6.4c5.9,1.8,13,5.8,21.2,10.5c19.6,11.2,46.5,26.6,83.9,27V274.2z"
   id="path3785" />
<path
   class="st0"
   d="M370.2,278.3c-10.3,0-19.3-6-19.4-6.1l-0.4-0.2l-5.8-30.6l2-0.4l5.7,29.7c2.7,1.7,19.8,11.6,32.3-0.1  c13.6-12.8,9.3-30.5,9.2-30.7l2-0.5c0,0.2,4.7,19-9.8,32.7C381,276.8,375.4,278.3,370.2,278.3z"
   id="path3787" />
<path
   class="st0"
   d="M430,281.4c-7.4,0-13.6-3-14-3.2l-0.2-0.1l-0.1-0.2l-21.2-27.1l1.6-1.3l21,26.9c1.8,0.8,14.6,6.2,24-0.4  c8.9-6.2,12.4-20.9,10.2-43.7l2-0.2c2.2,23.6-1.5,39-11.1,45.6C438.4,280.5,434,281.4,430,281.4z"
   id="path3789" />
<path
   class="st0"
   d="M472.1,278.4l-19.9-19.1l1.4-1.5l19.3,18.5c9.3-0.2,15.8-2.4,19.6-6.9c3.7-4.3,5-10.7,3.9-19.1  c-2.3-17.7-16.8-21.6-16.9-21.6l0.5-2c0.2,0,15.9,4.3,18.5,23.3c1.2,9-0.3,16-4.4,20.7c-4.3,5-11.4,7.5-21.6,7.6L472.1,278.4z"
   id="path3791" />
<path
   class="st0"
   d="M352,271.2l-1.5-1.4c0.1-0.1,8.5-8.8,9.1-27.7l2.1,0.1C361.1,261.9,352.4,270.8,352,271.2z"
   id="path3793" />
<path
   class="st0"
   d="M471.5,277.5c-0.1-0.6-3.2-15.2,2.5-21.4c-1.9-2.5-9.2-11.2-21.5-15.5l0.7-1.9c14.9,5.2,22.7,16.5,23,17  l0.5,0.8l-0.7,0.6c-5.7,4.9-2.6,19.9-2.6,20.1L471.5,277.5z"
   id="path3795" />
<path
   class="st0"
   d="M417.6,277.5c-0.1-0.9-2.6-21,1.8-28.8c-4.6-4.5-9.7-9.1-10.7-9.5l0.2-0.6l-0.2-1.5c0.5,0,1.7-0.2,12.7,10.6  l0.6,0.6l-0.5,0.7c-4.6,6.6-2,27.9-2,28.1L417.6,277.5z"
   id="path3797" />
<path
   class="st0"
   d="M277.1,207.6l-1.8-1c5.4-9.9,13.1-26.1,12.3-30c-1.1-5.3-5.1-9.2-5.2-9.2l1.4-1.5c0.2,0.2,4.5,4.3,5.8,10.3  C290.8,182.1,278.5,205,277.1,207.6z"
   id="path3799" />
<rect
   x="279.4"
   y="83.4"
   transform="matrix(0.6013 -0.799 0.799 0.6013 85.9645 341.0877)"
   class="st0"
   width="210.8"
   height="2.1"
   id="rect3801" />
<rect
   x="368.7"
   y="71.7"
   transform="matrix(0.6151 -0.7885 0.7885 0.6151 119.9531 391.2273)"
   class="st0"
   width="183.9"
   height="2.1"
   id="rect3803" />
<path
   class="st0"
   d="M388,75.6c-1.2-18.9-24.4-42.4-24.6-42.7l1.5-1.5c1,1,23.9,24.3,25.2,44L388,75.6z"
   id="path3805" />
<path
   class="st0"
   d="M498.9,115.3l-2.1-0.1c0-0.2,0.9-21.2,7.9-43.4c6.9-21.9,12.4-47,12.4-47.2l2,0.4c-0.1,0.3-5.5,25.4-12.5,47.4  C499.8,94.3,498.9,115.1,498.9,115.3z"
   id="path3807" />
<path
   class="st0"
   d="M796.1,33c-11.1-2-50.3-10.3-50.7-10.4c-13.1-1.3-22.6,8.3-22.7,8.4l-1.5-1.4c0.4-0.4,10.3-10.4,24.5-9  c0.5,0.1,39.7,8.4,50.7,10.4L796.1,33z"
   id="path3809" />
<path
   class="st0"
   d="M687.7,299.9c-23.2,0-42.3-0.3-47.2-1.1c-4.3-0.7-7.1-2.5-8.4-5.4c-2.6-5.7,2-13.2,2.2-13.6l0.2-0.3  c0.9-0.7,86.6-71.1,98.3-142c10.7-65,7.1-96.9,6.4-102.1l-8.5-1.1c-15.6-4.5-39.5-15.6-75.6-33.3l0.9-1.9  c35.1,17.2,59.9,28.7,75.1,33.1l9.8,1.3l0.1,0.7c0.1,0.3,5.5,32.1-6.3,103.5c-11.4,70.5-94.7,140-98.7,143.4c-0.6,1-3.9,7.2-2,11.5  c1,2.2,3.3,3.6,6.8,4.2c14.4,2.4,154,0,155.4,0v2.1C792.5,298.8,732.5,299.9,687.7,299.9z"
   id="path3811" />
<path
   class="st0"
   d="M288.8,220.5c-0.6-0.2-14.8-5.9-14.1-17.5c0.3-5.4,2.1-13.4,4.4-23.5c2.4-10.3,5.3-23.2,7.2-36.4  c2.8-19.8,4.9-24.8,11.3-39.8c1.9-4.5,4.2-10.1,7.1-17.2c5.7-14.2,11.8-26.5,16.7-36.4c5.7-11.4,9.8-19.6,10.1-24.3  c0.6-8.8,4.7-18.8,31.2-26.5l0.6,2c-25.2,7.4-29.2,16.6-29.7,24.7c-0.3,5.1-4.5,13.5-10.3,25.1c-4.9,9.8-11,22.1-16.6,36.2  c-2.9,7.1-5.2,12.7-7.1,17.2c-6.2,14.8-8.3,19.8-11.1,39.3c-1.9,13.3-4.8,26.2-7.2,36.6c-2.2,9.6-4.1,17.9-4.4,23.1  c-0.6,10.1,12.7,15.4,12.8,15.5L288.8,220.5z"
   id="path3813" />
<path
   class="st0"
   d="M272.1,267.9c0,0,16.1,0.7,19.3,16c0,0-16.7,13.1-23,11.8C262,294.3,267.1,283.8,272.1,267.9z"
   id="path3815" />
<path
   class="st0"
   d="M334.6,249.8c-3.1-5.8-5.8-8.5-9.3-11.9c-0.6-0.6-1.2-1.2-1.8-1.8l1.5-1.5c0.6,0.6,1.2,1.2,1.8,1.8  c3.6,3.5,6.5,6.3,9.7,12.4L334.6,249.8z"
   id="path3817" />
<path
   class="st0"
   d="M300.2,220.4c-6.8-3.2-9.4-4.1-9.5-4.1l0.7-2c0.1,0,2.7,0.9,9.7,4.2L300.2,220.4z"
   id="path3819" />
<path
   class="st0"
   d="M321.9,236.4c-12,0-19.7-6.2-22.7-18.5c-3.5-13.9-1.6-26.5,5.3-35.3c6.1-7.9,15.8-12.2,27.4-12.3h0.4  c19.6,0,23.6,8.8,23.7,9.2s8,25.7,12.8,34.7l0.2,0.4l-0.2,0.4c-0.2,0.4-4,10.3-19.5,15.3l-2.5,0.8  C339.4,233.4,330.3,236.4,321.9,236.4z M332.2,172.3h-0.4c-10.9,0.1-20,4.1-25.8,11.5c-6.5,8.4-8.2,20.3-4.9,33.6  c2.8,11.4,9.6,16.9,20.7,16.9c8.1,0,17-2.9,24.2-5.2l2.5-0.8c12.8-4.1,17.2-11.8,18.1-13.6c-4.9-9.5-12.3-33.5-12.6-34.5l0,0  C354,180.1,350.3,172.3,332.2,172.3z"
   id="path3821" />
<rect
   x="-6.5"
   y="30.5"
   transform="matrix(0.9447 -0.328 0.328 0.9447 -5.4199 30.9613)"
   class="st1"
   width="191.1"
   height="2.1"
   id="rect3823" />
</svg>