<?xml version="1.0" encoding="UTF-8" standalone="no"?>
<!-- Generator: Adobe Illustrator 19.2.0, SVG Export Plug-In . SVG Version: 6.00 Build 0)  -->

<svg
   xmlns:dc="http://purl.org/dc/elements/1.1/"
   xmlns:cc="http://creativecommons.org/ns#"
   xmlns:rdf="http://www.w3.org/1999/02/22-rdf-syntax-ns#"
   xmlns:svg="http://www.w3.org/2000/svg"
   xmlns="http://www.w3.org/2000/svg"
   xmlns:sodipodi="http://sodipodi.sourceforge.net/DTD/sodipodi-0.dtd"
   xmlns:inkscape="http://www.inkscape.org/namespaces/inkscape"
   version="1.1"
   id="Layer_1"
   x="0px"
   y="0px"
   width="800px"
   height="450px"
   viewBox="0 0 800 450"
   style="enable-background:new 0 0 800 450;"
   xml:space="preserve"
   inkscape:version="0.48.3.1 r9886"
   sodipodi:docname="overlay__Detail 1.svg"><metadata
   id="metadata3722"><rdf:RDF><cc:Work
       rdf:about=""><dc:format>image/svg+xml</dc:format><dc:type
         rdf:resource="http://purl.org/dc/dcmitype/StillImage" /></cc:Work></rdf:RDF></metadata><defs
   id="defs3720" /><sodipodi:namedview
   pagecolor="#ffffff"
   bordercolor="#666666"
   borderopacity="1"
   objecttolerance="10"
   gridtolerance="10"
   guidetolerance="10"
   inkscape:pageopacity="0"
   inkscape:pageshadow="2"
   inkscape:window-width="640"
   inkscape:window-height="480"
   id="namedview3718"
   showgrid="false"
   inkscape:zoom="0.405"
   inkscape:cx="400"
   inkscape:cy="225"
   inkscape:window-x="199"
   inkscape:window-y="24"
   inkscape:window-maximized="0"
   inkscape:current-layer="Layer_1" />
<style
   type="text/css"
   id="style3592">
	.st0{fill:#FAAF40;stroke:#FAAF40;stroke-miterlimit:10;}
	.st1{fill:#00A69C;stroke:#00A69C;stroke-miterlimit:10;}
</style>
<path
   class="st0"
   d="M2.1,159.7l-1.6-1.3c2-2.6,48.8-63.5,69.3-75.8C91.2,69.8,154.9,43,198.7,30c44.3-13.1,94.7-14.9,102.8-9.1  c7.1,5.1,12.3,9.3,12.4,9.3l-1.3,1.6c-0.1,0-5.2-4.2-12.3-9.2c-6.8-4.8-55.2-4.1-101.1,9.4C155.6,44.9,92.1,71.6,70.8,84.4  C50.6,96.5,2.5,159.1,2.1,159.7z"
   id="path3594" />
<path
   class="st0"
   d="M125.2,104.1l-0.8-1.9c1.8-0.7,184.6-73.2,207.1-79.4c20.3-5.5,67.2,19.6,95.2,34.7c3.6,1.9,6.8,3.7,9.6,5.1  c22.6,11.8,37.8,35.3,38,35.5l-1.7,1.1c-0.1-0.2-15-23.2-37.2-34.8c-2.7-1.4-5.9-3.2-9.6-5.1c-25.9-13.9-74.1-39.8-93.7-34.5  C309.7,30.9,127,103.4,125.2,104.1z"
   id="path3596" />
<path
   class="st0"
   d="M172.1,450.3l-0.6-2c9.9-3.1,28.3-22.5,49.6-45c20.1-21.1,42.8-45.1,63.8-61.1c41.5-31.6,70.2-46.9,148.6-69.5  c76.9-22.2,84.4-37.8,81.7-50.2c-3-13.3-15.7-16.3-52.4-12.3c-10.3,1.1-19.8,1.8-29.1,2.4c-25.1,1.7-46.8,3.2-73.7,12.9  c-36.7,13.2-82,24.3-82.5,24.4L273,251l3.7-2.9c0.5-0.4,53-42.2,88.6-65.6c26.3-17.3,46.9-17.7,70.8-18.2c9-0.2,18.3-0.4,28.5-1.5  c34.3-3.8,56.7-10.2,61.9-30.1c4.7-18-0.2-19.3-32.5-27.8l-2.8-0.8c-21.6-5.7-94-23.6-117.8-14.2c-21.3,8.4-134.7,61.3-135.9,61.9  l-0.9-1.9c1.1-0.5,114.6-53.4,136-61.9c24.4-9.6,97.3,8.4,119.1,14.1l2.8,0.8c32.4,8.5,39.2,10.3,33.9,30.3  c-5.5,21.1-28.5,27.7-63.7,31.7c-10.3,1.1-19.7,1.3-28.7,1.5c-23.5,0.5-43.9,0.9-69.7,17.9c-30,19.7-72.1,52.5-84.7,62.5  c12.5-3.2,47.9-12.5,77.6-23.2c27.2-9.8,49-11.3,74.2-13c9.2-0.6,18.7-1.3,29-2.4c38.1-4.1,51.4-0.7,54.7,13.9  c3.1,14-4.7,30-83.1,52.6c-78.7,22.7-106,37.2-147.9,69.2c-20.8,15.9-43.5,39.8-63.5,60.9C201,427.4,182.4,447,172.1,450.3z"
   id="path3598" />
<path
   class="st0"
   d="M478,245.2c-4.8,0-8.4-1.3-10.6-4l-0.2-0.2v-0.3c0-0.2-1.6-17-3.6-24l-0.3-1l0.9-0.3c0.4-0.1,10-3.2,22.8-3.2  c3.3,0,6.5,0.2,9.6,0.6c7.8,1,13.4,5,14.9,10.4c1.2,4.2-0.4,8.5-4.1,11.5C502.1,239,488.4,245.2,478,245.2z M469.2,240.2  c1.8,2,4.7,3,8.8,3c9.6,0,22.9-5.9,28.2-10c3.1-2.4,4.3-5.9,3.4-9.3c-1.3-4.7-6.2-8-13.2-9c-3-0.4-6.1-0.6-9.3-0.6  c-10.2,0-18.5,2.1-21.2,2.9C467.7,224.2,469,237.8,469.2,240.2z"
   id="path3600" />
<path
   class="st0"
   d="M504.7,137.8c-3,0-13-0.3-16.7-4.2c-0.9-1-1.4-2.1-1.3-3.3c0.5-8.4-7.5-24.5-7.6-24.7l-0.9-1.8l1.9,0.3  c7.5,1.1,36.7,8.4,42.3,11.1c5.9,2.9,2.2,15.1,2.1,15.6C523.6,135.7,513.9,137.8,504.7,137.8z M481.8,106.5  c2.1,4.6,7.4,16.6,6.9,23.9c0,0.6,0.2,1.2,0.7,1.8c2,2.2,8,3.5,15.2,3.5c9.4,0,17.3-2.3,17.9-5.3c1-3.2,2.6-11.5-1-13.3  C516.5,114.7,491.4,108.3,481.8,106.5z"
   id="path3602" />
<rect
   x="96.4"
   y="-9.7"
   transform="matrix(0.7195 -0.6945 0.6945 0.7195 6.7644 76.0144)"
   class="st1"
   width="2.1"
   height="78.6"
   id="rect3604" />
<rect
   x="67.5"
   y="-11.5"
   transform="matrix(0.7224 -0.6915 0.6915 0.7224 -5.0662 57.0792)"
   class="st1"
   width="2.1"
   height="92.7"
   id="rect3606" />
<rect
   x="173.8"
   y="-6.4"
   transform="matrix(0.6695 -0.7428 0.7428 0.6695 44.9536 135.5505)"
   class="st1"
   width="2.1"
   height="47.3"
   id="rect3608" />
<path
   class="st1"
   d="M535.7,206.7c-4.7,0-7.3-2-12.1-5.7c-1.5-1.1-3.2-2.5-5.3-4c-5.6-4-8.5-8-8.4-11.8c0.1-4.1,3.5-6.3,3.6-6.4  l0.2-0.1l51.5-17.2c1.6-0.5,3.2-0.8,4.8-0.8c6,0,9.8,3.8,9.9,4l15.7,14.4c1.7,1.7,1.7,3.3,1.4,4.4c-1.7,6.5-20.4,12.2-40.2,18.2  l-3.3,1C544.4,205.4,539.5,206.7,535.7,206.7z M514.5,180.6c-0.5,0.3-2.5,2-2.6,4.6c-0.1,3,2.5,6.5,7.5,10.1c2.1,1.5,3.9,2.9,5.4,4  c4.7,3.6,6.9,5.3,10.9,5.3c3.5,0,8.3-1.3,17.2-4l3.3-1c16.7-5,37.4-11.3,38.8-16.7c0.1-0.5,0.2-1.3-0.9-2.4l-15.7-14.4  c-0.1-0.1-3.3-3.4-8.5-3.4c-1.4,0-2.8,0.2-4.2,0.7L514.5,180.6z"
   id="path3610" />
<path
   class="st1"
   d="M474.7,348.8c-4.7,0-7.3-2-12.1-5.7c-1.5-1.2-3.2-2.5-5.3-4c-5.6-4-8.5-8-8.4-11.8c0.1-4.1,3.5-6.3,3.6-6.4  l0.2-0.1l51.5-17.2c1.6-0.5,3.2-0.8,4.8-0.8c6,0,9.8,3.8,9.9,4l15.5,15.7c1.3,1.4,1.8,2.8,1.4,4.3c-1.5,5.7-16.7,10.1-34.2,15.3  c-3,0.9-6.1,1.8-9.1,2.7C483.4,347.5,478.5,348.8,474.7,348.8z M453.5,322.8c-0.5,0.3-2.5,2-2.6,4.6c-0.1,3,2.5,6.5,7.5,10.1  c2.1,1.5,3.9,2.9,5.4,4c4.7,3.6,6.9,5.3,10.9,5.3c3.5,0,8.3-1.3,17.2-4c3-0.9,6.1-1.8,9.1-2.7c14.8-4.3,31.6-9.3,32.8-13.8  c0.1-0.5,0.2-1.2-0.9-2.3l-15.5-15.7c0,0-3.3-3.4-8.4-3.4c-1.4,0-2.8,0.2-4.2,0.7L453.5,322.8z"
   id="path3612" />
<path
   class="st1"
   d="M511.3,384.7c-4.7,0-7.3-2-12.1-5.7c-1.5-1.1-3.2-2.5-5.3-4c-5.6-4-8.5-8-8.4-11.8c0.1-4.1,3.5-6.3,3.6-6.4  l0.2-0.1l51.5-17.2c1.6-0.5,3.2-0.8,4.8-0.8c6,0,9.8,3.8,9.9,4l15.5,15.7c1.3,1.4,1.8,2.8,1.4,4.3c-1.5,5.7-16.7,10.1-34.2,15.3  c-3,0.9-6.1,1.8-9.1,2.7C520.1,383.4,515.1,384.7,511.3,384.7z M490.1,358.6c-0.5,0.3-2.5,2-2.6,4.6c-0.1,3,2.5,6.5,7.5,10.1  c2.1,1.5,3.9,2.9,5.4,4c4.7,3.6,6.9,5.3,10.9,5.3c3.5,0,8.3-1.3,17.2-4c3-0.9,6.1-1.8,9.1-2.7c14.8-4.3,31.6-9.3,32.8-13.8  c0.1-0.5,0.2-1.2-0.9-2.3L554,344.1c0,0-3.3-3.4-8.4-3.4c-1.4,0-2.8,0.2-4.2,0.7L490.1,358.6z"
   id="path3614" />
<path
   class="st1"
   d="M600.6,359c-4.7,0-7.3-2-12.1-5.7c-1.5-1.1-3.2-2.5-5.3-4c-5.6-4-8.5-8-8.4-11.8c0.1-4.1,3.5-6.3,3.6-6.4  l0.2-0.1l51.5-17.2c1.6-0.5,3.2-0.8,4.8-0.8c6,0,9.8,3.8,9.9,4l15.5,15.7c1.3,1.4,1.8,2.8,1.4,4.3c-1.5,5.7-16.7,10.1-34.2,15.3  c-3,0.9-6.1,1.8-9.1,2.7C609.3,357.7,604.4,359,600.6,359z M579.4,332.9c-0.5,0.3-2.5,2-2.6,4.6c-0.1,3,2.5,6.5,7.5,10.1  c2.1,1.5,3.9,2.9,5.4,4c4.7,3.6,6.9,5.3,10.9,5.3c3.5,0,8.3-1.3,17.2-4c3-0.9,6.1-1.8,9.1-2.7c14.8-4.3,31.6-9.3,32.8-13.8  c0.1-0.5,0.2-1.2-0.9-2.3l-15.5-15.7c0,0-3.3-3.4-8.4-3.4c-1.4,0-2.8,0.2-4.2,0.7L579.4,332.9z"
   id="path3616" />
<path
   class="st1"
   d="M553.8,422.9c-4.7,0-7.3-2-12.1-5.7c-1.5-1.1-3.2-2.5-5.3-4c-5.6-4-8.5-8-8.4-11.8c0.1-4.1,3.5-6.3,3.6-6.4  l0.2-0.1l51.5-17.2c1.6-0.5,3.2-0.8,4.8-0.8c6,0,9.8,3.8,9.9,4l15.5,15.7c1.3,1.4,1.8,2.8,1.4,4.3c-1.5,5.7-16.7,10.1-34.2,15.3  c-3,0.9-6.1,1.8-9.1,2.7C562.5,421.6,557.6,422.9,553.8,422.9z M532.6,396.9c-0.5,0.3-2.5,2-2.6,4.6c-0.1,3,2.5,6.5,7.5,10.1  c2.1,1.5,3.9,2.9,5.4,4c4.7,3.6,6.9,5.3,10.9,5.3c3.5,0,8.3-1.3,17.2-4c3-0.9,6.1-1.8,9.1-2.7c14.8-4.3,31.6-9.3,32.8-13.8  c0.1-0.5,0.2-1.2-0.9-2.3l-15.5-15.7c0,0-3.3-3.4-8.4-3.4c-1.4,0-2.8,0.2-4.2,0.7L532.6,396.9z"
   id="path3618" />
<path
   class="st1"
   d="M606.1,164.4c-4.7,0-7.3-2-12.1-5.7c-1.5-1.1-3.2-2.5-5.3-4c-5.6-4-8.5-8-8.4-11.8c0.1-4.1,3.5-6.3,3.6-6.4  l0.2-0.1l51.5-17.2c1.6-0.5,3.2-0.8,4.8-0.8c6,0,9.8,3.8,9.9,4l15.5,15.7c1.3,1.4,1.8,2.8,1.4,4.3c-1.5,5.7-16.7,10.1-34.2,15.3  c-3,0.9-6.1,1.8-9.1,2.7C614.8,163.1,609.8,164.4,606.1,164.4z M584.9,138.4c-0.5,0.3-2.5,2-2.6,4.6c-0.1,3,2.5,6.5,7.5,10.1  c2.1,1.5,3.9,2.9,5.4,4c4.7,3.6,6.9,5.3,10.9,5.3c3.5,0,8.3-1.3,17.2-4c3-0.9,6.1-1.8,9.1-2.7c14.8-4.3,31.6-9.3,32.8-13.8  c0.1-0.5,0.2-1.2-0.9-2.3l-15.5-15.7c0,0-3.3-3.4-8.4-3.4c-1.4,0-2.8,0.2-4.2,0.7L584.9,138.4z"
   id="path3620" />
<path
   class="st1"
   d="M567.8,133c-4.7,0-7.3-2-12.1-5.7c-1.5-1.1-3.2-2.5-5.3-4c-5.6-4-8.5-8-8.4-11.8c0.1-4.1,3.5-6.3,3.6-6.4  l0.2-0.1l51.5-17.2c1.6-0.5,3.2-0.8,4.8-0.8c6,0,9.8,3.8,9.9,4l15.5,15.7c1.3,1.4,1.8,2.8,1.4,4.3c-1.5,5.7-16.7,10.1-34.2,15.3  c-3,0.9-6.1,1.8-9.1,2.7C576.5,131.7,571.6,133,567.8,133z M546.6,107c-0.5,0.3-2.5,2-2.6,4.6c-0.1,3,2.5,6.5,7.5,10.1  c2.1,1.5,3.9,2.9,5.4,4c4.7,3.6,6.9,5.3,10.9,5.3c3.5,0,8.3-1.3,17.2-4c3-0.9,6.1-1.8,9.1-2.7c14.8-4.3,31.6-9.3,32.8-13.8  c0.1-0.5,0.2-1.2-0.9-2.3l-15.5-15.7c0,0-3.3-3.4-8.4-3.4c-1.4,0-2.8,0.2-4.2,0.7L546.6,107z"
   id="path3622" />
<path
   class="st1"
   d="M527.3,102.3c-4.7,0-7.3-2-12.1-5.7c-1.5-1.1-3.2-2.5-5.3-4c-5.6-4-8.5-8-8.4-11.8c0.1-4.1,3.5-6.3,3.6-6.4  l0.2-0.1l51.5-17.2c1.6-0.5,3.2-0.8,4.8-0.8c6,0,9.8,3.8,9.9,4L586.9,76c1.3,1.4,1.8,2.8,1.4,4.3c-1.5,5.7-16.7,10.1-34.2,15.3  c-3,0.9-6.1,1.8-9.1,2.7C536,101,531,102.3,527.3,102.3z M506,76.2c-0.5,0.3-2.5,2-2.6,4.6c-0.1,3,2.5,6.5,7.5,10.1  c2.1,1.5,3.9,2.9,5.4,4c4.7,3.6,6.9,5.3,10.9,5.3c3.5,0,8.3-1.3,17.2-4c3-0.9,6.1-1.8,9.1-2.7c14.8-4.3,31.6-9.3,32.8-13.8  c0.1-0.5,0.2-1.2-0.9-2.3L570,61.8c0,0-3.3-3.4-8.4-3.4c-1.4,0-2.8,0.2-4.2,0.7L506,76.2z"
   id="path3624" />
<path
   class="st1"
   d="M489.4,71.1c-4.7,0-7.3-2-12.1-5.7c-1.5-1.1-3.2-2.5-5.3-4c-5.6-4-8.5-8-8.4-11.8c0.1-4.1,3.5-6.3,3.6-6.4  l0.2-0.1L518.9,26c1.6-0.5,3.2-0.8,4.8-0.8c6,0,9.8,3.8,9.9,4l15.5,15.7c1.3,1.4,1.8,2.8,1.4,4.3c-1.5,5.7-16.7,10.1-34.2,15.3  c-3,0.9-6.1,1.8-9.1,2.7C498.1,69.8,493.2,71.1,489.4,71.1z M468.2,45c-0.5,0.3-2.5,2-2.6,4.6c-0.1,3,2.5,6.5,7.5,10.1  c2.1,1.5,3.9,2.9,5.4,4c4.7,3.6,6.9,5.3,10.9,5.3c3.5,0,8.3-1.3,17.2-4c3-0.9,6.1-1.8,9.1-2.7c14.8-4.3,31.6-9.3,32.8-13.8  c0.1-0.5,0.2-1.2-0.9-2.3l-15.5-15.7c0,0-3.3-3.4-8.4-3.4c-1.4,0-2.8,0.2-4.2,0.7L468.2,45z"
   id="path3626" />
<path
   class="st1"
   d="M668.4,112.3c-4.1,0-6.9-1.8-11.5-4.9c-1.6-1-3.4-2.2-5.6-3.6c-5.9-3.6-9-7.4-9.2-11.2c-0.2-4.1,3-6.5,3.2-6.6  l0.2-0.1l50.2-20.6c1.9-0.8,3.8-1.2,5.7-1.2c5.5,0,9,3.2,9.2,3.3L727.1,82c1.4,1.3,2,2.7,1.7,4.2c-1.1,5.8-15.9,11.2-33.1,17.6  c-3,1.1-6,2.2-8.9,3.3C677.2,110.6,672.3,112.3,668.4,112.3z M646.5,87.7c-0.4,0.4-2.4,2.2-2.3,4.8c0.1,3,3,6.3,8.2,9.5  c2.2,1.4,4.1,2.6,5.7,3.6c4.6,3,6.9,4.6,10.3,4.6c3.5,0,8.3-1.6,17.7-5.1c2.9-1.1,5.9-2.2,8.9-3.3c14.5-5.3,30.9-11.4,31.8-16  c0.1-0.5,0.1-1.2-1-2.2L709.3,69c0,0-3.2-2.8-7.8-2.8c-1.6,0-3.3,0.3-4.9,1L646.5,87.7z"
   id="path3628" />
<path
   class="st1"
   d="M753.7,178.5c-16.4,0-38.4-20.7-52.2-33.6c-3.1-2.9-5.8-5.5-7.9-7.3c-6.5-5.6-9.6-10.6-9.1-14.9  c0.4-3.7,3.3-5.4,3.4-5.5l50.3-20.7c8.5-3.5,14.6,1.9,14.9,2.2l46,35.1l-1.2,1.6l-46-35.1c-0.3-0.3-5.5-4.8-12.8-1.8l-50.2,20.6l0,0  c0,0-2,1.2-2.2,3.9c-0.2,2.5,1.1,6.7,8.4,13.1c2.2,1.9,4.9,4.4,8,7.3c15.1,14.2,40.4,38,55.8,32.2l39.6-17.4l0.8,1.9l-39.6,17.4  C757.7,178.2,755.8,178.5,753.7,178.5z"
   id="path3630" />
<path
   class="st1"
   d="M632.3,80.3c-4.1,0-6.9-1.8-11.5-4.9c-1.6-1-3.4-2.2-5.6-3.6c-5.9-3.6-9-7.4-9.2-11.2c-0.2-4,3-6.5,3.2-6.6  l0.2-0.1l50.2-20.6c1.9-0.8,3.8-1.2,5.7-1.2c5.5,0,9,3.2,9.2,3.3L691,50c1.4,1.3,2,2.7,1.7,4.2c-1.1,5.8-15.9,11.2-33.1,17.6  c-3,1.1-6,2.2-8.9,3.3C641.1,78.7,636.2,80.3,632.3,80.3z M610.4,55.8c-0.4,0.4-2.4,2.2-2.3,4.8c0.1,3,3,6.3,8.2,9.5  c2.2,1.4,4.1,2.6,5.7,3.6c4.6,3,6.9,4.6,10.3,4.6c3.5,0,8.3-1.6,17.7-5.1c2.9-1.1,5.9-2.2,8.9-3.3c14.5-5.3,30.9-11.4,31.8-16  c0.1-0.5,0.1-1.2-1-2.2L673.1,37c0,0-3.2-2.8-7.8-2.8c-1.6,0-3.3,0.3-4.9,1L610.4,55.8z"
   id="path3632" />
<path
   class="st1"
   d="M597.3,49.2c-3.8,0-6.4-1.7-10.8-4.6c-1.5-1-3.2-2.1-5.3-3.4c-5.6-3.4-8.5-7-8.6-10.6c-0.2-3.8,2.9-6.1,3-6.2  l0.2-0.1l47-19.3c1.8-0.7,3.6-1.1,5.4-1.1c5.2,0,8.5,3,8.7,3.1l15.5,13.7c1.3,1.2,1.9,2.5,1.6,4c-1,5.4-15,10.6-31.1,16.5  c-2.8,1-5.6,2.1-8.3,3.1C605.6,47.6,600.9,49.2,597.3,49.2z M576.8,26.1c-0.4,0.4-2.2,2-2.1,4.4c0.1,2.8,2.8,5.9,7.6,8.9  c2.1,1.3,3.8,2.4,5.3,3.4c4.3,2.8,6.4,4.3,9.7,4.3s7.8-1.5,16.6-4.8c2.8-1,5.6-2.1,8.3-3.1c13.6-5,28.9-10.7,29.8-15  c0.1-0.4,0.1-1.1-1-2L635.5,8.5c0,0-2.9-2.6-7.3-2.6c-1.5,0-3.1,0.3-4.6,0.9L576.8,26.1z"
   id="path3634" />
<path
   class="st1"
   d="M785.7,74.6c-4.5,0-8.4-2.2-17.4-7.2c-6-3.4-9.3-7.1-9.6-10.9c-0.3-4,2.8-6.6,2.9-6.7l0.2-0.1l36.1-16.6  l0.9,1.9l-36,16.5c-0.4,0.4-2.3,2.3-2.1,4.9c0.3,3,3.2,6.2,8.6,9.2c15,8.5,15,8.5,28.7,3.8l0.7,2C792.6,73.4,789,74.6,785.7,74.6z"
   id="path3636" />
<path
   class="st1"
   d="M746.3,42.5c-5.4,0-9.2-2.1-15.4-5.6c-6.1-3.4-9.3-7.1-9.6-10.9c-0.3-4,2.8-6.6,2.9-6.7l0.2-0.1L766.3,0  l0.9,1.9L725.4,21c-0.4,0.4-2.3,2.3-2.1,4.9c0.3,3,3.2,6.2,8.6,9.2c15,8.4,15,8.4,66-12.9l0.8,1.9C767.1,37.3,754.7,42.5,746.3,42.5  z"
   id="path3638" />
<rect
   x="794"
   y="0.1"
   transform="matrix(0.6321 -0.7749 0.7749 0.6321 288.9759 617.7366)"
   class="st1"
   width="2.1"
   height="8.8"
   id="rect3640" />
<path
   class="st1"
   d="M711,13.3c-7.9,0-15.3-3.5-26-11.6l1.2-1.6c21.3,16.1,28.6,13.6,55.8,0.3l0.9,1.9  C728.6,9.2,719.5,13.3,711,13.3z"
   id="path3642" />
<path
   class="st1"
   d="M557.6,22.7c-3.7,0-6.3-1.6-10.8-4.6c-1.5-1-3.2-2.1-5.3-3.4c-6.7-4.1-10.2-7.9-10.5-11.3  c-0.2-2.1,1-3.2,1.2-3.3l1.3,1.6c0,0-0.6,0.6-0.5,1.7c0.2,1.5,1.6,4.7,9.5,9.6c2.1,1.3,3.8,2.4,5.3,3.4c8.5,5.6,9,6,26.2-0.6  c6.3-2.4,12.3-4.4,17.6-6.2c9.1-3.1,17.7-6,18.5-7.9c0-0.1,0-0.2,0-0.3l1.8-1c0.3,0.6,0.4,1.3,0.1,2c-1.1,2.7-7.2,4.9-19.8,9.1  c-5.3,1.8-11.3,3.8-17.5,6.2C566.1,21.1,561.3,22.7,557.6,22.7z"
   id="path3644" />
<path
   class="st1"
   d="M458.4,40.2c-4,0-6.5-1.6-11.1-4.8c-1.4-1-3.1-2.1-5.1-3.4c-5.4-3.5-8.2-7-8.2-10.5c0-3.7,3.1-5.8,3.3-5.9  l0.2-0.1l44.3-15.2l0.7,1.9l-44.1,15.1c-0.4,0.3-2.3,1.8-2.2,4.1c0,2.7,2.5,5.7,7.2,8.7c2,1.3,3.7,2.5,5.2,3.5  c8.1,5.6,8.8,6,26.3,0.4c2.8-0.9,5.6-1.8,8.5-2.7c13.8-4.3,29.4-9.2,30.3-13.2c0.1-0.4,0.1-1-0.9-1.9l-15-13.4l1.4-1.5l14.9,13.6  c1.6,1.5,1.7,2.9,1.5,3.8c-1.1,4.9-12.7,8.8-31.7,14.7c-2.8,0.9-5.7,1.8-8.4,2.7C466.8,38.9,462,40.2,458.4,40.2z"
   id="path3646" />
<path
   class="st1"
   d="M584.9,243.4L584.9,243.4c-11,0-14.9-4.5-15-4.7c-0.1-0.1-9.3-10.3-16.4-16.3c-2.8-2.3-3.9-4.5-3.5-6.5  c0.6-2.6,3.8-3.6,3.9-3.6l67.1-23.9c-2.1-1.6-3.3-3.4-3.4-5.4c-0.2-3.8,3.5-6.7,3.7-6.8l0.2-0.1c0,0,33.3-13.7,49.8-20.6  c5.6-2.3,10.7-3.5,15-3.5c5.9,0,8.4,2.3,8.5,2.4c0.1,0,13.2,10.4,27.4,22.6c6.2,5.3,9,9.9,8.5,13.7c-0.4,3.2-3.2,4.5-3.3,4.5  c-1.2,0.4-109.5,42-129.7,46.7C593,242.8,588.7,243.4,584.9,243.4z M622.3,177.8c-0.5,0.4-2.9,2.5-2.8,5c0.1,1.7,1.5,3.4,4.1,4.9  l1.9,1.1l-71.2,25.4c-0.7,0.2-2.3,0.9-2.5,2.1c-0.2,1.1,0.8,2.7,2.8,4.5c7.3,6.2,16.6,16.5,16.7,16.6c0.1,0.1,3.5,4,13.5,4l0,0  c3.6,0,7.7-0.5,12.2-1.6c20.1-4.7,128.3-46.2,129.4-46.6c0,0,1.8-0.9,2-3c0.3-2.1-0.9-5.8-7.8-11.8c-14.2-12.2-27.3-22.5-27.4-22.6  c-0.1-0.1-2.1-1.9-7.1-1.9c-4,0-8.8,1.1-14.2,3.4C656.1,163.9,624.7,176.9,622.3,177.8z"
   id="path3648" />
<path
   class="st1"
   d="M498.8,272.9c-5.6,0-11.6-1.3-15.9-5.8l-7.7-6.6l1.3-1.6l7.8,6.7c9.3,9.8,28.6,2.8,28.8,2.7  c0.5-0.1,40.2-10.7,47.2-14.7c1.3-0.7,1.9-1.5,1.9-2.4c0-2.4-4.4-5.3-6-6.2c-0.8-0.6-63.2-49.2-76.9-62.4  c-13.1-12.6-23.8-4.4-23.9-4.3l-0.4,0.2l-43.9,12.6c-1.2,0.3-1.3,0.8-1.3,1c-0.4,2.1,4.7,7.2,8.5,10.1c0.1,0.1,3.9,3.6,9.6,9.1  l-1.4,1.5c-5.8-5.5-9.5-9-9.5-9c-1.6-1.2-10-7.9-9.2-12c0.2-0.9,0.8-2,2.8-2.6l43.7-12.6c1.6-1.1,13-8.3,26.4,4.6  c13.7,13.2,76,61.7,76.6,62.2c0.6,0.3,6.9,3.9,6.9,7.9c0,1.6-1,3-2.9,4.2c-7.2,4.1-46,14.4-47.6,14.9  C513.4,270.4,506.5,272.9,498.8,272.9z"
   id="path3650" />
<path
   class="st1"
   d="M503.3,173.9c-3.1,0-5.9-0.7-8.3-2c-6.2-3.3-8.1-9.6-8.2-9.8l2-0.6c0,0.1,1.8,5.7,7.2,8.6  c4,2.1,8.9,2.3,14.7,0.5c17.4-5.3,42.3-14.3,45-15.3c0.4-0.6,2-3.4-3-9.3c-5-5.8-18.3-21.4-20.5-24H529v-2h4l0.3,0.4  c0,0,15.3,17.9,20.8,24.3c7,8.2,3,12.1,2.8,12.2l-0.3,0.2c-0.3,0.1-27,9.9-45.4,15.5C508.4,173.4,505.7,173.9,503.3,173.9z"
   id="path3652" />
<path
   class="st1"
   d="M406.9,184.7c-0.2,0-0.4,0-0.6,0c-6-0.8-13.1-12.5-13.9-13.9l1.8-1c2,3.4,8.1,12.3,12.4,12.9  c4,0.5,30.1-7.4,47.2-13.1v-4.9h2.1v6.3l-0.7,0.2C450.9,172.7,414.3,184.7,406.9,184.7z"
   id="path3654" />
<rect
   x="471"
   y="260"
   transform="matrix(0.7193 -0.6946 0.6946 0.7193 -67.7135 408.7567)"
   class="st1"
   width="2.1"
   height="56.4"
   id="rect3656" />
<path
   class="st1"
   d="M522.7,312.8l-0.4-2c19.8-3.5,58.2-18.5,58.6-18.7c1-0.3,1.5-0.8,1.8-1.5c0.9-2.1-0.5-5.6-1.1-6.8l-19.2-32.9  l1.8-1l19.2,33c0.1,0.3,2.6,5.2,1.2,8.6c-0.5,1.3-1.6,2.2-3.1,2.7C581.2,294.2,542.6,309.2,522.7,312.8z"
   id="path3658" />
<path
   class="st1"
   d="M589.5,289.8c-3.9,0-5.7-0.7-5.8-0.7l0.7-1.9c0.1,0,6.2,2.2,21-2.1c15.2-4.4,99-35.4,99.8-35.7l0.7,1.9  c-0.8,0.3-84.7,31.3-100,35.7C598.5,289.2,593.1,289.8,589.5,289.8z"
   id="path3660" />
<path
   class="st1"
   d="M735.4,266.9L735.4,266.9c-4.3,0-6.1-1.5-6.5-2l-5.1-3.9c0,0-5.9-4-13-9.1c-2.7-1.9-3.9-3.8-3.6-5.7  c0.4-2.6,3.5-3.7,3.9-3.8c17.4-7.7,50.8-22.5,51.7-23c1.9-0.9,3.8-1.4,5.5-1.4c2.7,0,4.4,1.2,4.8,1.5c0.9,0.5,9.7,5.8,16.9,11.4  c2.8,2.2,4.3,4.5,4.3,6.9c0,3.1-2.5,5-2.6,5c-0.4,0.2-29.2,15-43.4,20.9C743.3,265.9,739,266.9,735.4,266.9z M730.4,263.5  c0,0,1.3,1.3,5.1,1.3c3.3,0,7.3-1,12.1-2.9c14.1-5.8,42.5-20.4,43.1-20.7l0,0c0,0,1.6-1.3,1.6-3.3c0-1.7-1.2-3.5-3.5-5.3  c-7.4-5.8-16.6-11.2-16.7-11.3l-0.2-0.1c0,0-1.2-1-3.5-1c-1.4,0-3,0.4-4.6,1.2c-1.1,0.5-49.8,22.1-51.9,23c-0.7,0.2-2.4,1.1-2.6,2.2  c-0.1,1,0.8,2.3,2.8,3.7c7.1,5.2,13,9.1,13,9.1L730.4,263.5L730.4,263.5z"
   id="path3662" />
<path
   class="st1"
   d="M738.4,300.1c-2.7,0-4.6-1.3-8.1-4c-1.5-1.1-3.3-2.5-5.7-4.1c-23.9-15.9-26-20.8-25.1-23.2  c1.4-3.8,7.8-22,7.8-22l1.9,0.7c0,0-6.4,18.2-7.8,22c-0.2,0.6-0.1,4.5,24.3,20.8c2.4,1.6,4.3,3,5.8,4.1c5.5,4.1,6.3,4.6,13.8,1.6  c10.1-4,52.5-27.5,52.9-27.8l1,1.8c-1.7,1-42.9,23.8-53.1,27.9C742.6,299.4,740.3,300.1,738.4,300.1z"
   id="path3664" />
<rect
   x="794.9"
   y="235.1"
   transform="matrix(0.829 -0.5592 0.5592 0.829 1.8764 486.1638)"
   class="st1"
   width="2.1"
   height="9.9"
   id="rect3666" />
<path
   class="st1"
   d="M772.9,221.4l-0.9-1.9c0.2-0.1,16.4-7.6,26-14.7l1.2,1.7C789.6,213.7,773.1,221.3,772.9,221.4z"
   id="path3668" />
<path
   class="st1"
   d="M541.7,232.1l-1.8-0.9c0.3-0.6,7.2-14.6,11.9-17.9l1.2,1.7C548.6,218,541.7,231.9,541.7,232.1z"
   id="path3670" />
<path
   class="st1"
   d="M758.8,221c-14.6-22.8-34.1-38.8-34.3-38.9l1.3-1.6c0.2,0.2,19.9,16.3,34.7,39.4L758.8,221z"
   id="path3672" />
<path
   class="st1"
   d="M575.8,164.2c-3-2.1,1.5-15.4,4.5-23.1l1.9,0.7c-3.8,10.1-6.2,19.6-5.2,20.8L575.8,164.2z"
   id="path3674" />
<rect
   x="670.1"
   y="139.8"
   transform="matrix(0.8015 -0.598 0.598 0.8015 44.6996 430.7024)"
   class="st1"
   width="2.1"
   height="16.4"
   id="rect3676" />
<path
   class="st1"
   d="M500,200.3c-0.7-0.7-1.9-1.8,11.6-19.7l1.6,1.2c-5.6,7.4-11.5,15.9-11.6,17.4c0-0.1,0-0.3-0.2-0.5L500,200.3z"
   id="path3678" />
<path
   class="st1"
   d="M606.1,194.7c-0.8-2.1-7-8.7-11-12.7l1.5-1.5c1,1,10.2,10.3,11.4,13.4L606.1,194.7z"
   id="path3680" />
<path
   class="st1"
   d="M534.5,124.8c-1.2-1.4-1.7-4.5,7.7-15.1l0.3-0.3l0.7,0.6l1.1,0.3c-0.1,0.2-0.1,0.3-0.5,0.8  c-7.3,8.3-8.2,11.7-7.7,12.4L534.5,124.8z"
   id="path3682" />
<path
   class="st1"
   d="M636.1,119.7c-0.3-2-6.3-8.1-10-11.5l1.4-1.5c1.7,1.5,10.1,9.3,10.7,12.7L636.1,119.7z"
   id="path3684" />
<path
   class="st1"
   d="M631.9,105.5l-2-0.6c1.4-4.8,11.5-12.5,12.7-13.4l1.2,1.6C640.9,95.4,632.9,102,631.9,105.5z"
   id="path3686" />
<rect
   x="732.2"
   y="84.2"
   transform="matrix(0.7276 -0.686 0.686 0.7276 136.6346 528.0294)"
   class="st1"
   width="2.1"
   height="15.5"
   id="rect3688" />
<path
   class="st1"
   d="M594.2,75.3l-1.8-1c3-5.4,7.1-9.7,10.1-12.8c1.6-1.7,3.4-3.5,3.5-4.1h2.1c0,1.4-1.4,2.9-4.1,5.6  C601.1,66,597.1,70.1,594.2,75.3z"
   id="path3690" />
<path
   class="st1"
   d="M741.4,94.5c-1.3-7.9,15.5-35.7,17.4-38.8l1.8,1.1c-5.1,8.4-18.1,31.4-17.1,37.4L741.4,94.5z"
   id="path3692" />
<path
   class="st1"
   d="M699.8,65.4c-0.9,0-3.1-1.2-9-11.8l1.8-1c2.3,4.1,5.2,8.7,6.7,10.3c0.4-8.8,21.7-39,22.6-40.3l1.7,1.2  c-6.2,8.8-22.3,33.1-22.2,39.4c0,1.3-0.4,2-1.2,2.2C700.1,65.3,700,65.4,699.8,65.4z"
   id="path3694" />
<path
   class="st1"
   d="M661.3,33.2l-2.1-0.2c0.5-5.7,16.9-29.6,18.7-32.3l1.7,1.2C674.7,9.2,661.7,28.8,661.3,33.2z"
   id="path3696" />
<path
   class="st1"
   d="M795.4,354.7c-9.7-6-96.4-74.5-103.9-80.5c-11.9,3-139.9,46.9-154.9,52.1l10.7,12.8l-1.6,1.3l-12.6-15.1  l1.4-0.5c6-2.1,148-50.9,157-52.7l0.5-0.1l0.4,0.3c0.9,0.7,94.3,74.5,104.1,80.6L795.4,354.7z"
   id="path3698" />
<path
   class="st1"
   d="M469.2,381.1c-6.6-1-28.1-25.5-33.9-36.2c-1.5-2.8-2-4.5-1.5-5.6c2.1-4.8,17.9-17.8,18.6-18.3l1.3,1.6  c-4.5,3.7-16.4,14-18,17.6c0,0-0.3,0.9,2,4.9c6.7,11.3,26.6,33.2,31.8,34L469.2,381.1z"
   id="path3700" />
<path
   class="st1"
   d="M510.3,421.2c-7.9-5.7-46.8-34.6-41.4-43.7c3.4-5.8,10.2-11.6,15.1-15.8c2.3-1.9,4.4-3.8,4.8-4.5l1.8,1.1  c-0.6,1-2.2,2.4-5.3,5c-4.8,4.1-11.4,9.8-14.6,15.3c-3.4,5.8,23.3,28.2,40.9,41L510.3,421.2z"
   id="path3702" />
<path
   class="st1"
   d="M540.2,450.8c-3.1-2.4-30.3-23.4-30.3-30.4s16.8-19.8,18.7-21.2l1.2,1.7c-5,3.7-17.9,14.5-17.9,19.6  c0,4.5,18.1,20,29.5,28.8L540.2,450.8z"
   id="path3704" />
<rect
   x="578.7"
   y="358.3"
   transform="matrix(0.6996 -0.7146 0.7146 0.6996 -90.1767 525.4527)"
   class="st1"
   width="2.1"
   height="23.3"
   id="rect3706" />
<path
   class="st1"
   d="M583.4,450.9l-0.6-2c27.1-7.9,54.4-18.7,53.3-23.3c-2-7.8-22.5-24.7-22.7-24.9l1.3-1.6  c0.9,0.7,21.3,17.5,23.4,26C640.3,433.9,592.9,448.2,583.4,450.9z"
   id="path3708" />
<rect
   x="558"
   y="342.8"
   transform="matrix(0.568 -0.823 0.823 0.568 -36.6204 617.831)"
   class="st1"
   width="24.4"
   height="2.1"
   id="rect3710" />
<path
   class="st1"
   d="M612,397.3l-0.6-2c0.5-0.1,45.4-13.2,52.2-16.2c18-8.1,20.8-12.2,20.1-14.1c-1.6-4.1-17.6-21.8-23.7-28.3  l1.5-1.4c0.9,1,21.9,23.7,24.1,29c2.2,5.4-9.5,11.5-21.1,16.8C657.6,384.1,613.9,396.8,612,397.3z"
   id="path3712" />
<rect
   x="414.6"
   y="277.1"
   transform="matrix(0.731 -0.6824 0.6824 0.731 -145.4261 385.0504)"
   class="st1"
   width="2.1"
   height="199.8"
   id="rect3714" />
<rect
   x="381"
   y="294.5"
   transform="matrix(0.7318 -0.6815 0.6815 0.7318 -159.6882 363.553)"
   class="st1"
   width="2.1"
   height="180.4"
   id="rect3716" />
</svg>