<?xml version="1.0" encoding="UTF-8" standalone="no"?>
<!-- Generator: Adobe Illustrator 19.2.0, SVG Export Plug-In . SVG Version: 6.00 Build 0)  -->

<svg
   xmlns:dc="http://purl.org/dc/elements/1.1/"
   xmlns:cc="http://creativecommons.org/ns#"
   xmlns:rdf="http://www.w3.org/1999/02/22-rdf-syntax-ns#"
   xmlns:svg="http://www.w3.org/2000/svg"
   xmlns="http://www.w3.org/2000/svg"
   xmlns:sodipodi="http://sodipodi.sourceforge.net/DTD/sodipodi-0.dtd"
   xmlns:inkscape="http://www.inkscape.org/namespaces/inkscape"
   version="1.1"
   id="Layer_1"
   x="0px"
   y="0px"
   width="800px"
   height="450px"
   viewBox="0 0 800 450"
   style="enable-background:new 0 0 800 450;"
   xml:space="preserve"
   inkscape:version="0.48.3.1 r9886"
   sodipodi:docname="overlay__Detail 2.svg"><metadata
   id="metadata3745"><rdf:RDF><cc:Work
       rdf:about=""><dc:format>image/svg+xml</dc:format><dc:type
         rdf:resource="http://purl.org/dc/dcmitype/StillImage" /></cc:Work></rdf:RDF></metadata><defs
   id="defs3743" /><sodipodi:namedview
   pagecolor="#ffffff"
   bordercolor="#666666"
   borderopacity="1"
   objecttolerance="10"
   gridtolerance="10"
   guidetolerance="10"
   inkscape:pageopacity="0"
   inkscape:pageshadow="2"
   inkscape:window-width="640"
   inkscape:window-height="480"
   id="namedview3741"
   showgrid="false"
   inkscape:zoom="0.405"
   inkscape:cx="400"
   inkscape:cy="225"
   inkscape:window-x="184"
   inkscape:window-y="24"
   inkscape:window-maximized="0"
   inkscape:current-layer="Layer_1" />
<style
   type="text/css"
   id="style3725">
	.st0{fill:#FAAF40;stroke:#FAAF40;stroke-miterlimit:10;}
</style>
<path
   class="st0"
   d="M276.3,400c0.3-10.1-4.1-13.4-4.4-13.6l-0.3-0.1c-0.2-0.1-20.4-6.4-41.7-1.8L225,384l-8.8-22.1  c10.4-2.9,21.3-6.5,29-10.8c2.6-1.4,4.9-3,7.1-4.9c2.4,5.9,4.9,12.5,7.4,18.9c2.8,7.2,5.4,14,7.7,19.7l1.9-0.8  c-2.3-5.8-4.9-12.5-7.7-19.7c-2.6-6.7-5.2-13.5-7.7-19.7c5.3-4.9,9.1-11,11-17.9c2.5-8.8,1.5-17.7-2.8-25.3l-4.4-5.1l-0.4-0.1  c-0.3-0.1-7.6-1.2-24.4-1.9c-1.3-3.2-3.3-8.2-5.4-13.1c-2.1-5.1-4.2-10.1-5.4-13.2c5.9-12,5.9-27.5,3.4-35l-0.1-0.3l-0.2-0.2  c-0.3-0.3-6.3-5.2-19-8.7l0.1-0.1c-7.9-19.9-15.1-35.1-15.1-35.2l-60-138.3c-0.1-0.2-9.4-20.1-2.8-35.2c3-7,9-11.9,17.8-14.7l-0.6-2  c-9.4,2.9-15.8,8.3-19.1,15.8c-6.9,15.9,2.5,36,2.9,36.8l60,138.3c0.1,0.1,6.9,14.6,14.6,33.8c-3.5-0.9-7.5-1.6-12-2.2l0,0l0,0  c-0.4-0.1-0.9-0.1-1.3-0.2c-2.1-1.3-18.6-11.1-34-8.9l-13.8-27.4l0,0c-14.8-37-33.5-86.4-40.8-108c-10.5-31-16.6-58.4,17.6-75.7  l-0.9-1.8c-35.7,18-29.4,46.2-18.4,78.5c6.9,20.2,23.7,64.7,37.9,100.6c-1.1-1.6-2.4-3.3-3.6-4.9c0-0.2,0.1-0.4,0.1-0.5l-0.4-0.1  c-2.2-3-4.2-5.9-5.4-7.6c-3.2-4.9-36.3-42.5-54.1-43.8c-7-0.5-23.9-0.7-30.8,8.6c-3.7,5-3.8,11.9-0.4,20.5  c9.4,23.5,54.8,85.9,60.6,93.9c-4.9,4.5-32.2,30.6-30.1,47.2c1.8,14.8,8.2,24.2,10.4,27c-5.8,3.9-34.4,24.3-24.6,46.2  c9.2,20.6,26,37.3,29.9,41c-4.2,4.1-22.4,23.9-11.1,43.7l1.8-1c-11.2-19.9,9.4-40,11.4-41.8c5.1-1.5,77.2-22.8,84.7-25.5l46.8,5  l2.5,0.3l0,0l4,0.4h0.2h0.2c0.8-0.2,1.5-0.3,2.2-0.4c-2.9,2.5-6.6,6.7-7.1,11.7c-0.4,3.8,1.2,7.4,4.6,10.6  c5.9,5.6,15.5,7.1,24.1,7.1c6.9,0,13.1-1,16.6-1.6c-5.9,10-20,16.6-25,18.7c-20.5,7.2-60.4,14.4-60.9,14.5l0.4,2  c0.4-0.1,37.1-6.7,58.4-13.6c1.6,4.6,2.5,6.9,3.5,9.2c0.5,1.3,1,2.5,1.7,4.2l1.9-0.7c-0.7-1.7-1.2-3-1.7-4.3c-0.9-2.3-1.8-4.5-3.4-9  c0.3-0.1,0.7-0.3,1.1-0.4c1.1-0.4,2.2-0.8,3.2-1.2l-0.1-0.2c6.9-3.2,18.7-10,23.5-19.7h0.1v-0.2c0.7-1.3,1.2-2.7,1.6-4.2  c0.4-1.7,0.7-3.2,0.9-4.6c3.1,7.8,6.2,15.5,8.9,22.3c4.2,10.5,7.5,18.9,9,22.3l1.9-0.8c-1.5-3.4-4.8-11.7-9-22.3  C283.6,418.1,280,409,276.3,400z M222.8,383.7l-43.5-4.8l2.8-4.3c1.5-2,3-4.1,4-5.9c2.7-0.5,14.8-2.7,28.2-6.3L222.8,383.7z   M251.4,329.4c-5,0.4-24.3,1.8-35.8,1.5c-7-0.2-11.6-1.8-14.3-4.9c-2.5-2.9-3.4-7.3-2.6-13.5c1.6-12.8,27.6-15.9,27.8-15.9v-0.3  c15.8,0.4,25,1.3,28.7,1.8C247.4,307.1,250.4,324.6,251.4,329.4z M225.9,282.1c1.9,4.5,3.7,9.1,5,12.3c-2.1-0.1-4.2-0.1-6.6-0.2  c-11.5-0.3-24.8,1.4-36.6,3.2l1.5-0.6l-3.2-7.9c9.6-1.6,20.9-4.6,27.9-10c3-2.3,5.3-5.2,7.2-8.4  C222.4,273.5,224.2,277.8,225.9,282.1z M158.3,302.3c-0.7,0-0.9-0.1-1-0.1c-0.3-1.3,4.9-6.5,11.2-11.3c1.5-0.1,7.8-0.4,15.4-1.6  l3.3,8.2c-5.7,0.9-11.1,1.9-15.7,2.7c-5,0.9-9.3,1.7-12.1,2C159,302.3,158.6,302.3,158.3,302.3z M192.2,223.3  c17.9,2.2,28,8.2,31,10.3c-2.4,2.1-8.5,7.5-10.8,12.5c-2.4,5.3-7,16.3-8.2,19c-2.8,0-14.2-0.2-24.9-3.3c-12-3.4-15.4-9.2-14.1-23.8  C166.6,224.7,190,223.4,192.2,223.3z M45.6,149.4c-3.2-7.9-3.1-14.1,0.1-18.5c6.2-8.5,22.3-8.3,29-7.8c16.8,1.2,49.5,38.3,52.5,42.9  c1.1,1.7,3.1,4.5,5.3,7.5c-0.9,4.8-5.1,22.7-20.9,31.6l1,1.8c15-8.4,20-24.2,21.5-31.1c3.6,5,7.1,9.7,7.1,9.7l13.5,26.8  c-22.7,2.1-44.4,25.1-49,30.2C99.5,233.9,54.8,172.2,45.6,149.4z M76.3,291c-2.1-16.8,29.8-45.7,30.1-46l0.7-0.6l-0.1-0.1  c3.7-4.1,26.3-28.3,48.8-29.9v0.1l0.7-0.1c12.2-2,25.9,4.4,31.2,7.3c-7.9,1-23.3,4.4-24.4,16.2c-1.4,15.5,2.6,22.3,15.6,26  c11,3.1,22.6,3.3,25.5,3.3c0.4,0,0.6,0,0.7,0h0.7l0.3-0.6c0.1-0.1,5.7-13.5,8.4-19.6c2-4.5,7.6-9.5,10-11.6  c2.7,10.4,1.1,32.1-11.6,41.9c-13.3,10.3-44.2,11.5-44.5,11.6h-0.3l-0.3,0.2c-5.1,3.9-13.4,10.8-12.1,13.9l0,0  c-15.2,3-62.7,13.1-68.9,14.4C84.9,315.3,78.2,306,76.3,291z M62,363.7c-9.6-21.5,22.2-42.6,24.6-44.2c3.5-0.7,66-14.1,73.2-15.2  l0,0c2.9-0.4,7-1.1,12.2-2c12.1-2.2,29.6-5.4,45.2-5.9c-8.3,2.2-19.3,6.8-20.5,15.9c-0.8,6.8,0.2,11.7,3.1,15.1  c3,3.5,8.2,5.4,15.8,5.6c1.2,0,2.5,0.1,3.8,0.1c13.6,0,33.2-1.6,33.4-1.6l1.2-0.1l-0.3-1.2c-0.1-0.2-5.3-22,3.6-31.2l3.3,3.9  c3.9,6.9,4.8,15.3,2.5,23.5c-2.7,9.6-9.4,17.8-18.7,23c-7.9,4.4-19.5,8.1-30.4,11.1c-4.8,1.2-28.4,6.4-28.8,6.5l-0.5,0.1l-0.2,0.4  l-4.1,6.2c-1.9,2.6-3.9,4.9-4.4,5.5c-7.4,2.6-77.5,23.4-84.3,25.4C89,401.7,71.4,384.8,62,363.7z M273.1,408.6  c-0.2,1.1-0.6,2.1-1,3.1c-5.4,1.1-29.9,5.4-40.5-4.7c-3-2.8-4.3-5.8-4-8.9c0.6-6.5,8.1-11.7,9.3-12.6c17.2-2.1,32.3,2.2,34.1,2.7  c0.6,0.6,3.6,3.7,3.4,11.6l-0.2,0.1c0.1,0.1,0.1,0.3,0.2,0.4C274.2,402.7,273.8,405.4,273.1,408.6z"
   id="path3727" />
<path
   class="st0"
   d="M222.3,227.1l0.4,0.8L351.8,190l1.1-0.3L277.8,14.3l-0.3-0.8L144.8,45.9L222.3,227.1z M350.1,188.3l-126.2,37.1  L147.6,47.3l128.7-31.4L350.1,188.3z"
   id="path3729" />
<path
   class="st0"
   d="M205.8,24.5c0.3,0,0.6,0,0.8-0.1l6.6-1.6c0.9-0.2,1.7-0.8,2.2-1.6c0.5-0.8,0.6-1.7,0.4-2.7  c-0.5-1.9-2.4-3.1-4.3-2.6l-6.6,1.6c-0.9,0.2-1.7,0.8-2.2,1.6c-0.5,0.8-0.6,1.8-0.4,2.7C202.8,23.4,204.2,24.5,205.8,24.5z   M204.6,20.2c0.2-0.3,0.5-0.6,0.9-0.7l6.6-1.6c0.1,0,0.2,0,0.3,0c0.7,0,1.3,0.5,1.4,1.1c0.1,0.4,0,0.8-0.2,1.1  c-0.2,0.3-0.5,0.6-0.9,0.7l-6.6,1.6c-0.8,0.2-1.6-0.3-1.8-1.1C204.3,21,204.4,20.6,204.6,20.2z"
   id="path3731" />
<path
   class="st0"
   d="M220,21.4c0.3,0,0.6,0,0.8-0.1l6.6-1.6c1.9-0.5,3-2.4,2.6-4.3c-0.5-1.9-2.4-3-4.3-2.6l-6.6,1.6  c-0.9,0.2-1.7,0.8-2.2,1.6c-0.5,0.8-0.6,1.8-0.4,2.7C217,20.3,218.4,21.4,220,21.4z M218.8,17.1c0.2-0.3,0.5-0.6,0.9-0.7l6.6-1.6  c0.1,0,0.2,0,0.4,0c0.7,0,1.3,0.5,1.4,1.1c0.2,0.8-0.3,1.6-1.1,1.8l-6.6,1.6c-0.8,0.2-1.6-0.3-1.8-1.1  C218.5,17.8,218.6,17.4,218.8,17.1z"
   id="path3733" />
<path
   class="st0"
   d="M192,27.8c0.3,0,0.6,0,0.8-0.1l6.6-1.6c1.9-0.5,3-2.4,2.6-4.3c-0.5-1.9-2.4-3-4.3-2.6l-6.6,1.6  c-1.9,0.5-3,2.4-2.6,4.3C189,26.7,190.4,27.8,192,27.8z M191.7,22.8l6.6-1.6c0.1,0,0.2,0,0.4,0c0.7,0,1.3,0.5,1.4,1.1  c0.2,0.8-0.3,1.6-1.1,1.8l-6.6,1.6c-0.8,0.2-1.6-0.3-1.8-1.1C190.4,23.8,190.9,23,191.7,22.8z"
   id="path3735" />
<path
   class="st0"
   d="M552.4,368.8c-2.3-21.7-4.3-40.4-9.7-48c-4.6-6.4-13.6-15.7-24-26.5c-15.7-16.2-35.2-36.3-44.6-52.5  c-14.9-25.4-26.1-40.1-49.5-54.5c-18.2-11.2-34.6-31.2-45.5-44.5c-2.2-2.7-4.2-5.2-5.9-7.1c-9.6-11.1-13.1-12.6-29.3-3.4l-51.7-133  l-2,0.7L342,133.4h-0.1l1.6,3.8l0,0l0,0l25.5,62.1l0,0l0.7,1.7l69.8,169.8c0.2,0.3,15.4,30.4,8.7,48.6c-1.9,5.3-5.6,9.1-10.8,11.2  l-46.7,16.6l0.7,1.9l46.8-16.7c5.8-2.4,9.8-6.6,12-12.5c7-19-8.2-49-8.8-50.2l-45.8-111.4c4.4-2.7,28.4-17.5,38.7-29.8l-1.6-1.3  c-9.7,11.5-32.7,26-37.8,29.1l-23.6-57.1l-25.9-62.9l0,0l-0.9-2.2c9.7-5.6,14.3-7.2,18.6-5c-0.4,0.7-0.7,1.8-0.6,3.3  c0.4,5.7,6.8,16.3,34.8,34.6c7.9,8.2,16.7,16.2,26,21.9c23.1,14.2,34.2,28.6,48.8,53.8c9.6,16.5,28.4,35.8,44.9,52.9  c10.4,10.7,19.3,19.9,23.8,26.3c5.1,7.2,7,25.6,9.3,47c2.8,26.7,6,57,16.3,77.5l1.8-0.9C558.4,425.5,555.2,395.4,552.4,368.8z   M364.7,132.7c-0.1-1,0.1-1.7,0.2-2.2c2,1.5,4,3.7,6.6,6.6c1.7,1.9,3.6,4.3,5.9,7.1c4,4.8,8.6,10.5,13.9,16.4  C369.2,145.1,365.1,136.6,364.7,132.7z"
   id="path3737" />
<path
   class="st0"
   d="M381.4,380.4c8.4-2.8,15.9-5.1,20.8-6.5c7-1.9,11.3-5.1,13-9.3c2.1-5.4-0.9-10.5-1-10.6l-12.9-32.2l0,0l-0.6-2  h-0.1l-40.3-100.7l-114.9,35.6l10.4,27.9l-0.7,0.2l0.6,2l0.8-0.3l39.9,106.8c2.8,7.1,8.3,10.8,16.1,10.8c6.4,0,12.1-2.6,12.2-2.6  c0.4-0.2,32.2-11.3,56.4-19.3l0,0L381.4,380.4z M413.3,363.8c-1.4,3.6-5.4,6.4-11.7,8.1c-4.6,1.3-11.5,3.4-19.3,6l-8.1-20.9  l34.6-11.1l3.6,9.1C412.5,354.9,415.1,359.3,413.3,363.8z M408.1,343.9L373.5,355l-8.4-21.5l34.4-11L408.1,343.9z M306.3,298.3  l8.5,21.9l-38.2,12.3l-8.1-21.8L306.3,298.3z M308.3,297.6l36.1-11.7l8.6,22l-36.2,11.6L308.3,297.6z M346.3,285.2l33.8-11l8.8,22.1  l-34.1,10.9L346.3,285.2z M353.7,309.8l8.7,22.4l-36.2,11.6l-8.7-22.4L353.7,309.8z M363.1,334.1l8.4,21.5l-36.2,11.6l-8.4-21.5  L363.1,334.1z M364.3,331.6l-8.7-22.4l34.1-11l8.9,22.3L364.3,331.6z M369.4,247.3l-40.3,12.6l0.6,2l40.4-12.6l9.2,23.1l-53.9,17.5  l-3.5-8.4l1.1-0.5c6.8-2.8,10-10.6,7.2-17.3l-2.9-7c-2.1-5-6.9-8.2-12.3-8.2c-1.7,0-3.4,0.3-5.1,1l-1.1,0.5l-4.4-11.3l54.6-16.9  L369.4,247.3z M302.7,266.9c-2.4-5.7,0.4-12.3,6.1-14.6l2.1-0.9c1.4-0.6,2.8-0.9,4.3-0.9c4.6,0,8.6,2.7,10.4,6.9l2.9,7  c2.4,5.7-0.4,12.3-6.1,14.6l-2.1,0.9c-1.4,0.6-2.8,0.9-4.3,0.9c-4.6,0-8.6-2.7-10.4-6.9L302.7,266.9z M248.1,256.1l54.5-16.9  l4.5,11.5c-6.1,3.1-8.9,10.4-6.3,16.9l0.4,1l-43.4,13.6L248.1,256.1z M302,270.5l1.7,4.2c2.1,5,6.9,8.2,12.3,8.2  c1.4,0,2.8-0.2,4.1-0.7l3.4,8.3l-55.8,18.2l-9.2-24.6L302,270.5z M324,397.8c-0.1,0-5.5,2.5-11.4,2.5c-6.9,0-11.7-3.2-14.1-9.5  l-21.1-56.4l38.3-12.3l8.7,22.4l-37.9,12.2l0.6,2l38-12.2l8.4,21.5l-38.2,12.3l0.6,2l38.3-12.3l8.4,21.5  C331.9,395,324.2,397.7,324,397.8z M344.5,390.7l-8.4-21.5l36.2-11.6l8.1,21C368.7,382.4,355.3,386.9,344.5,390.7z"
   id="path3739" />
</svg>