<?xml version="1.0" encoding="UTF-8" standalone="no"?>
<!-- Generator: Adobe Illustrator 19.2.0, SVG Export Plug-In . SVG Version: 6.00 Build 0)  -->

<svg
   xmlns:dc="http://purl.org/dc/elements/1.1/"
   xmlns:cc="http://creativecommons.org/ns#"
   xmlns:rdf="http://www.w3.org/1999/02/22-rdf-syntax-ns#"
   xmlns:svg="http://www.w3.org/2000/svg"
   xmlns="http://www.w3.org/2000/svg"
   xmlns:sodipodi="http://sodipodi.sourceforge.net/DTD/sodipodi-0.dtd"
   xmlns:inkscape="http://www.inkscape.org/namespaces/inkscape"
   version="1.1"
   id="Layer_1"
   x="0px"
   y="0px"
   width="800px"
   height="450px"
   viewBox="0 0 800 450"
   style="enable-background:new 0 0 800 450;"
   xml:space="preserve"
   inkscape:version="0.48.3.1 r9886"
   sodipodi:docname="overlay__Location 2.svg"><metadata
   id="metadata3944"><rdf:RDF><cc:Work
       rdf:about=""><dc:format>image/svg+xml</dc:format><dc:type
         rdf:resource="http://purl.org/dc/dcmitype/StillImage" /></cc:Work></rdf:RDF></metadata><defs
   id="defs3942" /><sodipodi:namedview
   pagecolor="#ffffff"
   bordercolor="#666666"
   borderopacity="1"
   objecttolerance="10"
   gridtolerance="10"
   guidetolerance="10"
   inkscape:pageopacity="0"
   inkscape:pageshadow="2"
   inkscape:window-width="640"
   inkscape:window-height="480"
   id="namedview3940"
   showgrid="false"
   inkscape:zoom="0.405"
   inkscape:cx="400"
   inkscape:cy="225"
   inkscape:window-x="134"
   inkscape:window-y="24"
   inkscape:window-maximized="0"
   inkscape:current-layer="Layer_1" />
<style
   type="text/css"
   id="style3924">
	.st0{fill:#F1F2F2;stroke:#00A69C;stroke-miterlimit:10;}
	.st1{fill:none;stroke:#00A69C;stroke-width:3;stroke-miterlimit:10;}
</style>
<path
   class="st0"
   d="M480.5,132.8h-2.1c0-35.5,28.9-63.3,65.7-63.3c27.5,0,54.3,19.5,63.6,46.3l-1.9,0.7c-9.1-26-35-44.9-61.7-44.9  C508.4,71.6,480.5,98.5,480.5,132.8z"
   id="path3926" />
<path
   class="st0"
   d="M490.8,150.9l-0.9-1.9c2.5-1.2,61.7-28.5,86.9-28.5c12,0,24.6-3.8,38-7.9c14.3-4.3,29.1-8.8,43.6-8.5  c11.3,0.2,32.3,3.8,56.6,7.8c34.6,5.8,73.8,12.4,94.9,10.9l0.1,2.1c-21.3,1.4-60.7-5.2-95.4-11c-24.2-4.1-45.1-7.6-56.3-7.8  c-14.2-0.4-28.8,4.1-43,8.4c-13.5,4.1-26.3,8-38.6,8C552.1,122.6,491.4,150.6,490.8,150.9z"
   id="path3928" />
<path
   class="st0"
   d="M707.1,199.8c-18.1,0-52.6-6.4-79.1-16.7c-17.7-6.9-43.2-3.8-65.8-1c-17.3,2.2-32.3,4-40.9,1  c-12.9-4.6-20.6-17.1-28-29.1c-4-6.6-7.8-12.8-12.5-17.8c-6.3-6.9-16-20.3-26.3-34.6c-11.3-15.7-24.1-33.5-34.4-45.1  c-19.2-21.8-39.8-55.2-40-55.5l1.8-1.1c0.2,0.3,20.7,33.6,39.8,55.2c10.3,11.6,23.1,29.5,34.5,45.2c10.2,14.2,19.9,27.6,26.1,34.4  c4.7,5.2,8.8,11.8,12.7,18.2c7.2,11.8,14.6,23.9,26.9,28.2c8.1,2.9,22.9,1,39.9-1.1c22.8-2.8,48.6-6,66.8,1.1  c30.5,12,71.7,18.6,85.5,16.1c4.1-0.7,14.1-4.6,25.6-9.1c33.8-13,62.4-23.4,70.7-17.9l-1.1,1.7c-8-5.3-44.6,8.8-68.8,18.1  c-12.1,4.7-21.7,8.4-26,9.2C712.6,199.6,710.1,199.8,707.1,199.8z"
   id="path3930" />
<path
   class="st0"
   d="M13,122.6l-1-1.8c0.8-0.4,81.3-43.5,118.2-59.1c22.4-9.4,35.2,2.6,38.7,6.7l37.7-67.6l1.8,1l-39.3,70.4  l-0.9-1.4c-0.5-0.7-12.2-17.7-37.2-7.2C94.2,79.1,13.8,122.2,13,122.6z"
   id="path3932" />
<path
   class="st0"
   d="M305.6,300.1h-57.7v-35.8h57.7V300.1z M250,298.1h53.6v-31.7H250V298.1z"
   id="path3934" />
<path
   class="st0"
   d="M327.3,266.5h-97.9l49-14.8L327.3,266.5z M243.3,264.4h70l-35-10.6L243.3,264.4z"
   id="path3936" />
<line
   class="st1"
   x1="0"
   y1="300.1"
   x2="800"
   y2="300.1"
   id="line3938" />
</svg>