<?xml version="1.0" encoding="UTF-8" standalone="no"?>
<!-- Generator: Adobe Illustrator 19.2.0, SVG Export Plug-In . SVG Version: 6.00 Build 0)  -->

<svg
   xmlns:dc="http://purl.org/dc/elements/1.1/"
   xmlns:cc="http://creativecommons.org/ns#"
   xmlns:rdf="http://www.w3.org/1999/02/22-rdf-syntax-ns#"
   xmlns:svg="http://www.w3.org/2000/svg"
   xmlns="http://www.w3.org/2000/svg"
   xmlns:sodipodi="http://sodipodi.sourceforge.net/DTD/sodipodi-0.dtd"
   xmlns:inkscape="http://www.inkscape.org/namespaces/inkscape"
   version="1.1"
   id="Layer_1"
   x="0px"
   y="0px"
   width="800px"
   height="450px"
   viewBox="0 0 800 450"
   style="enable-background:new 0 0 800 450;"
   xml:space="preserve"
   inkscape:version="0.48.3.1 r9886"
   sodipodi:docname="overlay__Location 3.svg"><metadata
   id="metadata3969"><rdf:RDF><cc:Work
       rdf:about=""><dc:format>image/svg+xml</dc:format><dc:type
         rdf:resource="http://purl.org/dc/dcmitype/StillImage" /></cc:Work></rdf:RDF></metadata><defs
   id="defs3967" /><sodipodi:namedview
   pagecolor="#ffffff"
   bordercolor="#666666"
   borderopacity="1"
   objecttolerance="10"
   gridtolerance="10"
   guidetolerance="10"
   inkscape:pageopacity="0"
   inkscape:pageshadow="2"
   inkscape:window-width="640"
   inkscape:window-height="480"
   id="namedview3965"
   showgrid="false"
   inkscape:zoom="0.405"
   inkscape:cx="400"
   inkscape:cy="225"
   inkscape:window-x="97"
   inkscape:window-y="24"
   inkscape:window-maximized="0"
   inkscape:current-layer="Layer_1" />
<style
   type="text/css"
   id="style3947">
	.st0{fill:none;stroke:#00A69C;stroke-width:3;stroke-miterlimit:10;}
</style>
<line
   class="st0"
   x1="60"
   y1="295.4"
   x2="730.3"
   y2="295.4"
   id="line3949" />
<path
   class="st0"
   d="M732.3,182v-56.3h-22.7V182h-39.5v-21.8h-33.6v-48.7H532.4v93.2h-23.5v-29.4h-22.7v-26.9H384.6v37H351V137  h-69.7v18.9h-42.8v26h-58v-63.8h-54.6v77.3H68.7V182H25.9v45.4H0v68h32.6h766.7V271v-43.7V182H732.3z"
   id="path3951" />
<path
   class="st0"
   d="M657.5,319.9c0,5.2-7.7,9.4-17.2,9.4s-17.2-4.2-17.2-9.4c0,5.3-7.7,9.6-17.2,9.6s-17.2-4.3-17.2-9.6  c0,5.3-7.7,9.6-17.2,9.6s-17.2-4.3-17.2-9.6"
   id="path3953" />
<path
   class="st0"
   d="M529.8,368.3c0,5.3-7.7,9.5-17.2,9.5s-17.2-4.3-17.2-9.5c0,5.3-7.7,9.6-17.2,9.6s-17.2-4.3-17.2-9.6  c0,5.3-7.7,9.6-17.2,9.6s-17.2-4.3-17.2-9.6"
   id="path3955" />
<path
   class="st0"
   d="M207.8,319.9c0,5.2-7.7,9.5-17.2,9.5s-17.2-4.3-17.2-9.5c0,5.3-7.7,9.6-17.2,9.6s-17.2-4.3-17.2-9.6  c0,5.3-7.7,9.6-17.2,9.6s-17.2-4.3-17.2-9.6"
   id="path3957" />
<path
   class="st0"
   d="M222.6,347.2l50,22.5c0,0,116.2,10.3,176.8-38.3c0,0,3.5-2.6-20.4,3.6C405,341.2,290.9,353.8,222.6,347.2z"
   id="path3959" />
<path
   class="st0"
   d="M219.8,347.2c0,0,19.7,29.2,33.1,41.2s19,9.2,21.1,4.2c2.1-4.9-1.4-23-1.4-23"
   id="path3961" />
<path
   class="st0"
   d="M267,396.8c0,0,159.4,22.5,182.5-65.5"
   id="path3963" />
</svg>