<?xml version="1.0" encoding="UTF-8" standalone="no"?>
<!-- Generator: Adobe Illustrator 19.2.0, SVG Export Plug-In . SVG Version: 6.00 Build 0)  -->

<svg
   xmlns:dc="http://purl.org/dc/elements/1.1/"
   xmlns:cc="http://creativecommons.org/ns#"
   xmlns:rdf="http://www.w3.org/1999/02/22-rdf-syntax-ns#"
   xmlns:svg="http://www.w3.org/2000/svg"
   xmlns="http://www.w3.org/2000/svg"
   xmlns:sodipodi="http://sodipodi.sourceforge.net/DTD/sodipodi-0.dtd"
   xmlns:inkscape="http://www.inkscape.org/namespaces/inkscape"
   version="1.1"
   id="Layer_1"
   x="0px"
   y="0px"
   width="800px"
   height="450px"
   viewBox="0 0 800 450"
   style="enable-background:new 0 0 800 450;"
   xml:space="preserve"
   inkscape:version="0.48.3.1 r9886"
   sodipodi:docname="overlay__Location 5.svg"><metadata
   id="metadata4271"><rdf:RDF><cc:Work
       rdf:about=""><dc:format>image/svg+xml</dc:format><dc:type
         rdf:resource="http://purl.org/dc/dcmitype/StillImage" /></cc:Work></rdf:RDF></metadata><defs
   id="defs4269" /><sodipodi:namedview
   pagecolor="#ffffff"
   bordercolor="#666666"
   borderopacity="1"
   objecttolerance="10"
   gridtolerance="10"
   guidetolerance="10"
   inkscape:pageopacity="0"
   inkscape:pageshadow="2"
   inkscape:window-width="640"
   inkscape:window-height="480"
   id="namedview4267"
   showgrid="false"
   inkscape:zoom="0.405"
   inkscape:cx="400"
   inkscape:cy="225"
   inkscape:window-x="166"
   inkscape:window-y="24"
   inkscape:window-maximized="0"
   inkscape:current-layer="Layer_1" />
<style
   type="text/css"
   id="style4189">
	.st0{fill:#FFFFFF;stroke:#FAAF40;stroke-width:3;stroke-miterlimit:10;}
	.st1{fill:none;stroke:#00A69C;stroke-width:3;stroke-miterlimit:10;}
</style>
<path
   class="st0"
   d="M434.1,393.5c0,0,1,2.3,5.8,3s2.1,3.6-6.4,4.1"
   id="path4191" />
<polygon
   class="st1"
   points="100.3,11.5 101.3,68.5 489.1,174.6 483.8,139.1 "
   id="polygon4193" />
<polygon
   class="st1"
   points="366.3,225.1 382.9,408.4 434.8,400.6 417.9,233 "
   id="polygon4195" />
<polygon
   class="st1"
   points="378.6,237.2 391.4,382.3 424.6,377.6 410.8,240.5 "
   id="polygon4197" />
<polygon
   class="st1"
   points="447.3,237.2 486.2,225.1 507.6,394.2 463.1,390.5 "
   id="polygon4199" />
<polygon
   class="st1"
   points="454.5,242.9 480.1,237.2 497.1,376.1 471,376.1 "
   id="polygon4201" />
<polyline
   class="st1"
   points="522.8,379.3 584.6,367.3 600.1,365.9 616.1,361.2 546,0.1 "
   id="polyline4203" />
<polyline
   class="st1"
   points="100.3,11.5 86,37.2 81.6,97.8 101.3,68.5 "
   id="polyline4205" />
<polyline
   class="st1"
   points="81.6,99.4 111.5,106.5 122.5,88.6 287.6,131.5 270.7,143.2 293.5,148.7 308.9,136.7 364,150.8   349.2,160.9 364,164.5 378.6,155.1 467.7,178 449.2,184.8 456.6,186.8 489.1,174.6 "
   id="polyline4207" />
<line
   class="st1"
   x1="270.7"
   y1="143.2"
   x2="270.7"
   y2="127.1"
   id="line4209" />
<line
   class="st1"
   x1="308.9"
   y1="136.7"
   x2="323.7"
   y2="422.4"
   id="line4211" />
<line
   class="st1"
   x1="304.6"
   y1="419.4"
   x2="293.5"
   y2="148.7"
   id="line4213" />
<polyline
   class="st1"
   points="102.6,450 304.6,419.4 321.3,422.8 368,413.6 368,410 345.9,147 "
   id="polyline4215" />
<line
   class="st1"
   x1="368"
   y1="410"
   x2="382.3"
   y2="406.8"
   id="line4217" />
<line
   class="st1"
   x1="81.6"
   y1="0.2"
   x2="54.7"
   y2="450"
   id="line4219" />
<line
   class="st1"
   x1="334.8"
   y1="0.2"
   x2="343.4"
   y2="92.4"
   id="line4221" />
<line
   class="st1"
   x1="301.7"
   y1="0.1"
   x2="305.9"
   y2="79.9"
   id="line4223" />
<line
   class="st1"
   x1="285.3"
   y1="0.2"
   x2="289.9"
   y2="74.6"
   id="line4225" />
<polygon
   class="st1"
   points="81.6,104.5 287.6,152.8 294.7,376.1 66.1,394.2 "
   id="polygon4227" />
<line
   class="st1"
   x1="558.8"
   y1="214"
   x2="497.1"
   y2="200.2"
   id="line4229" />
<line
   class="st1"
   x1="520.8"
   y1="355.7"
   x2="581"
   y2="349.6"
   id="line4231" />
<polyline
   class="st1"
   points="351.6,214.9 463.6,232.1 458.2,191.7 347.5,166.2 "
   id="polyline4233" />
<line
   class="st1"
   x1="77.9"
   y1="173.2"
   x2="289.3"
   y2="207.3"
   id="line4235" />
<line
   class="st1"
   x1="501.2"
   y1="235.8"
   x2="564"
   y2="245.8"
   id="line4237" />
<polyline
   class="st1"
   points="506.7,387.5 522.8,384.4 468.2,0.2 "
   id="polyline4239" />
<line
   class="st1"
   x1="468.2"
   y1="132.7"
   x2="450.2"
   y2="0.1"
   id="line4241" />
<line
   class="st1"
   x1="481"
   y1="226.7"
   x2="474.9"
   y2="179.9"
   id="line4243" />
<line
   class="st1"
   x1="432.6"
   y1="0.1"
   x2="447.9"
   y2="127.1"
   id="line4245" />
<line
   class="st1"
   x1="600.1"
   y1="365.9"
   x2="532.6"
   y2="0.2"
   id="line4247" />
<line
   class="st1"
   x1="522.8"
   y1="0.2"
   x2="584.6"
   y2="367.3"
   id="line4249" />
<line
   class="st1"
   x1="66.1"
   y1="0.1"
   x2="34.8"
   y2="450"
   id="line4251" />
<path
   class="st0"
   d="M483.7,317.6c0,0,2.1-1.5,6-1.7s3.8,5.5-1.4,6.9c-5.2,1.4-4.8,0-4.8,0"
   id="path4253" />
<path
   class="st0"
   d="M433.5,387.5c0,0,11.1-8.2,15.7-14l6.9-19.6"
   id="path4255" />
<path
   class="st0"
   d="M453.3,353.8l15.6,21c0,0,0.8,7.3,7,12.6l10.2,6.7l2.6-1.3l-10.1-15.6c-2-4.6-10.3-20.5-10.3-20.5"
   id="path4257" />
<path
   class="st0"
   d="M432.7,379.3c0,0,4.5-7.8,7.3-9.3c4.9-2.7,2.3-18.3,2.3-18.3"
   id="path4259" />
<path
   class="st0"
   d="M488.8,392.8c0,0,4.7-1.5,8-4.1c3.4-2.7,2.4,3.6-2.5,6.9c-4.9,3.4-4.9,3.4-4.9,3.4l-4.3-4.9L488.8,392.8z"
   id="path4261" />
<path
   class="st0"
   d="M460,316.3c3.7,4.9,4.7,8.3,10,9.2c5.3,0.9,12.1,0.5,12.1,0.5s1.4-1.4,1.6-5s-2-4.3-7.9-3.2  c-5.9,1.1-6.2,1.1-8.5-6s-6.8-11.2-10.1-11c-3.4,0.2-4.1,1.8-5.9,9.1c-1.8,7.3-6.6,22-6.6,22s-4.4,17.1-4.8,18.8  c-0.4,1.8,26.8,5,32.2,6l-0.7-30"
   id="path4263" />
<path
   class="st0"
   d="M461,299.9c6.9,1.1,7.1-5.2,7.1-5.6s1.9-8.5-4.3-11.5c-6.3-2.9-8.4,5.4-8.4,5.4S454.9,298.9,461,299.9z"
   id="path4265" />
</svg>