<?xml version="1.0" encoding="UTF-8" standalone="no"?>
<!-- Generator: Adobe Illustrator 19.2.0, SVG Export Plug-In . SVG Version: 6.00 Build 0)  -->

<svg
   xmlns:dc="http://purl.org/dc/elements/1.1/"
   xmlns:cc="http://creativecommons.org/ns#"
   xmlns:rdf="http://www.w3.org/1999/02/22-rdf-syntax-ns#"
   xmlns:svg="http://www.w3.org/2000/svg"
   xmlns="http://www.w3.org/2000/svg"
   xmlns:sodipodi="http://sodipodi.sourceforge.net/DTD/sodipodi-0.dtd"
   xmlns:inkscape="http://www.inkscape.org/namespaces/inkscape"
   version="1.1"
   id="Layer_1"
   x="0px"
   y="0px"
   width="800px"
   height="450px"
   viewBox="0 0 800 450"
   style="enable-background:new 0 0 800 450;"
   xml:space="preserve"
   inkscape:version="0.48.3.1 r9886"
   sodipodi:docname="overlay__Location 6.svg"><metadata
   id="metadata4322"><rdf:RDF><cc:Work
       rdf:about=""><dc:format>image/svg+xml</dc:format><dc:type
         rdf:resource="http://purl.org/dc/dcmitype/StillImage" /></cc:Work></rdf:RDF></metadata><defs
   id="defs4320" /><sodipodi:namedview
   pagecolor="#ffffff"
   bordercolor="#666666"
   borderopacity="1"
   objecttolerance="10"
   gridtolerance="10"
   guidetolerance="10"
   inkscape:pageopacity="0"
   inkscape:pageshadow="2"
   inkscape:window-width="640"
   inkscape:window-height="480"
   id="namedview4318"
   showgrid="false"
   inkscape:zoom="0.405"
   inkscape:cx="400"
   inkscape:cy="225"
   inkscape:window-x="304"
   inkscape:window-y="24"
   inkscape:window-maximized="0"
   inkscape:current-layer="Layer_1" />
<style
   type="text/css"
   id="style4274">
	.st0{fill:#00A69C;stroke:#00A69C;stroke-miterlimit:10;}
	.st1{fill:#F1F2F2;stroke:#F1F2F2;stroke-miterlimit:10;}
	.st2{fill:#FAAF40;stroke:#FAAF40;stroke-miterlimit:10;}
</style>
<path
   class="st0"
   d="M801.5,97.5H469.1V41.9h332.4V97.5z M471.1,95.4h328.3V43.9H471.1V95.4z"
   id="path4276" />
<path
   class="st0"
   d="M801.5,300H417.7V95.4h383.8V300z M419.8,297.9h379.7V97.5H419.8V297.9z"
   id="path4278" />
<path
   class="st0"
   d="M83.5,296.9h-9c-0.1,1.4-0.2,2.7-0.3,4.1h10c-0.4-0.4-0.7-0.9-0.7-2.1C83.4,298.2,83.5,297.6,83.5,296.9z"
   id="path4280" />
<path
   class="st0"
   d="M57.9,296.9c-0.1,1.4-0.3,2.7-0.4,4.1h9.4c-0.1-1.5-0.3-2.8-0.6-4.1H57.9z"
   id="path4282" />
<path
   class="st0"
   d="M115.7,299c-0.2-0.6,0-1.4,0-2.1h-3.9c-0.2,1.4-0.3,2.8-0.4,4.1h5C116.3,300.1,115.9,299.9,115.7,299z"
   id="path4284" />
<path
   class="st1"
   d="M98.6,296.9h-2.5c0,1.4,0.1,2.7,0,4.1h2.4C99,299.7,98.5,298.4,98.6,296.9z"
   id="path4286" />
<path
   class="st0"
   d="M171.3,300.5c-0.3-1.1-0.5-2.5-0.7-3.6h-6.4c-0.3,1.4-0.6,2.8-0.9,4.1h9c0-0.2-0.1-0.4-0.1-0.5  C172,300.5,171.3,300.6,171.3,300.5z"
   id="path4288" />
<path
   class="st0"
   d="M211.2,296.9h-6.8c0,1.4,0,2.8-0.1,4.1h7.1C211.3,299.6,211.3,298.2,211.2,296.9z"
   id="path4290" />
<path
   class="st0"
   d="M131.9,296.9h-8.1c0,1.4,0,2.8-0.1,4.1h8.8C132.2,299.8,132,298.4,131.9,296.9z"
   id="path4292" />
<path
   class="st0"
   d="M178,296.9c0,0.7,0,1.3,0,2s-0.1,1.4-0.2,2.2h16.8c0-1.4,0-2.7,0-4.1H178V296.9z"
   id="path4294" />
<path
   class="st0"
   d="M229.4,296.9h-7.1c0,1.3-0.1,2.7-0.1,4.1h7.3C229.4,299.6,229.4,298.3,229.4,296.9z"
   id="path4296" />
<path
   class="st0"
   d="M49.5,300c-0.1-0.3,0.2-1.5,0-1.7c-0.5-0.4-0.6-0.9-0.7-1.4H3v4.1h46.8C49.7,300.7,49.6,300.3,49.5,300z"
   id="path4298" />
<path
   class="st0"
   d="M350.5,296.9h-8.9c-0.4,1.4-1,2.8-1.4,4.1h10.6C350.7,299.6,350.6,298.2,350.5,296.9z"
   id="path4300" />
<path
   class="st0"
   d="M331.2,298.9c-0.1-0.7-0.1-1.4-0.1-2h-6.8c0,1.4,0,2.8,0,4.1h7.6C331.5,300.3,331.2,299.6,331.2,298.9z"
   id="path4302" />
<path
   class="st0"
   d="M360.9,296.9c-0.2,1.4-0.5,2.7-0.9,4.1h440.5v-4.1H360.9z"
   id="path4304" />
<path
   class="st0"
   d="M295.7,296.9c-0.2,0.3-0.3,0.7-0.4,1c-0.2,1-0.2,2.1-0.1,3.1h11.4c0.4-1.2,0.8-2.7,1.1-4.1H295.7z"
   id="path4306" />
<path
   class="st0"
   d="M248.2,296.9h-8.7c0,0.4,0.1,0.8,0.1,1.2c0.1,0.9,0.1,1.9,0.2,2.9h7.7C247.7,299.7,248,298.3,248.2,296.9z"
   id="path4308" />
<path
   class="st0"
   d="M277.9,296.9h-20c-0.1,1.1-0.3,2.2-0.6,3.8c0,0.1-0.1,0.2-0.1,0.3h20.7C277.9,299.6,277.9,298.3,277.9,296.9z"
   id="path4310" />
<path
   class="st0"
   d="M156.2,296.9H141c-0.1,1.4-0.3,2.8-0.5,4.1h16.6C156.8,299.6,156.5,298.2,156.2,296.9z"
   id="path4312" />
<path
   class="st2"
   d="M55.3,326c-4.8,0-8.7-2.6-10.6-4.1l-0.4-0.3v-0.5c0.2-3.2,2.3-4.5,4.1-5.7c1-0.6,2-1.2,2.6-2.1  c-0.4-4.4-1.2-8.7-2.5-13c-0.1-0.3-0.1-0.7,0-1.1c0-0.1,0-0.2,0-0.4c-0.7-0.8-0.8-1.6-0.8-2.3c0-0.4,0-0.8-0.1-1.3  c0-0.1-0.1-0.1-0.2-0.3c-0.2-0.3-0.6-0.8-0.7-1.6c-0.1-1.4,0.3-2.1,0.5-2.7c0.2-0.3,0.3-0.5,0.3-0.9c0.3-1.7,0.1-3.7,0-5.8  c-0.1-1.9-0.2-4-0.1-6.3c-0.8-0.7-1.9-1.1-3-1.5c-1.6-0.6-3.2-1.2-4.3-2.5l-0.2-0.3v-0.4c0-1.4,0.3-2.8,0.5-4.1  c0.2-0.9,0.3-1.9,0.4-2.7l0.1-1.1c0.3-4.6,1-14-0.8-16.8c-0.2-0.3-0.4-0.6-0.5-0.9c-0.3-0.6-0.6-1.1-1-1.5c-0.6-0.6-0.8-1.4-1-2.3  c-0.2-0.7-0.4-1.4-0.8-2.2c-0.1-0.1-0.4-0.4-0.6-0.6c-0.6-0.5-1-0.9-1.1-1.3c-0.2-0.5-0.1-1-0.1-1.3c0-0.1,0-0.4,0-0.4  c-0.2-0.8-0.4-2.3-0.9-5.2c-0.3-2.2-0.9-6,0-11.3l0.1-0.6l0.7-0.3H35c0.4-7,3-13.5,7.1-17.4l0.2-0.2l0.3-0.1  c0.4-0.1,0.7-0.2,1.1-0.3c1.2-0.3,2.5-0.6,3.6-1.3c0.3-0.2,0.8-0.3,1.7-0.5c0.4-0.1,1-0.2,1.3-0.3v-0.1c0.1-0.7,0.4-2.4,2-2.8  c-0.8-2.7-1.4-5.5-2.1-8.8L50,188l0.8-0.3c0.7-0.3,0.9-1.1,1.2-2.3c0.2-0.9,0.4-1.8,0.9-2.5c0.6-0.7,1.4-0.8,2-0.9  c0.4,0,0.6-0.1,0.7-0.2c0.2-0.2,0.4-0.3,0.5-0.5c0.5-0.7,1-1.2,2.5-1.3c4.6-0.5,7.5,2.6,10,6c0.4,0,1,0,1.5-0.1s1-0.1,1.5-0.1  c2.2,0,2.5,1.4,2.5,1.9c0.2,1,0,1.9-0.6,2.5c-1,1.2-2.8,1.2-4.4,1.1c0.1,3.7-0.4,6.9-1.6,9.7c0.8,0.7,2.1,0.9,3.5,1.2  c1.6,0.3,3.2,0.6,4.4,1.6l0.3,0.3c1.7,3.2,3.1,7.1,4.2,11.3c0.5-1.6,1-3.2,1.7-4.7c0.2-0.4,0.5-0.6,0.8-0.7c0.2-1,0.8-1.8,1.5-2.7  c0.4-0.6,0.9-1.1,1.1-1.7l0.2-0.5l0.5-0.1c1-0.2,1.8-0.5,2.7-0.8c1.5-0.5,3-1.1,5.3-1c-1.3-4.3-2.7-9.6-1.2-13.5  c0.8-2.1,1-2.3,2.6-3.6l0.2-0.2c0.2-0.1,0.4-0.4,0.6-0.6c0.5-0.6,0.9-1,1.2-1.2c0.4-0.2,0.8-0.2,1.5-0.1c0.1,0,0.2,0,0.2,0  c1.1-0.9,3.3-1.3,6.5-0.9l0.5,0.1l0.3,0.5c0.4,0.7,0.9,1.4,1.5,2.1c1.7,2.1,3.9,4.7,2.8,9.6c-0.1,0.6-0.6,0.8-0.8,0.8  c0,0.4,0,0.7-0.1,1l-0.3,0.8c-0.3,0.9-0.8,2.2-1.4,3.5c-0.2,0.4-0.5,0.6-0.8,0.7c0,0.5-0.1,1.1-0.4,1.6c1.6,1.7,4.1,2.4,7.7,2.1h0.5  l0.3,0.4c0.3,0.4,0.7,0.8,1,1.3c1.7-0.8,3.4-1.5,4.7-2.5c-0.4-0.5-1.1-0.8-1.8-1.2c-1-0.5-2.1-1.1-2.8-2.3c-2.4-2.7-2.6-3.3-3.5-7  l-0.1-0.3c-0.3-0.8-0.9-3,0.9-4.8c0-0.1,0-0.1,0-0.2c-0.1-0.5-0.2-1.1,0.2-1.6c0.5-0.7,1.2-1.1,1.9-1.4c0.3-0.2,0.6-0.3,0.8-0.5  c0.2-0.1,0.4-0.4,0.7-0.7c0.5-0.6,0.9-0.9,1.2-1.1c0.6-0.3,1.5-0.3,2.4-0.1c0.5,0.1,1,0.1,1.1,0.1c0.3-0.1,0.5-0.1,0.7-0.2  c0.8-0.2,1.6-0.4,3.6-0.7c0.3,0,0.5,0,0.7,0s0.4,0,0.5,0c0.8-0.8,1.7-1,3.1-0.9l0.5,0.1l0.3,0.5c0.3,0.6,0.7,1.1,1.1,1.7  c1.3,1.9,3,4.2,1.7,7.2c1.4,2.3,1.7,4.2,1.9,6.2c0.1,0.9,0.2,1.9,0.5,2.9l0.2,1.1l-1,0.1c0,0.2-0.1,0.6-0.1,0.8c0,0.3,0,0.6-0.1,0.9  l-0.1,1l-1-0.1c-0.6,0-1.3,0-1.4,0c0.1,0.9,1.1,1.3,3.1,1.8c0.5,0.1,0.9,0.2,1.3,0.4c1.4,0.5,2.8,0.8,4.1,1.1  c0.9,0.2,1.7,0.4,2.6,0.6l0.4,0.1l0.2,0.4c0.2,0.4,0.4,1,0.6,1.5c0.2-1.5,0.4-2.8,0.7-3.9c1-4.2,4.2-7.4,8.5-8.8  c-0.2-0.1-0.4-0.1-0.6-0.1h-0.7l-0.4-0.7c-0.3-0.7-0.3-1.5-0.3-2.2s0-1.4-0.3-2.2c-0.9,0.1-1.5,0.1-1.8-0.4  c-0.5-0.6-0.3-1.3-0.2-2.1c0-0.1,0.1-0.4,0.1-0.5c-0.8-0.8-0.8-1.5-0.8-2.3c0-0.6,0-1.2-0.2-2.3l-0.1-0.4c-0.3-1.3-0.9-4.1,1.2-6.4  l0.2-0.3c0.6-0.7,1.6-1.8,2.4-2.4c0.4-0.3,0.9-0.3,1.6-0.2c0.1,0,0.1,0,0.2,0c1.2-0.9,3.7-1,4.4-1c1.4,0,3.4,0.2,5.7,1l0.3,0.2  c3.5,2.9,4.9,10.9,3,16.7c0.1,0,0.3,0,0.4-0.1c1.2-0.2,2.1-0.1,2.6,0.5c0.3,0.3,0.4,0.8,0.3,1.3c0.1,0.2,0.2,0.3,0.5,0.5  c0.3,0.3,0.7,0.6,0.9,1.1c3.2,0.4,5.4,1.7,7.5,3l1,0.6l0.1,0.4c3.3,9.9,1.8,19.5,0,25.9c0,0,0,0.1,0.1,0.3c0.1,0.7,0.2,1.4-0.4,1.9  c-0.5,0.4-0.6,2.2-0.7,3.6c-0.1,1.5-0.2,3-0.7,4.4c-0.2,0.5-0.5,0.7-0.8,0.8c-0.1,2.6,0.2,7,0.8,12.3c0.7,5.5,1.2,16,0.9,26.2  c0.5,2.5-1.6,3-2.4,3.2c-0.7,0.2-0.9,0.2-0.9,0.4l0.1,1c0.6,6.4,1.1,12.5,0.7,19.2c-0.1,1.3-0.3,2.6-0.5,3.9c-0.3,2.1-0.6,4.1-0.4,6  c0.3,2,1.2,3.7,2.1,5.3c1.1,2,2.2,4,2.1,6.6v0.7l-0.7,0.2c-0.4,0.1-0.8,0.3-1.3,0.5c-1.3,0.6-3.1,1.4-5.1,1.4l0,0  c-1.4,0-2.7-0.4-3.8-1.2c-1.8-0.9-1-2.6-0.7-3.3c0-0.1,0.1-0.2,0.1-0.3c-0.4-0.3-0.7-0.8-0.7-1.3c0-0.8-0.1-1.8,0-2.7  c0.1-1.1,0.5-2.2,0.9-3.2c0.4-1.2,0.8-2.4,0.8-3.4c0-0.9-0.2-1.7-0.5-2.6c-0.1-0.5-0.3-1-0.4-1.5c-0.1-0.4,0-0.9,0-1.6  c0-0.2,0.1-0.6,0.1-0.9h-0.7l-0.3-0.8c-0.1-0.6-0.3-1.2-0.4-1.9c-0.1-0.8-0.3-1.6-0.5-2.3c-0.4-1.6-0.5-3.7-0.6-6  c-0.2-4.4-0.3-9.4-2.9-11.7c-1.5,0.6-1.5,2.2-1.4,4.7c0,0.6,0.1,1.2,0.1,1.8c0,1.6,0.2,3,0.4,4.4s0.4,2.7,0.4,4  c-0.1,2-0.5,3.9-0.9,5.7c-0.4,1.8-0.8,3.5-0.8,5.2c0,2.7,0.8,5.2,1.5,7.7c1,3.3,1.9,6.4,1,9.4l-0.2,0.6l-0.6,0.1  c-3.4,0.9-5.6,0.7-8.9-0.8H150l-0.3-0.3c-0.8-0.9-1.7-1.7-2.5-2.5l-1.1-1.1l1.4-0.6c0-0.1,0-0.5,0.1-0.8c0.1-0.8,0.3-2.5,2-2.6l0,0  h0.2c0.4,0,0.6-0.1,0.9-0.3c0.4-0.2,1-0.5,1.8-0.6c0.4-0.5,0.7-1,1-1.7c0.3-0.6,0.7-1.3,1.2-2c1.4-2.2,0.1-7.9-0.8-12.1l-0.1-0.6  c-1.1-4.9-1-14.6-0.9-17.8c-0.4-0.8-1.5-1-3.2-1.3c-1.5-0.3-3-0.5-4.1-1.5l-0.3-0.3v-0.4c0-1.8,0-3.5,0-5.3c0-6.2-0.1-12,0.9-17.7  c0.5-3.2,1.1-5.6,1.7-8.5c0-0.1,0-0.3,0-0.5c0-0.3-0.1-0.8,0-1.2c0.1-0.3,0.1-0.6,0.2-1.1c0.1-0.7,0.3-1.7,0.6-3.1  c0.1-0.5,0.4-0.9,0.6-1.1c0.2-0.2,0.2-0.3,0.2-0.4c0.1-0.9-0.2-1.9-0.5-3c-0.5-1.9-1-4,0.2-6.1c-0.2,0-0.4,0-0.7,0h-0.1  c0,0.4-0.1,0.7-0.1,1.1c-0.7,3.3-2.6,5.4-5.6,6.4c0.4,1.6,0.4,3.2,0.4,4.8c0,1.2,0,2.4,0.2,3.6c0.1,1,0.4,2.1,0.8,3.2  c0.4,1.5,0.8,3,0.9,4.5c0.2,3.2-0.1,6.3-0.5,9.3c-0.4,3.5-0.7,7.1-0.4,10.9l0.1,1.1h-0.8c0,0.1,0,0.2,0,0.2c0,0.1,0,0.3-0.1,0.4  c0.5,2.2-1.3,2.7-2,2.9c-0.2,0.1-0.5,0.2-0.6,0.2v0.2v0.3c-0.7,3.4-0.5,6.5-0.2,10.2c0.2,2.9,0.4,6.1,0.2,9.9  c-0.1,2.4-0.5,4.7-0.9,6.9c-0.6,3.5-1.2,6.8-0.8,10.3c0.6,0.7,1.7,1.1,2.8,1.6c1.4,0.6,2.9,1.2,3.8,2.5l0.1,0.2v0.2  c0.2,1.1,0,2-0.6,2.7c-0.8,1-2.3,1.1-3.6,1.1c-0.4,0-0.8,0-1.1,0h-0.2c-1.1,1.5-3.2,1.7-5,1.7c-0.5,0-1,0-1.5,0h-0.4L133,323  c-1.9-1.9-1.9-3.5-2-5.4v-0.3c0-1.1,0.2-2.1,0.5-3c0.2-0.8,0.4-1.4,0.4-2s-0.2-1-0.3-1.4c-0.2-0.5-0.4-1-0.5-1.9  c-0.1-1.1-0.2-2-0.2-2.9c-0.1-1.5-0.1-2.7-0.6-4.6c-0.7-3-0.9-7-1.1-11.3c-0.3-5.6-0.5-11.4-2-15.8c-0.6,0.2-0.9,1.1-1.3,2.9  c-0.1,0.5-0.2,1-0.4,1.5c-0.3,0.9-0.4,1.5-0.6,2.2c-0.1,0.4-0.2,0.8-0.3,1.1c-1,3.6-1.1,9.8-1.2,15.8c-0.1,3.9-0.1,7.9-0.4,11.3  c0.4,0.5,0.5,1.2,0.5,1.7c0,0.3,0.1,0.6,0.2,0.8c0.2,0.4,0.6,0.8,1.1,1.2c1.2,1.2,2.9,2.7,2.4,6.1l-0.1,1.1l-1.1-0.2  c-1.9-0.3-3,0.2-4.2,0.8c-1,0.5-2.2,1.1-3.9,1.1c-0.6,0-1.3-0.1-2.1-0.2l-0.8-0.2v-0.8c0-2.2,0.4-4,0.7-5.7c0.5-2.7,0.9-5,0.2-8.4  c-0.2-0.7-0.3-1.4-0.4-2.1c-0.1-0.6-0.2-1.1-0.3-1.7c-0.6-0.3-0.9-0.8-1-1.5c0-0.6-0.1-0.8-0.3-1.1c-0.2-0.3-0.3-0.7-0.5-1.2  c-0.2-0.6-0.1-1.2,0-1.7c0-0.3,0.1-0.7,0-0.9c-0.6-1-1.7-3.1-0.7-4.2c-0.1-0.3-0.2-0.7-0.2-1.2c0.1-1.2,0.2-2.5,0.4-3.8  c0-0.3,0.1-0.6,0.1-0.9c-0.1,0.4-0.1,0.8-0.2,1.2c-0.9,5.9-1.8,12.1-1.8,17.9v1.3l-1.3-0.3c-0.7-0.2-1.4-0.3-1.9-0.3  c-2.1,0-2.7,1.3-3.6,3.6c-0.2,0.6-0.5,1.2-0.8,1.8c0.2,0.8,0.8,1.2,1.8,1.7c0.5,0.3,1,0.6,1.5,1c0.7-0.4,1.6-0.6,2.5-0.6  c2.1,0,3.4,1.1,3.4,2.8c0.2,1.3-0.1,2.4-0.8,3.3c-1.2,1.5-3.5,1.7-5.7,1.9c-0.3,0-0.7,0.1-1,0.1c-2.8,1.5-5.9,2-9.7,1.7l-0.6-0.1  l-0.2-0.6c-1-2.4,0-4.5,0.9-6.2c0.4-0.7,0.7-1.4,0.8-1.9c0.1-0.4,0-1.4-0.1-2.3c-0.2-1.9-0.5-4,0.2-5.6c0.2-0.4,0.4-0.6,0.7-0.7  c-0.1-0.5-0.4-0.8-0.6-1.2c-0.3-0.4-0.6-0.9-0.8-1.5l-1.1-0.3c-0.8-0.2-1.2,0-1.8,0.3c-0.5,0.3-1.2,0.7-2.3,0.7  c-0.4,1.9-0.5,3.6-0.5,5.4c0,0.9,0,1.8-0.1,2.8l-1-0.1l0,0v0.2c1.4,1.4,1.6,5.1,0,7.2l-0.3,0.4h-0.5l0,0c-0.4,0-0.8,0-1.2,0  c-0.3,0-0.5,0-0.8,0c-1.4,1.7-4,1.9-6.4,1.9c-0.8,0-1.7,0-2.6-0.1l-0.5,0.2c-2.2,0.6-5,1.4-7.5,1.4c-2.3,0-4.1-0.6-5.4-1.9l-0.3-0.3  v-0.4c0-1.1,0.3-1.7,0.6-2.2c0.1-0.2,0.2-0.4,0.3-0.7c0.1-0.3,0.5-0.9,1-1.2v-0.1l-1.1-0.3c0-0.1,0.1-0.2,0.1-0.3l0.2-0.5  c0.2-0.6,0.5-1.1,0.7-1.7c0.7-1.6,1.3-2.9,0.7-5.5c0-0.1-0.1-0.1-0.2-0.3c-0.2-0.3-0.6-0.7-0.7-1.5c-0.1-1.4-0.2-2.7-0.3-4  c-0.2-3.5-0.3-6.5-2.1-9l-0.1-0.2v-0.2c-0.4-2.4-0.1-4.3,0.2-6.1c0.3-1.8,0.5-3.3-0.1-4.6l-0.1-0.2v-0.2c0-1.7-0.9-2.4-2-3.4  c-0.4-0.3-0.7-0.6-1.1-1l-0.3-0.3v-0.3l-0.6-0.1l0,0l0.4,0.9c-0.1,0.1-0.3,0.2-0.3,0.3c-0.2,0.7-0.2,1.3-0.3,2.2  c-0.1,0.9-0.2,2-0.5,3.6c-0.1,0.6-0.4,0.9-0.6,1.2c-0.2,0.2-0.2,0.2-0.2,0.4c0,0.6,0.2,1.4,0.4,2.3c0.2,0.8,0.4,1.7,0.5,2.6  c0.3,4.2-0.3,8.5-0.8,12.7c-0.1,0.9-0.3,1.7-0.4,2.4c-0.3,1.3-0.5,2.5-0.4,3.5c0.1,1.9,0.7,3.8,1.4,5.8c1,3.1,2.1,6.3,1.1,9.7  l-0.2,0.5l-0.5,0.2C57.9,325.8,56.6,326,55.3,326z M46.4,320.6c1.8,1.4,5.1,3.3,8.9,3.3c0.9,0,1.8-0.1,2.6-0.3  c0.6-2.7-0.3-5.2-1.2-8c-0.7-2-1.4-4.1-1.5-6.3c-0.1-1.2,0.2-2.6,0.5-4c0.1-0.7,0.3-1.4,0.4-2.1c0.6-4.2,1.1-8.5,0.8-12.5  c0-0.7-0.2-1.5-0.4-2.3c-0.2-1-0.5-2-0.4-2.9c0.1-0.8,0.4-1.3,0.7-1.6c0.1-0.2,0.2-0.2,0.2-0.3c0.3-1.5,0.4-2.5,0.5-3.3  s0.1-1.6,0.4-2.6c0.1-0.4,0.4-0.9,0.9-1.2c0.1-0.8,0-1.8-0.1-2.8c-0.2-2.2-0.4-4.6,1.6-5.2l1-0.3l0.3,1c0.8,2.4,1.1,4.8,0.9,7.5  c0.2,0.2,0.4,0.3,0.6,0.5c1.2,1,2.7,2.2,2.7,4.8c0.7,1.8,0.5,3.6,0.2,5.5c-0.2,1.6-0.5,3.3-0.2,5.3c1.9,2.9,2.1,6.3,2.3,9.9  c0.1,1.2,0.1,2.5,0.3,3.9c0,0.2,0.1,0.2,0.2,0.4c0.2,0.2,0.5,0.6,0.6,1.1c0.8,3.3-0.1,5.1-0.9,6.8c-0.2,0.4-0.4,0.8-0.5,1.3  c0.1,0.1,0.2,0.1,0.2,0.2c0.3,0.4,0.5,0.9,0.4,1.4l-0.2,0.8h-0.5c-0.1,0.1-0.2,0.2-0.2,0.2c-0.1,0.3-0.3,0.6-0.4,0.9  c-0.2,0.3-0.3,0.5-0.3,0.8c0.9,0.7,2.1,1,3.6,1c2.3,0,4.9-0.8,7-1.4l0.9-0.3h0.2c1,0,1.8,0.1,2.7,0.1c2.4,0,3.8-0.3,4.6-1l-0.2-0.8  l1.3-0.2h0.3c0.4,0,0.8,0,1.1,0c0.2,0,0.5,0,0.7,0c0.8-1.4,0.4-3.7-0.1-4.1s-0.6-0.9-0.4-1.5c0.2-0.4,0.5-0.8,0.9-1c0-0.7,0-1.3,0-2  c0-2.1,0.1-4.3,0.8-6.8l0.3-0.9l1,0.2c0.8,0.2,1.2,0,1.8-0.3c0.5-0.3,1.1-0.7,2.1-0.7c0-1.5,0-3.1-0.1-4.7c-0.1-2-0.1-4.1,0-6.1  c0.2-2.3,0.7-4.5,1.1-6.6c0.2-0.9,0.4-1.9,0.6-2.8c0.2-0.8,0.3-1.6,0.4-2.5c0.3-2.6,0.7-5.3,2.4-7.3l2.6-3.1l-0.8,4  c-0.2,1.2,0,2.3,0.4,3.6c0.2,0.9,0.5,1.9,0.5,3c0,2-0.3,2.9-0.6,3.6c-0.1,0.3-0.2,0.5-0.2,0.8c-0.1,0.6,0,1.4,0,2.2  c0.1,1,0.1,2,0,2.9c-0.1,0.7-0.4,1.2-0.7,1.4c-0.1,0.2-0.2,0.2-0.2,0.3c-0.1,0.3,0,0.6,0,1s0.1,1,0,1.5c-0.1,0.7-0.3,1.3-0.4,1.9  c-0.2,0.7-0.3,1.4-0.4,2.2c-0.1,0.6,0,1.2,0,1.8c0.1,1.3,0.3,2.8-0.9,4.3c0.1,0.4,0.3,0.8,0.6,1.3c0.4,0.6,0.9,1.4,1,2.5  c0,0.4,0,1.4-1,1.7c-0.3,1.1-0.1,2.8,0.1,4.2c0.1,1.1,0.2,2.1,0.1,2.8c-0.1,0.9-0.5,1.7-1,2.5c-0.6,1.3-1.3,2.6-1,3.9  c3.2,0.2,5.6-0.3,8-1.6l0.4-0.1c0.4,0,0.8-0.1,1.2-0.1c1.8-0.1,3.6-0.3,4.3-1.1c0.3-0.4,0.4-1,0.3-1.9c0-0.8-1-0.8-1.4-0.8  c-0.9,0-1.7,0.3-1.9,0.6l-0.9,0.9l-0.7-1c-0.3-0.4-0.9-0.8-1.5-1.1c-1.1-0.6-2.7-1.5-2.9-3.6V311l0.1-0.3c0.3-0.6,0.5-1.2,0.8-1.9  c0.8-2.2,1.9-4.9,5.5-4.9c0.4,0,0.8,0,1.2,0.1c0.1-5.6,1-11.3,1.8-16.9c0.6-3.8,1.2-7.6,1.5-11.4c0.1-0.9,0.2-1.9,0.2-2.8l0.1-1.5  l1.4,0.6c1.3,0.6,1.8,1.6,1.4,3.1c0.4,4.7-0.1,8.7-0.5,12.3c-0.1,1.3-0.3,2.5-0.4,3.7c0.1,0.3,0.5,0.6,0.5,1.1s-0.3,0.8-0.7,1.1  c0,0.2,0.2,0.7,0.8,1.9c0.1,0.3,0.2,0.4,0.2,0.5c0.1,0.6,0.1,1.1,0,1.6c0,0.4-0.1,0.7,0,0.9c0.1,0.3,0.2,0.5,0.3,0.7  c0.2,0.4,0.5,0.9,0.6,1.8c0.3,0.1,0.7,0.3,0.8,0.8c0.2,0.7,0.3,1.5,0.5,2.3c0.1,0.6,0.2,1.3,0.4,2c0.9,3.8,0.4,6.4-0.2,9.2  c-0.3,1.4-0.5,2.9-0.6,4.5c1.6,0.2,2.6-0.3,3.8-0.9c1.1-0.6,2.4-1.2,4.3-1.1c0-1.6-0.9-2.4-1.8-3.3c-0.6-0.5-1.1-1.1-1.5-1.8  c-0.3-0.5-0.3-1.1-0.4-1.5c0-0.2,0-0.5-0.1-0.6l-0.6-0.3l0.1-0.6c0.3-3.4,0.4-7.6,0.5-11.7c0.1-6.4,0.2-12.5,1.2-16.3  c0.1-0.4,0.2-0.7,0.2-1.1c0.1-0.7,0.3-1.4,0.6-2.4c0.1-0.4,0.2-0.8,0.3-1.3c0.4-1.9,1-5,4.2-4.5l0.6,0.1l0.2,0.6  c1.8,4.7,2.1,11,2.4,17.1c0.2,4.2,0.4,8.1,1.1,10.9c0.5,2,0.6,3.5,0.6,4.9c0,0.8,0.1,1.7,0.2,2.8c0.1,0.6,0.2,1,0.4,1.4  c0.2,0.5,0.4,1.1,0.5,2c0.1,1-0.2,1.9-0.4,2.7c-0.2,0.8-0.4,1.5-0.4,2.4v0.3c0,1.7,0.1,2.6,1.1,3.7c0.3,0,0.7,0,1,0  c2.1,0,3.2-0.4,3.5-1.1l0.3-0.6h1.5c0.4,0,0.7,0,1.1,0c1.1,0,1.8-0.1,2-0.4c0.1-0.2,0.1-0.5,0.1-0.7c-0.6-0.7-1.7-1.1-2.8-1.6  c-1.4-0.6-2.9-1.2-3.8-2.5l-0.2-0.2v-0.3c-0.4-3.9,0.2-7.6,0.8-11.2c0.4-2.2,0.8-4.4,0.9-6.7c0.2-3.6,0-6.7-0.2-9.6  c-0.3-3.8-0.5-7.1,0.2-10.6c-0.1-1.8,1.4-2.2,2.1-2.4c0.2-0.1,0.5-0.1,0.6-0.2c0,0,0-0.1-0.1-0.4l-0.1-0.3l0.1-0.3  c0-0.1,0.1-0.3,0.1-0.4c0-0.4,0.1-1.2,0.7-1.6c-0.3-3.8,0.1-7.2,0.4-10.6c0.3-3.1,0.6-6,0.5-9c-0.1-1.3-0.5-2.7-0.9-4  c-0.3-1.1-0.7-2.3-0.8-3.5c-0.2-1.4-0.2-2.7-0.2-3.9c0-1.8,0-3.5-0.6-5.2l-0.4-1.1l1.1-0.3c2.9-0.7,4.5-2.3,5.1-5.1  c0.1-0.5,0.1-1,0.1-1.6l-0.1-1.1h1.1h1.1c0.7,0,2.7,0,3,1.8l0.1,0.5l-0.3,0.4c-1.2,1.5-0.8,3.2-0.3,5.1c0.3,1.2,0.6,2.4,0.5,3.6  c-0.1,0.8-0.4,1.3-0.7,1.6c-0.1,0.2-0.2,0.2-0.2,0.3c-0.3,1.4-0.5,2.3-0.6,3c-0.1,0.5-0.2,0.9-0.2,1.2c0,0.1,0,0.3,0,0.5  c0,0.3,0.1,0.7,0,1.2c-0.6,2.8-1.1,5.2-1.7,8.4c-0.9,5.5-0.9,11.3-0.8,17.3c0,1.6,0,3.1,0,4.8c0.6,0.4,1.7,0.6,2.7,0.7  c1.9,0.3,4.1,0.7,4.9,2.8l0.1,0.2v0.2c-0.2,5.9-0.1,13.6,0.8,17.5l0.1,0.6c1.2,5,2.5,10.7,0.6,13.7c-0.5,0.7-0.8,1.3-1.1,1.9  c-0.4,0.8-0.9,1.6-1.6,2.4l-0.4,0.4l-0.5-0.1c-0.5-0.1-0.7,0.1-1.1,0.3c-0.4,0.2-1,0.6-1.9,0.6h-0.1c-0.1,0.2-0.1,0.6-0.1,0.8  c0,0.4-0.1,1-0.3,1.5c0.5,0.5,1.1,1,1.6,1.6l5.1,0.1c2.8,1.3,4.5,1.5,7.2,0.9c0.4-2.3-0.3-4.9-1.1-7.7c-0.8-2.6-1.5-5.3-1.6-8.3  c0-1.9,0.4-3.9,0.8-5.7c0.4-1.7,0.8-3.5,0.8-5.3c0-1.2-0.2-2.4-0.4-3.6c-0.2-1.5-0.5-3-0.5-4.8c0-0.5,0-1-0.1-1.6  c-0.2-2.4-0.4-6.1,3.4-7l0.5-0.1l0.4,0.3c3.7,2.7,3.9,8.5,4.1,13.6c0.1,2.2,0.2,4.2,0.5,5.6c0.2,0.7,0.3,1.6,0.5,2.4  c0.1,0.3,0.1,0.7,0.2,1h0.3l0.4,0.3c0.6,0.6,0.5,1.5,0.4,2.9c0,0.3-0.1,0.9-0.1,1c0.1,0.4,0.2,0.9,0.3,1.3c0.3,0.9,0.5,1.9,0.5,3.1  c0,1.4-0.5,2.8-0.9,4.1c-0.3,1-0.7,1.9-0.7,2.7c0,0.5,0,1.1,0,1.6l0.7-0.7l0.2,2.3c0.1,0.7-0.2,1.3-0.4,1.8  c-0.1,0.2-0.3,0.6-0.3,0.8l0.2,0.1c0.8,0.6,1.7,0.8,2.7,0.8l0,0c1.5,0,3-0.7,4.2-1.2c0.3-0.1,0.5-0.2,0.7-0.3  c-0.1-1.7-0.9-3.2-1.9-4.9c-0.9-1.7-2-3.6-2.3-6c-0.3-2.3,0-4.5,0.4-6.6c0.2-1.2,0.4-2.5,0.5-3.7c0.4-6.6-0.2-12.6-0.7-19l-0.1-1.3  v-0.1c0.2-1.6,1.6-1.9,2.5-2.1c1-0.3,1-0.3,0.9-0.9V275v-0.1c0.4-10.2-0.2-20.6-0.8-26c-0.3-2.6-1-9.1-0.8-12.8c0-0.5,0.2-1.2,1-1.5  c0.3-1,0.4-2.3,0.4-3.5c0.1-2,0.3-3.7,1.1-4.7c0-0.1,0-0.3,0-0.4c0-0.5-0.1-0.8,0-1.1c1.7-6,3.1-15.1,0.1-24.3l-0.3-0.2  c-2.2-1.3-4.3-2.6-7.3-2.8l-0.8-0.1l-0.1-0.8c0-0.3-0.2-0.5-0.6-0.8c-0.4-0.4-0.9-0.8-1.1-1.7V194c-0.2,0-0.3,0-0.5,0.1  c-1.2,0.2-2.1,0.1-2.6-0.5c-0.3-0.4-0.4-1-0.2-1.6c1.8-5,0.8-12.3-2.1-14.9c-1.5-0.5-3.2-0.8-4.8-0.8c-1.9,0-3,0.4-3.2,0.6  c-0.2,0.3-0.8,0.5-1.8,0.4c-0.1,0-0.2,0-0.2,0c-0.7,0.5-1.5,1.4-1.9,2l-0.3,0.3c-1.4,1.5-1,3.3-0.7,4.5c0,0.2,0.1,0.4,0.1,0.5  c0.2,1.2,0.2,2,0.2,2.6c0,0.8,0,0.8,0.3,1c0.7,0.6,0.5,1.5,0.4,2.2l0,0c1.1-0.1,1.4,0.3,1.6,0.6c0.7,1.4,0.7,2.6,0.7,3.6  c0,0.3,0,0.7,0,0.9c1.3,0.2,2.2,1,2.7,2.3l0.4,1.1l-1.1,0.2c-4.4,0.9-7.5,3.7-8.5,7.7c-0.7,2.8-1.2,7.3-1.2,11.6l-2,0.2  c-0.1-0.8-0.3-1.6-0.4-2.4c-0.4-2.4-0.7-4.6-1.3-6.1c-0.7-0.2-1.3-0.3-2-0.5c-1.4-0.3-2.9-0.6-4.4-1.1c-0.3-0.1-0.7-0.2-1.1-0.3  c-1.8-0.5-4.7-1.2-4.6-4c0.1-0.9,0.7-1.9,2.6-1.9c0-0.6,0.1-1.5,0.7-2c-0.2-0.8-0.2-1.6-0.3-2.3c-0.2-2.1-0.4-3.7-1.9-5.8l-0.3-0.5  l0.3-0.6c1.1-2,0.2-3.5-1.3-5.6c-0.3-0.4-0.6-0.9-0.9-1.3c-0.6,0-0.9,0.2-1.1,0.5c-0.4,0.4-0.9,0.4-1.2,0.4s-0.6,0-0.8,0  c-0.2,0-0.3,0-0.4,0c-1.8,0.2-2.5,0.4-3.2,0.6c-0.3,0.1-0.5,0.1-0.8,0.2c-0.5,0.1-1.2,0.1-1.9,0c-0.6-0.1-1.2-0.1-1.3,0  c-0.1,0.1-0.3,0.3-0.6,0.6c-0.4,0.4-0.7,0.8-1,1s-0.7,0.4-1.1,0.7c-0.4,0.2-0.8,0.4-1.1,0.6c0,0.1,0,0.1,0,0.2  c0.1,0.6,0.2,1.3-0.4,1.8c-1.1,0.9-0.9,1.9-0.6,2.9l0.1,0.3c0.9,3.6,1,3.9,3.1,6.3c0.5,0.8,1.3,1.2,2.1,1.6c1.2,0.6,2.5,1.3,3.1,2.9  l0.3,0.7l-0.5,0.5c-1.7,1.5-3.9,2.5-6,3.4l-1.6,0.7l-0.5-0.8c-0.3-0.5-0.6-1-0.9-1.4c-4.6,0.2-7.8-1.1-9.7-3.9l-0.8-1.3l1.5-0.3l0,0  c0,0,0-0.3,0-0.6c0-0.7,0.3-1.4,1.1-1.7c0.5-1.2,0.9-2.3,1.2-3.1l0.3-0.8c0,0.1,0,0-0.1-0.1c0-0.2,0-0.3,0-0.4c0-0.7,0.4-1.2,1-1.5  c0.6-3.6-0.9-5.4-2.5-7.4c-0.5-0.7-1-1.3-1.5-1.9c-0.5,0-1-0.1-1.4-0.1c-2.1,0-3,0.5-3.1,0.6c-0.4,0.4-1,0.5-1.8,0.4  c-0.1,0-0.2,0-0.3,0c-0.2,0.2-0.4,0.5-0.6,0.6c-0.3,0.3-0.6,0.7-0.8,0.8l-0.2,0.2c-1.4,1.1-1.4,1.1-2,2.7c-1.4,3.7,0.4,9.5,1.7,13.7  l0.5,1.6l-1.6-0.2c-2.5-0.4-4.2,0.2-5.9,0.8c-0.8,0.3-1.6,0.6-2.6,0.8c-0.3,0.6-0.8,1.1-1.1,1.6c-0.5,0.6-1,1.3-1,1.7  c0,0.6-0.2,1.3-1.1,1.5c-0.8,1.8-1.3,3.7-1.9,5.6c-0.2,0.8-0.5,1.6-0.7,2.4l-1.2,3.8l-0.8-3.9c-1.1-5.4-2.8-10.5-4.8-14.5  c-0.8-0.5-2.1-0.8-3.3-1c-2-0.4-4.1-0.8-5.2-2.5l-0.3-0.5l0.2-0.5c1.3-3,1.9-6.4,1.6-10.5l-0.1-1.1h2c0.4,0,0.7,0,1.1,0  c1.1,0,1.8-0.1,2-0.4c0.2-0.2,0.1-0.7,0.1-1c0.1-0.1-0.8-0.1-1.7,0c-1,0.1-2,0.2-2.6,0l-0.3-0.1l-0.2-0.3c-2.5-3.6-4.9-5.8-8.3-5.5  c-0.8,0.1-0.9,0.2-1.1,0.5c-0.2,0.3-0.4,0.6-0.9,1c-0.6,0.5-1.3,0.5-1.8,0.6c-0.4,0-0.5,0.1-0.6,0.1c-0.2,0.3-0.4,0.9-0.5,1.6  c-0.2,1.1-0.5,2.5-1.6,3.3c0.8,3.5,1.5,6.5,2.4,9.3l0.6,1.8l-1.8-0.5c-0.2-0.1-0.4-0.1-0.5-0.1c-0.2,0-0.4,0-0.5,1.1  c-0.1,0.5-0.1,0.9-0.4,1.2c-0.4,0.4-1,0.6-2.6,0.9c-0.5,0.1-0.9,0.1-1.1,0.2c-1.3,0.8-2.8,1.2-4.2,1.5c-0.3,0.1-0.5,0.1-0.8,0.2  c-3.5,3.5-5.9,9.6-6.2,16c0,0.6-0.3,1.1-0.9,1.5c-0.7,4.7-0.2,8,0.1,10.1c0.4,2.4,0.6,4.1,0.8,5c0.1,0.4,0.1,0.9,0,1.2  c0,0.1,0,0.2,0,0.3c0.1,0.1,0.3,0.3,0.5,0.4c0.6,0.5,0.9,0.8,1.1,1.2c0.5,0.9,0.7,1.8,1,2.6c0.2,0.6,0.4,1.2,0.6,1.4  c0.6,0.6,1,1.3,1.3,1.9c0.1,0.3,0.3,0.5,0.5,0.8c2,3.1,1.6,11,1.1,18.1l-0.1,1.1c-0.1,0.9-0.2,1.9-0.4,2.9c-0.2,1.1-0.4,2.3-0.4,3.4  c0.8,0.7,1.9,1.1,3.1,1.6c1.5,0.5,3.1,1.1,4.2,2.3l0.3,0.3v0.4c-0.2,2.3-0.1,4.4,0,6.5c0.1,2.2,0.2,4.3-0.1,6.2  c-0.1,0.7-0.3,1.1-0.5,1.5c-0.2,0.5-0.4,0.8-0.3,1.7c0,0.1,0,0.2,0.2,0.4c0.2,0.2,0.5,0.6,0.6,1.1c0.2,0.7,0.2,1.3,0.2,1.8  c0,0.7,0,0.8,0.3,1c0.5,0.5,0.5,1.2,0.4,1.9c0,0.2,0,0.3,0,0.4c1.3,4.4,2.1,8.9,2.5,13.6v0.3L53,314c-0.8,1.5-2.2,2.3-3.4,3.1  C48,318.1,46.7,318.9,46.4,320.6z M99.6,276c-0.2,0.9-0.3,1.9-0.4,2.9c-0.1,0.9-0.2,1.7-0.4,2.6c-0.2,0.9-0.4,1.9-0.6,2.9  c-0.5,2.1-0.9,4.2-1.1,6.3c-0.1,1.8-0.1,3.8,0,5.9c0,1.6,0.1,3.3,0,5c0.6-0.8,0.6-1.6,0.5-2.9c-0.1-0.7-0.1-1.4,0-2.2  c0.1-0.9,0.3-1.7,0.5-2.5c0.1-0.6,0.3-1.1,0.4-1.8c0-0.3,0-0.6,0-1c0-0.5-0.1-1.1,0-1.6c0.1-0.6,0.4-0.9,0.6-1.2  c0.2-0.2,0.2-0.3,0.2-0.5c0.1-0.7,0-1.6,0-2.5s-0.1-1.8,0-2.6c0.1-0.5,0.2-0.9,0.4-1.3c0.2-0.6,0.5-1.2,0.5-2.8  c0-0.8-0.2-1.6-0.4-2.5C99.7,276.1,99.6,276,99.6,276z M84.1,317.3l-1.9-0.8c-0.7-0.3-1.5-0.5-2.3-0.7c-1.3-0.4-2.7-0.8-3.9-1.4  l-0.5-0.2l-0.1-0.5c-0.1-0.7-0.5-1.1-1.2-1.8c-0.4-0.3-0.8-0.7-1.1-1.2l-0.2-0.2v-0.3c-0.3-4.3,0.1-8.5,0.4-12.5  c0.2-3,0.5-5.8,0.5-8.6c0-0.6-0.2-1.4-0.4-2.2c-0.2-0.9-0.4-1.9-0.5-2.8v-0.7c-0.1-1.8-0.2-3.9,1-5.7c0.6-1.6,2.3-1.9,3.6-2.2  c1.9-0.4,2.2-0.6,2.2-1.5c-0.6-3.4-0.8-7.4-1-11.3c-0.2-4.8-0.4-9.8-1.5-13.8L77,248l0.7-0.4c0.5-0.3,1-1.9,1.1-2.5l0.1-0.3  c0.3-0.9,0.6-2.8,0.8-3.8l0.2-1.3l0.2-2c0.1-1.7,0.2-3.4,0.1-5.2v-0.9l0.8-0.2c0.7-0.1,1.9-0.3,3.3-0.2l1.4,0.2l-0.5,1.3  c-0.5,1.2-1.2,2.2-1.8,3.2c-0.5,0.7-1,1.5-1.4,2.3l-0.9,1.7l0.5,0.7c0.2,0.4,0.3,0.5,0.3,0.7c0.6,2.5,0.1,4.7-0.3,6.2  s-0.5,2.1-0.1,2.4c0.9,0.7,0.3,1.7-0.1,2.3c-0.2,0.3-0.6,1.1-0.6,1.3c0.5,0.7,1.2,0.9,2.4,1.1c1.3,0.2,3.1,0.6,3.7,2.6  c1.4,8.6,2.6,18.2,0.8,24.2c-0.6,1.8-0.8,3.2-1.1,4.7c-0.2,0.9-0.3,1.8-0.6,2.8c-0.2,0.7-0.3,1.4-0.5,2c-0.7,2.7-1.3,5-1.2,7.8  c0,1.1,0.3,1.3,0.7,1.6c0.3,0.3,0.8,0.7,1,1.5c0.4,1.8,0.3,3.4,0.1,4.9c-0.2,1.2-0.3,2.4-0.1,3.6c0.5,1.9-0.6,2.7-1.2,3.1  c-0.4,0.3-0.4,0.3-0.4,0.5v0.8l-0.7,0.2c-0.2,0.1-0.3,0.1-0.3,0.1L84.1,317.3z M77.4,312.8c0.9,0.4,2,0.7,3.1,1  c0.4,0.1,0.8,0.2,1.2,0.3c0.2-0.3,0.5-0.6,0.9-0.8c0.2-0.8,0.8-1.2,1.2-1.4c0.5-0.3,0.5-0.3,0.4-0.9c-0.3-1.6-0.1-3,0-4.3  c0.2-1.4,0.3-2.7,0-4.1c0-0.2-0.1-0.3-0.4-0.5c-0.6-0.6-1.3-1.3-1.3-3.1c-0.1-3.1,0.5-5.7,1.2-8.4c0.2-0.7,0.3-1.3,0.5-2  c0.2-1,0.4-1.9,0.6-2.7c0.3-1.5,0.6-3,1.2-4.9c1.7-5.5,0.4-14.9-0.9-23.2c-0.2-0.6-0.6-0.7-2-1c-0.8-0.1-1.7-0.3-2.5-0.8  c0.2,2.1,0.3,4.3,0.4,6.5c0.2,3.8,0.3,7.7,0.9,11.1c0.1,2.9-2.3,3.4-3.8,3.7c-1.2,0.2-2,0.4-2.1,1l-0.1,0.3  c-0.9,1.3-0.8,2.9-0.7,4.5v0.7c0,0.7,0.2,1.6,0.4,2.4c0.2,0.9,0.4,1.8,0.4,2.7c0,2.9-0.2,5.8-0.5,8.8c-0.3,3.8-0.6,7.8-0.4,11.9  c0.2,0.2,0.4,0.4,0.7,0.6C76.3,310.9,77.1,311.6,77.4,312.8z"
   id="path4314" />
<path
   class="st2"
   d="M319.6,323.7c-2.8,0-5.7-0.2-8.5-0.5c-2.8-0.2-5.4-0.4-7.9-0.5c-2,0.5-4.5,0.7-8,0.7c-1.4,0-2.9,0-4.3-0.1  c-2.4-0.1-4.9-0.1-7.1,0c-1.2,0.5-2,0.1-2.4-0.2c-0.5-0.6-0.5-1.3-0.5-2c0-0.1,0-0.2,0-0.3l-0.6,0.1L280,320c0,0.1-0.2,0-0.9,0h-0.7  c-0.3,0-0.6,0-0.9,0l-0.9-0.1V319c0.6-19.6,0.3-40-0.8-56.1c-0.9-1-2.8-1.3-4.7-1.6c-2.3-0.4-4.7-0.7-6.1-2.4l-0.3-0.3l0.1-0.4  c0.2-2,1-3.3,1.8-4.6c0.7-1.2,1.4-2.3,1.6-3.8v-0.2c0.5-1.4,2-1.4,3-1.4c0.4,0,1,0,1.2-0.1c1.4-4.1-0.6-6.8-3-9.8  c-1.7-2.2-3.5-4.6-3.9-7.6c-0.2-1.8,0.3-3.6,0.9-5.5c0.3-1,0.6-2.1,0.8-3.2c0.2-1.2,0.3-2.3,0.4-3.5c0.1-1.3,0.2-2.7,0.5-4.1  c0.3-1.5,0.6-2.7,1-3.8c-0.3,0.1-0.6,0.3-0.8,0.4c-1.4,0.6-2.7,1.2-3.5,2c-3.7,9,0.6,21.7,2.6,27.8c1.1,2.5-0.9,3.9-2,4.6  c-0.3,0.2-0.6,0.4-0.7,0.5c-0.2,0.3-0.4,0.7-0.5,1.2c-0.2,0.7-0.5,1.7-1.5,2.3c1.1,3.2,0.5,6.4,0,9.4c-0.2,0.9-0.3,1.8-0.4,2.7  c-0.1,1.2-0.1,2.4,0,3.6c0.1,1.3,0.2,2.7,0,4c-0.3,1.8-0.8,3.3-1.4,4.8c-0.5,1.3-0.9,2.4-1.1,3.7c-0.6,3.1-0.6,6.2-0.6,9.5  c0,2.4,0,4.8-0.2,7.3c0,0.5-0.1,0.9-0.1,1.4c-0.1,1.5-0.2,3.1-0.7,5.5c-0.1,0.6-0.4,0.9-0.6,1.2c-0.2,0.2-0.2,0.3-0.2,0.4  c-0.2,1.2-0.1,2.5,0,3.9c0.1,2.4,0.2,4.9-0.9,7.4c-0.3,1.3,0,1.4,1.1,1.9c1,0.5,2.7,1.2,2.3,3.7c-1,4.3-5.9,4.3-8.8,4.3  c-0.6,0-1.1,0-1.7,0h-3.1l0.7-1.5c0.5-1.1,0.1-2-0.7-3.4c-0.5-0.9-0.9-1.7-1.1-2.7c-0.8-5.6,0.3-11.2,1.5-17.2  c1.1-5.6,2.2-11.3,1.9-17.5c-0.1-1.3-0.2-2.6-0.4-4.2c-0.4-3.7-0.8-8.2-0.6-13c-1,0.7-1.5,2.2-2,4.3c-0.3,1-0.6,2.1-1,3.1  c-0.2,0.5-0.7,0.9-1.2,1.3c-0.2,0.2-0.5,0.4-0.5,0.5c0.1-0.1,0.1,0.1,0.1,0.3c0,0.3,0.1,0.8,0,1.2c-0.1,0.6-0.4,1.1-0.8,1.7  c-0.3,0.5-0.7,1.1-0.9,1.8c0-0.1,0.1,0.1,0.1,0.2c0.1,0.7,0.2,1.4-0.4,1.9c-0.4,0.3-0.4,1.6-0.4,3c0,0.9,0,1.9-0.1,3.1  c-0.3,4.5-0.4,7.2,0,11.7c0.3,3.8,0.3,8.4,0,12c-0.1,1.7-0.6,3.3-1,4.8c-0.6,2.3-1.2,4.4-0.7,6.7l0.3,1.3h-2.5c-0.8,0-1.5,0-2.3,0  c-4.3,0-9.1-0.2-11.6-2.9l-0.2-0.2l-0.1-0.3c-0.3-1.2-0.1-2.2,0.4-3c0.7-1,1.8-1.3,2.9-1.5c0.1-1.4,1.1-2,1.7-2.5  c0.6-0.4,0.8-0.6,0.8-1v-2.8c-0.1-22.7-0.2-40.7,5.8-57.7c-1.6-2.5-2.2-4.9-3.1-8.7l-0.1-0.5c-0.1-0.5-0.6-1.2-1.2-1.8  c-0.4-0.5-0.8-1.1-1.2-1.8c-0.6,0.6-1.5,0.7-2,0.8c-0.3,0-0.7,0.1-0.8,0.2l0,0c0.5,1.1,0.5,1.8,0.5,2.7c0,0.7,0,1.4,0.3,2.4  c0,0.2,0.1,0.5,0.3,0.9c0.5,1.6,1.4,4.3,1.4,6.1c0,0.1,0,0.3,0,0.6c0.2,2.2,0.2,3-0.3,3.5c-0.3,0.3-0.6,0.5-0.8,0.7  c-0.4,0.3-0.5,0.3-0.6,1.3c-0.2,1.1-0.1,2.3,0,3.5c0.1,1,0.1,2.1,0.1,3.1c-0.2,3.7-0.8,7.8-1.3,11.8l-0.4,2.7  c-0.3,2.4-0.7,4.5-1.1,6.8c-0.2,1.1-0.4,2.2-0.6,3.4c0,0.1,0,0.3,0,0.5c0,0.4,0.1,0.8,0,1.2c-0.1,0.4-0.2,0.7-0.2,0.9  c0,0.2,0,0.3,0,0.4c0.1,0.3,0.1,0.8,0.3,1.7c0.2,1.4,0.1,3.1,0,5c-0.1,1.7-0.1,3.5,0,5.2c0.1,2.4-1.5,3.4-2.6,4.1  c-1,0.6-1.5,1-1.6,1.9c-0.3,2.3,0.1,3.9,0.4,5.6c0.4,1.8,0.7,3.7,0.4,6.2v0.4l-0.3,0.3c-0.9,0.8-1.9,1.2-3,1.2  c-0.9,0-1.8-0.2-2.7-0.5c-1.1-0.3-2.1-0.6-3.2-0.4l-0.5,0.1l-0.4-0.3c-0.7-0.7-1-1.3-0.9-2c0.1-1,0.9-1.5,1.6-1.9  c0.4-0.2,0.8-0.5,0.9-0.7c1.3-2,1.9-3.9,1.5-8.6v-0.2v-0.2c0.2-0.7,0.2-0.7-0.6-1c-0.7-0.3-1.7-0.7-1.9-1.9v-0.1v-0.1  c0.4-6.7-0.4-12.4-1.2-17.8c-0.3-2.1-0.6-4.2-0.8-6.4c-0.1,0.2-0.3,0.4-0.5,0.6c-0.3,0.2-0.2,0.9-0.1,1.6c0.1,1.1,0.3,2.5-0.8,3.4  c-0.3,0.3-1.2,2.4-1.3,3.6c-0.2,1.9-0.2,3.8-0.2,5.7c0.1,2.8,0.1,5.7-0.7,8.5c0.3,2.4-1.4,3-2.3,3.4c-0.9,0.4-1,0.5-1.1,0.8  l-0.1,0.3c-0.8,2.3-0.6,4.3-0.4,6.5c0.2,2.3,0.5,4.6-0.5,7l-0.2,0.4l-0.5,0.2c-0.9,0.3-2.1,0.5-3.5,0.5c-2.5,0-5.7-0.5-8.1-1.3  l-0.6-0.2l-0.1-0.7c-0.2-2.1,1.3-2.9,2.4-3.4c0.5-0.3,0.9-0.5,1.3-0.8c0.3-0.3,0.6-0.5,0.8-0.7c0.6-0.4,0.9-0.7,1.5-1.7  c0.1-0.5,0.3-0.9,0.6-1.1c-0.5-4.4-0.5-9.5-0.5-14.9c0-4.5,0.1-9.2-0.3-13.8c-0.1-1.9-0.5-3.8-0.9-5.6c-0.3-1.7-0.7-3.6-0.8-5.4  c-0.2-2.9,0-5.9,0.3-8.8c0.3-4,0.6-7.8-0.2-11.2c0-0.2-0.1-0.2-0.4-0.5c-0.7-0.6-1.3-1.3-1.3-3.2v-0.8l0.8-0.2  c0.2,0,0.3-0.1,0.1-1.5c-0.1-0.7-0.2-1.4,0-2c0.1-0.5,0.6-0.7,0.8-0.8c0.1-0.9,0.3-1.4,0.6-1.8c0.1-0.2,0.2-0.4,0.3-0.7  c0.3-1.8-0.5-2.3-2-3l-0.3-0.3c-0.6-0.7-0.8-1.6-1-2.5c-0.2-0.7-0.4-1.4-0.7-1.7l-0.3-0.3l0.1-0.4c0.4-2.6,0.5-5.5,0.7-8.2  c0.7-10.7,1.4-22.7,13.7-23c0,0,0-0.1,0.1-0.1c0-0.1-0.1-0.1-0.1-0.2c-0.1-0.4-0.3-0.7-0.5-1.1c-0.7-1.4-1.6-3.4-1.3-6.9  c0.3-2.7,1.7-4.8,3-6.7c0.5-0.8,1-1.5,1.3-2.1l0.4-0.8l0.9,0.3c0.7,0.3,1.5,0,2.3-0.3c0.7-0.3,1.4-0.6,2.2-0.6h0.3  c3.5,0.3,6.2,3.2,8.4,5.5l1,1.1l-0.1,0.5c-0.1,0.8-0.2,1.7-0.3,2.6c-0.4,3.4-0.8,6.9-2.6,9.1c1.1,0.9,2.6,1.5,4.1,2.1  s3.1,1.2,4.3,2.1l0.2,0.2c0.3,0.4,0.6,0.8,0.8,1.3v-0.1c0.1-0.9,0.2-1.9,0.3-2.8v-0.4l0.3-0.3c1.4-1.3,3-2,4.5-2.7  c1.1-0.5,2.2-1,3.2-1.6c0.7-0.5,1.3-1.2,1.9-1.9c1-1.1,2.1-2.4,3.7-3.1c0.1-0.9-0.3-1.2-1-1.8c-0.6-0.5-1.4-1.1-1.6-2.3v-0.2v-0.2  c0.2-1.4,0.1-2.6,0-3.9c-0.1-1.3-0.2-2.6,0.1-3.8c0.9-3.8,3.9-6.3,7.7-6.3c1.6,0,3.3,0.5,4.9,1.5c0.2,0.1,0.5,0.2,0.9,0.3  c1.1,0.3,2.3,0.8,2.3,2.8c1.9-0.1,3.3,0.5,4.5,1c1.1,0.4,2.1,0.8,3.4,0.8h0.6l0.5,0.4c2.7,3.9,6.9,6.4,12.3,8.9l0.7,0.3l-0.1,0.7  c-0.1,1.5,0.3,1.9,1,2.6c0.8,0.8,1.7,1.7,1.6,3.9c0.3-0.1,0.6-0.2,0.9-0.3c2.1-0.7,3.4-1.2,3.8-2.6c0.3-1.3-0.1-1.6-0.9-2.3  c-0.6-0.5-1.4-1.1-1.6-2.3c-0.3-3.1,0.1-5.3,0.5-7.5c0.1-0.7,0.3-1.4,0.4-2.2v-0.4l0.3-0.2c2.1-2,5.1-3.2,8-3.2c3,0,5.5,1.2,7,3.3  l0.3,0.4l-0.1,0.5c-0.4,1.8,0,3.3,0.4,4.8c0.3,1.2,0.6,2.3,0.5,3.5c-0.2,1.9-1,3.4-1.7,4.9c-0.8,1.5-1.5,3-1.6,4.8  c0.7,0.8,2.1,1.1,3.5,1.5c0.6,0.1,1.1,0.3,1.6,0.4l0.8,0.2v0.8c0,1,0.4,1.3,1,1.5l0.2,0.1l0.2,0.2c0.4,0.4,0.6,0.9,0.7,1.3  c0.1,0.2,0.1,0.4,0.2,0.6l-0.8,0.5l1-0.2c0,0.1,0.1,0.2,0.1,0.4c0.2,0.7,0.6,1.9,0.9,3.2c1.3-1.6,3-2.7,5.2-3.8  c-0.7-2.1,0-4.5,0.6-6.8c0.2-0.8,0.4-1.5,0.6-2.3c0.1-0.6,0.2-1.3,0.3-2c0.1-1,0.3-2.1,0.5-3.1c0.2-0.8,0.6-1.4,0.9-2  c0.4-0.7,0.7-1.3,0.8-2l0.1-0.7l0.7-0.2c1.2-0.3,2-0.6,2.8-1c1.4-0.6,2.5-1,4.3-0.8c1.3,0.2,5,1.6,5.1,4.3c0,0.1,0.3,0.2,0.5,0.3  c0.4,0.2,1,0.5,1.2,1.1c1.3,4.1-0.5,9.1-1.8,12.8c-0.2,0.6-0.4,1.2-0.6,1.7c0.7,0.2,1.1,0.8,1.5,1.4c0.7,1.1,1.3,1.8,2.5,1.9  l0.8,0.1l0.2,0.8c0.9,4.5,2.3,8.5,4.2,12.6c0.1-0.4,0.2-0.8,0.3-1.2c0.2-0.6,0.3-1.2,0.4-1.9c0.2-1.5,0.1-3.2,0-5  c-0.1-1.7-0.2-3.6,0-5.1l0.2-2.2l0.6,0.7c0-0.1,0-0.3,0-0.4c0-0.4,0-0.9,0-1.3v-0.9h0.9c0.3,0,0.4-0.1,0.8-1  c0.3-0.7,0.7-1.9,1.9-2.3c0.5-0.8,1.5-0.9,2.3-0.9c0.1-0.7,0.5-1.1,0.9-1.4c-0.2,0-0.3,0-0.5,0c-0.3,0-0.5,0-0.8,0  c-0.5,0-1.2-0.1-1.7-0.6c-0.2-0.3-0.5-0.7-0.4-1.4c0-0.4,0-1.1,0-1.7c0.1-2.5-0.1-3-0.7-3l-1.2-0.1l0.3-1.2c0.2-0.9,0.6-1.4,1-2  s0.8-1.1,0.7-2c-0.1,0-1,0-1.5,0c-1.1,0-2.3,0-3.1-0.9c-0.4-0.4-0.6-1-0.5-1.7c-0.2-0.8,0-1.5,0.4-2c0.8-1,2.1-0.9,3.2-0.9  c0.2,0,0.4,0,0.7,0c0.7,0,0.9-0.1,0.9-0.1l0.1-0.4l0.3-0.1c1.3-0.7,2.3-1.6,2.9-2.9l0.3-0.6h11l-0.1,1.1c0,0.3,0.6,0.6,1.1,1  c0.9,0.6,2.1,1.4,2.3,2.8c0.5,0.2,0.7,0.5,0.8,0.8c0.2,0.4,0.2,1.2,0.4,2.8c0.1,1.3,0.2,3.3,0.5,4c0.2,0.4,0.1,0.8,0,1.3  c0,0.1,0,0.2,0,0.3c1.1,1.2,0.9,3.4,0.3,5.3c0.6,0.6,1,1.3,1.4,1.9c0.2,0.3,0.4,0.6,0.6,0.9c0.3,0.1,0.7,0.2,1.1,0.2  c0.6,0.1,1.3,0.2,2.1,0.6c0.5,0.3,1,0.8,1.3,1.2c0.2,0.2,0.4,0.5,0.5,0.6c0.3,0.2,0.6,0.4,0.9,0.6c0.6,0.3,1.2,0.7,1.7,1.2  c1.5,1.4,1.7,1.7,1.9,1.9c0.3,0.5,0.2,1,0.1,1.5c0,0.1,0,0.2,0,0.2c0.7,0.8,1.1,2.4,1.7,5.3c0.3,1.4,0.5,2.9,0.7,4.5  c0.2,1.9,0.5,4,1,6.4c0,0.1,0.1,0.1,0.2,0.3c0.2,0.3,0.6,0.7,0.7,1.5c0.4,3.7,0.1,7.5-0.9,11.3c0,0.1,0,0.3,0,0.4  c0.1,0.4,0.1,0.9-0.1,1.4s-0.7,1-1.2,1.4c-0.2,0.1-0.5,0.4-0.5,0.5c-0.2,0.4-0.4,0.9-0.6,1.4c-0.4,1-0.9,2-1.6,2.7  c1.1,5.1-0.6,8.8-2.6,12.5c0.2,3.5-0.1,6.5-0.5,9.4c-0.4,3.1-0.7,6-0.4,9.7c0.2,0.7,0.1,1.5-0.3,2c-0.7,0.9-1.8,0.9-2.8,0.9  c-0.3,0-0.8,0-1.1,0.1c0,0.8,0,1.5,0,2.3c-0.1,1.7-0.1,3.5,0.6,4.2c1.2,1.2,0.2,3-0.4,4c-0.1,0.2-0.2,0.3-0.2,0.4l-0.3,1.6  c-0.5,2.9-1,6.3-2.3,9.5c-0.2,0.5-0.6,0.7-0.8,0.8c-0.2,0.9-0.5,1.7-0.8,2.4c-0.3,0.8-0.6,1.6-0.9,2.6c-0.2,0.6,0.5,2.9,1.2,3.8  c0.1,0,0.1,0,0.2,0c1-0.2,1.6,0.1,1.8,0.4c0.2,0.3,0.3,0.6,0.5,1c0.1,0.2,0.2,0.5,0.3,0.6c0.1,0,0.6,0.1,1.1,0.2  c1.5,0.3,4,0.9,4.3,3.8l0.1,0.8l-0.7,0.3c-1.8,0.7-4.9,1.1-8.4,1.1s-6.5-0.4-8.4-1.1l-0.4-0.2l-0.2-0.4c-0.8-1.9-0.1-3.9,0.6-6.1  c0.5-1.5,0.9-2.9,1-4.5c0.1-2.1-0.1-4.5-0.4-7.1c-0.3-2.8-0.6-5.6-0.4-8.1c0.1-1.7,0.5-3.3,0.8-4.7l0.2-1.1l0.7-0.3l0,0  c0.1-2.4-0.1-5.5-0.8-6.9c-0.3-0.7-0.8-0.9-1.8-1.4c-0.4-0.2-0.8-0.4-1.2-0.6c-0.4-0.2-0.6-0.6-0.7-0.9c-0.6,0.3-1.1,0.4-1.6,0.2  c-0.5,0.1-0.8,0.8-1,2.2c-0.1,0.5-0.2,1-0.3,1.4c-0.2,0.4-0.3,0.8-0.5,1.3c-0.8,2-1.7,4.1-1.1,7.5c0,0.2,0.1,0.3,0.2,0.5  c0.3,0.5,0.6,1.1,0.6,2.2c0,2.1-0.8,4-1.4,5.9c-0.5,1.2-0.9,2.4-1.1,3.6c-0.1,0.7-0.1,1.5,0,2.3c0.1,0.9,0.1,1.8,0,2.7  c-0.1,0.5-0.2,0.9-0.4,1.3c-0.3,0.6-0.5,1.1-0.4,1.9c0.1,1.4,0.7,2.7,1.3,4.1c0.9,2,1.8,4,1.2,6.4l-0.1,0.5l-0.5,0.2  c-1.4,0.5-3.5,1-5.5,1c-1.7,0-3.1-0.4-4-1.2l-0.4-0.4l0.1-1c0.7-6.2,1.3-11,0-16.9c-0.1-0.6-0.4-1.2-0.7-1.9c-0.4-1-0.9-2.1-1-3.2  c-0.5-4.6,0.1-8.7,0.8-12.6c0.4-2.5,0.8-5,0.9-7.6c-0.2,0-0.3,0-0.5,0.1c-0.5,0.1-1,0.1-1.4,0.1v0.1c-0.1,0.6-0.2,1.4-0.5,2.4  c-0.2,0.7-0.3,1.6-0.4,2.3c-0.1,1.1-0.2,2.1-0.5,2.8c-0.2,0.5-0.5,0.7-0.8,0.8c-0.1,0.8-0.6,1.4-1,1.8c-0.4,0.5-0.7,0.8-0.7,1.3  c0,0.7-0.5,1.1-0.7,1.4c-0.1,0.1-0.1,0.2-0.2,0.2c0.2,10.1,0.1,18.4-2.4,24.6c0.3,0.4,1.1,0.5,2.7,0.5s3.3,0.1,4.2,1.2  c0.5,0.6,0.7,1.5,0.6,2.6l-0.1,0.5l-0.5,0.2C327.1,323.1,323.9,323.7,319.6,323.7z M304.4,320.7c2.2,0.1,4.5,0.3,6.8,0.4  c2.8,0.2,5.6,0.5,8.3,0.5c3.7,0,6.5-0.5,8.7-1.4c0-0.2-0.1-0.3-0.1-0.4c-0.4-0.4-1.7-0.5-2.7-0.5c-1.8-0.1-4.3-0.1-4.8-2.4l-0.1-0.3  l0.1-0.3c2.5-5.8,2.6-14,2.4-24c-0.1-0.8,0.4-1.4,0.7-1.7c0.1-0.1,0.1-0.1,0.2-0.2c0-1,0.7-1.8,1.1-2.4c0.3-0.3,0.5-0.6,0.5-0.9  c0-0.5,0.2-1.2,1-1.5c0.1-0.5,0.2-1.3,0.3-2c0.1-0.9,0.2-1.7,0.4-2.6c0.2-1,0.3-1.6,0.4-2.2c0.1-0.7,0.2-1.2,0.4-2  c0.1-0.4,0.3-0.7,0.5-0.9l1.9-2l-0.2,3c0.2,0,0.3,0,0.5-0.1c1.2-0.2,2.1-0.1,2.6,0.5c0.3,0.4,0.4,0.9,0.3,1.5  c-0.1,2.8-0.5,5.4-0.9,7.9c-0.6,4-1.2,7.7-0.8,12c0.1,0.8,0.5,1.8,0.9,2.7c0.3,0.7,0.6,1.5,0.8,2.3c1.4,6.2,0.8,11.4,0.1,17.4  c1.4,0.7,4.6,0.3,6.4-0.3c0.2-1.5-0.5-2.9-1.2-4.5c-0.7-1.5-1.4-3-1.5-4.8c-0.1-1.3,0.3-2.2,0.6-2.8c0.1-0.3,0.2-0.5,0.3-0.8  c0.1-0.7,0-1.4,0-2.2c-0.1-0.9-0.2-1.9,0-2.9c0.2-1.3,0.7-2.6,1.2-3.9c0.6-1.7,1.3-3.5,1.3-5.2c0-0.5-0.1-0.8-0.3-1.1  c-0.2-0.3-0.4-0.7-0.5-1.2c-0.7-3.9,0.3-6.4,1.3-8.6c0.2-0.4,0.3-0.8,0.5-1.2c0.1-0.3,0.2-0.6,0.2-1c0.3-1.5,0.7-4.2,3.4-3.8h0.2  c0.1-0.1,0.4-0.3,0.5-0.4l0.7,0.6h0.1l0.1-1l1,0.1v0.2c0.4,0.3,0.7,0.8,0.6,1.6c0.3,0.2,0.5,0.3,0.8,0.4c1,0.5,2.1,1.1,2.7,2.4  c1.2,2.6,1,7.5,0.9,8.1c0,0.7-0.4,1.2-1,1.5l0,0c-0.3,1.3-0.6,2.9-0.7,4.4c-0.2,2.3,0.1,5,0.4,7.7c0.3,2.6,0.6,5.2,0.4,7.5  c-0.1,1.8-0.7,3.5-1.1,5c-0.5,1.6-1,3.1-0.7,4.2c1.7,0.5,4.3,0.8,7.2,0.8c2.7,0,5.1-0.3,6.8-0.7c-0.4-0.6-1.2-0.9-2.5-1.2  c-0.7-0.2-1.4-0.3-2-0.7c-0.4-0.3-0.6-0.8-0.9-1.4v-0.1c-0.8,0.1-1.4,0.1-1.8-0.3c-1.4-1.3-2.3-4.7-2-6.1c0.3-1.1,0.6-2,0.9-2.8  c0.3-0.7,0.6-1.5,0.8-2.2c0.2-0.8,0.7-1.1,1-1.3c1.1-2.9,1.6-5.9,2.1-8.8l0.3-1.7c0.1-0.3,0.2-0.5,0.4-0.9c0.2-0.3,0.7-1.3,0.7-1.6  c-1.3-1.3-1.2-3.5-1.1-5.7c0-0.9,0.1-1.7,0-2.5v-0.2l0.1-0.2c0.5-1.4,2.1-1.4,3.1-1.4c0.4,0,1,0,1.2-0.1c0,0,0-0.2-0.1-0.4  c-0.4-4,0-7.2,0.4-10.3c0.4-3,0.7-5.8,0.4-9.3v-0.3l0.2-0.3c2.1-3.7,3.7-7.1,2.4-11.9l0.1-0.5l0.6-0.4c0.6-0.4,1-1.3,1.5-2.3  c0.2-0.5,0.5-1,0.7-1.5c0.2-0.4,0.6-0.7,1-1c0.2-0.2,0.6-0.5,0.6-0.6l0,0c0,0-0.1-0.2-0.1-0.3c0-0.3-0.1-0.8,0-1.2  c0.9-3.6,1.2-7.1,0.8-10.6c0-0.2-0.1-0.2-0.2-0.4c-0.2-0.2-0.5-0.6-0.6-1.2c-0.5-2.5-0.8-4.7-1-6.6c-0.2-1.5-0.4-3-0.7-4.4  c-0.3-1.2-0.9-4.1-1.3-4.5c-0.6-0.5-0.5-1.3-0.4-1.8c0-0.1,0-0.2,0-0.2c-0.2-0.2-0.5-0.5-1.3-1.3c-0.4-0.4-0.9-0.7-1.4-1  c-0.4-0.2-0.7-0.4-1.1-0.7c-0.3-0.2-0.6-0.6-0.9-0.9c-0.2-0.2-0.5-0.6-0.7-0.7c-0.5-0.2-0.9-0.3-1.5-0.4c-0.5-0.1-1.2-0.2-1.8-0.4  l-0.3-0.1l-0.2-0.2c-0.3-0.4-0.6-0.8-0.8-1.3c-0.5-0.7-0.9-1.5-1.5-1.9l-0.7-0.5l0.3-0.7c0.8-2,0.7-3.5,0.3-3.9  c-0.6-0.5-0.5-1.2-0.4-1.9c0-0.2,0-0.3,0-0.4c-0.3-0.7-0.4-2.2-0.6-4.4c0-0.6-0.1-1.4-0.2-1.8c-0.6-0.2-0.9-0.7-1-1.5  c0-0.5-0.5-0.9-1.4-1.5c-0.6-0.4-1.4-1-1.8-1.8h-7.8c-0.8,1.3-1.9,2.3-3.2,3.1c-0.6,1.1-2.1,1.1-2.6,1.1c-0.2,0-0.5,0-0.7,0  s-0.5,0-0.7,0c-0.6,0-0.8,0.1-0.9,0.1c0,0,0,0.2,0.1,0.4v0.2v0.2c0,0.2,0,0.3,0,0.3c0.2,0.1,1,0.1,1.5,0.1c1.2,0,3.1,0,3.5,1.7  c0.1,1.8-0.5,2.7-1,3.4c-0.1,0.1-0.2,0.2-0.3,0.4c1.5,0.9,1.4,3.2,1.3,4.8c0,0.6,0,1.1,0,1.7c0.2,0,0.5,0,0.7,0c0.3,0,0.5,0,0.8,0  s1.3,0,1.9,0.8c0.6,0.9,0.1,2,0,2.3l-0.2,0.5l-0.5,0.1c-0.1,0.1-0.2,0.2-0.1,0.6l0.1,1l-1,0.1c-0.3,0-0.6,0-0.9,0.1  c-0.2,0-0.6,0-0.8,0.1l-0.1,0.7h-0.9c-0.3,0-0.4,0.1-0.8,1c-0.2,0.7-0.6,1.7-1.6,2.1c0,0.1,0,0.3,0,0.4c0,0.5,0,0.9,0,1.4  c0,0.7-0.4,1.2-0.9,1.5c-0.1,1.3,0,2.8,0.1,4.3c0.1,1.8,0.2,3.7,0,5.3c-0.1,0.9-0.3,1.6-0.5,2.3s-0.3,1.3-0.4,1.8  c0,0.6,0.2,1.3,0.4,2.1c0.2,0.7,0.4,1.5,0.4,2.3l0.2,3.2l-2-2.5c-0.7-0.8-1.1-1.8-1.5-2.8c-0.2-0.3-0.3-0.7-0.5-1  c-2.3-4.6-3.9-9-5-13.9c-1.8-0.4-2.7-1.8-3.3-2.7c-0.1-0.2-0.2-0.3-0.3-0.5l0,0c-0.2,0.2-0.6,0.4-1,0.4c-0.5,0-1.1-0.2-1.3-1.3  l-0.3-1.2l1.1-0.1v-0.1c0.2-0.7,0.5-1.4,0.8-2.2c1.2-3.3,2.8-7.9,1.8-11.3c-0.1,0-0.1-0.1-0.2-0.1c-0.5-0.3-1.5-0.8-1.6-2  c-0.1-1.3-2.5-2.3-3.3-2.4c-1.3-0.2-2.1,0.1-3.3,0.6c-0.7,0.3-1.4,0.6-2.4,0.9c-0.2,0.7-0.5,1.4-0.9,2c-0.3,0.6-0.6,1.1-0.7,1.6  c-0.2,0.9-0.4,1.8-0.5,2.8c-0.1,0.8-0.2,1.5-0.3,2.2c-0.2,0.8-0.4,1.6-0.6,2.4c-0.7,2.3-1.4,4.6-0.4,6.1l0.7,1l-1.1,0.5  c-3.5,1.6-5.7,3.1-6.7,5.9l-0.3,0.7l-0.2,0.9c-0.7,3.3-0.5,10,0.1,12.5c0.3,1.3,0.5,2.5,0.8,3.7c0.3,1.6,0.5,2.9,0.9,3.8  c0.1,0.4,0.1,0.7,0.1,1c0.3,0.1,0.7,0.3,0.8,0.8c0.4,1.7,0.7,3.8,0.9,5.6c0.3,1.8,0.5,3.5,0.8,4.5c0.6,2.4,0.6,3.3-0.1,4.2  c-0.1,0.6,0,2.3,0.1,2.7c0.1,0.7,0.3,1.4,0.5,2.2l0.3,1.1c0.4,1.4,1.2,2.7,1.4,2.9c0.7,0.7,0.7,1.7,0.7,2.4c0,0.3,0,0.8,0.1,0.9  c0.6,0.5,0.5,1.2,0.4,1.9c0,0.2,0,0.3,0,0.4c0.4,1,0.5,2.1,0.5,3.3c0,0.8,0.1,1.7,0.3,2.6c1,4.1,0.6,8.3,0,10.6  c-0.9,3.2-1.7,5.7-2.5,8.1c-0.3,1-0.6,1.9-0.9,2.9c-0.2,0.8-0.5,1.7-0.7,2.6c-0.7,2.7-1.2,4.3-1.8,5.2c0,0.1,0,0.2,0,0.3  c0.1,0.5,0.1,0.9,0,1.3c-0.8,2-1.4,3.9-1.6,5.7c-0.2,1.3-0.2,2.5-0.2,3.9c0,1.6,0,3.4-0.3,5.5l0,0L304.4,320.7L304.4,320.7z   M189.6,320.7c3.1,0.9,7,1.2,9,0.7c0.6-1.8,0.4-3.7,0.2-5.6c-0.2-2.3-0.5-4.6,0.4-7.2c0.2-1.6,1.5-2.1,2.4-2.5c1-0.4,1.2-0.5,1-1.3  v-0.2l0.1-0.2c0.8-2.6,0.7-5.3,0.6-8.1c0-2-0.1-4,0.2-6.1c0.2-1.2,1.1-4.1,2.1-4.9c0.2-0.2,0.1-0.9,0-1.6c-0.2-1.1-0.4-2.6,0.8-3.5  c0.3-0.3,0.1-2.2,0-3.2c-0.2-1.9-0.4-3.8,0.5-4.8c0.3-0.3,0.9-0.8,1.9-0.6l0.9,0.1v0.9c0,5.4,0.6,10.1,1.3,14.7  c0.8,5.5,1.6,11.2,1.2,18c0.1,0.1,0.3,0.2,0.6,0.3c0.8,0.3,2.4,1,1.9,3.3c0.4,5.2-0.4,7.4-1.9,9.7c-0.4,0.6-1,1-1.5,1.3  c-0.2,0.1-0.4,0.3-0.6,0.4c1.3,0,2.4,0.3,3.4,0.5c1.4,0.4,2.7,0.6,3.6,0c0.2-2-0.1-3.5-0.5-5.2c-0.4-1.8-0.7-3.7-0.4-6.2  c0.2-1.9,1.5-2.8,2.6-3.5s1.7-1.1,1.6-2.3c-0.1-1.8,0-3.6,0-5.4c0.1-1.8,0.1-3.4,0-4.6c-0.1-0.8-0.2-1.3-0.2-1.6  c-0.1-0.6-0.1-0.8,0.1-1.4c0.1-0.2,0.1-0.4,0.2-0.8c0-0.1,0-0.3,0-0.6c0-0.3-0.1-0.7,0-1.1c0.2-1.2,0.4-2.3,0.6-3.4  c0.4-2.2,0.8-4.4,1.1-6.7l0.4-2.7c0.5-3.9,1.1-8,1.3-11.6c0.1-0.9,0-1.9-0.1-2.9c-0.1-1.3-0.2-2.7,0.1-4c0.3-1.6,0.6-2,1.4-2.6  c0.1-0.1,0.3-0.2,0.4-0.3c0-0.5,0-1.6-0.1-2.1c0-0.3,0-0.6,0-0.7c0-1.5-0.9-4.1-1.3-5.5c-0.2-0.5-0.3-0.8-0.3-1  c-0.3-1.3-0.3-2.2-0.4-2.9c0-0.8,0-1.2-0.4-2l-0.1-0.3c-0.1-0.7,0-1.3,0.3-1.7c0.6-0.7,1.5-0.9,2.2-1c0.3,0,0.7-0.1,0.9-0.2l0.1-0.8  h0.7c0.1,0,0.3-0.1,0.4-0.2l1-0.6l0.5,1.1c0.4,0.9,1,1.7,1.6,2.5c0.7,0.9,1.3,1.7,1.5,2.6l0.1,0.5c1,3.8,1.5,6.1,3.1,8.5l0.3,0.4  l-0.2,0.5c-6.1,16.8-6,34.7-5.9,57.5v2.9c-0.2,1.5-1.1,2.1-1.7,2.5c-0.7,0.5-1,0.7-0.8,1.5l0.2,1l-1,0.2c-1.1,0.2-2.1,0.3-2.4,0.8  c-0.2,0.3-0.2,0.7-0.1,1.1c2.1,1.9,6.2,2,9.9,2c0.7,0,1.5,0,2.2,0c-0.2-2.3,0.4-4.4,0.9-6.5c0.4-1.4,0.8-2.9,1-4.4  c0.3-3.5,0.3-8,0-11.6c-0.4-5-0.3-8.1,0-12c0.1-1.1,0.1-2.1,0.1-2.9c0-1.9,0-3.3,0.8-4.3c0-0.1,0-0.2,0-0.3c-0.1-0.5-0.1-0.9,0-1.2  c0.3-0.9,0.7-1.6,1.1-2.1c0.3-0.4,0.5-0.8,0.6-1.1c0-0.1,0-0.3,0-0.4c-0.1-0.4-0.1-0.9,0.1-1.5c0.2-0.4,0.6-0.7,1.1-1.2  c0.2-0.2,0.6-0.5,0.7-0.6c0.3-0.8,0.6-1.7,0.8-2.7c0.7-2.6,1.5-5.9,5-6.3l1.3-0.2l-0.1,1.3c-0.4,5.2,0.1,10.2,0.5,14.2  c0.2,1.5,0.3,3,0.4,4.2c0.4,6.4-0.8,12.3-1.9,18c-1.1,5.8-2.2,11.3-1.5,16.5c0.1,0.6,0.5,1.3,0.9,2c0.6,1.1,1.3,2.4,1.2,3.8h0.1  c0.6,0,1.1,0,1.7,0c3.8,0,6.3-0.4,6.8-2.6c0.1-0.8-0.2-1-1.2-1.4c-1.1-0.5-3-1.4-2.2-4.5c0.9-2.1,0.8-4.3,0.8-6.6  c-0.1-1.4-0.1-2.8,0.1-4.2c0.1-0.8,0.4-1.2,0.7-1.5c0.1-0.2,0.2-0.2,0.2-0.3c0.5-2.2,0.6-3.7,0.7-5.2c0-0.5,0.1-0.9,0.1-1.4  c0.2-2.4,0.2-4.8,0.2-7.1c0-3.2,0-6.6,0.6-9.9c0.3-1.4,0.8-2.7,1.2-4c0.5-1.5,1.1-2.8,1.3-4.4c0.2-1.1,0.1-2.3,0-3.6  c-0.1-1.3-0.2-2.6,0-4c0.1-0.9,0.3-1.9,0.4-2.8c0.5-3.1,1.1-6.4-0.3-9.2l-0.7-1.4l1.5-0.1c0.6,0,0.7-0.1,1-1.2  c0.2-0.6,0.4-1.2,0.8-1.8c0.3-0.4,0.8-0.7,1.2-1c1.3-0.9,1.6-1.2,1.2-2.2c-2.2-6.5-6.7-19.8-2.5-29.5l0.2-0.3c1-1.1,2.6-1.8,4.2-2.6  c1-0.5,2.1-0.9,3.1-1.5c0-0.3,0-0.7,0.3-0.9c0.2-0.2,0.6-0.5,1.4-0.4h0.4l2.1-1.3l-0.9,1.5h0.3l-1.1,1.4c-0.2,0.2-0.3,0.4-0.4,0.6  l-0.2,0.3c-0.9,1.5-1.6,3.4-2.2,6.1c-0.3,1.3-0.4,2.6-0.4,3.9c-0.1,1.2-0.2,2.4-0.4,3.7c-0.2,1.2-0.6,2.3-0.9,3.5  c-0.5,1.7-1,3.3-0.8,4.7c0.3,2.4,1.8,4.5,3.5,6.6c2.3,3.1,5,6.6,3.3,11.5c-0.3,1.7-2.1,1.7-3.1,1.7c-0.3,0-0.9,0-1.1,0.1  c-0.3,1.8-1,3.1-1.8,4.4c-0.6,1-1.2,2-1.5,3.3c1,0.8,2.8,1.1,4.5,1.4c2.4,0.4,4.9,0.8,6.2,2.6l0.2,0.2v0.3  c1.1,15.9,1.4,36.1,0.9,55.6h0.4c0.6,0,1.9,0,2.6,0.8c0.3,0.1,0.6,0.3,0.7,0.4c0.5,0.6,0.5,1.3,0.5,2c0,0.1,0,0.2,0,0.3  c0.1,0,0.1,0,0.2-0.1l0.4-0.1c2.4-0.1,4.9-0.1,7.5,0c1.4,0,2.9,0.1,4.3,0.1c3.3,0,5.6-0.2,7.5-0.7c-0.1-0.1-0.3-0.2-0.5-0.4  c-0.3-0.2-0.6-0.4-0.9-0.7c-0.4-0.4-0.4-1-0.3-1.4h-0.1c-0.8,0.1-1.4,0.1-1.8-0.1c-0.5-0.3-1.3-0.4-2.1-0.6  c-1.7-0.3-3.6-0.7-4.3-2.5l-0.1-0.3l0.1-0.3c0.2-0.9,0.5-1.7,0.7-2.5c0.4-1.4,0.8-2.7,1-4.2s0.1-3,0-4.6c-0.1-1.8-0.2-3.7,0-5.5  c0.1-0.8,0.6-1.5,1-2.2c0.3-0.5,0.6-0.9,0.7-1.3c0.7-1.9,0.9-3.8,1.1-5.6c0.1-1.2,0.3-2.4,0.6-3.6l0.2-0.8h0.8  c0-0.3-0.1-0.7-0.1-0.9c-0.1-0.8-0.1-1.3,0-1.7c0.1-0.4,0.5-0.9,0.9-1.2c0.2-1.4,0.3-3,0.3-4.5c0.1-1.7,0.1-3.5,0.4-5.2  c0.3-1.6,0.8-3.1,1.3-4.6c0.5-1.6,1.1-3.1,1.2-4.6c0.2-2.2,0.1-4.3-0.1-6.5c-0.1-2.3-0.3-4.6,0-7.1c-0.7-0.5-0.7-1.4-0.7-2  c-0.3-0.1-0.6-0.3-0.8-0.8c-1.2-3.6-1.5-7.9-1.7-12.2l-0.1-1.6c-0.1-2.2-0.2-4.7,0-6.9c0.1-0.7,0.4-1.2,0.9-1.4c0-0.2,0-0.4-0.1-0.5  c-0.1-0.5-0.2-1.1,0-1.6l0.2-0.7h0.7c0-0.3-0.1-0.7-0.1-1c-0.1-0.7-0.1-1.2-0.1-1.5l0.2-0.8h1c0.1,0,0.1,0,0.2,0v-0.8  c0-1.9-0.9-4.7-1.2-5.8c-0.1-0.2-0.1-0.3-0.1-0.5c-0.2-0.3-0.3-0.6-0.3-0.8c-0.1-0.2-0.1-0.3-0.2-0.4c-1.2-0.5-1.9-1.4-2-2.6  c-0.3-0.1-0.6-0.1-0.8-0.2c-1.9-0.5-3.9-0.9-4.9-2.6l-0.2-0.3v-0.3c0-2.5,1-4.4,1.9-6c0.7-1.4,1.4-2.7,1.5-4.2  c0.1-0.8-0.2-1.8-0.4-2.8c-0.4-1.5-0.8-3.2-0.5-5.3c-1.2-1.4-3-2.1-5.1-2.1c-2.3,0-4.7,0.9-6.3,2.4c-0.1,0.6-0.2,1.3-0.3,1.9  c-0.4,2.1-0.8,4.1-0.5,6.8c0.1,0.3,0.4,0.6,0.9,1c0.9,0.7,2.2,1.8,1.6,4.4c-0.7,2.7-3.2,3.4-5.2,4.1c-0.8,0.3-1.5,0.5-2,0.8  l-2.1,1.3l0.4-2.3c0-0.2,0.1-0.4,0.1-0.6c0.3-2-0.3-2.6-1-3.3s-1.6-1.6-1.6-3.5c-4.3-2.1-9-4.6-12.1-8.9c-1.6-0.1-2.8-0.5-3.9-1  c-1.4-0.5-2.6-1.1-4.7-0.7l-1.5,0.2l0.3-1.4c0.3-1.5,0.2-1.5-0.6-1.8c-0.4-0.1-0.9-0.2-1.4-0.6c-1.2-0.8-2.5-1.2-3.8-1.2  c-2.8,0-5,1.9-5.6,4.7c-0.2,0.9-0.1,2,0,3.2s0.2,2.6,0.1,4.1c0.1,0.4,0.4,0.6,0.9,1c0.9,0.7,2.2,1.8,1.6,4.4l-0.1,0.6l-0.6,0.2  c-1.4,0.4-2.3,1.5-3.3,2.6c-0.7,0.8-1.4,1.6-2.3,2.3c-1.1,0.8-2.4,1.4-3.6,1.9c-1.3,0.6-2.6,1.1-3.7,2c-0.1,0.8-0.2,1.6-0.3,2.4  c-0.2,1.2-0.3,2.5-0.4,3.8l-0.5,4.8l-1.5-4.6c-0.6-1.7-1.2-3-2-4.1c-1-0.7-2.3-1.2-3.7-1.8c-2.1-0.8-4.2-1.6-5.6-3.4l-0.6-0.8  l0.8-0.6c1.9-1.6,2.3-5.1,2.7-8.5c0.1-0.7,0.2-1.5,0.3-2.2l-0.3-0.4c-1.9-2.1-4.4-4.6-7.1-4.9l0,0c-0.5,0-1,0.2-1.5,0.4  c-0.8,0.3-1.8,0.7-2.9,0.6c-0.3,0.5-0.7,1.1-1.1,1.7c-1.2,1.7-2.4,3.5-2.6,5.7c-0.3,3,0.4,4.5,1.1,5.8c0.1,0.3,0.3,0.6,0.4,0.8  c0.3,0.1,0.6,0.2,0.8,0.5c0.4,0.5,0.3,1.2,0.2,1.4c-0.1,0.4-0.3,0.6-0.6,0.7l0.5,0.9h-1.8H204c-10.8,0-11.4,10.2-12.1,21.1  c-0.2,2.7-0.3,5.4-0.7,8c0.4,0.6,0.6,1.4,0.8,2.1c0.2,0.6,0.3,1.2,0.6,1.6c1.4,0.7,3.3,1.9,2.8,5.2c-0.2,0.6-0.4,1-0.5,1.3  c-0.2,0.3-0.3,0.6-0.3,1.1c0,0.7-0.3,1.1-0.9,1.4c0,0.2,0.1,0.5,0.1,0.8c0.1,0.9,0.4,2.6-0.8,3.4c0.1,0.5,0.3,0.7,0.6,1  s0.8,0.7,1,1.5c0.9,3.7,0.6,7.9,0.3,11.9c-0.2,2.8-0.5,5.8-0.3,8.5c0.1,1.7,0.5,3.4,0.8,5.1c0.4,1.9,0.8,3.8,0.9,5.9  c0.3,4.7,0.3,9.4,0.3,13.9c0,5.7-0.1,11.1,0.6,15.5l0.2,1.5l-1.1-0.2c0,0.1-0.1,0.2-0.2,0.3c-0.8,1.2-1.4,1.7-2,2.2  c-0.2,0.2-0.4,0.3-0.7,0.6c-0.5,0.5-1.2,0.8-1.7,1.1C190.2,320.2,189.8,320.4,189.6,320.7z M301.6,316.2c0.2,0,0.7,0,1.1,0.4  c0-0.6,0-1.2,0-1.7c0-1.4,0-2.8,0.2-4.2c0.3-1.9,0.9-4,1.7-6.1c0,0.1-0.1-0.1-0.1-0.2c-0.1-0.7-0.2-1.4,0.4-1.9  c0.4-0.4,1.1-2.9,1.5-4.4c0.3-0.9,0.5-1.9,0.7-2.7c0.3-1,0.6-1.9,0.9-2.9c0.8-2.4,1.6-4.9,2.4-8c0.6-2.3,0.9-6.2,0-9.6  c-0.3-1.1-0.3-2.1-0.4-3c-0.1-1-0.1-1.9-0.4-2.8c-0.2-0.4-0.1-0.8,0-1.3c0-0.1,0-0.2,0-0.3c-0.6-0.7-0.6-1.6-0.5-2.3  c0-0.3,0-0.8-0.1-0.9c-0.5-0.5-1.5-2.1-2-3.8l-0.3-1c-0.3-0.9-0.4-1.6-0.6-2.4c0,0-0.5-3.5,0.3-4.3c0.1-0.2,0.2-0.6-0.3-2.4  c-0.3-1.1-0.5-2.8-0.8-4.7c-0.2-1.6-0.5-3.4-0.8-5c-0.6-0.3-0.9-0.8-1-1.5c0-0.1,0-0.3,0-0.4c0-0.1,0-0.2,0-0.2  c-0.4-0.9-0.7-2.4-1-4c-0.2-1.1-0.4-2.3-0.7-3.6c-0.3-1.3-0.5-3.6-0.6-6.1h-0.1c-0.2,2-0.1,4.4,0,6.4l0.1,1.6  c0.2,3.9,0.4,8,1.4,11.2c0.8,0.3,1,1,1,1.5c0,0.4,0,0.7,0.1,0.8l0.9,0.2l-0.2,0.8c-0.4,2.5-0.2,5,0,7.4c0.1,2.2,0.3,4.5,0,6.9  c-0.2,1.7-0.8,3.4-1.3,5.1c-0.5,1.4-1,2.8-1.2,4.3c-0.3,1.5-0.3,3.2-0.4,4.9c-0.1,1.8-0.1,3.6-0.4,5.3l-1-0.2l0,0l0.4,0.9  c-0.1,0.1-0.3,0.2-0.3,0.3l0,0c0,0,0.1,0.5,0.1,0.9c0.1,1.4,0.2,2.4-0.4,3l-0.3,0.2h-0.4c-0.2,0.8-0.2,1.7-0.3,2.5  c-0.2,1.8-0.4,3.9-1.2,6c-0.2,0.6-0.6,1.2-0.9,1.8c-0.3,0.5-0.7,1-0.7,1.4c-0.3,1.6-0.1,3.3,0,5.1c0.1,1.6,0.2,3.3,0,5s-0.6,3-1,4.5  c-0.2,0.6-0.4,1.3-0.6,2c0.5,0.6,1.6,0.8,2.7,1c0.9,0.2,1.8,0.4,2.5,0.7c0.1-0.1,0.3-0.1,0.6-0.1  C300.9,316.2,301.3,316.2,301.6,316.2z M265.7,201.1c-0.6,0-1.1-0.2-1.8-0.3c-0.5-0.1-1.1-0.3-1.6-0.3c-0.9,0-1.9,0-2.8,0  c-0.5,0-1.1,0-1.6,0c-2.5,0-5.3-0.2-6.5-2.2l-0.1-0.2v-0.2c-0.1-2.2,0.5-4.1,1-5.9c0.3-1,0.6-1.9,0.7-2.7c0-0.1-0.1-0.2-0.1-0.4  c-0.3-0.5-0.8-1.6,0.5-2.8l0.3-0.3h0.7c1.1,0,2,0.5,2.7,0.9c0.7,0.4,1.3,0.7,2.2,0.8c2.2,0.1,2.9,1,4,2.5c0.3,0.3,0.6,0.7,0.9,1.2  c0.4,0.5,1.2,1.2,1.7,1.7c0.7,0.7,0.9,0.8,1,1.1c0.4,1,0.2,2,0,2.7c-0.2,1.2-0.2,1.4,0.4,1.8l0.7,0.4l-0.2,0.8  C267.3,200.6,266.6,201.1,265.7,201.1z M261,198.4c0.5,0,1,0,1.4,0c0.7,0,1.4,0.2,2,0.4c0.1,0,0.2,0.1,0.3,0.1  c-0.4-0.9-0.2-1.8,0-2.5c0.1-0.5,0.2-1.1,0.1-1.5c-0.1-0.1-0.3-0.3-0.5-0.5c-0.6-0.5-1.4-1.3-1.9-1.9c-0.4-0.5-0.7-0.9-1-1.3  c-1.1-1.4-1.3-1.7-2.5-1.7c-1.4-0.1-2.3-0.6-3.1-1.1c-0.5-0.3-0.8-0.5-1.3-0.6l0,0c0.2,0.3,0.4,0.8,0.4,1.5c-0.1,1-0.4,2-0.8,3.1  c-0.5,1.5-1,3.1-0.9,4.8c0.7,0.9,2.8,1,4.6,1c0.5,0,1,0,1.5,0C260,198.4,260.5,198.4,261,198.4z"
   id="path4316" />
</svg>