<?xml version="1.0" encoding="UTF-8" standalone="no"?>
<!-- Generator: Adobe Illustrator 19.2.0, SVG Export Plug-In . SVG Version: 6.00 Build 0)  -->

<svg
   xmlns:dc="http://purl.org/dc/elements/1.1/"
   xmlns:cc="http://creativecommons.org/ns#"
   xmlns:rdf="http://www.w3.org/1999/02/22-rdf-syntax-ns#"
   xmlns:svg="http://www.w3.org/2000/svg"
   xmlns="http://www.w3.org/2000/svg"
   xmlns:sodipodi="http://sodipodi.sourceforge.net/DTD/sodipodi-0.dtd"
   xmlns:inkscape="http://www.inkscape.org/namespaces/inkscape"
   version="1.1"
   id="Layer_1"
   x="0px"
   y="0px"
   width="800px"
   height="450px"
   viewBox="0 0 800 450"
   style="enable-background:new 0 0 800 450;"
   xml:space="preserve"
   inkscape:version="0.48.3.1 r9886"
   sodipodi:docname="overlay__Location 1.svg"><metadata
   id="metadata3921"><rdf:RDF><cc:Work
       rdf:about=""><dc:format>image/svg+xml</dc:format><dc:type
         rdf:resource="http://purl.org/dc/dcmitype/StillImage" /></cc:Work></rdf:RDF></metadata><defs
   id="defs3919" /><sodipodi:namedview
   pagecolor="#ffffff"
   bordercolor="#666666"
   borderopacity="1"
   objecttolerance="10"
   gridtolerance="10"
   guidetolerance="10"
   inkscape:pageopacity="0"
   inkscape:pageshadow="2"
   inkscape:window-width="640"
   inkscape:window-height="480"
   id="namedview3917"
   showgrid="false"
   inkscape:zoom="0.405"
   inkscape:cx="400"
   inkscape:cy="225"
   inkscape:window-x="104"
   inkscape:window-y="24"
   inkscape:window-maximized="0"
   inkscape:current-layer="Layer_1" />
<style
   type="text/css"
   id="style3851">
	.st0{fill:none;stroke:#00A69C;stroke-width:3;stroke-miterlimit:10;}
	.st1{fill:none;stroke:#FAAF40;stroke-width:3;stroke-miterlimit:10;}
</style>
<polyline
   class="st0"
   points="458.1,242.3 434.2,243.2 434.2,190.4 468,193.2 466.1,233.2 "
   id="polyline3853" />
<polyline
   class="st0"
   points="519.1,258.3 541.6,260.5 541.6,226 507.3,226 507.3,234.3 "
   id="polyline3855" />
<polyline
   class="st0"
   points="504.2,232.2 504.2,62.6 323.2,-1.7 "
   id="polyline3857" />
<path
   class="st1"
   d="M491.1,226.6c0,0-0.3-3.2,0.3-7.5c0.5-4.3,2.2-6.9,1.7-11.5c-0.5-4.5-2.9-12.4-12.9-11  c-9.1,1.3-9.4,7.4-9.5,11.8c0,4.5,1.4,5.2,2.1,10c0.8,4.9,0.7,8.1,0.7,8.1"
   id="path3859" />
<path
   class="st1"
   d="M471.6,213c0,0-2.8-1.1-1.9,2s1.3,4.6,2.4,4.8"
   id="path3861" />
<path
   class="st1"
   d="M455,295.1c0.4-4.4-0.1-13.6,0.1-20.8c0.1-7.2,3.1-31.9,3.1-31.9s1.5-4,6.1-7.6c4.7-3.6,6-5.9,13.6-5.5  s12.4,1.3,15.2,0.7c2.7-0.7,2.9-2.7,11.1,2.3c8.3,4.9,12.7,12.6,12.7,13s2.4,12.6,2.7,17.6c0,0,1.3,11.8,1.9,16.2  c0.5,4.4-2.8,18-2.8,18l1.2,1.3c0,0-2.3,4.8-4.8,5.5s-10.8-2.1-11.1-3.6c-0.3-1.5,1.9-6.4,1.9-6.4h2.1c0,0,0.3-6.1-0.8-9.1  c-1.1-2.9-1.3,4.8-2.5,8.1c-1.2,3.3-2.5,8.1-2.5,8.1s-20.6,4.3-26.7,4s-6.6,0.2-6.6,0.2"
   id="path3863" />
<path
   class="st1"
   d="M473.2,253.3c1.2,5.7-1.1,18.6-1,27.2c0,8.7-2.7,22.2-2.7,22.2s-1.1,4-1.5,4.3"
   id="path3865" />
<path
   class="st1"
   d="M495.8,229c-0.1,0-2.6-3-2.6-3s-3,0.8-6.2,0.9c-6,0.1-13.5-0.3-13.5-0.3l-1.3,3.1"
   id="path3867" />
<path
   class="st1"
   d="M471.4,212.4c0,0,2.9,1.5,3.6,4.8c1.4,6.1,9.4,6.1,11.3,6.1s4.3-1.4,5.2-5.2c0,0,0.9,1.1,1.7,0  c0.7-1.1,2.7-8.1,0-7.6"
   id="path3869" />
<path
   class="st1"
   d="M463.6,301.6c0,0-6.8-6.5-8.6-6.5c-1.8,0-2.3,4.9-2.2,7.3c0.1,2.4,1.9,1.5,5.4,5.3c3.5,3.9,8.1,8.8,8.1,8.8  s4.2-4.7,3.2-7.6C468.5,306,463.6,301.6,463.6,301.6z"
   id="path3871" />
<line
   class="st1"
   x1="507.9"
   y1="293.7"
   x2="518.6"
   y2="296.9"
   id="line3873" />
<path
   class="st1"
   d="M455,305.8l-2.2,12c0,0,0.9,4.5,1.1,7"
   id="path3875" />
<path
   class="st1"
   d="M486.3,337.8c-0.3,0.4-1.2,13.1-1.1,16.8c0.1,3.7,0.6,24.2,1.4,29.4c0.7,5.2,5.2,36.9,5.2,36.9"
   id="path3877" />
<path
   class="st1"
   d="M470.3,413.5c0,0-5.1,0.7-8.5,0c-3.3-0.7-5.7,2.1-5.2,4.5s-0.5,4.7,5.5,8s15.6,8.9,21.5,8.9s7.1,0.4,8.9-2.8  c1.9-3.2-0.4-6.8-0.7-8.5"
   id="path3879" />
<path
   class="st1"
   d="M497,418.9c0,0,0.6,0.9,1.3,3.5c0.7,2.7,1.5,4.8-1.4,5.6c-2.6,0.7-3.6,0-3.6,0"
   id="path3881" />
<path
   class="st1"
   d="M506.5,284.2c0,0,1.7-8,1.7-18.7c0-7-0.8-16-0.8-16"
   id="path3883" />
<path
   class="st1"
   d="M503.5,328.7c2,0.3,8.3-5.4,8.9-9.4c0.5-4,0.9-10.4,2.7-15.6"
   id="path3885" />
<path
   class="st1"
   d="M507.9,302.5c-0.1,0.7-0.9,5.1-3.4,6"
   id="path3887" />
<path
   class="st1"
   d="M502.1,300.9c0,0,3.8,10,3.8,15.6s-2.4,12.2-2.4,12.2c-1.6,4.9-2.5,16.1-2.1,18.8s-2,9.7-1.3,18.2  c0.7,8.4-2.3,26.7-1.6,35.8c0.7,9.1-1.4,17.4-1.4,17.4c-2,2-5.2,2-5.2,2s0.5,1.7,0.1,2.6c-1.3,2.8-6.5,5.3-6.5,5.3s-7.5-2-9.9-4.9  s-6-12.3-6.3-13.9s-5.9-31.5-7.6-36.7s-7.1-32.2-7.2-32.9c-0.1-0.7-0.9-15.6-0.9-15.6s7.7-0.8,8.4-4.3c0.7-3.5,1.4-7.3,1.4-7.3"
   id="path3889" />
<path
   class="st1"
   d="M469.8,300.9c0,0,3.1,1.5,33.4-4"
   id="path3891" />
<line
   class="st0"
   x1="37.9"
   y1="430.5"
   x2="454.4"
   y2="346.9"
   id="line3893" />
<line
   class="st0"
   x1="502.1"
   y1="342.2"
   x2="798"
   y2="445.6"
   id="line3895" />
<polygon
   class="st0"
   points="257.1,266.9 79.2,278.9 79.2,148.3 257.1,164.1 "
   id="polygon3897" />
<polygon
   class="st0"
   points="312.4,211.5 291.6,211.5 291.6,165.1 312.4,168.3 "
   id="polygon3899" />
<polygon
   class="st0"
   points="312.4,259.3 291.6,261.3 291.6,219.7 312.4,219.7 "
   id="polygon3901" />
<polygon
   class="st0"
   points="412.6,245.3 341.3,249.5 341.3,183.6 412.6,187.2 "
   id="polygon3903" />
<polygon
   class="st0"
   points="745.9,220.1 632.9,217.8 636.9,143.9 752.1,127.9 "
   id="polygon3905" />
<polygon
   class="st0"
   points="744.7,300.9 625.9,286.1 629.1,226.5 752.1,228.9 "
   id="polygon3907" />
<polygon
   class="st0"
   points="603.1,218.6 561.8,218.6 561.8,160.1 605.3,154.1 "
   id="polygon3909" />
<polygon
   class="st0"
   points="600.3,288.5 559.8,283.1 559.8,226.5 602.1,226.5 "
   id="polygon3911" />
<polygon
   class="st0"
   points="541.6,217.8 513.3,217.8 513.3,176.3 541.6,173.9 "
   id="polygon3913" />
<line
   class="st0"
   x1="504.2"
   y1="62.6"
   x2="639.3"
   y2="-1.7"
   id="line3915" />
</svg>