<?xml version="1.0" encoding="UTF-8" standalone="no"?>
<!-- Generator: Adobe Illustrator 19.2.0, SVG Export Plug-In . SVG Version: 6.00 Build 0)  -->

<svg
   xmlns:dc="http://purl.org/dc/elements/1.1/"
   xmlns:cc="http://creativecommons.org/ns#"
   xmlns:rdf="http://www.w3.org/1999/02/22-rdf-syntax-ns#"
   xmlns:svg="http://www.w3.org/2000/svg"
   xmlns="http://www.w3.org/2000/svg"
   xmlns:sodipodi="http://sodipodi.sourceforge.net/DTD/sodipodi-0.dtd"
   xmlns:inkscape="http://www.inkscape.org/namespaces/inkscape"
   version="1.1"
   id="Layer_1"
   x="0px"
   y="0px"
   width="800px"
   height="450px"
   viewBox="0 0 800 450"
   style="enable-background:new 0 0 800 450;"
   xml:space="preserve"
   inkscape:version="0.48.3.1 r9886"
   sodipodi:docname="overlay__Location 4.svg"><metadata
   id="metadata4186"><rdf:RDF><cc:Work
       rdf:about=""><dc:format>image/svg+xml</dc:format><dc:type
         rdf:resource="http://purl.org/dc/dcmitype/StillImage" /></cc:Work></rdf:RDF></metadata><defs
   id="defs4184" /><sodipodi:namedview
   pagecolor="#ffffff"
   bordercolor="#666666"
   borderopacity="1"
   objecttolerance="10"
   gridtolerance="10"
   guidetolerance="10"
   inkscape:pageopacity="0"
   inkscape:pageshadow="2"
   inkscape:window-width="640"
   inkscape:window-height="480"
   id="namedview4182"
   showgrid="false"
   inkscape:zoom="0.405"
   inkscape:cx="400"
   inkscape:cy="225"
   inkscape:window-x="141"
   inkscape:window-y="24"
   inkscape:window-maximized="0"
   inkscape:current-layer="Layer_1" />
<style
   type="text/css"
   id="style3972">
	.st0{fill:#F1F2F2;stroke:#00A69C;stroke-miterlimit:10;}
</style>
<polygon
   class="st0"
   points="340.6,93.2 338.6,93.2 338.6,8.4 588.4,8.4 588.4,38.3 586.4,38.3 586.4,10.5 340.6,10.5 "
   id="polygon3974" />
<path
   class="st0"
   d="M111.7,302H0V69.1h111.7V302z M2.1,299.9h107.5V71.2H2.1V299.9z"
   id="path3976" />
<path
   class="st0"
   d="M71.7,112.8H51.1V78.9h20.6V112.8z M53.1,110.7h16.5V81H53.1V110.7z"
   id="path3978" />
<path
   class="st0"
   d="M48.5,112.8H27.9V78.9h20.6V112.8z M29.9,110.7h16.5V81H29.9V110.7z"
   id="path3980" />
<path
   class="st0"
   d="M25.3,112.8H4.6V78.9h20.6L25.3,112.8L25.3,112.8z M6.7,110.7h16.5V81H6.7V110.7z"
   id="path3982" />
<path
   class="st0"
   d="M71.7,148.6H51.1v-33.9h20.6V148.6z M53.1,146.5h16.5v-29.7H53.1V146.5z"
   id="path3984" />
<path
   class="st0"
   d="M48.5,148.6H27.9v-33.9h20.6V148.6z M29.9,146.5h16.5v-29.7H29.9V146.5z"
   id="path3986" />
<path
   class="st0"
   d="M25.3,148.6H4.6v-33.9h20.6L25.3,148.6L25.3,148.6z M6.7,146.5h16.5v-29.7H6.7V146.5z"
   id="path3988" />
<path
   class="st0"
   d="M71.7,184.5H51.1v-33.9h20.6V184.5z M53.1,182.4h16.5v-29.7H53.1V182.4z"
   id="path3990" />
<path
   class="st0"
   d="M48.5,184.5H27.9v-33.9h20.6V184.5z M29.9,182.4h16.5v-29.7H29.9V182.4z"
   id="path3992" />
<path
   class="st0"
   d="M25.3,184.5H4.6v-33.9h20.6L25.3,184.5L25.3,184.5z M6.7,182.4h16.5v-29.7H6.7V182.4z"
   id="path3994" />
<path
   class="st0"
   d="M71.7,220.3H51.1v-33.9h20.6V220.3z M53.1,218.2h16.5v-29.7H53.1V218.2z"
   id="path3996" />
<path
   class="st0"
   d="M94.9,112.8H74.2V78.9h20.6v33.9H94.9z M76.3,110.7h16.5V81H76.3V110.7z"
   id="path3998" />
<path
   class="st0"
   d="M94.9,148.6H74.2v-33.9h20.6v33.9H94.9z M76.3,146.5h16.5v-29.7H76.3V146.5z"
   id="path4000" />
<path
   class="st0"
   d="M94.9,184.5H74.2v-33.9h20.6v33.9H94.9z M76.3,182.4h16.5v-29.7H76.3V182.4z"
   id="path4002" />
<path
   class="st0"
   d="M94.9,220.3H74.2v-33.9h20.6v33.9H94.9z M76.3,218.2h16.5v-29.7H76.3V218.2z"
   id="path4004" />
<path
   class="st0"
   d="M48.5,220.3H27.9v-33.9h20.6V220.3z M29.9,218.2h16.5v-29.7H29.9V218.2z"
   id="path4006" />
<path
   class="st0"
   d="M25.3,220.3H4.6v-33.9h20.6L25.3,220.3L25.3,220.3z M6.7,218.2h16.5v-29.7H6.7V218.2z"
   id="path4008" />
<path
   class="st0"
   d="M52.8,302H0v-70.6h52.8V302z M2.1,299.9h48.6v-66.5H2.1V299.9z"
   id="path4010" />
<path
   class="st0"
   d="M306.2,302H109.6V-0.1h196.6V302z M111.7,299.9h192.5V2H111.7V299.9z"
   id="path4012" />
<path
   class="st0"
   d="M292.8,227.9H123V0.4h169.7L292.8,227.9L292.8,227.9z M125.1,225.9h165.6V2.4H125.1V225.9z"
   id="path4014" />
<rect
   x="178.9"
   y="0.9"
   class="st0"
   width="2.1"
   height="225"
   id="rect4016" />
<rect
   x="262.8"
   y="0.9"
   class="st0"
   width="2.1"
   height="225"
   id="rect4018" />
<rect
   x="206.9"
   y="0.9"
   class="st0"
   width="2.1"
   height="225"
   id="rect4020" />
<rect
   x="234.8"
   y="0.9"
   class="st0"
   width="2.1"
   height="225"
   id="rect4022" />
<rect
   x="151"
   y="0.9"
   class="st0"
   width="2.1"
   height="225"
   id="rect4024" />
<rect
   x="124.2"
   y="74.8"
   class="st0"
   width="167.4"
   height="2.1"
   id="rect4026" />
<rect
   x="124.2"
   y="187.6"
   class="st0"
   width="167.4"
   height="2.1"
   id="rect4028" />
<rect
   x="124.2"
   y="112.4"
   class="st0"
   width="167.4"
   height="2.1"
   id="rect4030" />
<rect
   x="124.2"
   y="150"
   class="st0"
   width="167.4"
   height="2.1"
   id="rect4032" />
<rect
   x="124.2"
   y="37.3"
   class="st0"
   width="167.4"
   height="2.1"
   id="rect4034" />
<path
   class="st0"
   d="M238.5,302h-57.9v-65h57.9V302z M182.6,299.9h53.8V239h-53.8V299.9z"
   id="path4036" />
<path
   class="st0"
   d="M172.4,288.7h-46.2V237h46.2V288.7z M128.3,286.7h42v-47.6h-42V286.7z"
   id="path4038" />
<path
   class="st0"
   d="M292.8,288.7h-46.2V237h46.2V288.7z M248.7,286.7h42v-47.6h-42L248.7,286.7L248.7,286.7z"
   id="path4040" />
<path
   class="st0"
   d="M798.5,302H622.9V-0.1h175.6V302z M625,299.9h171.5V2H625V299.9z"
   id="path4042" />
<path
   class="st0"
   d="M786.5,227.9H634.9V0.4h151.6V227.9z M637,225.9h147.5V2.4H637V225.9z"
   id="path4044" />
<rect
   x="684.8"
   y="0.9"
   class="st0"
   width="2.1"
   height="225"
   id="rect4046" />
<rect
   x="759.5"
   y="0.9"
   class="st0"
   width="2.1"
   height="225"
   id="rect4048" />
<rect
   x="709.7"
   y="0.9"
   class="st0"
   width="2.1"
   height="225"
   id="rect4050" />
<rect
   x="734.6"
   y="0.9"
   class="st0"
   width="2.1"
   height="225"
   id="rect4052" />
<rect
   x="659.8"
   y="0.9"
   class="st0"
   width="2.1"
   height="225"
   id="rect4054" />
<rect
   x="636.1"
   y="74.8"
   class="st0"
   width="149.3"
   height="2.1"
   id="rect4056" />
<rect
   x="636.1"
   y="187.6"
   class="st0"
   width="149.3"
   height="2.1"
   id="rect4058" />
<rect
   x="636.1"
   y="112.4"
   class="st0"
   width="149.3"
   height="2.1"
   id="rect4060" />
<rect
   x="636.1"
   y="150"
   class="st0"
   width="149.3"
   height="2.1"
   id="rect4062" />
<rect
   x="636.1"
   y="37.3"
   class="st0"
   width="149.3"
   height="2.1"
   id="rect4064" />
<path
   class="st0"
   d="M738.1,302h-51.9v-65h51.9V302z M688.3,299.9h47.8V239h-47.8V299.9z"
   id="path4066" />
<path
   class="st0"
   d="M679.2,288.7h-41.4V237h41.4V288.7z M639.9,286.7h37.3v-47.6h-37.3V286.7z"
   id="path4068" />
<path
   class="st0"
   d="M786.5,288.7h-41.4V237h41.4V288.7z M747.2,286.7h37.3v-47.6h-37.3V286.7z"
   id="path4070" />
<path
   class="st0"
   d="M425.6,302H304.1V92.1h121.5V302z M306.2,299.9h117.4V94.2H306.2V299.9z"
   id="path4072" />
<path
   class="st0"
   d="M417.3,131.2H314.8v-23.9h102.5V131.2z M316.9,129.1h98.4v-19.8h-98.4V129.1z"
   id="path4074" />
<path
   class="st0"
   d="M417.3,159.5H314.8v-23.9h102.5V159.5z M316.9,157.4h98.4v-19.8h-98.4V157.4z"
   id="path4076" />
<path
   class="st0"
   d="M417.3,187.8H314.8v-23.9h102.5V187.8z M316.9,185.7h98.4v-19.8h-98.4V185.7z"
   id="path4078" />
<path
   class="st0"
   d="M417.3,216.1H314.8v-23.9h102.5V216.1z M316.9,214h98.4v-19.8h-98.4V214z"
   id="path4080" />
<path
   class="st0"
   d="M417.3,244.4H314.8v-23.9h102.5V244.4z M316.9,242.4h98.4v-19.8h-98.4V242.4z"
   id="path4082" />
<path
   class="st0"
   d="M380.3,302h-30.9v-49.2h30.9V302z M351.5,299.9h26.8v-45.1h-26.8V299.9z"
   id="path4084" />
<path
   class="st0"
   d="M625,302H423.2V37.3H625V302z M425.2,299.9h197.7V39.3H425.2V299.9z"
   id="path4086" />
<path
   class="st0"
   d="M499.7,86.7h-20.6V52.8h20.6V86.7z M481.1,84.6h16.5V54.9h-16.5V84.6z"
   id="path4088" />
<path
   class="st0"
   d="M476.5,86.7h-20.6V52.8h20.6V86.7z M457.9,84.6h16.5V54.9h-16.5V84.6z"
   id="path4090" />
<path
   class="st0"
   d="M453.3,86.7h-20.6V52.8h20.6V86.7z M434.7,84.6h16.5V54.9h-16.5V84.6z"
   id="path4092" />
<path
   class="st0"
   d="M499.7,122.5h-20.6V88.7h20.6V122.5z M481.1,120.5h16.5V90.7h-16.5V120.5z"
   id="path4094" />
<path
   class="st0"
   d="M476.5,122.5h-20.6V88.7h20.6V122.5z M457.9,120.5h16.5V90.7h-16.5V120.5z"
   id="path4096" />
<path
   class="st0"
   d="M453.3,122.5h-20.6V88.7h20.6V122.5z M434.7,120.5h16.5V90.7h-16.5V120.5z"
   id="path4098" />
<path
   class="st0"
   d="M499.7,158.4h-20.6v-33.9h20.6V158.4z M481.1,156.3h16.5v-29.7h-16.5V156.3z"
   id="path4100" />
<path
   class="st0"
   d="M476.5,158.4h-20.6v-33.9h20.6V158.4z M457.9,156.3h16.5v-29.7h-16.5V156.3z"
   id="path4102" />
<path
   class="st0"
   d="M453.3,158.4h-20.6v-33.9h20.6V158.4z M434.7,156.3h16.5v-29.7h-16.5V156.3z"
   id="path4104" />
<path
   class="st0"
   d="M499.7,194.2h-20.6v-33.9h20.6V194.2z M481.1,192.2h16.5v-29.7h-16.5V192.2z"
   id="path4106" />
<path
   class="st0"
   d="M522.9,86.7h-20.6V52.8h20.6V86.7z M504.3,84.6h16.5V54.9h-16.5V84.6z"
   id="path4108" />
<path
   class="st0"
   d="M522.9,122.5h-20.6V88.7h20.6V122.5z M504.3,120.5h16.5V90.7h-16.5V120.5z"
   id="path4110" />
<path
   class="st0"
   d="M522.9,158.4h-20.6v-33.9h20.6V158.4z M504.3,156.3h16.5v-29.7h-16.5V156.3z"
   id="path4112" />
<path
   class="st0"
   d="M522.9,194.2h-20.6v-33.9h20.6V194.2z M504.3,192.2h16.5v-29.7h-16.5V192.2z"
   id="path4114" />
<path
   class="st0"
   d="M476.5,194.2h-20.6v-33.9h20.6V194.2z M457.9,192.2h16.5v-29.7h-16.5V192.2z"
   id="path4116" />
<path
   class="st0"
   d="M453.3,194.2h-20.6v-33.9h20.6V194.2z M434.7,192.2h16.5v-29.7h-16.5V192.2z"
   id="path4118" />
<path
   class="st0"
   d="M592.8,86.7h-20.6V52.8h20.6V86.7z M574.2,84.6h16.5V54.9h-16.5V84.6z"
   id="path4120" />
<path
   class="st0"
   d="M569.5,86.7h-20.6V52.8h20.6V86.7z M551,84.6h16.5V54.9H551V84.6z"
   id="path4122" />
<path
   class="st0"
   d="M546.3,86.7h-20.6V52.8h20.6V86.7z M527.8,84.6h16.5V54.9h-16.5V84.6z"
   id="path4124" />
<path
   class="st0"
   d="M592.8,122.5h-20.6V88.7h20.6V122.5z M574.2,120.5h16.5V90.7h-16.5V120.5z"
   id="path4126" />
<path
   class="st0"
   d="M569.5,122.5h-20.6V88.7h20.6V122.5z M551,120.5h16.5V90.7H551V120.5z"
   id="path4128" />
<path
   class="st0"
   d="M546.3,122.5h-20.6V88.7h20.6V122.5z M527.8,120.5h16.5V90.7h-16.5V120.5z"
   id="path4130" />
<path
   class="st0"
   d="M592.8,158.4h-20.6v-33.9h20.6V158.4z M574.2,156.3h16.5v-29.7h-16.5V156.3z"
   id="path4132" />
<path
   class="st0"
   d="M569.5,158.4h-20.6v-33.9h20.6V158.4z M551,156.3h16.5v-29.7H551V156.3z"
   id="path4134" />
<path
   class="st0"
   d="M546.3,158.4h-20.6v-33.9h20.6V158.4z M527.8,156.3h16.5v-29.7h-16.5V156.3z"
   id="path4136" />
<path
   class="st0"
   d="M592.8,194.2h-20.6v-33.9h20.6V194.2z M574.2,192.2h16.5v-29.7h-16.5V192.2z"
   id="path4138" />
<path
   class="st0"
   d="M615.9,86.7h-20.6V52.8h20.6V86.7z M597.4,84.6h16.5V54.9h-16.5V84.6z"
   id="path4140" />
<path
   class="st0"
   d="M615.9,122.5h-20.6V88.7h20.6V122.5z M597.4,120.5h16.5V90.7h-16.5V120.5z"
   id="path4142" />
<path
   class="st0"
   d="M615.9,158.4h-20.6v-33.9h20.6V158.4z M597.4,156.3h16.5v-29.7h-16.5V156.3z"
   id="path4144" />
<path
   class="st0"
   d="M615.9,194.2h-20.6v-33.9h20.6V194.2z M597.4,192.2h16.5v-29.7h-16.5V192.2z"
   id="path4146" />
<path
   class="st0"
   d="M569.5,194.2h-20.6v-33.9h20.6V194.2z M551,192.2h16.5v-29.7H551V192.2z"
   id="path4148" />
<path
   class="st0"
   d="M546.3,194.2h-20.6v-33.9h20.6V194.2z M527.8,192.2h16.5v-29.7h-16.5V192.2z"
   id="path4150" />
<path
   class="st0"
   d="M499.7,232h-20.6v-33.9h20.6V232z M481.1,230h16.5v-29.7h-16.5V230z"
   id="path4152" />
<path
   class="st0"
   d="M522.9,232h-20.6v-33.9h20.6V232z M504.3,230h16.5v-29.7h-16.5V230z"
   id="path4154" />
<path
   class="st0"
   d="M476.5,232h-20.6v-33.9h20.6V232z M457.9,230h16.5v-29.7h-16.5V230z"
   id="path4156" />
<path
   class="st0"
   d="M453.3,232h-20.6v-33.9h20.6V232z M434.7,230h16.5v-29.7h-16.5V230z"
   id="path4158" />
<path
   class="st0"
   d="M592.8,232h-20.6v-33.9h20.6V232z M574.2,230h16.5v-29.7h-16.5V230z"
   id="path4160" />
<path
   class="st0"
   d="M615.9,232h-20.6v-33.9h20.6V232z M597.4,230h16.5v-29.7h-16.5V230z"
   id="path4162" />
<path
   class="st0"
   d="M569.5,232h-20.6v-33.9h20.6V232z M551,230h16.5v-29.7H551V230z"
   id="path4164" />
<path
   class="st0"
   d="M592.8,270.7h-20.6v-33.9h20.6V270.7z M574.2,268.7h16.5V239h-16.5V268.7z"
   id="path4166" />
<path
   class="st0"
   d="M615.9,270.7h-20.6v-33.9h20.6V270.7z M597.4,268.7h16.5V239h-16.5V268.7z"
   id="path4168" />
<path
   class="st0"
   d="M569.5,270.7h-20.6v-33.9h20.6V270.7z M551,268.7h16.5V239H551V268.7z"
   id="path4170" />
<path
   class="st0"
   d="M476.5,270.7h-20.6v-33.9h20.6V270.7z M458,268.7h16.5V239H458V268.7z"
   id="path4172" />
<path
   class="st0"
   d="M499.7,270.7h-20.6v-33.9h20.6V270.7z M481.1,268.7h16.5V239h-16.5V268.7z"
   id="path4174" />
<path
   class="st0"
   d="M453.3,270.7h-20.6v-33.9h20.6V270.7z M434.7,268.7h16.5V239h-16.5V268.7z"
   id="path4176" />
<path
   class="st0"
   d="M546.3,232h-20.6v-33.9h20.6V232z M527.8,230h16.5v-29.7h-16.5V230z"
   id="path4178" />
<path
   class="st0"
   d="M546.3,302h-44.1v-65h44.1V302z M504.3,299.9h40V239h-40V299.9z"
   id="path4180" />
</svg>