<?xml version="1.0" encoding="UTF-8" standalone="no"?>
<!-- Generator: Adobe Illustrator 19.2.0, SVG Export Plug-In . SVG Version: 6.00 Build 0)  -->

<svg
   xmlns:dc="http://purl.org/dc/elements/1.1/"
   xmlns:cc="http://creativecommons.org/ns#"
   xmlns:rdf="http://www.w3.org/1999/02/22-rdf-syntax-ns#"
   xmlns:svg="http://www.w3.org/2000/svg"
   xmlns="http://www.w3.org/2000/svg"
   xmlns:sodipodi="http://sodipodi.sourceforge.net/DTD/sodipodi-0.dtd"
   xmlns:inkscape="http://www.inkscape.org/namespaces/inkscape"
   version="1.1"
   id="Layer_1"
   x="0px"
   y="0px"
   width="800px"
   height="450px"
   viewBox="0 0 800 450"
   style="enable-background:new 0 0 800 450;"
   xml:space="preserve"
   inkscape:version="0.48.3.1 r9886"
   sodipodi:docname="overlay__Action 2.svg"><metadata
   id="metadata3081"><rdf:RDF><cc:Work
       rdf:about=""><dc:format>image/svg+xml</dc:format><dc:type
         rdf:resource="http://purl.org/dc/dcmitype/StillImage" /></cc:Work></rdf:RDF></metadata><defs
   id="defs3079" /><sodipodi:namedview
   pagecolor="#ffffff"
   bordercolor="#666666"
   borderopacity="1"
   objecttolerance="10"
   gridtolerance="10"
   guidetolerance="10"
   inkscape:pageopacity="0"
   inkscape:pageshadow="2"
   inkscape:window-width="640"
   inkscape:window-height="480"
   id="namedview3077"
   showgrid="false"
   inkscape:zoom="0.405"
   inkscape:cx="400"
   inkscape:cy="225"
   inkscape:window-x="305"
   inkscape:window-y="24"
   inkscape:window-maximized="0"
   inkscape:current-layer="Layer_1" />
<style
   type="text/css"
   id="style3019">
	.st0{fill:none;stroke:#FAAF40;stroke-width:3;stroke-miterlimit:10;}
	.st1{fill:none;stroke:#00A69C;stroke-width:3;stroke-miterlimit:10;}
</style>
<path
   class="st0"
   d="M481.3,145.6c0,0,0.7-5.9,6.6-7.6c5.9-1.7,6.9,3.5,6.2,7.3c-0.7,3.8-3.5,9.3-6.6,14.9c-3.1,5.5-7.6,3.5-7.6,3.5  c-6.6,20.1-29.8,30.5-43.3,30.5c-8.3,0-12.8-7.3-13.5-13.5s-7.3-16.6-8.7-26.7c-1.4-10,1.4-12.5,2.1-20.4c0.7-8,6.6-25.6,6.6-25.6  s5.9-11.1,17.7-12.8c11.8-1.7,17.7,0.7,26.7,5.2C476.4,104.8,485.5,121.4,481.3,145.6z"
   id="path3021" />
<path
   class="st0"
   d="M418.7,122.9c0,0,1.7-12.2,3.4-17.8c1.7-5.5-1-3.5,6.6-10.6s17.7-11.9,22.8-12.6c5.2-0.7,17,0.7,23.5,4.5  c6.6,3.8,12.5,4.8,13.8,15.9c1.4,11.1,9,11.3,5.4,20.6c-3.6,9.2-3.6,9.2-3.6,9.2s7.7,2.6,3.5,13.2"
   id="path3023" />
<path
   class="st0"
   d="M475.6,172.4c2.3,6.4,8.4,11.6,19.7,14.4c11.5,2.8,36.8,4.5,36.8,4.5s12.1,1,15.2,9c3.1,8,17.7,53,21.5,63.7  s3.8,10.7,3.8,10.7s-20.8-3.1-31.5,0s-15.7,8.3-17,11.4s-7.9-26-11-35.3"
   id="path3025" />
<path
   class="st0"
   d="M423.5,182.6c-0.1-0.3-13.9,2.1-24.2,4.2c-10.4,2.1-21.8-0.7-26,5.2s-22.5,37-27.3,43.3  c-4.8,6.2-17.7,17.3-13.5,17s10-0.3,17.7,3.1c7.6,3.5,20.1,13.5,20.4,17s-2.8,7.3-2.8,7.3s8.4-0.5,14.7-8c3.8-4.5,0.5,7.6,0.1,16.6  c-0.2,5.1-0.5,8.5-0.5,8.5"
   id="path3027" />
<path
   class="st0"
   d="M332.4,252.3c0,0-19,24.9-25.6,31.9c-6.6,6.9-11.1,18.3-10.7,22.2c0.3,3.8,6.9,11.1,18.2,15.2  c11.3,4.2,35.5,1.7,44.8,2.4"
   id="path3029" />
<path
   class="st0"
   d="M367.7,279.6c0,0-12.1,15.9-17.3,19"
   id="path3031" />
<path
   class="st0"
   d="M353.6,319.9c0,0,4.4,3.2,7.2,5.7c2.8,2.4,11.7,8.9,17,9.8s8,1.3,8,1.3l1.6,0.6c0,0-2.1,0.5-0.9,2.1  s5.9,0.2,10,1.5c4.2,1.3,8.2,2.3,11.8,3.2c3.6,0.9,6.7,1.4,9-0.7c0,0,16,0.6,21.7-1s7.6-3.2,11.1-3.7s10.2-1.4,15.2-0.9  c5.1,0.5,38.8,1.8,43.5,1.7c4.7-0.1,19.5,0,34.2-0.7s25.6,4.1,30.7,0.9c5.1-3.2,7.2-18.5,4-32.3c-3.1-13.8-5.8-28.4-7.9-32.9"
   id="path3033" />
<path
   class="st0"
   d="M524.3,285.8c0,0,3.1,11.8,10.4,18.6"
   id="path3035" />
<path
   class="st0"
   d="M554.5,303.6c0,0-6.1-1.4-25.7,2.2c-19.6,3.6-43,4.5-58.4,4.7c-15.3,0.2-20.3-1.2-27.1-2.8  c-6.8-1.6-14.4-3.3-14.4-3.3l-2.4-1.1c0,0,3.3-0.9,3.1-2.4c-0.2-1.5-2-1.8-11.4-2c0,0-5.3-2.9-14.8-2.9c0,0-1.2-5-3.3-5  c-2.2,0-2.7,4.8-2.7,4.8s-4.1,0.6-10.1,0.7s-13.6,2-13.6,2s-21,4.5-30.1-3.8c-13.3-12.1-30.5-9.9-30.5-9.9"
   id="path3037" />
<path
   class="st0"
   d="M407.5,326.1c0,0,8.1,5.5,11.8,7.3c3.7,1.8,5.3,4.2,4.8,6c-0.6,1.8-0.1,3.7-9.1,0s-24.9-10.9-24.9-10.9"
   id="path3039" />
<path
   class="st0"
   d="M394.1,330.4c0,0-2.1,0.9-8.3,0c-6.2-0.9-8.3-1.7-11.3,0.4s9.9,5.6,12.8,6.4s14,2.2,19.7,0"
   id="path3041" />
<path
   class="st0"
   d="M396.2,338.4c0,0,4,3.5,8,4.6"
   id="path3043" />
<path
   class="st0"
   d="M418.1,299l8.3,4.4c8.6,4.3,5.5,6.2,5.5,6.2c-9.5,2.2-15.7-3-20.1-5.2s-9.5-2.9-9.5-2.9s-14.8-0.5-21.7,1.2  c-6.9,1.6-5.8,5.3,0,5.3s18,0.4,22.9,1.6c4.8,1.2,13.8,7.2,13.8,7.2s9.2,4.6,11.1,7.2c1.8,2.7-0.8,5.9-5.7,3.8  c-4.9-2.1-20.4-11.3-26.2-10.6c-5.8,0.7-9,1.2-12.5,0.2c-3.5-0.9-7.2,0.2-8.2,1.4c-1,1.2,3.8,5.8,14.2,6.7  c10.4,0.9,15.5,0.5,20.3,0.5"
   id="path3045" />
<path
   class="st0"
   d="M397.3,296c0,0,3,0.1,6.1,0.2"
   id="path3047" />
<path
   class="st0"
   d="M423.5,182.6c0,0-7.4,9.5,0,23.1c11.1,20.3,70.8,5.1,61-23.2"
   id="path3049" />
<path
   class="st0"
   d="M143.3,233.6c0,3.1-4.5,21.6,8.5,36.3"
   id="path3051" />
<path
   class="st0"
   d="M0,265.8c0,0,21.2-4.6,35.5-6s34.2,0,34.2,0c-13.3,8.2,12.5,14.6,12.5,14.6s30,8.5,69.7-4.5  c0,0,6.5-0.7,16.6,3.6c10.2,4.3,30.9,11,37.9,12.9c6.9,2,29.5,60.1,34.2,76.3c4.6,16.2,29.1,85.9,29.1,85.9"
   id="path3053" />
<path
   class="st0"
   d="M142.2,244.8c0,0,6.3-2.8,14.2-6c9.1-3.7,9.2-7.7,11.5-15.3s13.8-13.1,16.2-32c0,0-1.7-10.2,0-13.4  c1.7-3.3,5.1-15.2,5.1-15.2"
   id="path3055" />
<path
   class="st0"
   d="M72.6,232.1c3.3,12.7,1,26.2-2.9,27.7"
   id="path3057" />
<path
   class="st0"
   d="M150.6,195.6c-19.1,3.3-23.8,14.2-25.5,19.5c-6.7,21.7-22.2,22.1-30.6,22.1c-14.8,0-19.4-3.6-19.4-3.6  s-9-3.3-9-15.5s-1.7-29.5-7.3-41.3c-5.5-11.8-8.2-29.2-8.2-29.2c0.5-49.4,48.5-66.1,62.8-65.8s35.7,1.4,60.2,20.3  c16,4.1,26,19.3,24.1,35.5c-1.8,16.2-2.8,24.3-8.6,25.3c-5.7,1-8.3,0.5-22.6,16.6"
   id="path3059" />
<path
   class="st0"
   d="M166.6,179.5c0,0-0.3-6.9-10.2-7s-10.1,6.1-9.2,13.5c0.9,7.4,5.5,10.6,4.6,16.4c-0.9,5.8,2.9,6.3,4.9,5.3"
   id="path3061" />
<line
   class="st1"
   x1="218.3"
   y1="305.9"
   x2="301"
   y2="313.8"
   id="line3063" />
<polyline
   class="st1"
   points="417.3,448.6 566.8,340.7 566.8,355.1 437.2,448.6 "
   id="polyline3065" />
<line
   class="st1"
   x1="542.9"
   y1="372.3"
   x2="542.9"
   y2="448.6"
   id="line3067" />
<path
   class="st0"
   d="M183.6,385.1c0,0,14.3,48.2,20.3,63.5"
   id="path3069" />
<path
   class="st0"
   d="M432.5,193.4c0,0-13.9-67.2,11.8-98.8"
   id="path3071" />
<path
   class="st0"
   d="M416.5,133.5c0,0,12.4,11.5,65.6,4.8"
   id="path3073" />
<path
   class="st0"
   d="M422.5,168.1c0,0,8.5,4.4,20.1,3.2"
   id="path3075" />
</svg>