<?xml version="1.0" encoding="UTF-8" standalone="no"?>
<!-- Generator: Adobe Illustrator 19.2.0, SVG Export Plug-In . SVG Version: 6.00 Build 0)  -->

<svg
   xmlns:dc="http://purl.org/dc/elements/1.1/"
   xmlns:cc="http://creativecommons.org/ns#"
   xmlns:rdf="http://www.w3.org/1999/02/22-rdf-syntax-ns#"
   xmlns:svg="http://www.w3.org/2000/svg"
   xmlns="http://www.w3.org/2000/svg"
   xmlns:sodipodi="http://sodipodi.sourceforge.net/DTD/sodipodi-0.dtd"
   xmlns:inkscape="http://www.inkscape.org/namespaces/inkscape"
   version="1.1"
   id="Layer_1"
   x="0px"
   y="0px"
   width="800px"
   height="450px"
   viewBox="0 0 800 450"
   style="enable-background:new 0 0 800 450;"
   xml:space="preserve"
   inkscape:version="0.48.3.1 r9886"
   sodipodi:docname="overlay__Action 4.svg"><metadata
   id="metadata3151"><rdf:RDF><cc:Work
       rdf:about=""><dc:format>image/svg+xml</dc:format><dc:type
         rdf:resource="http://purl.org/dc/dcmitype/StillImage" /></cc:Work></rdf:RDF></metadata><defs
   id="defs3149" /><sodipodi:namedview
   pagecolor="#ffffff"
   bordercolor="#666666"
   borderopacity="1"
   objecttolerance="10"
   gridtolerance="10"
   guidetolerance="10"
   inkscape:pageopacity="0"
   inkscape:pageshadow="2"
   inkscape:window-width="640"
   inkscape:window-height="480"
   id="namedview3147"
   showgrid="false"
   inkscape:zoom="0.405"
   inkscape:cx="400"
   inkscape:cy="225"
   inkscape:window-x="271"
   inkscape:window-y="24"
   inkscape:window-maximized="0"
   inkscape:current-layer="Layer_1" />
<style
   type="text/css"
   id="style3115">
	.st0{fill:none;stroke:#FAAF40;stroke-width:3;stroke-miterlimit:10;}
	.st1{fill:none;stroke:#00A69C;stroke-width:3;stroke-miterlimit:10;}
</style>
<path
   class="st0"
   d="M69.1,313.9c0,0,13.1,45.1,61.1,44.1s100.3-22.2,121.4-61c20.2-37.2,16.1-52.2-22.8-65  C190.5,219.4,49.3,207.8,69.1,313.9z"
   id="path3117" />
<path
   class="st0"
   d="M69.1,313.9c0,0,103.6,10.5,194.2-54.9"
   id="path3119" />
<path
   class="st0"
   d="M206.9,339.7c0,0,15.3-57.8-40.8-115.6"
   id="path3121" />
<path
   class="st0"
   d="M245.1,285c0,0,0.1-10.3-8.5-29.7"
   id="path3123" />
<path
   class="st0"
   d="M191.2,345.9c0,0,2.7,21.2,20,25.8s92,35.6,93,35.9s37.9,17.9,45.4,10.4s19.9-37.5,16-74.7"
   id="path3125" />
<path
   class="st0"
   d="M281.3,339.7c0,0,33.6,11.1,38.2,14"
   id="path3127" />
<path
   class="st0"
   d="M312,387c0,0,2.3-22.2,7.5-33.3c4.9-10.4,0.1-24-1-25.6c-1.8-2.6-15.7-22.2-18.1-25.6s-2.1-6.4-2.1-11.3  s-6.3-13.8-2.3-19.6c0,0,14.2-20.2,18.9-27.4c4.7-7.2,18.4-15.8,32.3-22.4s16.3-2.1,18.1,0c1.8,2.1-2.5,10.6-9.5,14.7  c-7,4.1-18.9,10.8-21.2,12.9c-2.3,2.1-4.1,4.8-4.1,4.8"
   id="path3129" />
<path
   class="st0"
   d="M360.2,308.6c0,0,8.9,12.5,9.6,23.2s-4.2,11.4-12.1,14.9c-7.8,3.4-19.9-3.4-19.9-3.4"
   id="path3131" />
<path
   class="st0"
   d="M342.2,323.3c15.7-10.4,29.2-22.8,19.4-30.4c0,0-30,14.9-35.6,21.5c0,0-5.3,5.8-4.9,9.2  c0.6,5.9,3.4,6.2,8.2,13.2"
   id="path3133" />
<path
   class="st0"
   d="M317.2,299.8c0,0,6.6-11.8,13.8-18c7.2-6.2,30-16.1,38.9-22.9c16.5-12.6,18.8-5.1,18.8-5.1s8.6,8.8-8.1,19.9  c-16.6,11.1-19.2,10.4-39.1,30.1"
   id="path3135" />
<path
   class="st0"
   d="M309.7,277.4c0,0,10.1-17.1,18.9-22.1s36.5-17.8,44.2-21.7c10.9-5.5,16.9-0.3,16.9-0.3s6.1,4.2-6.3,16  l-10.6,7.5"
   id="path3137" />
<path
   class="st1"
   d="M367.8,281.9c0,0,39.5,73.1,46.9,86.4c7.3,13.2,13.2,21.5,21.1,16.6c7.8-4.9,7.8-11.7,0-26.9  c-7.8-15.2-47.6-91-47.6-91"
   id="path3139" />
<path
   class="st1"
   d="M369.9,235.1l-2-7.4c0,0,1.3-10.8-5-14.2c-6.4-3.4-35.2,10.2-32.5,17.6"
   id="path3141" />
<path
   class="st0"
   d="M163,224c0,0,10.8-35.5,14.7-50.2s25-26.4,49.5-24.5s82.7,17.1,96.9,20.6s67.6,23.5,77.8,28.4"
   id="path3143" />
<line
   class="st1"
   x1="472.9"
   y1="450"
   x2="472.9"
   y2="0"
   id="line3145" />
</svg>