<?xml version="1.0" encoding="UTF-8" standalone="no"?>
<!-- Generator: Adobe Illustrator 19.2.0, SVG Export Plug-In . SVG Version: 6.00 Build 0)  -->

<svg
   xmlns:dc="http://purl.org/dc/elements/1.1/"
   xmlns:cc="http://creativecommons.org/ns#"
   xmlns:rdf="http://www.w3.org/1999/02/22-rdf-syntax-ns#"
   xmlns:svg="http://www.w3.org/2000/svg"
   xmlns="http://www.w3.org/2000/svg"
   xmlns:sodipodi="http://sodipodi.sourceforge.net/DTD/sodipodi-0.dtd"
   xmlns:inkscape="http://www.inkscape.org/namespaces/inkscape"
   version="1.1"
   id="Layer_1"
   x="0px"
   y="0px"
   width="800px"
   height="450px"
   viewBox="0 0 800 450"
   style="enable-background:new 0 0 800 450;"
   xml:space="preserve"
   inkscape:version="0.48.3.1 r9886"
   sodipodi:docname="overlay__Action 1.svg"><metadata
   id="metadata41"><rdf:RDF><cc:Work
       rdf:about=""><dc:format>image/svg+xml</dc:format><dc:type
         rdf:resource="http://purl.org/dc/dcmitype/StillImage" /></cc:Work></rdf:RDF></metadata><defs
   id="defs39" /><sodipodi:namedview
   pagecolor="#ffffff"
   bordercolor="#666666"
   borderopacity="1"
   objecttolerance="10"
   gridtolerance="10"
   guidetolerance="10"
   inkscape:pageopacity="0"
   inkscape:pageshadow="2"
   inkscape:window-width="640"
   inkscape:window-height="480"
   id="namedview37"
   showgrid="false"
   inkscape:zoom="0.405"
   inkscape:cx="400"
   inkscape:cy="225"
   inkscape:window-x="374"
   inkscape:window-y="24"
   inkscape:window-maximized="0"
   inkscape:current-layer="Layer_1" />
<style
   type="text/css"
   id="style3">
	.st0{fill:none;stroke:#FAAF40;stroke-width:3;stroke-miterlimit:10;}
	.st1{fill:#FFFFFF;stroke:#00A69C;stroke-width:3;stroke-miterlimit:10;}
	.st2{fill:#FFFFFF;stroke:#FAAF40;stroke-width:3;stroke-miterlimit:10;}
</style>
<path
   class="st0"
   d="M171,450c0,0,3.4-55.4,9.1-87.3c0,0-27.4-19.4-28.5-25.1s4.6-11.4,5.7-22.2c1.1-10.8,8-39.4,13.7-55.3  c5.7-16,24.5-41.6,42.8-58.7s42.2-44.5,42.2-44.5s15.1-15.5,15.8-19.8c1.1-7.4-6.7-8.7-6.7-8.7s4.6-6.3,15.4-0.9s14.8,10,14.8,10  s17.5-3.7,28.2,1.1c0,0-12.3,3.3-21.9,14.9c-9.5,11.4-16,26.2-25.7,46.2s-40.5,57-46.8,67.3s-35.9,50.2-38.8,68.4  c-2.8,18.2-10.3,27.4-10.3,27.4"
   id="path5" />
<path
   class="st0"
   d="M156.1,122.6c0,0-10.3,17.7-11.4,24.5c-1.1,6.8,4.6,8.6,5.7,16.5c1.1,8,1.1,20,8,24c6.8,4,31.9,4.6,39.4,4.6  c7.4,0,11.6-2.7,19.5,5.8"
   id="path7" />
<path
   class="st0"
   d="M180.9,174.5c0,0,17.2-14.6,15.5-37.5c0,0,12.8,2.3,20.8,0s24.4-9.9,34.7-9.3c10.3,0.6,13.1,0.6,13.1,0.6"
   id="path9" />
<path
   class="st0"
   d="M172.7,95.2c0,0-10.8,6.3-16,9.7c-5.1,3.4-2.3,18.1,2.9,22.7c5.1,4.6,31.9,13.2,38.2,7.5s0-15.4,0-15.4  s11.4,5.9,16,5.5s3.5-5.5,3.5-5.5s8.5-4,2.8-18.8c0,0,2.5-1.7,6.7,2.9c4.1,4.6,7.1,6.8,10.8,2.3c3.6-4.6-0.9-7.4-5.5-10.8  c0,0,6.2-1.1,6.8-8c0.6-6.8-6.2-5.7-15.9-5.7c0,0-12.5-8-23.4-5.1c-10.8,2.8-12,11.4-16,14.3C179.5,93.5,172.7,95.2,172.7,95.2z"
   id="path11" />
<path
   class="st0"
   d="M362,246.3c-0.3-0.3-5.4,8.3-6,13.1s5.3,11.1,11.6,9.4"
   id="path13" />
<path
   class="st0"
   d="M348.9,290.9c0,0,5.7,17.6,15.7,21.3c10,3.7,31.9-0.6,39.6-8.3c7.7-7.7,9.3-12.2,9.3-12.2"
   id="path15" />
<path
   class="st0"
   d="M358.4,265.7c0,0-3.2,3.4-6.4,16.8c-3.1,13.4-10.8,40.5-12,51c-1.1,10.5-6.6,31.9-8.4,42.5  c-1.9,10.6-9.5,24.5-12.1,26.2s-7.1-8-10-19.1c-2.8-11.1-4-27.4-4-27.4"
   id="path17" />
<path
   class="st0"
   d="M307.3,450c-0.6-0.9-0.9-15.2,1.7-23.7c2.6-8.6,5.6-22.8,5.6-28.8"
   id="path19" />
<path
   class="st0"
   d="M323.5,138.5c0,0,5-1.1,7.9-7.4c0,0,9.4-15,7.2-18.8"
   id="path21" />
<path
   class="st0"
   d="M338.4,152.2c-0.6,0.2-4.3,6.4-4.1,9.8c0.2,3.4,6.8,23.7,12.6,29.9c5.8,6.2,9.6,8.4,15.8,5.9  c6.2-2.5,14.8-14.5,18-14.9s5.8,0.7,6.6-7.4c0.9-8.2,10.1-10.5,12.8-16.4"
   id="path23" />
<path
   class="st0"
   d="M331.5,106.4c0,0,58.8,49.5,77.6,57.8c18.8,8.3,0-11.1,0-11.1s14.2-22.9,8.4-42.6c-5.8-19.7-28.3-31.9-49-26.9  c-20.7,4.9-32.1,22.8-32.1,22.8S328.6,104,331.5,106.4z"
   id="path25" />
<path
   class="st0"
   d="M352.9,137c0,0-1.3-3.6-5.3-3c-4.1,0.6-6,3.9-6.6,8.8c-0.6,4.9,0.2,11.3,4.1,12.4"
   id="path27" />
<path
   class="st0"
   d="M372.1,191.6c0,0,3.2,3,6.2,9.8s0,10.1,0,10.1s10.5,4.7,11.3,10.7c0.9,6,2.3,15.6,2.3,15.6"
   id="path29" />
<path
   class="st0"
   d="M196.4,319c0,0,21.3,26,53.2,31.7s55.9,5.1,55.9,5.1s-5.1-27.5,0-42.3s25-78.1,33.6-81.5s27.6-7.6,39.2-20.6"
   id="path31" />
<path
   class="st1"
   d="M523.9,322.6c-5.7-4.6-34.6-29.5-34.6-29.5l-25.6,29.1l-188.6-166c-19.3-18.4-24.8-29.3-26.3-34.5  c-2.6-8.9-6.7-15.1-10.1-19c0.1,1-0.3,2.2-1.3,3.4c-1,1.3-2,2-2.9,2.3c2.6,3.3,5.7,8.3,7.7,15.2c2,6.9,7.4,15.4,15.9,25  c-1.9-1.3-3.8-2.6-5.6-3.8c-2.9-2-5.1-3.7-7-5.3c-6.1-4.9-10.1-8.1-25.3-9.8c-5.3-0.6-13.1-4.7-18.7-8.1c-2.2-1-3.7-1.8-3.7-1.8  s2.9,4.5,2.8,9.2c5.7,3.2,13.1,6.8,18.9,7.5c13.2,1.5,16.1,3.8,21.8,8.4c2,1.6,4.3,3.5,7.5,5.6c6.4,4.3,14.1,9.7,19.8,13.7  l188.3,165.7l-24,27.3c0,0,17.3,22.6,47.1,41c30.4,18.8,59.8-3.6,59.8-3.6C559.7,367.3,529.5,327.2,523.9,322.6z"
   id="path33" />
<path
   class="st2"
   d="M405.9,287.6c0,0-9.7,5.8-15.7,2.1c-6-3.7-17.1-4.6-19.4-13.1c-2.3-8.6-6.6-14.6,1.7-20.9  c8.4-6.3,4.6-9.6,0.2-13.5s11.8-5.8,19.2-4.4c7.4,1.4,19.7,14.5,20.5,18C413.4,259.2,425,265.6,405.9,287.6z"
   id="path35" />
</svg>