<?xml version="1.0" encoding="UTF-8" standalone="no"?>
<!-- Generator: Adobe Illustrator 19.2.0, SVG Export Plug-In . SVG Version: 6.00 Build 0)  -->

<svg
   xmlns:dc="http://purl.org/dc/elements/1.1/"
   xmlns:cc="http://creativecommons.org/ns#"
   xmlns:rdf="http://www.w3.org/1999/02/22-rdf-syntax-ns#"
   xmlns:svg="http://www.w3.org/2000/svg"
   xmlns="http://www.w3.org/2000/svg"
   xmlns:sodipodi="http://sodipodi.sourceforge.net/DTD/sodipodi-0.dtd"
   xmlns:inkscape="http://www.inkscape.org/namespaces/inkscape"
   version="1.1"
   id="Layer_1"
   x="0px"
   y="0px"
   width="800px"
   height="450px"
   viewBox="0 0 800 450"
   style="enable-background:new 0 0 800 450;"
   xml:space="preserve"
   inkscape:version="0.48.3.1 r9886"
   sodipodi:docname="overlay__Action 3.svg"><metadata
   id="metadata3112"><rdf:RDF><cc:Work
       rdf:about=""><dc:format>image/svg+xml</dc:format><dc:type
         rdf:resource="http://purl.org/dc/dcmitype/StillImage" /></cc:Work></rdf:RDF></metadata><defs
   id="defs3110" /><sodipodi:namedview
   pagecolor="#ffffff"
   bordercolor="#666666"
   borderopacity="1"
   objecttolerance="10"
   gridtolerance="10"
   guidetolerance="10"
   inkscape:pageopacity="0"
   inkscape:pageshadow="2"
   inkscape:window-width="640"
   inkscape:window-height="480"
   id="namedview3108"
   showgrid="false"
   inkscape:zoom="0.405"
   inkscape:cx="400"
   inkscape:cy="225"
   inkscape:window-x="256"
   inkscape:window-y="24"
   inkscape:window-maximized="0"
   inkscape:current-layer="Layer_1" />
<style
   type="text/css"
   id="style3084">
	.st0{fill:none;stroke:#FAAF40;stroke-width:3;stroke-miterlimit:10;}
</style>
<path
   class="st0"
   d="M684.6,173.1c4-10.6-0.1-35.3-10.5-50.5c-13.6-19.9-16.1-29.4-58.4-28.7c-42.3,0.7-55.7,38.3-55.7,38.3  s-5.4,17.5,0,37.6s10.7,34,12.8,26.1c2-7.9-4-36.8,0-48.2s10.1-22.2,12.8-22.8c2.7-0.7-6.7,14.1,0,24.2c6.7,10.1,3.9,3.4,19.5-12.8  c20.1-20.8,53.4-18.4,53.4-18.4s23.9,15.7,27.2,65.4s-8.1,88-34.3,91.3s-44.3-13.4-56.4-28.9s-24.5-47.9-24.5-47.9"
   id="path3086" />
<path
   class="st0"
   d="M621.8,124.5c0,0,27.4,56.7,32.8,149.4"
   id="path3088" />
<path
   class="st0"
   d="M573,204.9c0,0,65.2-47.9,111.6-31.8c0,0,5.6-11.2,7.6-7.6c2,3.6,0.5,28.2-6.1,33.7"
   id="path3090" />
<path
   class="st0"
   d="M634.7,238.1c0,0,14.5-6.8,29.1-6.8"
   id="path3092" />
<path
   class="st0"
   d="M570.2,220.2c-2.7-6.7-17-15.3-24.4-15.3c-4.4,0-9.1,22.3-19.8,24c-9,1.4-4.4,17.5-1,34.3s0,31.1,0,31.1  s-15.5,24.9-30.9,39.2c-15.4,14.3-26.2,15.5-34.3,55.6s25.5,33.3,46.3,22.6c20.8-10.7,26.9-54.4,34.9-70.5c8.1-16.1,31-39,31.9-55.7  "
   id="path3094" />
<path
   class="st0"
   d="M544.1,222.5c0,0,21.2-4.7,24.5-3.4s10.7,11.2,19.8,28.2c0,0,0,6.7-6.7-1c0,0-9.7-17.1-14.1-19.1  c-4.4-2-28.9,4.2-28.9,4.2"
   id="path3096" />
<path
   class="st0"
   d="M536.7,238.1c0,0,24.5-6.5,26.9-3.7s11.8,12.2,16.8,15.6c5,3.3,6.7,1.7,8.1,5c1.3,3.4-4.4,5.7-10.7,5.7  c-6.4,0-16.1-6.4-18.5-9.1c0,0-7.7,4.7-10.1,7.1c0,0,7,6.7,8.4,15.1s0,15.4,0,15.4"
   id="path3098" />
<path
   class="st0"
   d="M558.1,280.6c0,0,11.9,6.4,18.6,4.7s19.1-10.3,19.1-10.3c2.3-1.1,4.7-10-7.4-17.1"
   id="path3100" />
<path
   class="st0"
   d="M545.8,204.9c0,0,0.9-12.7,11.7-12.9c6.1-0.1,13,12.9,13,12.9s11.6,20,6.1,22.8"
   id="path3102" />
<path
   class="st0"
   d="M684,227.7c0,0,9.2,23,31.9,24.5s71,11.9,84.1,19.5"
   id="path3104" />
<path
   class="st0"
   d="M477.8,347.6c0,0-21,2.9-27.9,22c-7,19.1-15.7,34.8,0,46.3c15.7,11.6,15.7,18.6,41.9,15.6  c26.2-3,28.6,0.2,47-14.4s18.8-6.9,18.8-6.9l-8.4,39.8"
   id="path3106" />
</svg>