<?xml version="1.0" encoding="UTF-8" standalone="no"?>
<!-- Generator: Adobe Illustrator 19.2.0, SVG Export Plug-In . SVG Version: 6.00 Build 0)  -->

<svg
   xmlns:dc="http://purl.org/dc/elements/1.1/"
   xmlns:cc="http://creativecommons.org/ns#"
   xmlns:rdf="http://www.w3.org/1999/02/22-rdf-syntax-ns#"
   xmlns:svg="http://www.w3.org/2000/svg"
   xmlns="http://www.w3.org/2000/svg"
   xmlns:sodipodi="http://sodipodi.sourceforge.net/DTD/sodipodi-0.dtd"
   xmlns:inkscape="http://www.inkscape.org/namespaces/inkscape"
   version="1.1"
   id="Layer_1"
   x="0px"
   y="0px"
   width="800px"
   height="450px"
   viewBox="0 0 800 450"
   style="enable-background:new 0 0 800 450;"
   xml:space="preserve"
   inkscape:version="0.48.3.1 r9886"
   sodipodi:docname="overlay__Action 5.svg"><metadata
   id="metadata3228"><rdf:RDF><cc:Work
       rdf:about=""><dc:format>image/svg+xml</dc:format><dc:type
         rdf:resource="http://purl.org/dc/dcmitype/StillImage" /></cc:Work></rdf:RDF></metadata><defs
   id="defs3226" /><sodipodi:namedview
   pagecolor="#ffffff"
   bordercolor="#666666"
   borderopacity="1"
   objecttolerance="10"
   gridtolerance="10"
   guidetolerance="10"
   inkscape:pageopacity="0"
   inkscape:pageshadow="2"
   inkscape:window-width="640"
   inkscape:window-height="480"
   id="namedview3224"
   showgrid="false"
   inkscape:zoom="0.405"
   inkscape:cx="400"
   inkscape:cy="225"
   inkscape:window-x="523"
   inkscape:window-y="24"
   inkscape:window-maximized="0"
   inkscape:current-layer="Layer_1" />
<style
   type="text/css"
   id="style3154">
	.st0{fill:none;stroke:#FAAF40;stroke-width:3;stroke-miterlimit:10;}
</style>
<path
   class="st0"
   d="M216.4,169.2c-18.6-33.1,15.9-77.3,49.3-46.6c0,0,13.1,9.7,17.3,28.6s3.1,45.5-6.2,49.7c0,0-21.6,7.4-39.9-8.3  C220.6,178.8,216.4,169.2,216.4,169.2z"
   id="path3156" />
<path
   class="st0"
   d="M278.8,199.9c0,0,17.1-59.3-36.6-87.7"
   id="path3158" />
<path
   class="st0"
   d="M230.8,168.3c0,0,52.2-4.4,52.2-17.1"
   id="path3160" />
<path
   class="st0"
   d="M274.4,185.4c7.4,0.1,9.4-3.5,11-5.1"
   id="path3162" />
<path
   class="st0"
   d="M230.8,168.3c0,0-5.4-4.5-9.9-1.8s3.9,14.1,12.6,17.4c0,0,3.3,0.3,3.3-2.1"
   id="path3164" />
<path
   class="st0"
   d="M219.6,174.8c0,0,7,18.2,2.1,21.5c-4.8,3.3-31.3,7.8-31.3,7.8s-14.4,2.1-20.1,21.2  c-4.8,16.1-18.3,90.6-10.5,106.5s63.1,6.6,86,3.6s20-2.7,33.9,4.1c4,2,9.4,5.4,9.4,5.4s13.8,8.1,14,6.5c0,0-1.7-1.4-4.5-5  s-1.8-6,1.4-5.3c3.2,0.8,9.9,8.3,9.9,8.3l1.4-0.8c0,0-0.6-2.1-3-4.9s-6-6.5-5-7.7c1.1-1.2,2.7-0.9,4.7-0.5c2,0.5,11.3,8.1,11.3,8.1  s4.5,0.5,6-2c1.5-2.4,0.2-5.9,0.2-5.9s-0.8,2.4-3.7,3s-10.1-5.3-13.1-7.4s-2.3-3.9,0.6-4.5s11.1,2.7,11.1,2.7s6.9,2.4,8.6,0  s1.1-4.8-2.1-5.6s-14.8-2.4-14.8-2.4s-9.5-2.6-4.7-6.1c3.9-2.9,6.6-0.1,11.1,0c9.2,0.2,7.2-4.8,7.2-4.8s-13.5-4.8-21.6-5  s-24.4,5.3-35.5,5.9s-33.4-0.7-59.5-4.8c-5.7-0.9-21.9-5.9-21.9-5.9"
   id="path3166" />
<path
   class="st0"
   d="M209.3,246.7c0,0-2.7,24.1-16.5,54.2"
   id="path3168" />
<path
   class="st0"
   d="M315.6,315.2c0,0,3.5,4,0,7"
   id="path3170" />
<path
   class="st0"
   d="M319.8,315.6c0,0,0.7,7,4.7,8.1"
   id="path3172" />
<path
   class="st0"
   d="M324.5,330.6c0,0,2.8,4.6,0.3,6.5"
   id="path3174" />
<path
   class="st0"
   d="M311.3,348.6c0,0,7.7,1.7,8-5"
   id="path3176" />
<path
   class="st0"
   d="M303.2,351.4c0,0,5.5,2.4,6.8-2"
   id="path3178" />
<path
   class="st0"
   d="M290.5,345.7c0,0-2.4,0.2-3.1,2.5s3,2.7,8.5,0.7"
   id="path3180" />
<path
   class="st0"
   d="M311.3,306.7c0,0-3.3-3.5-8.1-5.9c-4.8-2.4-7.3-9.3-7.3-9.3"
   id="path3182" />
<path
   class="st0"
   d="M291.6,307.5c0,0-0.5-13.9,9.8-22.6c10.2-8.7-6.2-38-5.5-56.4c0.8-20.6-15-25.4-19.2-27.7"
   id="path3184" />
<path
   class="st0"
   d="M559.3,154.7c11.3-37.1-36.4-70.4-63.9-31.5c0,0-11.4,13-11.1,32.5c0.3,19.4,8.2,44.9,19.2,46.4  c0,0,23.2-0.2,40.1-19C558.6,166.3,559.3,154.7,559.3,154.7z"
   id="path3186" />
<path
   class="st0"
   d="M500.5,201.8c0,0-33.2-54.3,13.2-94.1"
   id="path3188" />
<path
   class="st0"
   d="M538.9,159c0,0-37.8,3.1-54.8-3.3"
   id="path3190" />
<path
   class="st0"
   d="M501.1,186.6c-7.1,1.9-10-1-11.9-2.2"
   id="path3192" />
<path
   class="st0"
   d="M538.9,159c0,0,4.1-5.7,9.1-4.3c5,1.5-0.2,14.7-7.8,20.1c0,0-3.1,1.1-3.7-1.2"
   id="path3194" />
<path
   class="st0"
   d="M553.1,170.3c0,0-0.7,28.1,14.6,29.7c15.3,1.6,37.4,5.2,37.4,5.2s10.8,5.4,13.1,15.3  c2.3,9.9,12.2,92.8,5.9,116.7c-6.3,23.9-26.6,12.4-38.8,8.5s-73.8-35-73.8-35s11.6-16.7,8.9-28.4c0,0,26.4,12.3,42.6,17.1  c13.5,4,33.1,8.2,40.8,13.4"
   id="path3196" />
<path
   class="st0"
   d="M582.9,254.9c0,0,0.6,33.1,2.2,50.5"
   id="path3198" />
<path
   class="st0"
   d="M497.9,199.9c0,0-8.3-0.2-12.4,4.5s-14.9,29.7-21.9,56.3"
   id="path3200" />
<path
   class="st0"
   d="M520.5,283.2c0,0-8.5-7.7-12.7-10.2c-4.1-2.5-12.3-3.1-17.5-7c-8.4-6.4-6.1-0.5-6.1,2"
   id="path3202" />
<path
   class="st0"
   d="M496,272.4c0,0-25.5-9.9-31.6-10.5c-6.2-0.6-5.1,3.9,2.7,6.6c7.8,2.7,21.4,9,21.4,9s-16.6-2-25.9-4  c-9.2-2-10.3-0.4-10.7,1.1c-0.4,1.4,0.8,3.3,12.7,6c11.9,2.7,23,6.4,23,6.4s-1.8,1-9.8,0s-21.4-4.3-23.2-3.8  c-1.8,0.5-4.7,3.8,2.9,5.6c7.6,1.8,27.3,7,27.9,7s-1.2,1.8-6.8,2.7c-5.5,0.8-14.4,1.2-15.2,2.9c-0.8,1.6,3.7,3.8,11.9,3.4  c8.2-0.3,15,1.3,22.2,2.9s10.1,2.1,14.9,0.6"
   id="path3204" />
<line
   class="st0"
   x1="462.6"
   y1="266.4"
   x2="460.5"
   y2="273.2"
   id="line3206" />
<path
   class="st0"
   d="M455.2,288.2c0,0-14.2,13-14.5,14.5s6.6-5.1,11.1-4.2s11.6,2.9,11.6,2.9"
   id="path3208" />
<path
   class="st0"
   d="M438.6,322.3c0,0-3.1,11.6-2.9,15.9c0.2,4.4,3.8,17,3.8,17s6.2,3,3.6-7.6c-1.7-6.8-2.1-10.3-2.1-10.3  s1.9-10.9,2.7-12.8"
   id="path3210" />
<path
   class="st0"
   d="M442.8,346.7c0,0,2,7.8,2.8,7.1c0.8-0.7,5.1-0.6,2.4-6c0,0-2.6-7.1-1.6-11.7c1-4.7,7.9-8.1,7.9-8.1  s2.7,0.8,3.8,8.2c1.1,7.4,5.9,3.9,4.3-6.6s-10.6-17.7,0.8-28.1"
   id="path3212" />
<path
   class="st0"
   d="M431.4,343.5l-2.4-1.7c-2.9-2.9-1.9-15.6-1.6-16.5c0.3-1,8.2-16.1,8.2-16.1l4.9-6.6"
   id="path3214" />
<path
   class="st0"
   d="M433.8,321.2c0,0-3.7,13.1-3.3,16.9c0.3,3.8,3.4,14.8,3.4,14.8s1.9,1.9,4.8,0"
   id="path3216" />
<line
   class="st0"
   x1="0"
   y1="285.6"
   x2="159.5"
   y2="285.6"
   id="line3218" />
<line
   class="st0"
   x1="301.4"
   y1="285.6"
   x2="452"
   y2="285.6"
   id="line3220" />
<line
   class="st0"
   x1="626.2"
   y1="285.6"
   x2="800"
   y2="285.6"
   id="line3222" />
</svg>