<?xml version="1.0" encoding="UTF-8" standalone="no"?>
<!-- Generator: Adobe Illustrator 19.2.0, SVG Export Plug-In . SVG Version: 6.00 Build 0)  -->

<svg
   xmlns:dc="http://purl.org/dc/elements/1.1/"
   xmlns:cc="http://creativecommons.org/ns#"
   xmlns:rdf="http://www.w3.org/1999/02/22-rdf-syntax-ns#"
   xmlns:svg="http://www.w3.org/2000/svg"
   xmlns="http://www.w3.org/2000/svg"
   xmlns:sodipodi="http://sodipodi.sourceforge.net/DTD/sodipodi-0.dtd"
   xmlns:inkscape="http://www.inkscape.org/namespaces/inkscape"
   version="1.1"
   id="Layer_1"
   x="0px"
   y="0px"
   width="800px"
   height="450px"
   viewBox="0 0 800 450"
   style="enable-background:new 0 0 800 450;"
   xml:space="preserve"
   inkscape:version="0.48.3.1 r9886"
   sodipodi:docname="overlay__Signature 3.svg"><metadata
   id="metadata3184"><rdf:RDF><cc:Work
       rdf:about=""><dc:format>image/svg+xml</dc:format><dc:type
         rdf:resource="http://purl.org/dc/dcmitype/StillImage" /></cc:Work></rdf:RDF></metadata><defs
   id="defs3182" /><sodipodi:namedview
   pagecolor="#ffffff"
   bordercolor="#666666"
   borderopacity="1"
   objecttolerance="10"
   gridtolerance="10"
   guidetolerance="10"
   inkscape:pageopacity="0"
   inkscape:pageshadow="2"
   inkscape:window-width="640"
   inkscape:window-height="480"
   id="namedview3180"
   showgrid="false"
   inkscape:zoom="0.405"
   inkscape:cx="400"
   inkscape:cy="225"
   inkscape:window-x="282"
   inkscape:window-y="24"
   inkscape:window-maximized="0"
   inkscape:current-layer="Layer_1" />
<style
   type="text/css"
   id="style3122">
	.st0{fill:none;stroke:#FAAF40;stroke-width:3;stroke-miterlimit:10;}
	.st1{fill:none;stroke:#00A69C;stroke-width:3;stroke-miterlimit:10;}
</style>
<path
   class="st0"
   d="M347,240c0,0,0,16.9,10.4,23.4c8.1,5.1,15.5,8.7,30.4,9.2c0,0,7.2,6.3,21.7,0s22.2-12.2,28.5-15  c6.3-2.8,11.6-8.6,11.1-20.2c-0.5-11.6-6.3-13-19.8-21.3c-13.5-8.2-23.2-15.5-42-8.7C387.4,207.3,347,207,347,240z"
   id="path3124" />
<path
   class="st0"
   d="M389.6,206.5c0,0-1.9-0.5,0-2.9s10.3-1.7,13.9,0.9"
   id="path3126" />
<path
   class="st0"
   d="M388.8,273.1c0,0-1.2,3.1,2.4,3.7c2.9,0.5,10,0.5,12.4-2.3"
   id="path3128" />
<path
   class="st0"
   d="M384.5,272.3c0,0-3.7-2.5-6.7-2.6c-3-0.2-11-2.8-14.6-4.7c-3.5-1.9-11.1-8.6-10.1-12.3s1.9-8.5,1.3-13.4  c-0.6-5-1.9-7.5-2.9-9.3c-1-1.9,0.6-5.6,2.2-7.6c1.5-1.9,5.7-4.8,7.3-6.2c1.6-1.4,8.5-4.4,11.8-5.2c3.3-0.7,7.4-2.3,7.8-3.2"
   id="path3130" />
<path
   class="st0"
   d="M542,348.4c0,0-41.2-7.2-56-10.1s-14.3-1-22.7,8.7c-8.4,9.7-14.2,22.1-17.7,25s-9,3.9-9.5,7.7  c-0.5,3.9,0.5,2.3-4.2,6.6c-4.7,4.3-13.2,3.9-19.8,5.2c-6.6,1.3-13.2,2.3-23.4,6.9c-10.2,4.7-8.5,1.1-11.4,2.1s-4.5-1.3-4.5-1.3  s1.3-0.3,4.7-1.6c3.4-1.3,3.4-9.2-0.5-17.2c-3.9-8.1-9.3-14.7-16.3-20.9c-6.9-6.3-10.5-3.1-12.1-2.1s-3.1,1.1-3.1,1.1  c0.5-3.2,6.3-4.5,14-7.6s21.7-9.5,21.7-9.5s3.4-11.3,5.5-14.5s8.7-5.8,9.5-6.1c0.7-0.3,5.4-1,6.2-6c0.8-5,0.6-5.6,3.7-7.2  s5.6-8.5,5.6-8.5s1.3-3.7,2.4-11s7.7-6.1,7.7-6.1c-1-3.2,1.4-5.8,1.4-5.8c5.6-6.9-3-8.6-3.1-8.6c0,0,8.3,0.7,12.9,1.4  c4.6,0.7,6.2,1.4,11.5-2.2s4.9-2.7,1.3-1.9c-3.6,0.7-10.5,1.1-8.5-3.4s5.9-7.2,5.9-7.2"
   id="path3132" />
<path
   class="st0"
   d="M412,391.4c0,0,3.4-2.4,0-14s-6-29.6-30.8-36.1"
   id="path3134" />
<path
   class="st0"
   d="M443.7,225c-2.7-4.4-10-11.7-16.1-14.4c-1.4-0.6,4.9-4.3,10.2-4c5.3,0.3,12.8-1.9,12.8-1.9s-5.9-0.8-13-1.4  c-7.1-0.6-8.3-0.5-10.4,0.7c-2,1.2-6.4,4.5-10,5"
   id="path3136" />
<path
   class="st0"
   d="M427.2,203.9c0,0-2-0.5,0-3.1s-6.4-0.6-8.3-6.4c-1.9-5.8-5.4-11.3-5.4-11.3s-5.5-12.2-3.9-16.4s-2.7-3.2-6-9  s-3.3-5.8-3.3-5.8s-16.6-6.4-16.6-16.3c0-2.7,0-7.3,0-7.3s-28.1-13-29.1-17.9c0,0,2.6,2.6,7.4,0s18.1-10,22.6-19.3  s12.3-16.6,6.3-16.8c-5.6-0.2-10.1-2.8-10.1-2.8s12.9-1,15.4-2.3c2.6-1.3,6.8,5.5,10.6,6.8c3.9,1.3,17.1,4.8,17.7,12.9  c0,0,3.5,1.9,7.7,1.3s10.6-0.6,11.6,4.2c1,4.8,0,6.1,0,6.1s7.1-1.3,11.6,7.4s10,21.3,10,21.3s9.3,17.4,10.3,18s34.5,9,89.2,6.8"
   id="path3138" />
<path
   class="st0"
   d="M383.6,128.2c0,0,8.7,3.4,19.9-7.6c11.2-10.9,19.6-24.2,20.9-31.9"
   id="path3140" />
<path
   class="st0"
   d="M372.7,399.1c0,0-29.8,10.5-54.6,13.4"
   id="path3142" />
<line
   class="st0"
   x1="345.5"
   y1="358.3"
   x2="321.4"
   y2="366.3"
   id="line3144" />
<line
   class="st0"
   x1="354.5"
   y1="110.3"
   x2="330.4"
   y2="101.3"
   id="line3146" />
<path
   class="st0"
   d="M380.7,71.4c0,0-36.4-12.9-50.3-15.8c-13.9-2.9-80.2-14.2-89.2-14.5s-10-4.2-19.3-7.4s-15.5-5.5-24.2-9.3  c-8.7-3.9-11-9-20-10.6s-20.6,0-20.6,0s-3.7,1.4-1.4,5c2.3,3.5,6,5,13.7,4.7c0,0,5.8,2.1,10.5,1.9c0,0,0.8,3.7,4.8,6.3  c0,0-11.9-1.4-14.5-1.1s-15.9,3.4-18.8,4.2c-2.9,0.8-11.6,1.4-11.6,4.5s4.2,7.1,14.3,5.6c10.1-1.4,16.4-0.6,16.4-0.6l10.3,2.4  c0,0,2.3,2.4-3.9,5.6c-6.1,3.2-8.7,5-10.3,7.1s-1.1,6.4-0.2,9.7c1,3.2,5.2,9.2,6.3,11.3c1.1,2.1,3.1,3.5,6.1,0  c3.1-3.5,4.5-8.1-0.2-12.9c0,0,0.3-1,0-2.1c-0.5-1.7,7.7,1.4,7.7,1.4S181.6,54,182,47.1c0.3-6.9,2.4-11.1,5.5-16.4s3.1-5.3,3.1-5.3"
   id="path3148" />
<path
   class="st0"
   d="M239.9,62.3c0,0,2.7-5.6,1.6-11.5c-0.6-3.5-6.8-10.8-11.6-13.3"
   id="path3150" />
<path
   class="st0"
   d="M192.2,60.6c0,0,5-5.6,4.8-10.9s-1.3-15.1,0-17.9"
   id="path3152" />
<path
   class="st0"
   d="M215.3,58.9c0,0-12.3-0.5-17.3,6.8"
   id="path3154" />
<path
   class="st0"
   d="M219.6,60.6c0,0-10.7-4.7-16.6-6.1"
   id="path3156" />
<path
   class="st0"
   d="M268.8,419.5c0,0-16.3,3-20.5,4.9s-10.3,0.6-14.8,1.3c-4.5,0.6-39,6.8-44.8,9c-5.8,2.3-8.4-0.6-12.9-3.5  s-12.6-11.6-12.2-15.1c0.3-3.5,15.8-11.6,15.8-11.6s8.4-1.5,12.4-0.8c4,0.6,5.3,3.2,4.3,5.8c-1,2.6-5.2,6.8-12.9,5.3  c0,0-0.5,4.4-9.2,6.4"
   id="path3158" />
<path
   class="st0"
   d="M180.6,418.3c0,0-1.7,5.1-1.4,7.9"
   id="path3160" />
<path
   class="st0"
   d="M164.7,419.5c0,0-5.5-2.8-6.6-5.4s-1-6.3,4.2-9.7c5.2-3.4,14.8-9.8,18.4-10.6c6.3-1.5,15.1,0.2,15.1,0.2  s3.9,3.7,0.8,7.6c-2.5,3.3-3.5,2.3-3.5,2.3"
   id="path3162" />
<path
   class="st0"
   d="M161.4,417.4c0,0-7.5,0.7-9.3-2.6c-1.8-3.3-1.4-14-1-17.7c0.5-3.7,5.6-7.4,8.7-9.7c3.1-2.3,6.6-3.6,6.8,1.6  c0.1,4.1-1.9,7.8-6,11.1"
   id="path3164" />
<line
   class="st0"
   x1="162.3"
   y1="399.1"
   x2="162.3"
   y2="404.4"
   id="line3166" />
<path
   class="st1"
   d="M151.1,397.2l-78.3-3.4c0,0,3.9-225.6,27.1-313.5c0,0,54.3-9.7,66.5-11.3"
   id="path3168" />
<path
   class="st1"
   d="M178.7,67.4c0,0,119.6-11.3,151.7-6.8c0,0-5.8,170.5-6.8,211.8c-1,41.2-5.5,159.1-5.5,159.1  s-76.2-19-122.6-28.6"
   id="path3170" />
<line
   class="st0"
   x1="171.9"
   y1="398.4"
   x2="163.5"
   y2="397.7"
   id="line3172" />
<line
   class="st0"
   x1="354.5"
   y1="239.3"
   x2="450.7"
   y2="239.3"
   id="line3174" />
<path
   class="st0"
   d="M386.2,272.3c0,0-21.7-26.9-1.7-65.1"
   id="path3176" />
<path
   class="st0"
   d="M415.5,249.4c0,0-4.9-7.8,0-23.3"
   id="path3178" />
</svg>