<?xml version="1.0" encoding="UTF-8" standalone="no"?>
<!-- Generator: Adobe Illustrator 19.2.0, SVG Export Plug-In . SVG Version: 6.00 Build 0)  -->

<svg
   xmlns:dc="http://purl.org/dc/elements/1.1/"
   xmlns:cc="http://creativecommons.org/ns#"
   xmlns:rdf="http://www.w3.org/1999/02/22-rdf-syntax-ns#"
   xmlns:svg="http://www.w3.org/2000/svg"
   xmlns="http://www.w3.org/2000/svg"
   xmlns:sodipodi="http://sodipodi.sourceforge.net/DTD/sodipodi-0.dtd"
   xmlns:inkscape="http://www.inkscape.org/namespaces/inkscape"
   version="1.1"
   id="Layer_1"
   x="0px"
   y="0px"
   width="800px"
   height="450px"
   viewBox="0 0 800 450"
   style="enable-background:new 0 0 800 450;"
   xml:space="preserve"
   inkscape:version="0.48.3.1 r9886"
   sodipodi:docname="overlay__Signature 2.svg"><metadata
   id="metadata3119"><rdf:RDF><cc:Work
       rdf:about=""><dc:format>image/svg+xml</dc:format><dc:type
         rdf:resource="http://purl.org/dc/dcmitype/StillImage" /></cc:Work></rdf:RDF></metadata><defs
   id="defs3117" /><sodipodi:namedview
   pagecolor="#ffffff"
   bordercolor="#666666"
   borderopacity="1"
   objecttolerance="10"
   gridtolerance="10"
   guidetolerance="10"
   inkscape:pageopacity="0"
   inkscape:pageshadow="2"
   inkscape:window-width="640"
   inkscape:window-height="480"
   id="namedview3115"
   showgrid="false"
   inkscape:zoom="0.405"
   inkscape:cx="400"
   inkscape:cy="225"
   inkscape:window-x="273"
   inkscape:window-y="24"
   inkscape:window-maximized="0"
   inkscape:current-layer="Layer_1" />
<style
   type="text/css"
   id="style3033">
	.st0{fill:none;stroke:#FAAF40;stroke-width:3;stroke-miterlimit:10;}
	.st1{fill:none;stroke:#00A69C;stroke-width:3;stroke-miterlimit:10;}
</style>
<path
   class="st0"
   d="M353.3,123c0.1,0.1,12.6,11.8,6.9,34"
   id="path3035" />
<path
   class="st0"
   d="M365.1,139.4c-4.6,3.4-35-4.5-35-4.5"
   id="path3037" />
<path
   class="st0"
   d="M352.4,157.7c0,0-2.4,5.6-2.7,10.2"
   id="path3039" />
<path
   class="st0"
   d="M351.3,160.6c0,0,6.5,4.2,11.3,5.6c4.9,1.4,9.2,20.6,10.3,27.9c1.1,7.4,7.6,31.7,7.6,31.7"
   id="path3041" />
<path
   class="st0"
   d="M317.6,174.7c0,0-6.4,9.2-3.5,23.5s13.3,28.5,16.5,31.1s6.5,5,17.2,5.6s27.3,2.5,30,3.6s4.3,0.1,6.2-4.6  c1.8-4.7,2.4-6.1-3.5-8.1s-23.1-9.3-28.1-11.8s1.3,0.4-7.9-11c-10.1-12.6-3.7-21.1-9.6-27.1C327.7,168.6,321.4,171.8,317.6,174.7z"
   id="path3043" />
<path
   class="st0"
   d="M367.3,187.5c0,0,0.9,28.8,4.2,34.9"
   id="path3045" />
<path
   class="st0"
   d="M389,243.6c1.9,0,1.2-1.4,2-1.7s1.6-2.2,1.6-2.2s2.2-1.8,2-3.6c-0.2-1.9-2.5-3.8-2.6-4.1s-4.1-2.8-4.1-2.8"
   id="path3047" />
<path
   class="st0"
   d="M391.7,231.7c0,0,0.8-3.5-2.2-5.6c-3.1-2.1-4-0.4-4.2,0.6c-0.2,0.9,0.2,3.4,1.6,3.6c1.6,0.2,0.9-2.4,0.9-2.4"
   id="path3049" />
<path
   class="st0"
   d="M379.1,240.4c0,0-2.7,1.2-0.7,2.8c1.1,0.9,2.2,0.9,2.2,0.9s0.4,1.9,1.8,1.8c1.4-0.2,2.2,1.9,3.3,1.1  c1.1-0.7,4.2-3.5,2.8-4.5c-1.3-1,1-3.6-1.6-3.5s-1.6-1.9-3.5-0.8S379.1,240.4,379.1,240.4z"
   id="path3051" />
<line
   class="st0"
   x1="388.9"
   y1="239.8"
   x2="390.6"
   y2="242.5"
   id="line3053" />
<line
   class="st0"
   x1="390.6"
   y1="236.5"
   x2="392.6"
   y2="239.7"
   id="line3055" />
<line
   class="st0"
   x1="380.5"
   y1="244.1"
   x2="386.9"
   y2="239"
   id="line3057" />
<line
   class="st0"
   x1="382.9"
   y1="245.9"
   x2="388"
   y2="241.5"
   id="line3059" />
<path
   class="st0"
   d="M389.5,226.1c0,0,14-4.3,18.2-9s6.4-18.1,7.8-27.5c1.4-9.5,2.2-13.1,6.7-15.9c4.4-2.8,12-6.1,14.7-8.6  c0,0-4.8,26.7,0.8,37.4"
   id="path3061" />
<path
   class="st0"
   d="M425.5,225.1c-4.2,2.6-33.8,20.8-33.8,20.8s-2.1,0-2.6-2.3"
   id="path3063" />
<path
   class="st0"
   d="M480.2,232.4c0,0,2.6,23.5,5.3,31.6c2.6,8.1,1,9.5,1,9.5s-19.3,8.3-28.8,8.3s-13.3-4.4-16.4-11.8  c0,0,0.8,6.3-4.4,8.9c-5.3,2.6-13.1,0.3-13.1,0.3l0.3-12.8c0-1.1,1.4-33.1,1.4-41.2c0-8.2-5.8-37.6-5.8-37.6"
   id="path3065" />
<path
   class="st0"
   d="M441.3,270c0,0-6-48-5.8-56.2c0.1-8.2,6-22.8,9.3-30.6s15.7-22.1,11.8-29.2c0,0,3.3,7,12,8.8  c8.6,1.8,15,3.6,16.4,8.7c1.4,5.1,8.1,40.4,9.2,45.4s-1.9,8.7-5.8,11.6c-3.9,2.9-33.1,14.1-33.1,14.1s1.4-9.2-3.1-12  c0,0,1.9-1.5,8.3-4.4s16.4-10.1,16.4-10.1s-2.8-4.1-5.6-17.8c-2.8-13.7-0.6-19.5-0.6-19.5"
   id="path3067" />
<path
   class="st0"
   d="M434.4,166.9l-5.2,8.4l2.3,1.8l-3.8,3.3c0,0,1,17.6,8.7,27"
   id="path3069" />
<path
   class="st0"
   d="M435.5,212.7c0,0,5.1-11.1,9.8-18c4.7-6.9,13.8-19.8,14.9-20.8s-5-3.1-5-3.1l7.6-2.9l-1.6-8.5"
   id="path3071" />
<path
   class="st0"
   d="M452.2,230.5c0,0-2.1-0.4-4.4,1.3c-2.4,1.7-7.5,5.1-6,6.1c1.6,1.1,4-0.6,4.4-0.2c0,0,0.3-0.3-1.2,2.1  c-1.7,2.7-2.2,4.9-4.9,5.3c-2.6,0.4-6.7,1.6-7.1,2.1c-0.4,0.4-2.2,1.3-1,2.7s-0.3,2.8,2.8,2.4c3.1-0.4,6.7-2.2,9.5-3.2  s11.2-9.2,11.2-9.2"
   id="path3073" />
<path
   class="st0"
   d="M425.5,279.5c0,0,1.4,36.5,6.1,55.4s4.4,24.5,6,31.1c1.7,6.7-5.3,6.3-1.3,7.8s13.2,5.9,17,0s7.5-8.2,2.1-14.1  s-0.7-10.4-2.1-16.3s-3-34.5,0-34.9s8.7,33,9.5,41.2c0.9,8.2,1,10,0,13.3s-0.2,2.2,0.7,5.9c0.9,3.7-5,1.9-3.5,6.3s0.5,8.2,4.9,8.9  c4.4,0.7,14-0.7,14.4-3.3c0.4-2.6,0-8.2,0-8.2s3,0.4,1.9-7.8c-1.1-8.2,2-21.9,0.2-34.9c-1.7-13,0.5-54.8,0.5-54.8"
   id="path3075" />
<path
   class="st0"
   d="M436.3,373.9c0,0-1.7,6.7-8.7,8.2s-11,1.9-11.4,4.8s2.6,4.1,13.7,2.6s25.4-5,25.4-5s2.8-3.3,0-13.6"
   id="path3077" />
<path
   class="st0"
   d="M462.9,383.5c0,0-3.9,9.7-4.7,14.5c-0.7,4.8,6.7,5,13.3,1.9c7.3-3.5,7.8-18.9,7.8-18.9"
   id="path3079" />
<path
   class="st0"
   d="M440.6,167.9c0,0-1.8,0.9-1.9,3.5c-0.1,2.4,5.5,2.3,5.7,0C444.5,167.2,443.3,168.1,440.6,167.9z"
   id="path3081" />
<path
   class="st0"
   d="M439.1,172.9c0,0-4.2,12.6-4.2,13.1"
   id="path3083" />
<path
   class="st0"
   d="M442.5,173.3c0,0,3.2,7.7,2.2,9.9"
   id="path3085" />
<line
   class="st0"
   x1="441.9"
   y1="166.9"
   x2="450.1"
   y2="174"
   id="line3087" />
<line
   class="st0"
   x1="435.6"
   y1="174"
   x2="438.8"
   y2="170.4"
   id="line3089" />
<path
   class="st0"
   d="M450.1,151.8C447.6,159.3,435,162,435,162c-2.9,0.6-5.8-0.7-7.2-5.7c0,0-1.4-12.2,0-17.6  c1.3-4.9,5.4-12.7,14.1-14.3c8.1-1.5,12.9,3.9,12.9,3.9c5.8,6.9,6.1,14.2,4.8,17c-1.9,4-2.9,8.7-2.9,8.7  c-3.8,8.5-14.7,12.9-14.7,12.9c-2-0.4-4.2-3.1-4.2-3.1v-2.6"
   id="path3091" />
<path
   class="st0"
   d="M426.9,143.1c0,0,4,4.6,33.2-2.4"
   id="path3093" />
<path
   class="st0"
   d="M432,161.8c0,0-5.1-30.3,9.8-37.4"
   id="path3095" />
<path
   class="st0"
   d="M450.1,142.9c2.9-0.8,5.9-0.2,5,3.9c-0.9,4.1-5,5.2-5,5.2"
   id="path3097" />
<path
   class="st0"
   d="M341.8,138.6c0,0-5.4-4.1-5.7,1.3c-0.4,5.4,7,7.8,7,7.8s3.4,10.8,14,10.8c5,0,11.2-11.4,6.3-25.2  c-5.2-14.5-23.3-12.3-27.4-10c-4.8,2.6-7.7,8.8-4.4,16.5c2.1,4.9,2.9,10.2,0.7,16.1c0,0-10.1,8.7-14.1,12.1  c-4,3.3-10.4,18.5-7.1,34.2s0.3,58.5,11.4,62.6c11.1,4,21.5,3.6,39.9,1.8c25.3-2.5,12.2-17.8,12.8-28.4"
   id="path3099" />
<path
   class="st0"
   d="M322.3,264.7c0,0,0.2,16.9,3.9,29.1c3.7,12.2,1.9,39.3,7,48.6s-2.6,29.8,3.7,38.1c4.8,6.3,5.1,5.6,16.4,6.8  c7,0.7,12-13.3,5.1-28.9c-7-15.6-8-37.4-5.1-42.6s3.9,5.8,5.1,14.2c1.2,8.4-1.4,24.9-1.4,24.9"
   id="path3101" />
<path
   class="st0"
   d="M360.6,380.5c0,0,19.4,2.1,23.1,0c3.6-2.1-0.7-8.1-3.2-13.6c-2.5-5.6,5.8-4.4,3.2-15.9  c-2.7-11.5-0.8-21.5-0.8-29.3s2.7-29.8-6.8-60.5"
   id="path3103" />
<path
   class="st0"
   d="M356.5,386.4c0,0,5.9,13.1,1.8,14.2c-4.9,1.3-12.5,2.5-17.8,0.5c-5.8-2.1-2.3-10.1,1.5-15.7"
   id="path3105" />
<path
   class="st0"
   d="M338.6,399.8c0,0,0,3.2,0.8,3.8c0.7,0.6,7.8,2.1,15.6,1.7c6.3-0.4,4.9-5.5,4.9-5.5"
   id="path3107" />
<path
   class="st0"
   d="M383.7,380.5c0,0,7.7,2.3,12.5,2.1c4.8-0.2,4.2,8.9,4.2,8.9s-11.4,0.4-22.7,0.7s-19-0.1-19-0.1"
   id="path3109" />
<line
   class="st1"
   x1="0"
   y1="229.9"
   x2="313.6"
   y2="229.9"
   id="line3111" />
<line
   class="st1"
   x1="490.8"
   y1="229.9"
   x2="800.9"
   y2="229.9"
   id="line3113" />
</svg>