<?xml version="1.0" encoding="UTF-8" standalone="no"?>
<!-- Generator: Adobe Illustrator 19.2.0, SVG Export Plug-In . SVG Version: 6.00 Build 0)  -->

<svg
   xmlns:dc="http://purl.org/dc/elements/1.1/"
   xmlns:cc="http://creativecommons.org/ns#"
   xmlns:rdf="http://www.w3.org/1999/02/22-rdf-syntax-ns#"
   xmlns:svg="http://www.w3.org/2000/svg"
   xmlns="http://www.w3.org/2000/svg"
   xmlns:sodipodi="http://sodipodi.sourceforge.net/DTD/sodipodi-0.dtd"
   xmlns:inkscape="http://www.inkscape.org/namespaces/inkscape"
   version="1.1"
   id="Layer_1"
   x="0px"
   y="0px"
   width="800px"
   height="450px"
   viewBox="0 0 800 450"
   style="enable-background:new 0 0 800 450;"
   xml:space="preserve"
   inkscape:version="0.48.3.1 r9886"
   sodipodi:docname="overlay__Signature 1.svg"><metadata
   id="metadata55"><rdf:RDF><cc:Work
       rdf:about=""><dc:format>image/svg+xml</dc:format><dc:type
         rdf:resource="http://purl.org/dc/dcmitype/StillImage" /></cc:Work></rdf:RDF></metadata><defs
   id="defs53" /><sodipodi:namedview
   pagecolor="#ffffff"
   bordercolor="#666666"
   borderopacity="1"
   objecttolerance="10"
   gridtolerance="10"
   guidetolerance="10"
   inkscape:pageopacity="0"
   inkscape:pageshadow="2"
   inkscape:window-width="640"
   inkscape:window-height="480"
   id="namedview51"
   showgrid="false"
   inkscape:zoom="0.405"
   inkscape:cx="400"
   inkscape:cy="225"
   inkscape:window-x="244"
   inkscape:window-y="24"
   inkscape:window-maximized="0"
   inkscape:current-layer="Layer_1" />
<style
   type="text/css"
   id="style3">
	.st0{fill:none;stroke:#FAAF40;stroke-width:3;stroke-miterlimit:10;}
</style>
<path
   class="st0"
   d="M102.8,0c0,0,68.4,96.7,95.5,125.3s111.2,137.4,121.2,148.3c10,10.8,9.3,27.2,14.3,42.2s11.4,32.8,20.3,41"
   id="path5" />
<path
   class="st0"
   d="M341.2,335.8c0,0-9.9,12.4-11.3,17.4s1.1,6.8,7.1,14.6c6.1,7.8,10,12.8,17.1,14.3c7.1,1.4,24.6,4.3,27.1,3.2  c2.5-1.1,8.6-7.1,3.2-13.9c-5.3-6.8-18.5-12.1-34.2-14.6"
   id="path7" />
<path
   class="st0"
   d="M351.8,381.4c0,0-3.7,8.5-2.2,14.2c1.4,5.7,4.6,8.6,15.7,10.3c11.1,1.8,24.6,5.7,31.7,1.8  c7.1-3.9,21-16.4,25.7-20.7c4.6-4.3,7.8-12.5,0-18.2s-24.3,3.5-37.5,12.8"
   id="path9" />
<path
   class="st0"
   d="M370.1,406.8c0,0-3.3,7.3,0,12.3s3.7,7.8,22.2,7.1c18.5-0.7,30.3-0.4,37.1-8.2c6.8-7.8,17.1-22.5,17.1-22.5  s4.6-12.8-6.4-15.3c-11.1-2.5-13.9,2-13.9,2"
   id="path11" />
<path
   class="st0"
   d="M386.6,426.4c0,0-2.5,2,5.7,7s5.3,5.7,26,3.9c20.7-1.8,25.1-5.2,24.1-12.4c-1.2-9.2-10.8-9.6-10.8-9.6"
   id="path13" />
<path
   class="st0"
   d="M439.9,419.1c0,0,8.5,0.7,14.5-3.8c5.9-4.5,7.6-6.6,7.8-14.5c0,0,8.3-0.7,12.4-5.9c4-5.2,6.9-9.7,4.3-18.8  c0,0,8.1,0.2,13.5-6.2c5.5-6.4,5.2-12.8,2.1-25.2c-3.1-12.4-10.2-41.4-11.6-44.4c-1.4-3.1-5.9-26.1-13.1-36.4"
   id="path15" />
<path
   class="st0"
   d="M494.8,301.8c-6.9,4.1-11.4,0-11.4,0s7.5,9,15.9,12.1c8.3,3.1,15.5,5,23.3,0s-1.7-10.5-6.7-17.8  c-5-7.4-5.9-15.4-7.8-18.5s-10-6.7-21.2-16.6c-11.2-10-15.9-19.7-32.3-23.5s-40.9-5.2-46.8-10s-34.2-53.5-40.6-64.6  c-6.4-11.2-32.3-58.7-41.1-73.9"
   id="path17" />
<path
   class="st0"
   d="M515.9,296c0,0-1.9,2.6-1.1,4.9c0.8,2.3,4.7,7,6.5,7.7c0.9,0.4,2.3,1.5,3.8-0.8"
   id="path19" />
<path
   class="st0"
   d="M493.2,369c0,0,2.4,6,3.5,8.8c1.1,2.9-2.8,14.3,4.7,25.2c7.5,10.8,11.8,13.9,16.4,12.4  c4.6-1.5,8.6-2.6,9.6-17.9c1.1-15.3,0-21.4,0-21.4s-5.3-16-10.3-27.5c-5-11.4-12-28.1-14.4-33.5"
   id="path21" />
<path
   class="st0"
   d="M496.9,379.5c0,0,5.2-12.4,17.7-9.6"
   id="path23" />
<path
   class="st0"
   d="M407.8,227.4c0,0-0.8-11.4,6.7-18.5s40.7-42.4,53.9-60.6c13.2-18.2,53.8-85.6,53.8-85.6"
   id="path25" />
<path
   class="st0"
   d="M670.8,62.7c0,0-32.4,33.5-63.1,58.5c-30.7,25-69.2,57.8-85.6,72.7c-16.4,15-36,34.6-38.9,39.6  s-5.3,18.5-5.3,18.5"
   id="path27" />
<path
   class="st0"
   d="M375.4,375.5c0,0-6.4-1.9-9.6-0.9c-3.2,0.9-2.4,4.8,0,7.4c2.4,2.5,12.7,2.7,12.7,2.7S374.7,380.7,375.4,375.5z"
   id="path29" />
<path
   class="st0"
   d="M417.3,372.6c0,0-5.7,4-8.2,6.9s-3.3,6.6-1,9.5s6.6,3,10.1,0c3.6-3,7.6-8.4,7.6-8.4S423.9,374.5,417.3,372.6z"
   id="path31" />
<path
   class="st0"
   d="M436.4,384.6c0,0-4.3,5.5-6.6,8.6c-1.6,2.1,0,6.7,1.4,8.1s4.3,3.3,6.7,1.6c3.2-2.3,7.7-9.1,7.7-9.1  S446.3,384.6,436.4,384.6z"
   id="path33" />
<path
   class="st0"
   d="M433.5,423.5c0,0,5.5,2,6.4,4.3s-1.8,3.9-7.7,5.6c-6,1.7-9.4,1.4-9.4-3.4C422.7,426.6,429.4,425,433.5,423.5z"
   id="path35" />
<path
   class="st0"
   d="M449.4,374.3c0,0,12.6,18,12.8,26.6"
   id="path37" />
<path
   class="st0"
   d="M477.2,343.8c0,0-4,11.4-2.6,16.9s4.3,15.5,4.3,15.5"
   id="path39" />
<path
   class="st0"
   d="M447.5,346.9c1.2,1,1.9,8.8,7.4,13.8"
   id="path41" />
<path
   class="st0"
   d="M458.9,341.6c0,0,7.6,5.1,7.8,12.2"
   id="path43" />
<path
   class="st0"
   d="M431.4,360c0,0,7,4.5,8.7,11.6"
   id="path45" />
<path
   class="st0"
   d="M423.9,363.1c0,0,4,11.2,8.8,13.1"
   id="path47" />
<path
   class="st0"
   d="M508.3,411.7c0,0,10.3,6.2,16.3-4.6c1.2-2.2,2.2-4.2,2.2-4.2"
   id="path49" />
</svg>