<?xml version="1.0" encoding="UTF-8" standalone="no"?>
<!-- Generator: Adobe Illustrator 19.2.0, SVG Export Plug-In . SVG Version: 6.00 Build 0)  -->

<svg
   xmlns:dc="http://purl.org/dc/elements/1.1/"
   xmlns:cc="http://creativecommons.org/ns#"
   xmlns:rdf="http://www.w3.org/1999/02/22-rdf-syntax-ns#"
   xmlns:svg="http://www.w3.org/2000/svg"
   xmlns="http://www.w3.org/2000/svg"
   xmlns:sodipodi="http://sodipodi.sourceforge.net/DTD/sodipodi-0.dtd"
   xmlns:inkscape="http://www.inkscape.org/namespaces/inkscape"
   version="1.1"
   id="Layer_1"
   x="0px"
   y="0px"
   width="800px"
   height="450px"
   viewBox="0 0 800 450"
   style="enable-background:new 0 0 800 450;"
   xml:space="preserve"
   inkscape:version="0.48.3.1 r9886"
   sodipodi:docname="overlay__Medium 2.svg"><metadata
   id="metadata4597"><rdf:RDF><cc:Work
       rdf:about=""><dc:format>image/svg+xml</dc:format><dc:type
         rdf:resource="http://purl.org/dc/dcmitype/StillImage" /></cc:Work></rdf:RDF></metadata><defs
   id="defs4595" /><sodipodi:namedview
   pagecolor="#ffffff"
   bordercolor="#666666"
   borderopacity="1"
   objecttolerance="10"
   gridtolerance="10"
   guidetolerance="10"
   inkscape:pageopacity="0"
   inkscape:pageshadow="2"
   inkscape:window-width="640"
   inkscape:window-height="480"
   id="namedview4593"
   showgrid="false"
   inkscape:zoom="0.405"
   inkscape:cx="400"
   inkscape:cy="225"
   inkscape:window-x="176"
   inkscape:window-y="24"
   inkscape:window-maximized="0"
   inkscape:current-layer="Layer_1" />
<style
   type="text/css"
   id="style4529">
	.st0{fill:#FAAF40;stroke:#FAAF40;stroke-miterlimit:10;}
	.st1{fill:none;stroke:#FAAF40;stroke-miterlimit:10;}
</style>
<path
   class="st0"
   d="M531.2,408.4l-1.6-1.3c0.1-0.1,7-8.6,7.6-24.4c0.3-8.2-2.3-14.9-5.4-22.7c-2.9-7.4-6.2-15.9-7.5-27.3  c-0.8-7.3-1-13.9-1.2-20.3c-0.5-13.7-0.9-25.6-6.8-37.4c-4.7-9.3-7.2-22.9-9.5-34.9c-2-10.5-3.9-20.4-6.7-24.8  c-6.3-9.6-20-17.3-32-18l0.1-2.1c12.6,0.7,27,8.8,33.6,18.9c3.1,4.7,4.9,14.4,7,25.5c2.2,11.8,4.8,25.2,9.3,34.3  c6.1,12.2,6.5,24.3,7,38.2c0.2,6.4,0.4,12.9,1.2,20.1c1.2,11.1,4.5,19.4,7.3,26.8c3.1,8,5.8,14.9,5.5,23.5  C538.6,399.3,531.5,408,531.2,408.4z"
   id="path4531" />
<path
   class="st0"
   d="M284.5,420.7c-10.8-2.3-12-10.7-13.3-19.5c-1-6.6-1.9-13.4-6.5-19.3c-9.7-12.3-3.7-27.4,0.6-38.3  c0.9-2.2,1.7-4.4,2.3-6.2c1.4-4.5,0.2-13.7-1.2-23.5c-1.8-12.8-3.8-27.3-0.3-35.6c6-14.5,11.5-39.8,12.1-45.4  c0.7-6.5,15.9-18.8,25.7-22.1c9.8-3.4,43.2-19.5,43.5-19.7l0.9,1.9c-1.4,0.7-33.8,16.4-43.8,19.8c-9.7,3.3-23.8,15.1-24.4,20.4  c-0.6,5.6-6.2,31.3-12.3,45.9c-3.2,7.8-1.3,22,0.5,34.5c1.5,10.5,2.7,19.5,1.1,24.4c-0.6,1.9-1.5,4.1-2.4,6.3  c-4.2,10.5-9.9,24.9-0.9,36.3c4.9,6.3,6,13.7,7,20.2c1.3,8.8,2.3,15.8,11.7,17.8L284.5,420.7z"
   id="path4533" />
<path
   class="st0"
   d="M359.4,175l-2-0.5c0.5-1.8,0.3-11.5,0-17.7l2.1-0.1C359.6,158.3,360.1,172.4,359.4,175z"
   id="path4535" />
<path
   class="st0"
   d="M388.4,300.7c0-0.4-0.1-0.9-0.2-1.4c-0.2-0.2-0.2-0.5-0.2-1.2c-1.2-7-4.4-19.8-7.8-33.2  c-4.4-17.8-9-36.1-9.4-42.5c-0.6-11.9,3.8-19.6,4.8-20.3l1.2,1.7c-0.6,0.6-4.6,7.5-4,18.6c0.3,6.2,4.9,24.5,9.3,42.1  c2.6,10.5,5.1,20.6,6.7,27.9c0.5-2.6,1.2-6.2,2.3-11.1c4.7-22.9,13.5-65.4,10.9-74l2-0.6c2.7,9.1-5.8,50.4-10.9,75  c-1.2,5.6-2.2,10.7-2.8,13.8v5.1L388.4,300.7z"
   id="path4537" />
<path
   class="st0"
   d="M392.7,179.1L392.7,179.1c-6.9,0-14-2.7-21.7-8.4c-11.4-8.4-22.2-23.7-25.1-35.6c-2.7-11.3-1.8-30.4-1.7-31.2  c0.1-4.3,5.4-13.4,14.8-29.8l2.6-4.6c8.1-14.1,12.4-16.6,20.4-16.6c1.3,0,2.8,0.1,4.4,0.1c1.2,0.1,2.6,0.1,4,0.2  c14.2,0.4,15.2,1.6,31.7,23c16.6,21.4,14.7,41.8,14.6,42.6c-1,31.9-24.2,51.6-24.4,51.8C406.3,176.2,399.6,179.1,392.7,179.1z   M382.1,54.9c-6.8,0-10.6,1.5-18.7,15.6l-2.6,4.6c-8.7,15.1-14.4,25.1-14.6,28.9c0,0.2-1,19.6,1.7,30.6  c2.8,11.5,13.2,26.3,24.3,34.4c7.3,5.4,14,8,20.5,8l0,0c6.4,0,12.6-2.7,18.4-7.9c0.3-0.2,22.7-19.3,23.7-50.4  c0-0.3,1.8-20.5-14.2-41.2c-16.3-21.1-17-21.9-30.2-22.3c-1.5,0-2.8-0.1-4-0.2C384.8,55,383.4,54.9,382.1,54.9z"
   id="path4539" />
<path
   class="st0"
   d="M344.5,118.5c-4.2-2.7-5.5-14-5.9-17.4c-1-11.2,0.3-24.8,5.7-29.8c3.5-3.3,5.8-7.5,8.2-11.9  c3.5-6.4,7.5-13.7,16.1-20.1c12.4-9.2,19.6-5.6,21.8-4c1.4-1,5.1-2.6,13.5-2.1c10.7,0.6,21.2,3.4,25.6,19.5  c4.2,15.2,7.3,23,11.3,31.2c4.3,8.9-3.7,31.7-4,32.7l-1.9-0.7c0.1-0.2,8-23,4.1-31.1c-4-8.3-7.1-16.1-11.4-31.5  c-3.9-14-12.3-17.3-23.8-18c-10.3-0.6-12.5,2-12.6,2l-0.7,0.9l-0.8-0.8c-0.3-0.3-6.5-6.4-19.9,3.6c-8.3,6.1-12,12.9-15.6,19.4  c-2.5,4.6-4.8,8.9-8.6,12.4c-4.8,4.6-6,17.8-5.1,28.1c0.7,8.1,2.7,14.5,4.9,15.9L344.5,118.5z"
   id="path4541" />
<path
   class="st0"
   d="M346.4,144.6C346.4,144.6,346.3,144.6,346.4,144.6c-3-0.1-5.6-4.3-8-9c-3.2-6.4-6.9-15.5-6.2-22.7  c0.2-2.1,1-3.5,2.4-4.1c2.9-1.3,7.2,1.6,7.6,2l-1.2,1.7c-0.9-0.7-4-2.5-5.6-1.8c-0.7,0.3-1.1,1.1-1.2,2.4c-0.7,6.7,2.9,15.4,6,21.5  c1,1.9,4,7.8,6.1,7.9c0.8-0.1,1.5-1,2-1.8l1.8,1C349.1,143.7,347.8,144.6,346.4,144.6z"
   id="path4543" />
<path
   class="st0"
   d="M432.8,138.6c-0.4,0-0.8-0.1-1.1-0.3l-0.5-0.4l0.2-0.8l1,0.3l0.9-0.5c-0.2-0.3-0.4-0.4-0.5-0.4  c0.3,0,2.5-0.5,4.2-2.1c1.1-1,1.6-2.2,1.6-3.4c0-3.2,1.6-6.8,3-9.9c1-2.1,1.9-4.1,2.1-5.7c0.1-0.5,0-0.9-0.3-1.2  c-1.1-1.3-4.6-1.6-5.9-1.6h-0.1v-2.1c0.6,0,5.6,0,7.6,2.3c0.7,0.8,1,1.8,0.8,2.9c-0.3,1.8-1.3,4-2.3,6.2c-1.4,3.1-2.8,6.3-2.8,9  c0,4.2-4,6.3-5.2,6.8C434.6,138.3,433.6,138.6,432.8,138.6z"
   id="path4545" />
<path
   class="st0"
   d="M383.7,93c0,0,1,1.7,0,3.4c-1,1.7-12-3.8-23,0c0,0-3.1-1.4,4.8-3.4C373.4,90.9,380.6,90.6,383.7,93z"
   id="path4547" />
<path
   class="st0"
   d="M401.5,93c0,0-1,1.7,0,3.4c1,1.7,12-3.8,23,0c0,0,3.1-1.4-4.8-3.4C411.8,90.9,404.6,90.6,401.5,93z"
   id="path4549" />
<path
   class="st0"
   d="M363.1,106.4l-1.2-1.7c9.6-6.8,18-1.7,18.9-0.7v1.4l-1.5-1.4l0.8,0.7l-0.8,0.7  C379.2,105.3,372,100.1,363.1,106.4z"
   id="path4551" />
<circle
   class="st1"
   cx="372.9"
   cy="106.5"
   r="3"
   id="circle4553" />
<path
   class="st0"
   d="M420.5,106.4c-8.9-6.2-16.1-1.1-16.2-1l-0.7-0.7l-0.9,0.8v-1.4c0.9-1,9.2-6,18.9,0.7L420.5,106.4z"
   id="path4555" />
<circle
   class="st1"
   cx="410.7"
   cy="106.5"
   r="3"
   id="circle4557" />
<path
   class="st0"
   d="M390,133.4c-2.6-0.7-4.2-1.8-5-3.5c-1.2-2.6,0.3-5.6,1.2-7.6c0.2-0.4,0.3-0.7,0.4-0.9  c0.7-1.6,0.8-11.9,0.8-17.9h2.1c0,2.7,0.1,16.3-0.9,18.8c-0.1,0.3-0.3,0.6-0.5,1c-0.8,1.6-2,4.1-1.2,5.9c0.5,1.1,1.7,1.9,3.6,2.4  L390,133.4z"
   id="path4559" />
<path
   class="st0"
   d="M399.2,133l-1.7-1.1c2.6-4-1.5-7.6-1.7-7.8l1.3-1.6C399.1,124.2,402,128.6,399.2,133z"
   id="path4561" />
<path
   class="st0"
   d="M393.1,159.9L393.1,159.9h-0.3c-12.6-0.5-15.7-11.6-15.7-11.8l-0.1-0.5l0.4-0.4c0.2-0.2,5.4-5.9,11.5-5.9  c1.2,0,2.4,0.2,3.6,0.7c0.8-0.2,2.7-0.6,5-0.6c5.7,0,9.7,2.4,11.3,6.9c0.2,0.7,0,1.4-0.7,2.5C405.7,154,398.7,159.9,393.1,159.9z   M379.2,148.1c0.7,2.1,4,9.3,13.6,9.7h0.2c5.6,0,13.1-7.3,13.6-9c-1.4-3.6-4.5-5.4-9.3-5.4c-2.7,0-4.8,0.6-4.8,0.6l-0.4,0.1  l-0.3-0.2c-1-0.4-2-0.7-3.1-0.7C384.5,143.3,380.5,146.9,379.2,148.1z"
   id="path4563" />
<path
   class="st1"
   d="M380.1,148.4c0,0,8-5.4,25.4,0C405.5,148.4,391.1,163.1,380.1,148.4z"
   id="path4565" />
<path
   class="st0"
   d="M357.9,226.3l-1.2-1.4c-5.3-6.6-9.6-31.6-9.8-32.6l-0.1-0.3l0.2-0.3c0-0.1,4.2-8.1,7.7-14  c1.5-2.6,2.9-3.8,4.2-3.8c1.4,0,2.1,1.3,2.3,2l0.1,0.2v0.2c-1.4,11.1,15.5,23.6,15.7,23.7c1,0.8,1.1,1.6,1.1,2.2  c-0.2,1.7-2.5,2.7-6,4.3c-4.1,1.9-9.3,4.2-10.3,7.8c-2.2,7.7-3.1,10.2-3.2,10.4L357.9,226.3z M349,192.2c0.5,2.8,4,22.1,8.2,29.7  c0.5-1.6,1.3-4.2,2.5-8.2c1.3-4.5,6.9-7.1,11.5-9.1c1.8-0.8,4.5-2,4.8-2.7c0,0-0.1-0.1-0.3-0.3c-0.7-0.5-17.8-13.2-16.5-25.4  c-0.1-0.2-0.2-0.3-0.3-0.4c0,0-0.8,0.1-2.4,2.8C353.4,183.8,349.8,190.6,349,192.2z"
   id="path4567" />
<path
   class="st0"
   d="M406.7,224.9l0.3-2.6c0-0.1,0.8-6.9-2.9-13.1c-0.7-0.2-1.5-0.7-1.9-1.7c-0.6-1.9,1-4.4,5.1-7.9  c8.5-7.5,15.3-23.4,11.7-35.1l2-0.6c3.8,12.5-3.3,29.3-12.3,37.2c-4.8,4.2-4.5,5.6-4.5,5.8c0.1,0.2,0.6,0.3,0.6,0.4h0.5l0.3,0.4  c2.9,4.6,3.5,9.5,3.6,12.3c4.2-3.7,14.8-13,18.4-17.8l1.6,1.2c-4.7,6.2-19.9,19.1-20.5,19.6L406.7,224.9z"
   id="path4569" />
<path
   class="st0"
   d="M512,420.7c-5.7,0-9.6-0.3-9.6-0.3H502l-0.3-0.3c-0.2-0.2-4-4.5-10.5-23c-5.1-14.3-18.4-15.9-23.9-15.9  c-1,0-1.7,0.1-1.7,0.1h-0.1h-0.1c-0.6-0.1-2.5-0.3-2.7-1.7c-0.5-3.4,15.3-10.4,28.7-15.7c1.2-0.3,2.4-0.5,3.6-0.5  c7.7,0,17.9,5.7,26,14.5c7,7.6,10.8,15.7,10.3,22.1c-0.3,3.9-0.3,7.1-0.3,9.6c0,7.5,0,10.2-9.1,10.8  C518.7,420.6,515.4,420.7,512,420.7z M503,418.4c1.2,0.1,4.5,0.3,9,0.3c3.3,0,6.6-0.1,9.8-0.3c7.2-0.5,7.2-1.4,7.2-8.8  c0-2.6,0-5.7,0.3-9.7c0.5-5.8-3.2-13.4-9.7-20.6c-7.7-8.3-17.5-13.9-24.5-13.9c-1.1,0-2.1,0.1-3,0.4c-12,4.8-25.4,11-27.1,13.3  c0.1,0,0.3,0.1,0.6,0.1c0.2,0,0.9-0.1,1.8-0.1c4.6,0,20.1,1.2,25.8,17.2C498.6,411.8,502.1,417.2,503,418.4z"
   id="path4571" />
<path
   class="st0"
   d="M303.1,427.4c-3.4,0-6.7-0.1-10-0.3c-9.1-0.6-9.1-3.7-9.1-12c0-2.8,0-6.3-0.3-10.7c-0.6-7.9,4.3-18.4,12.7-27.5  c7.7-8.3,16.8-13.5,23.6-13.5c1.3,0,2.5,0.2,3.6,0.5c11.1,4.9,29.4,13.6,28.8,17.5c-0.2,1-1,1.6-2.6,1.8h-0.1h-0.1  c0,0-0.6-0.1-1.7-0.1c-5.5,0-18.8,1.7-23.8,17.8c-6.6,20.7-10.4,25.5-10.5,25.7l-0.3,0.3h-0.4C312.5,427.1,308.8,427.4,303.1,427.4z   M320,365.4c-6.3,0-14.7,4.9-22.1,12.8c-8,8.6-12.7,18.5-12.2,25.9c0.3,4.5,0.3,8,0.3,10.9c0,8.2,0,9.4,7.2,9.9  c3.2,0.2,6.5,0.3,9.8,0.3c4.5,0,7.8-0.2,8.9-0.3c0.9-1.4,4.4-7.4,9.9-24.7c5.7-17.9,21.2-19.3,25.8-19.3c0.9,0,1.5,0,1.8,0.1  c0.3,0,0.6-0.1,0.7-0.2c-1.1-2.4-14.9-9.6-27.4-15.2C322,365.6,321,365.4,320,365.4z"
   id="path4573" />
<path
   class="st0"
   d="M334.8,370.3c-3.9-7.6-3.6-12.4-3.3-17.1c0.3-5.6,0.7-10.9-6.7-20.8c-9.8-13-5.4-50.9-5.2-52.5l2,0.2  c0,0.4-4.5,38.6,4.8,51c7.8,10.5,7.5,16.4,7.1,22.1c-0.3,4.4-0.6,9,3.1,16.1L334.8,370.3z"
   id="path4575" />
<path
   class="st0"
   d="M464.7,380.7l-1.8-0.9c3.6-7,3.4-11.6,3.1-16.1c-0.3-5.7-0.7-11.7,7.1-22.1c9.3-12.4,4.9-61,4.8-61.5l2.1-0.2  c0.2,2,4.5,49.9-5.2,62.9c-7.4,9.9-7.1,15.1-6.7,20.8C468.3,368.3,468.6,373.2,464.7,380.7z"
   id="path4577" />
<path
   class="st0"
   d="M504.6,435.7c-1.9,0-4.1-0.5-6.5-1.6c-7.6-3.5-15.5-11.6-14.9-18.8l2.1,0.2c-0.5,6,6.6,13.5,13.7,16.7  c4,1.8,7.3,1.9,8.8,0.3l0.8-0.9c5-5.3,8.1-8.5,13.4-6.8c3.7,1.2,9.1,0.5,11.2,0.1v-9.4c-0.9-3-2.2-6.5-2.8-7  c0.2,0.1,0.6,0.1,0.8-0.1l-1.5-1.4c0.4-0.4,0.8-0.5,1.3-0.4s1.9,0.5,4.2,8.5v0.3v11.3l-0.8,0.2c-0.3,0.1-7.9,1.6-13,0  c-4.1-1.3-6.3,1.1-11.2,6.2l-0.8,0.9C508.1,435.1,506.5,435.7,504.6,435.7z"
   id="path4579" />
<path
   class="st0"
   d="M379.6,441c-3.3,0-5.8-2.3-7-3.8c-0.9,0.4-2.3,0.6-4.4,0.6c-1.9,0-3.4-0.6-4.2-1.7c-0.8-1-0.9-2.2-0.9-3.1  c-0.5,0-1,0.1-1.6,0.1c-3,0-5.1-0.6-6-1.9c-1.7-2.1,0.3-5.3,1.5-7c-1.7-1-3.6-2.9-3-5.7c0.8-3.8,12.2-10.4,14.5-11.7  c17-8.9,34.6-18,46-17.3c10.1,0.7,48.6-10.1,48.9-10.2c0.1,0,1.5-0.4,3.9-0.4c6.6,0,22.9,3.1,31.9,31.5c0.2,0.6,0.1,1.2-0.3,1.7  c-2,3.1-15.3,4.4-18,4.6c-14.7,0-20.6,0.4-24.5,0.7c-2,0.1-3.4,0.2-5.3,0.2h-1.4c-12.6,0-17.8,3.6-21.5,6.9  c-4.5,3.9-19.5,12.7-26,14.8c-2.7,0.9-5.6,1-7.6,1c-1.4,0-2.7-0.1-4.1-0.1c-1.3,0-2.5-0.1-3.7-0.1c-2.2,0-3.8,0.2-5.1,0.6  C381.1,440.9,380.3,441,379.6,441z M373.5,435c0.4,0.6,2.8,4,6.2,4c0.5,0,1.1-0.1,1.6-0.2c1.5-0.5,3.2-0.7,5.7-0.7  c1.2,0,2.5,0.1,3.8,0.1s2.7,0.1,4,0.1c2.9,0,5.2-0.3,7-0.9c6.2-2,21-10.6,25.3-14.4c4.1-3.6,9.5-7.4,22.9-7.4h1.4  c1.8,0,3.2-0.1,5.1-0.2c3.9-0.3,9.8-0.6,24.5-0.7c8.2-0.7,15.9-2.5,16.4-3.7c-8.5-27.1-23.8-30-29.9-30c-2,0-3.3,0.3-3.3,0.3  c-1.5,0.4-39.3,10.9-49.6,10.3c-10.9-0.7-28.2,8.3-44.9,17.1c-5.3,3-13,8.2-13.5,10.3c-0.6,2.6,2.8,3.8,2.9,3.9l1.5,0.5l-1.1,1.2  c-1.4,1.5-3.1,4.3-2.3,5.4c0.6,0.7,2.2,1.1,4.4,1.1c1.4,0,2.6-0.2,2.6-0.2l1.6-0.2l-0.4,1.5c-0.1,0.5-0.3,1.9,0.3,2.8  c0.5,0.6,1.3,0.9,2.6,0.9c3,0,3.6-0.4,3.6-0.4c-0.1,0.1-0.3,0.4-0.1,0.7L373.5,435C373.4,434.9,373.4,434.9,373.5,435L373.5,435  C373.4,435,373.4,435,373.5,435z"
   id="path4581" />
<path
   class="st0"
   d="M357,426.8c-1.8,0-9.1-0.8-41.8-4.7l-0.7-0.1l-0.2-0.7c-3.5-12.4-2.7-22.1,2.5-28.8c7.1-9.3,19.8-9.3,20.3-9.3  h0.3l51,13.9l-0.5,2L337,385.3c-1.3,0-12.4,0.5-18.6,8.5c-4.6,6.1-5.4,14.9-2.3,26.3c16,1.9,39.6,4.7,40.9,4.7v0.9l0.7,0.9  C357.6,426.8,357.5,426.8,357,426.8z"
   id="path4583" />
<path
   class="st0"
   d="M422.7,435.4c-4.6,0-8.5-2-8.8-2.1l0.9-1.8c0.1,0,8.3,4.1,13.9,0.1l0.3-0.2h0.4c0.3,0,7,0.7,7.9-5.2l0.1-0.7  l0.7-0.1c0.1,0,9.1-2.1,9.4-8.8l2.1,0.1c-0.3,7.2-8,9.9-10.3,10.6c-1.3,5.4-6.6,6.4-9.7,6.2C427.4,435,425,435.4,422.7,435.4z"
   id="path4585" />
<path
   class="st0"
   d="M308.1,448.7H306c0-11.1,2.4-22.5,2.4-22.6l2,0.4C310.5,426.7,308.1,437.9,308.1,448.7z"
   id="path4587" />
<path
   class="st0"
   d="M490.6,448.5c-2.5-7.1-3.2-23-3.2-23.7l2.1-0.1c0,0.2,0.7,16.4,3.1,23.1L490.6,448.5z"
   id="path4589" />
<path
   class="st0"
   d="M447.2,266c-0.1,0-3.5,0-6.6-3.2c-3.7-3.8-5.4-10.2-5.1-19.1c0.3-10.1-4.4-26.9-9-43.1  c-5-17.8-9.3-33.1-6.5-38.1c5-8.8,11.3-25.2,11.4-25.4l1.3-3.3l0.7,3.5c1.9,9.2,11.6,24.5,26.8,42c8.1,9.3,12,23.2,9.8,34.6  c-1.4,7-4.9,12.3-10.1,14.9c-13.2,6.7-11.7,36-11.7,36.3l0.1,1.1h-1.1V266z M432.3,140.7c-2.1,5.2-6.6,16.1-10.4,22.7  c-2.4,4.3,2.2,20.7,6.7,36.5c4.6,16.4,9.4,33.3,9,43.8c-0.3,8.2,1.3,14.2,4.4,17.6c1.5,1.6,3.1,2.2,4.1,2.5c-0.2-5.9,0-30.4,12.9-37  c5.9-3,8.1-9,9-13.4c2.1-10.8-1.6-24-9.3-32.9C450.3,170.9,436.4,153.6,432.3,140.7z"
   id="path4591" />
</svg>