<?xml version="1.0" encoding="UTF-8" standalone="no"?>
<!-- Generator: Adobe Illustrator 19.2.0, SVG Export Plug-In . SVG Version: 6.00 Build 0)  -->

<svg
   xmlns:dc="http://purl.org/dc/elements/1.1/"
   xmlns:cc="http://creativecommons.org/ns#"
   xmlns:rdf="http://www.w3.org/1999/02/22-rdf-syntax-ns#"
   xmlns:svg="http://www.w3.org/2000/svg"
   xmlns="http://www.w3.org/2000/svg"
   xmlns:sodipodi="http://sodipodi.sourceforge.net/DTD/sodipodi-0.dtd"
   xmlns:inkscape="http://www.inkscape.org/namespaces/inkscape"
   version="1.1"
   id="Layer_1"
   x="0px"
   y="0px"
   width="800px"
   height="450px"
   viewBox="0 0 800 450"
   style="enable-background:new 0 0 800 450;"
   xml:space="preserve"
   inkscape:version="0.48.3.1 r9886"
   sodipodi:docname="overlay__Medium 1.svg"><metadata
   id="metadata4526"><rdf:RDF><cc:Work
       rdf:about=""><dc:format>image/svg+xml</dc:format><dc:type
         rdf:resource="http://purl.org/dc/dcmitype/StillImage" /></cc:Work></rdf:RDF></metadata><defs
   id="defs4524" /><sodipodi:namedview
   pagecolor="#ffffff"
   bordercolor="#666666"
   borderopacity="1"
   objecttolerance="10"
   gridtolerance="10"
   guidetolerance="10"
   inkscape:pageopacity="0"
   inkscape:pageshadow="2"
   inkscape:window-width="640"
   inkscape:window-height="480"
   id="namedview4522"
   showgrid="false"
   inkscape:zoom="0.405"
   inkscape:cx="400"
   inkscape:cy="225"
   inkscape:window-x="233"
   inkscape:window-y="24"
   inkscape:window-maximized="0"
   inkscape:current-layer="Layer_1" />
<style
   type="text/css"
   id="style4478">
	.st0{fill:#FAAF40;stroke:#FAAF40;stroke-miterlimit:10;}
	.st1{fill:none;stroke:#FAAF40;stroke-miterlimit:10;}
</style>
<path
   class="st0"
   d="M248.1,272c-10.9,0-24.1-2.5-38.6-10.4l1-1.8c38.3,20.8,67.1,3.2,67.4,3l1.1,1.7  C278.8,264.7,266.8,272,248.1,272z"
   id="path4480" />
<path
   class="st0"
   d="M334,447.4c-2.4-18.3-4.4-43.9-10.1-122.3l2.1-0.2c5.8,78.3,7.7,104,10.1,122.2L334,447.4z"
   id="path4482" />
<path
   class="st0"
   d="M386,448.9c-6-42.9-31.6-210.4-34.6-217.7l-0.2-0.4c-1.8-4.3-6-14.3-26.5-14.7c-8.4-0.2-35-4.1-44.6-10.8  c0.3,7.6,1.2,32.3-0.1,49.8c-1.9,26.6-0.4,133.5,2.6,190.5l-2.1,0.1c-3.1-57.1-4.5-164.1-2.6-190.8c1.5-20.7,0-51.6,0-51.9l-0.1-2.7  l1.9,2c6.5,6.7,34.8,11.5,45.1,11.7c21.8,0.4,26.6,11.7,28.4,16l0.2,0.4c3.3,7.9,29.5,180.8,34.8,218.2L386,448.9z"
   id="path4484" />
<path
   class="st0"
   d="M154.4,447.9l-2-0.3c2.2-16.7,14.3-127.2,14.5-128.3l2,0.2C168.7,320.7,156.6,431.2,154.4,447.9z"
   id="path4486" />
<path
   class="st0"
   d="M103.8,448.3l-2-0.5c5.8-24.3,10.1-73.6,14.1-121.2c5.3-62.4,8.9-100.6,14.4-105.4c10.2-8.9,17.5-9.2,25.3-9.5  c4.5-0.2,9.1-0.3,14.7-2.2l0.7,2c-5.8,2-10.6,2.2-15.3,2.3c-7.7,0.3-14.4,0.5-24,9c-5.2,4.6-9.5,55.1-13.7,104  C113.9,374.5,109.7,423.9,103.8,448.3z"
   id="path4488" />
<path
   class="st0"
   d="M211,449.8l-2-0.4c7.4-39.6,3.6-112.2,1.4-155.6c-0.8-14.8-1.4-26.5-1.4-33.1c0-30.4,7.6-60.3,7.7-60.6l2,0.5  c-0.1,0.3-7.6,29.9-7.6,60.1c0,6.6,0.6,18.3,1.4,33C214.6,337.2,218.4,410,211,449.8z"
   id="path4490" />
<path
   class="st0"
   d="M186.7,237.3c-2.5,0-4.7-0.6-6.7-1.7c-9.1-5.2-10.3-21.2-11.3-36.7c-0.2-3.4-0.5-6.9-0.8-10.1  c-1.1-11.3-0.6-12.9,0.2-15.7c0.9-3.2,2.4-7.9,1.9-34.4c-0.8-43.9,3.9-51.5,17.6-74c1.4-2.3,2.9-4.8,4.5-7.4  c17.1-28.7,29-31,40.6-31c4.3,0,7.2,0.7,9.4,1.3c3.6,0.9,4.8,1.2,7.4-2.6c5.1-7.3,19.6-4.8,20.2-4.7c0.3,0.1,0.6,0.1,1,0.2  c14.1,2.2,23.4,8.3,27.6,18.1c1.9,4.4,3.6,7.6,5.1,10.4c3.8,7,6.1,11.3,5.5,25.8c-0.4,10.3,1,16,2.6,22c1.4,5.3,2.8,10.8,2.8,19.7  c0,5,0.6,9.9,1.2,14.5c1.6,12.4,3.3,25.2-6.8,42.3l-0.2,0.4l-0.5,0.1c0,0-3,0.6-4.6,3.4c-1.6,2.7-1.5,6.6,0.3,11.5  c5.4,15.2-6.8,22.8-6.9,22.9l-0.3,0.2l-0.4-0.1c-0.3,0-27-5-26.7-26.5h2.1c-0.3,18.4,21.4,23.7,24.6,24.4c1.8-1.3,10.1-7.8,5.7-20.3  c-1.9-5.5-2-10-0.1-13.2c1.7-2.9,4.4-4,5.5-4.3c9.5-16.3,7.9-28.1,6.3-40.6c-0.6-4.7-1.3-9.7-1.3-14.8c0-8.6-1.4-14-2.7-19.2  c-1.5-5.9-3.1-12-2.7-22.6c0.6-13.9-1.5-17.8-5.3-24.7c-1.5-2.8-3.3-6-5.2-10.6c-3.9-9-12.7-14.7-26.1-16.8  c-0.6-0.1-1.1-0.2-1.2-0.2l0,0c-0.1,0-13.6-2.3-18,3.9c-3.5,4.9-5.9,4.3-9.6,3.4c-2.2-0.5-4.9-1.2-8.9-1.2c-11,0-22.3,2.3-38.9,30  c-1.6,2.7-3.1,5.1-4.5,7.5c-13.5,22.1-18,29.6-17.3,72.9c0.5,26.8-1,31.8-2,35.1c-0.7,2.5-1.2,4-0.1,14.9c0.3,3.3,0.6,6.8,0.8,10.2  c1,15,2.1,30.5,10.3,35.1c4.5,2.5,10.8,1.6,19.2-2.7c5.9-3,10.5-15.4,14.3-25.4c1.8-4.9,3.6-9.6,5.3-12.8c5.1-9.4-3.2-39.6-3.3-39.9  l2-0.6c0.4,1.3,8.6,31.2,3.2,41.4c-1.7,3.1-3.4,7.7-5.2,12.5c-4.1,10.8-8.7,23.1-15.3,26.5C195.5,235.8,190.7,237.3,186.7,237.3z"
   id="path4492" />
<path
   class="st0"
   d="M266.2,185.8c-0.5,0-1,0-1.4,0c-11.3-0.6-29-8.1-44.9-27.4c-6.3-7.7-10.4-22.4-10.9-39.3l2.1-0.1  c0.5,16.5,4.4,30.7,10.4,38.1c15.4,18.9,33,26.2,43.4,26.7c5.2,0.3,9.4-1,12-3.6c15.5-15.6,30.1-55.3,30.1-62.6  c0-3.1-1.3-5.3-2.7-7.7c-1.9-3.2-4.1-6.9-3.1-13.1c1.3-8.4-0.1-16.2-2.5-29.3c-0.5-2.8-1.1-5.8-1.6-9.1c-3.2-18-30.1-23.6-30.4-23.7  c-28.9-6.4-41.2,21.8-50.4,48.8c-1,2.8-2.1,7.2-2.4,8.5l-2-0.5c0.4-1.7,1.5-5.8,2.4-8.6c7.4-21.5,19.8-57.5,52.8-50.1  c1.1,0.2,28.6,5.9,32,25.3c0.6,3.3,1.1,6.3,1.6,9.1c2.4,13.3,3.9,21.3,2.5,30c-0.9,5.5,0.9,8.5,2.8,11.7c1.5,2.5,3,5.1,3,8.7  c0,7.7-14.5,47.8-30.7,64C275.5,184.3,271.4,185.8,266.2,185.8z"
   id="path4494" />
<path
   class="st0"
   d="M256.9,93.8c-0.1,0-10.9-3.3-16.2-0.1l-1.1-1.8c6.1-3.6,17.4-0.2,17.9-0.1L256.9,93.8z"
   id="path4496" />
<path
   class="st0"
   d="M296.7,100.1c-4-3.2-13.3-2.8-13.4-2.8l-0.1-2.1c0.4,0,10.2-0.4,14.8,3.2L296.7,100.1z"
   id="path4498" />
<path
   class="st1"
   d="M287.9,101c-0.2,1.9,0.8,3.7,2.3,3.9c1.5,0.2,2.9-1.2,3.2-3.2c0.2-1.9-0.8-3.7-2.3-3.9  C289.5,97.6,288.1,99,287.9,101z"
   id="path4500" />
<ellipse
   class="st1"
   cx="247.4"
   cy="95.8"
   rx="2.9"
   ry="3.5"
   id="ellipse4502" />
<path
   class="st0"
   d="M279.4,129l-1.3-1.6c3.8-3.2,3.8-4-0.3-11.9c-4.2-8.2-2.7-25.6-2.6-26.4l2.1,0.2c0,0.2-1.6,17.6,2.4,25.2  C283.7,122.4,284.5,124.7,279.4,129z"
   id="path4504" />
<path
   class="st0"
   d="M264.5,125.1c-1.7-6.2,2.7-9.4,5.3-10.2l0.6,2c-0.6,0.2-5.6,1.9-4,7.6L264.5,125.1z"
   id="path4506" />
<path
   class="st1"
   d="M285.9,147.1c0,0-10.7-5.4-14.4-4.3c-3.6,1.1-7.1-1.7-11.8,0.7c-4.7,2.4-8.6,2.4-8.6,2.4s6.1,6.8,18.5,7  C269.6,153,284.8,152.1,285.9,147.1z"
   id="path4508" />
<path
   class="st0"
   d="M269.4,157.8L269.4,157.8c-1.3,0-2.7-0.1-4.1-0.2c-14.4-1.4-16.8-12-16.9-12.1l-0.1-0.7l0.5-0.4  c7-5.1,11.6-6.9,18-6.9c1.1,0,2.2,0,3.4,0.2c8.6,0.7,16.1,8.3,16.4,8.7l0.4,0.4l-0.1,0.5C285.4,154.1,279.2,157.8,269.4,157.8z   M250.7,145.8c0.7,2.1,3.8,8.8,14.9,9.8c1.3,0.1,2.6,0.2,3.9,0.2c6,0,13.5-1.5,15.4-8.3c-1.6-1.5-7.9-7.1-14.7-7.6  C262.5,139.2,258.1,140.4,250.7,145.8z"
   id="path4510" />
<path
   class="st0"
   d="M258.9,79.2c0,0,2.1,1.3-1.7,3c-3.8,1.7-13.9-6.7-20.2-2c-4.4,3.3-3.7,1.6-0.3-3.1  C239.9,72.3,254.9,76.6,258.9,79.2z"
   id="path4512" />
<path
   class="st0"
   d="M282.1,83.5c0,0-1.9,1.1,1.2,3.1s12.2-5.6,17.1-0.5c3.4,3.6,2.9,1.9,0.5-3.1C298.5,78.1,285.7,81.3,282.1,83.5z  "
   id="path4514" />
<path
   class="st0"
   d="M211.6,120.3c-0.9,0-1.6-0.2-2.2-0.5c-4.6-2-7-9.9-7.4-16.9c-0.1-2.4-0.2-10.4,3.5-12.5  c7.4-4.2,14.8,7.2,15.1,7.7l-1.7,1.1c-0.1-0.1-6.6-10.2-12.3-7c-1.8,1-2.8,5.3-2.5,10.6c0.3,6.4,2.5,13.6,6.1,15.2  c1.5,0.7,3.3,0.2,5.2-1.5l1.3,1.6C214.8,119.7,213.1,120.3,211.6,120.3z"
   id="path4516" />
<path
   class="st0"
   d="M197.2,411.1L197.2,411.1c-0.2,0-0.4,0-0.6,0c-2.2-0.1-4.2-1.1-5.6-2.7c-1.3-1.5-2-3.5-1.8-5.5  c0.3-4.2,4.1-7.4,8.5-7.1c2.2,0.2,4.2,1.1,5.6,2.7c1.3,1.5,2,3.5,1.8,5.5C204.8,408,201.3,411.1,197.2,411.1z M197.2,397.8  c-3.1,0-5.7,2.3-5.9,5.2c-0.1,1.5,0.4,2.9,1.3,4c1,1.2,2.5,1.9,4.1,2c3.3,0.3,6.1-2.2,6.3-5.2c0.1-1.5-0.4-2.9-1.3-4  c-1-1.2-2.5-1.9-4.1-2C197.4,397.8,197.3,397.8,197.2,397.8z"
   id="path4518" />
<path
   class="st0"
   d="M194.5,442.6L194.5,442.6c-0.2,0-0.4,0-0.6,0c-2.2-0.2-4.2-1.1-5.6-2.7c-1.3-1.5-2-3.5-1.8-5.5  c0.3-4.2,4.1-7.4,8.5-7.1c2.2,0.2,4.2,1.1,5.6,2.8c1.3,1.5,2,3.5,1.8,5.5C202.2,439.4,198.7,442.6,194.5,442.6z M194.5,429.2  c-3.1,0-5.7,2.3-5.9,5.2c-0.1,1.5,0.4,2.9,1.4,4c1,1.2,2.5,1.9,4.1,2c3.2,0.2,6.1-2.2,6.3-5.2c0.1-1.4-0.4-2.9-1.3-4  c-1-1.2-2.5-1.9-4.2-2.1C194.8,429.2,194.7,429.2,194.5,429.2z"
   id="path4520" />
</svg>