<?xml version="1.0" encoding="UTF-8" standalone="no"?>
<!-- Generator: Adobe Illustrator 19.2.0, SVG Export Plug-In . SVG Version: 6.00 Build 0)  -->

<svg
   xmlns:dc="http://purl.org/dc/elements/1.1/"
   xmlns:cc="http://creativecommons.org/ns#"
   xmlns:rdf="http://www.w3.org/1999/02/22-rdf-syntax-ns#"
   xmlns:svg="http://www.w3.org/2000/svg"
   xmlns="http://www.w3.org/2000/svg"
   xmlns:sodipodi="http://sodipodi.sourceforge.net/DTD/sodipodi-0.dtd"
   xmlns:inkscape="http://www.inkscape.org/namespaces/inkscape"
   version="1.1"
   id="Layer_1"
   x="0px"
   y="0px"
   width="800px"
   height="450px"
   viewBox="0 0 800 450"
   style="enable-background:new 0 0 800 450;"
   xml:space="preserve"
   inkscape:version="0.48.3.1 r9886"
   sodipodi:docname="overlay__Medium 3.svg"><metadata
   id="metadata4648"><rdf:RDF><cc:Work
       rdf:about=""><dc:format>image/svg+xml</dc:format><dc:type
         rdf:resource="http://purl.org/dc/dcmitype/StillImage" /></cc:Work></rdf:RDF></metadata><defs
   id="defs4646" /><sodipodi:namedview
   pagecolor="#ffffff"
   bordercolor="#666666"
   borderopacity="1"
   objecttolerance="10"
   gridtolerance="10"
   guidetolerance="10"
   inkscape:pageopacity="0"
   inkscape:pageshadow="2"
   inkscape:window-width="640"
   inkscape:window-height="480"
   id="namedview4644"
   showgrid="false"
   inkscape:zoom="0.405"
   inkscape:cx="400"
   inkscape:cy="225"
   inkscape:window-x="262"
   inkscape:window-y="24"
   inkscape:window-maximized="0"
   inkscape:current-layer="Layer_1" />
<style
   type="text/css"
   id="style4600">
	.st0{fill:#FAAF40;stroke:#FAAF40;stroke-miterlimit:10;}
	.st1{fill:none;stroke:#FAAF40;stroke-miterlimit:10;}
	.st2{fill:#B9B9B9;stroke:#FAAF40;stroke-miterlimit:10;}
</style>
<path
   class="st0"
   d="M551.1,272c10.9,0,24.1-2.5,38.6-10.4l-1-1.8c-38.3,20.8-67.1,3.2-67.4,3l-1.1,1.7  C520.5,264.7,532.4,272,551.1,272z"
   id="path4602" />
<path
   class="st0"
   d="M465.2,447.4c2.4-18.3,4.4-43.9,10.1-122.3l-2.1-0.2c-5.8,78.3-7.7,104-10.1,122.2L465.2,447.4z"
   id="path4604" />
<path
   class="st0"
   d="M413.3,448.9c6-42.9,31.6-210.4,34.6-217.7l0.2-0.4c1.8-4.3,6-14.3,26.5-14.7c8.4-0.2,35-4.1,44.6-10.8  c-0.3,7.6-1.2,32.3,0.1,49.8c1.9,26.6,0.4,133.5-2.6,190.5l2.1,0.1c3.1-57.1,4.5-164.1,2.6-190.8c-1.5-20.7,0-51.6,0-51.9l0.1-2.7  l-1.9,2c-6.5,6.7-34.8,11.5-45.1,11.7c-21.8,0.4-26.6,11.7-28.4,16l-0.2,0.4c-3.3,7.9-29.5,180.8-34.8,218.2L413.3,448.9z"
   id="path4606" />
<path
   class="st0"
   d="M644.9,447.9l2-0.3c-2.2-16.7-14.3-127.2-14.4-128.3l-2,0.2C630.6,320.7,642.7,431.2,644.9,447.9z"
   id="path4608" />
<path
   class="st0"
   d="M695.4,448.3l2-0.5c-5.8-24.3-10-73.6-14.1-121.2c-5.3-62.4-8.9-100.6-14.4-105.4c-10.2-8.9-17.5-9.2-25.3-9.5  c-4.5-0.2-9.1-0.3-14.7-2.2l-0.7,2c5.8,2,10.6,2.2,15.3,2.3c7.7,0.3,14.4,0.5,24,9c5.2,4.6,9.5,55.1,13.7,104  C685.3,374.5,689.6,423.9,695.4,448.3z"
   id="path4610" />
<path
   class="st0"
   d="M588.3,449.8l2-0.4c-7.4-39.6-3.6-112.2-1.4-155.6c0.8-14.8,1.4-26.5,1.4-33.1c0-30.4-7.6-60.3-7.7-60.6l-2,0.5  c0.1,0.3,7.6,29.9,7.6,60.1c0,6.6-0.6,18.3-1.4,33C584.6,337.2,580.8,410,588.3,449.8z"
   id="path4612" />
<path
   class="st0"
   d="M612.6,237.3c2.5,0,4.7-0.6,6.7-1.7c9.1-5.2,10.2-21.2,11.3-36.7c0.2-3.4,0.5-6.9,0.8-10.1  c1.1-11.3,0.6-12.9-0.2-15.7c-0.9-3.2-2.4-7.9-1.9-34.4c0.8-43.9-3.9-51.5-17.6-74c-1.4-2.3-2.9-4.8-4.5-7.4  c-17.1-28.7-29-31-40.6-31c-4.3,0-7.2,0.7-9.4,1.3c-3.6,0.9-4.8,1.2-7.4-2.6c-5.1-7.3-19.6-4.8-20.2-4.7c-0.3,0.1-0.6,0.1-1,0.2  c-14.1,2.2-23.4,8.3-27.6,18.1c-1.9,4.4-3.6,7.6-5.1,10.4c-3.8,7-6.1,11.3-5.5,25.8c0.4,10.3-1,16-2.6,22  c-1.4,5.3-2.8,10.8-2.8,19.7c0,5-0.6,9.9-1.2,14.5c-1.6,12.4-3.3,25.2,6.8,42.3l0.2,0.4l0.5,0.1c0,0,3,0.6,4.6,3.4  c1.6,2.7,1.5,6.6-0.3,11.5c-5.4,15.2,6.8,22.8,6.9,22.9l0.3,0.2l0.4-0.1c0.3,0,27-5,26.7-26.5h-2.1c0.3,18.4-21.4,23.7-24.6,24.4  c-1.8-1.3-10.1-7.8-5.7-20.3c1.9-5.5,2-10,0.1-13.2c-1.7-2.9-4.4-4-5.5-4.3c-9.5-16.3-7.9-28.1-6.3-40.6c0.6-4.7,1.3-9.7,1.3-14.8  c0-8.6,1.4-14,2.7-19.2c1.5-5.9,3.1-12,2.7-22.6c-0.6-13.9,1.5-17.8,5.3-24.7c1.5-2.8,3.3-6,5.2-10.6c3.9-9,12.7-14.7,26.1-16.8  c0.6-0.1,1.1-0.2,1.2-0.2l0,0c0.1,0,13.6-2.3,18,3.9c3.5,4.9,5.9,4.3,9.6,3.4c2.2-0.5,4.9-1.2,8.9-1.2c11,0,22.3,2.3,38.9,30  c1.6,2.7,3.1,5.1,4.5,7.5c13.5,22.1,18,29.6,17.3,72.9c-0.5,26.8,1,31.8,2,35.1c0.7,2.5,1.2,4,0.1,14.9c-0.3,3.3-0.6,6.8-0.8,10.2  c-1,15-2.1,30.5-10.3,35.1c-4.5,2.5-10.8,1.6-19.2-2.7c-5.9-3-10.5-15.4-14.3-25.4c-1.8-4.9-3.6-9.6-5.3-12.8  c-5.1-9.4,3.2-39.6,3.3-39.9l-2-0.6c-0.4,1.3-8.6,31.2-3.2,41.4c1.7,3.1,3.4,7.7,5.2,12.5c4.1,10.8,8.7,23.1,15.3,26.5  C603.7,235.8,608.5,237.3,612.6,237.3z"
   id="path4614" />
<path
   class="st0"
   d="M533,185.8c0.5,0,1,0,1.4,0c11.3-0.6,29-8.1,44.9-27.4c6.3-7.7,10.4-22.4,10.9-39.3l-2.1-0.1  c-0.5,16.5-4.4,30.7-10.4,38.1c-15.4,18.9-33,26.2-43.4,26.7c-5.2,0.3-9.4-1-12-3.6c-15.5-15.6-30.1-55.3-30.1-62.6  c0-3.1,1.3-5.3,2.7-7.7c1.9-3.2,4.1-6.9,3.1-13.1c-1.3-8.4,0.1-16.2,2.5-29.3c0.5-2.8,1.1-5.8,1.6-9.1c3.2-18,30.1-23.6,30.4-23.7  c28.9-6.4,41.2,21.8,50.4,48.8c1,2.8,2.1,7.2,2.4,8.5l2-0.5c-0.4-1.7-1.5-5.8-2.4-8.6c-7.4-21.5-19.8-57.5-52.8-50.1  c-1.1,0.2-28.6,5.9-32,25.3c-0.6,3.3-1.1,6.3-1.6,9.1c-2.4,13.3-3.9,21.3-2.5,30c0.9,5.5-0.9,8.5-2.8,11.7c-1.5,2.5-3,5.1-3,8.7  c0,7.7,14.5,47.8,30.7,64C523.7,184.3,527.9,185.8,533,185.8z"
   id="path4616" />
<path
   class="st1"
   d="M542.4,93.8c0.1,0,10.9-3.3,16.2-0.1l1.1-1.8c-6.1-3.6-17.4-0.2-17.9-0.1L542.4,93.8z"
   id="path4618" />
<path
   class="st1"
   d="M502.5,100.1c4-3.2,13.3-2.8,13.4-2.8l0.1-2.1c-0.4,0-10.2-0.4-14.8,3.2L502.5,100.1z"
   id="path4620" />
<path
   class="st1"
   d="M511.4,101c0.2,1.9-0.8,3.7-2.3,3.9c-1.5,0.2-2.9-1.2-3.2-3.2c-0.2-1.9,0.8-3.7,2.3-3.9  C509.7,97.6,511.2,99,511.4,101z"
   id="path4622" />
<ellipse
   class="st1"
   cx="551.9"
   cy="95.8"
   rx="2.9"
   ry="3.5"
   id="ellipse4624" />
<path
   class="st2"
   d="M519.9,129l1.3-1.6c-3.8-3.2-3.8-4,0.3-11.9c4.2-8.2,2.7-25.6,2.6-26.4l-2.1,0.2c0,0.2,1.6,17.6-2.4,25.2  C515.6,122.4,514.7,124.7,519.9,129z"
   id="path4626" />
<path
   class="st2"
   d="M534.7,125.1c1.7-6.2-2.7-9.4-5.3-10.2l-0.6,2c0.6,0.2,5.6,1.9,4,7.6L534.7,125.1z"
   id="path4628" />
<path
   class="st1"
   d="M513.3,147.1c0,0,10.7-5.4,14.4-4.3c3.6,1.1,7.1-1.7,11.8,0.7s8.6,2.4,8.6,2.4s-6.1,6.8-18.5,7  C529.6,153,514.4,152.1,513.3,147.1z"
   id="path4630" />
<path
   class="st1"
   d="M512.3,147.4l-0.1-0.5l0.4-0.4c0.3-0.3,7.8-8,16.4-8.7c1.2-0.1,2.4-0.2,3.4-0.2c6.4,0,11,1.7,18,6.9l0.5,0.4  l-0.1,0.7c0,0.1-2.5,10.7-16.9,12.1c-1.4,0.1-2.8,0.2-4.1,0.2l0,0C520,157.8,513.8,154.1,512.3,147.4z"
   id="path4632" />
<path
   class="st1"
   d="M540.4,79.2c0,0-2.1,1.3,1.7,3s13.9-6.7,20.2-2c4.4,3.3,3.7,1.6,0.3-3.1C559.3,72.3,544.3,76.6,540.4,79.2z"
   id="path4634" />
<path
   class="st1"
   d="M517.1,83.5c0,0,1.9,1.1-1.2,3.1c-3.1,2-12.2-5.6-17.1-0.5c-3.4,3.6-2.9,1.9-0.5-3.1  C500.7,78.1,513.6,81.3,517.1,83.5z"
   id="path4636" />
<path
   class="st0"
   d="M587.6,120.3c0.9,0,1.6-0.2,2.2-0.5c4.6-2,7-9.9,7.4-16.9c0.1-2.4,0.2-10.4-3.5-12.5  c-7.4-4.2-14.8,7.2-15.1,7.7l1.7,1.1c0.1-0.1,6.6-10.2,12.3-7c1.8,1,2.8,5.3,2.5,10.6c-0.3,6.4-2.5,13.6-6.1,15.2  c-1.5,0.7-3.3,0.2-5.2-1.5l-1.3,1.6C584.4,119.7,586.2,120.3,587.6,120.3z"
   id="path4638" />
<path
   class="st0"
   d="M594.1,404c-0.2-2,0.5-4,1.8-5.5c1.4-1.6,3.4-2.6,5.6-2.7c4.4-0.3,8.2,2.9,8.5,7.1c0.1,2-0.5,4-1.8,5.5  c-1.4,1.6-3.4,2.6-5.6,2.7c-0.2,0-0.4,0-0.6,0l0,0C597.9,411.1,594.4,408,594.1,404z M601.7,397.8c-1.6,0.1-3.1,0.8-4.1,2  c-1,1.1-1.4,2.5-1.3,4c0.2,3.1,3,5.5,6.3,5.2c1.6-0.1,3.1-0.8,4.1-2c1-1.1,1.5-2.5,1.3-4c-0.2-2.9-2.8-5.2-5.9-5.2  C601.9,397.8,601.8,397.8,601.7,397.8z"
   id="path4640" />
<path
   class="st2"
   d="M596.8,435.4c-0.1-2,0.5-3.9,1.8-5.5c1.4-1.6,3.4-2.6,5.6-2.8c4.4-0.3,8.2,2.9,8.5,7.1c0.1,2-0.5,4-1.8,5.5  c-1.4,1.6-3.4,2.6-5.6,2.7c-0.2,0-0.4,0-0.6,0l0,0C600.6,442.6,597.1,439.4,596.8,435.4z M604.3,429.2c-1.6,0.1-3.1,0.8-4.2,2.1  c-1,1.1-1.4,2.5-1.3,4c0.2,3.1,3.2,5.5,6.3,5.2c1.6-0.1,3.1-0.8,4.1-2c1-1.1,1.5-2.5,1.4-4c-0.2-2.9-2.8-5.2-5.9-5.2  C604.6,429.2,604.5,429.2,604.3,429.2z"
   id="path4642" />
</svg>