<?xml version="1.0" encoding="UTF-8" standalone="no"?>
<!-- Generator: Adobe Illustrator 19.2.0, SVG Export Plug-In . SVG Version: 6.00 Build 0)  -->

<svg
   xmlns:dc="http://purl.org/dc/elements/1.1/"
   xmlns:cc="http://creativecommons.org/ns#"
   xmlns:rdf="http://www.w3.org/1999/02/22-rdf-syntax-ns#"
   xmlns:svg="http://www.w3.org/2000/svg"
   xmlns="http://www.w3.org/2000/svg"
   xmlns:sodipodi="http://sodipodi.sourceforge.net/DTD/sodipodi-0.dtd"
   xmlns:inkscape="http://www.inkscape.org/namespaces/inkscape"
   version="1.1"
   id="Layer_1"
   x="0px"
   y="0px"
   width="800px"
   height="450px"
   viewBox="0 0 800 450"
   style="enable-background:new 0 0 800 450;"
   xml:space="preserve"
   inkscape:version="0.48.3.1 r9886"
   sodipodi:docname="overlay__Portrait 4.svg"><metadata
   id="metadata4784"><rdf:RDF><cc:Work
       rdf:about=""><dc:format>image/svg+xml</dc:format><dc:type
         rdf:resource="http://purl.org/dc/dcmitype/StillImage" /></cc:Work></rdf:RDF></metadata><defs
   id="defs4782" /><sodipodi:namedview
   pagecolor="#ffffff"
   bordercolor="#666666"
   borderopacity="1"
   objecttolerance="10"
   gridtolerance="10"
   guidetolerance="10"
   inkscape:pageopacity="0"
   inkscape:pageshadow="2"
   inkscape:window-width="640"
   inkscape:window-height="480"
   id="namedview4780"
   showgrid="false"
   inkscape:zoom="0.405"
   inkscape:cx="400"
   inkscape:cy="225"
   inkscape:window-x="398"
   inkscape:window-y="24"
   inkscape:window-maximized="0"
   inkscape:current-layer="Layer_1" />
<style
   type="text/css"
   id="style4762">
	.st0{fill:none;stroke:#FAAF40;stroke-width:3;stroke-miterlimit:10;}
</style>
<path
   class="st0"
   d="M211.9,352.6c0,0-11.5,8.3-6.9,11.3c4.6,3.1,29.9-2.9,41.4-4.9s32.2-4.7,42.2-4.9c10-0.2,22.5-6.2,20.9-16.5"
   id="path4764" />
<path
   class="st0"
   d="M203.7,103.5c0,0-17.1-14-13.3-17.8s26.8-2.3,39.9,0c13,2.3,25.3,7.2,34.5,7.4c9.2,0.3,36.8,8.9,32.2,22"
   id="path4766" />
<path
   class="st0"
   d="M423.8,228.3c2.3-38.3-18.5-68.2-36.4-79.7c-17.8-11.5-64.4-26.4-72.5-28.4c0,0-41.6-10.7-71.5-13.8  c-29.9-3.1-71.3-4.6-87.7-3.8c-16.4,0.8-62.8,17.6-84.1,54.4c0,0-14.5,32.8-16.2,71.2c1.7,38.5,16.2,71.2,16.2,71.2  c21.4,36.8,67.7,53.6,84.1,54.4s57.8-0.8,87.7-3.8c29.9-3.1,71.5-13.8,71.5-13.8c8.1-2,54.7-16.9,72.5-28.4  C405.2,296.5,425,262.3,423.8,228.3z"
   id="path4768" />
<path
   class="st0"
   d="M391.7,305c15-1.2,31.5,12.3,31.5,12.3s24,11.5,24,31.4c0,0,6.6,58.9,17.6,100.2"
   id="path4770" />
<path
   class="st0"
   d="M383.1,146.1c15.1-2.8,40-15.5,40-15.5s24-11.5,24-31.4c0,0,6.6-58.9,17.6-100.2"
   id="path4772" />
<line
   class="st0"
   x1="55.3"
   y1="226.7"
   x2="425"
   y2="226.7"
   id="line4774" />
<line
   class="st0"
   x1="219"
   y1="351.6"
   x2="219"
   y2="104.7"
   id="line4776" />
<line
   class="st0"
   x1="343.8"
   y1="275"
   x2="343.8"
   y2="180.1"
   id="line4778" />
</svg>