<?xml version="1.0" encoding="UTF-8" standalone="no"?>
<!-- Generator: Adobe Illustrator 19.2.0, SVG Export Plug-In . SVG Version: 6.00 Build 0)  -->

<svg
   xmlns:dc="http://purl.org/dc/elements/1.1/"
   xmlns:cc="http://creativecommons.org/ns#"
   xmlns:rdf="http://www.w3.org/1999/02/22-rdf-syntax-ns#"
   xmlns:svg="http://www.w3.org/2000/svg"
   xmlns="http://www.w3.org/2000/svg"
   xmlns:sodipodi="http://sodipodi.sourceforge.net/DTD/sodipodi-0.dtd"
   xmlns:inkscape="http://www.inkscape.org/namespaces/inkscape"
   version="1.1"
   id="Layer_1"
   x="0px"
   y="0px"
   width="800px"
   height="450px"
   viewBox="0 0 800 450"
   style="enable-background:new 0 0 800 450;"
   xml:space="preserve"
   inkscape:version="0.48.3.1 r9886"
   sodipodi:docname="overlay__Portrait 1.svg"><metadata
   id="metadata4703"><rdf:RDF><cc:Work
       rdf:about=""><dc:format>image/svg+xml</dc:format><dc:type
         rdf:resource="http://purl.org/dc/dcmitype/StillImage" /></cc:Work></rdf:RDF></metadata><defs
   id="defs4701" /><sodipodi:namedview
   pagecolor="#ffffff"
   bordercolor="#666666"
   borderopacity="1"
   objecttolerance="10"
   gridtolerance="10"
   guidetolerance="10"
   inkscape:pageopacity="0"
   inkscape:pageshadow="2"
   inkscape:window-width="640"
   inkscape:window-height="480"
   id="namedview4699"
   showgrid="false"
   inkscape:zoom="0.405"
   inkscape:cx="400"
   inkscape:cy="225"
   inkscape:window-x="351"
   inkscape:window-y="24"
   inkscape:window-maximized="0"
   inkscape:current-layer="Layer_1" />
<style
   type="text/css"
   id="style4651">
	.st0{fill:none;stroke:#FAAF40;stroke-width:3;stroke-miterlimit:10;}
	.st1{fill:none;stroke:#00A69C;stroke-width:3;stroke-miterlimit:10;}
</style>
<path
   class="st0"
   d="M427.4,122.9c0,0,0.4-6.8,5.3-7.8c5-1.1,2.9,16,0,22.8c-2.9,6.8-9.6,5-9.6,5s-1.1,4.6-3.9,10.7  c-2.9,6.1-12.5,8.6-21.8,13.6s-16,6.1-23.5,1.8s-13.2-15.7-15.7-24.3s-1.8-25,0-30s3.6-24.3,3.6-24.3s6.4-21.8,24.6-20.3  c0,0,8.9-1.1,18.2,1.4s17.1,8.6,18.2,20.3s0,23.5,0.7,28.9C424.2,126.1,427.4,122.9,427.4,122.9z"
   id="path4653" />
<path
   class="st0"
   d="M357.8,116.2c0,0-2.8-10.4-1.2-19.7c1.6-9.3,4.1-10.7,3-16.4c-1.1-5.7,4.6-19.6,13.9-20.3  c7.1-0.5,15-10,19.6-8.2s6.4-8,16.8-0.4s12.1,1.5,20.3,12.6c8.2,11.1,15.2,18.7,5.1,54"
   id="path4655" />
<path
   class="st0"
   d="M356.1,114c0,0-4.7-0.8-3.9,6.7c0.7,7.5-1,13.6,4.7,15.4"
   id="path4657" />
<path
   class="st0"
   d="M381.4,171.4c0,0-1.7-59,10-101.5"
   id="path4659" />
<path
   class="st0"
   d="M359.8,107.3c0,0,17.2,10.9,63.5,6.7"
   id="path4661" />
<path
   class="st0"
   d="M370.4,143.2c0,0,7.4,6.8,25.8,3.6"
   id="path4663" />
<line
   class="st1"
   x1="1.9"
   y1="361.8"
   x2="308.9"
   y2="361.8"
   id="line4665" />
<line
   class="st1"
   x1="464.2"
   y1="361.8"
   x2="802.1"
   y2="361.8"
   id="line4667" />
<path
   class="st0"
   d="M363,180.2c1.9-7.5,1.5-21.3,1.5-21.3"
   id="path4669" />
<path
   class="st0"
   d="M363.8,157.8c0,0-9.1,8.9-11.7,16.9s-1.7,11.8,2.4,18.7c4.1,7,4.1,7,4.1,7l9.9-10.1"
   id="path4671" />
<path
   class="st0"
   d="M350.6,182.5c0,0,8.6-10.4,13.9,0s7.7,15.5,7.7,15.5"
   id="path4673" />
<path
   class="st0"
   d="M347.4,279c0,0,7.8-51.6,14.1-62.6c6.3-11,11.8-25.5,19.8-28.5c8.1-3,16.6-4.9,26.3-12.9  c9.6-8,11.9-13,11.8-17.2s1.2-1.2,3.9,6.8c2.8,8,3.6,13.3,3.6,13.3s-34.5,31.4-37.7,32.5c0,0-4.3-10.7,0-12.3s11.8-6.7,3.5-14.2"
   id="path4675" />
<path
   class="st0"
   d="M425.3,171.4c0,0,11.6,5.9,20.2,8.8c8.6,2.8,29.4,12.4,33.4,22.1c4,9.6,2.4,24.3,3.2,46s-1.3,36.9-3.7,47.9  c-2.4,11-30.2,47.3-38.3,54.3s-15,6.2-40.4,10.4c-25.4,4.3-60.2-7.2-76.2-13.1s-22.5-3.5-24.3-16.9"
   id="path4677" />
<path
   class="st0"
   d="M353.4,171.6c0,0-9.8,1-13.5,2.1s-13.6-1.5-17.1-1s-6.4,0.9-12.3,6.5c-5.9,5.5-9.1,8.2-9.9,11.7  s-14.2,7.5-19.3,21.9s-26.2,25.4-32.1,42.3s-11.5,44.7-6.7,56.2s30.8,23.3,46.8,21.1s25.9-12,38.3-13.6c12.3-1.6,15.2-1.9,15.2-1.9  s9.6-5.9,15.5-4.5c5.9,1.3,8.8-2.4,12-3.7c0,0,4.3-30,4.3-29.4s-31,0-31,0s-1.6-3.2-10.4-1.3c-8.8,1.9-14.4-8.8-28.4-4.8  c-13.9,4-16.3-4.5-16.3-4.5s-9.1-13.4-2.7-16.3"
   id="path4679" />
<path
   class="st0"
   d="M306.4,256.6c0,0,0.6-11,0-18.2s3.5-11.1,5.1-20.9"
   id="path4681" />
<path
   class="st0"
   d="M435.1,221.3c0,0-10.7,13.9-14.7,28.1c-4,14.2-3.2,24.9-9.1,31.3s-15.2,11.2-26.2,19.5s-14.7,8.3-14.7,8.3"
   id="path4683" />
<path
   class="st0"
   d="M298.1,274c0,0-16.3-24.1-12.5-27c5.4-4.2,10.2,5.1,10.2,5.1l11.9,20.2"
   id="path4685" />
<path
   class="st0"
   d="M316,272.7c0,0-13.6-24.5-16.8-24.5c-4.3,0-3.5,3.9-3.5,3.9"
   id="path4687" />
<path
   class="st0"
   d="M374.6,281.2c0,0,17.4-3,25.1,0s7.7,3,7.7,3"
   id="path4689" />
<path
   class="st0"
   d="M343.6,279c0,0,0.8,27-0.8,37.7"
   id="path4691" />
<path
   class="st0"
   d="M301.1,337.6c0,0,3.9,17.1,10.4,33.9c6.4,16.8,11.8,21,18.5,23.5c6.8,2.5,22,1.1,34.5,1.4  c12.6,0.4,32.5-4.3,48.9-7.1c16.4-2.9,28.9-6.1,36.4-9.6c7.5-3.6,14.6-3.6,14.3-9.3s-3.7-44.2-1.9-46.9"
   id="path4693" />
<path
   class="st0"
   d="M319.1,386.6c0,0-17.2,40-16.1,67"
   id="path4695" />
<path
   class="st0"
   d="M464.2,374c0,0,5.7,19.3,7.5,35.3s4.3,44.6,4.3,44.6"
   id="path4697" />
</svg>