<?xml version="1.0" encoding="UTF-8" standalone="no"?>
<!-- Generator: Adobe Illustrator 19.2.0, SVG Export Plug-In . SVG Version: 6.00 Build 0)  -->

<svg
   xmlns:dc="http://purl.org/dc/elements/1.1/"
   xmlns:cc="http://creativecommons.org/ns#"
   xmlns:rdf="http://www.w3.org/1999/02/22-rdf-syntax-ns#"
   xmlns:svg="http://www.w3.org/2000/svg"
   xmlns="http://www.w3.org/2000/svg"
   xmlns:sodipodi="http://sodipodi.sourceforge.net/DTD/sodipodi-0.dtd"
   xmlns:inkscape="http://www.inkscape.org/namespaces/inkscape"
   version="1.1"
   id="Layer_1"
   x="0px"
   y="0px"
   width="800px"
   height="450px"
   viewBox="0 0 800 450"
   style="enable-background:new 0 0 800 450;"
   xml:space="preserve"
   inkscape:version="0.48.3.1 r9886"
   sodipodi:docname="overlay__Portrait 2.svg"><metadata
   id="metadata4728"><rdf:RDF><cc:Work
       rdf:about=""><dc:format>image/svg+xml</dc:format><dc:type
         rdf:resource="http://purl.org/dc/dcmitype/StillImage" /></cc:Work></rdf:RDF></metadata><defs
   id="defs4726" /><sodipodi:namedview
   pagecolor="#ffffff"
   bordercolor="#666666"
   borderopacity="1"
   objecttolerance="10"
   gridtolerance="10"
   guidetolerance="10"
   inkscape:pageopacity="0"
   inkscape:pageshadow="2"
   inkscape:window-width="640"
   inkscape:window-height="480"
   id="namedview4724"
   showgrid="false"
   inkscape:zoom="0.405"
   inkscape:cx="400"
   inkscape:cy="225"
   inkscape:window-x="252"
   inkscape:window-y="24"
   inkscape:window-maximized="0"
   inkscape:current-layer="Layer_1" />
<style
   type="text/css"
   id="style4706">
	.st0{fill:none;stroke:#FAAF40;stroke-width:3;stroke-miterlimit:10;}
</style>
<path
   class="st0"
   d="M604.8,118.7c-0.6-87.4-73-92.8-106.7-75.4s-36.2,51.2-36.2,51.2s4.8-15.7,16.9-9.6c12.1,6,49.4,2.9,68.7-7.9  s20.5,3,20.5,3s3,17,9,32.7s15.1,30.7,15.1,30.7S593.3,115.7,604.8,118.7c18,4.7,13.9,39.2,8.4,50.6c-5.4,11.5-15.7,5.4-15.7,5.4  c-15.7,55.5-35,80.8-62.1,80.8c-27.1,0-30.8-3.9-51.8-48.8c-21.7-46.4-21.7-112.1-21.7-112.1"
   id="path4708" />
<path
   class="st0"
   d="M535.4,255.6c0,0-57.3-133.2-6-220.1"
   id="path4710" />
<path
   class="st0"
   d="M467.8,154.2c0,0,40.5,11.5,122.2-14.5"
   id="path4712" />
<path
   class="st0"
   d="M505.9,215.3c0,0,16.9,5.9,48.2-4.3"
   id="path4714" />
<path
   class="st0"
   d="M596.9,176.8c0,0,2.4,38.7,6,47.9c3.6,9.1,7.8,13.9,7.8,13.9s15.1,16.4,70.5,23.6  c55.5,7.2,97.7,57.9,100.7,102.5s-4.8,85.1-4.8,85.1"
   id="path4716" />
<path
   class="st0"
   d="M505.6,246.4c0,0-5.2,11-16.6,17c0,0-67.5,23-88.6,35s-56.1,60.7-74.8,106s-18.7,45.3-18.7,45.3"
   id="path4718" />
<line
   class="st0"
   x1="402.5"
   y1="450"
   x2="418.8"
   y2="401.5"
   id="line4720" />
<line
   class="st0"
   x1="651.7"
   y1="450"
   x2="667.9"
   y2="401.5"
   id="line4722" />
</svg>