<?xml version="1.0" encoding="UTF-8" standalone="no"?>
<!-- Generator: Adobe Illustrator 19.2.0, SVG Export Plug-In . SVG Version: 6.00 Build 0)  -->

<svg
   xmlns:dc="http://purl.org/dc/elements/1.1/"
   xmlns:cc="http://creativecommons.org/ns#"
   xmlns:rdf="http://www.w3.org/1999/02/22-rdf-syntax-ns#"
   xmlns:svg="http://www.w3.org/2000/svg"
   xmlns="http://www.w3.org/2000/svg"
   xmlns:sodipodi="http://sodipodi.sourceforge.net/DTD/sodipodi-0.dtd"
   xmlns:inkscape="http://www.inkscape.org/namespaces/inkscape"
   version="1.1"
   id="Layer_1"
   x="0px"
   y="0px"
   width="800px"
   height="450px"
   viewBox="0 0 800 450"
   style="enable-background:new 0 0 800 450;"
   xml:space="preserve"
   inkscape:version="0.48.3.1 r9886"
   sodipodi:docname="overlay__Portrait 6.svg"><metadata
   id="metadata4880"><rdf:RDF><cc:Work
       rdf:about=""><dc:format>image/svg+xml</dc:format><dc:type
         rdf:resource="http://purl.org/dc/dcmitype/StillImage" /></cc:Work></rdf:RDF></metadata><defs
   id="defs4878" /><sodipodi:namedview
   pagecolor="#ffffff"
   bordercolor="#666666"
   borderopacity="1"
   objecttolerance="10"
   gridtolerance="10"
   guidetolerance="10"
   inkscape:pageopacity="0"
   inkscape:pageshadow="2"
   inkscape:window-width="640"
   inkscape:window-height="480"
   id="namedview4876"
   showgrid="false"
   inkscape:zoom="0.405"
   inkscape:cx="400"
   inkscape:cy="225"
   inkscape:window-x="0"
   inkscape:window-y="24"
   inkscape:window-maximized="0"
   inkscape:current-layer="Layer_1" />
<style
   type="text/css"
   id="style4838">
	.st0{fill:none;stroke:#FAAF40;stroke-width:3;stroke-miterlimit:10;}
	.st1{fill:none;stroke:#00A69C;stroke-width:3;stroke-miterlimit:10;}
</style>
<path
   class="st0"
   d="M521.3,50.7c0,0-30.3,0.2-39.4,23.9c-6.8,17.7-11.5,77.5,18.2,110.2c29.7,32.7,51.2,20.6,64.1,0  s15.3-50.3,11.6-80C572.1,75.2,567.2,47.7,521.3,50.7z"
   id="path4840" />
<path
   class="st0"
   d="M482.4,152c-5-0.1-8.3-10.2-10.8-19.2s6-5,6-5s-1.4-36.1,14.3-51.1c7.6-7.3,13.6-10.9,20.9-7.9  c5.8,2.4,13.9,1,24.8-3.7c8.5-3.6,27.3,10.6,39.7,54.9c0,0,6.3-7.3,6.9,0c0.6,7.3-3,23-6.9,21.8"
   id="path4842" />
<line
   class="st0"
   x1="520"
   y1="50.8"
   x2="537"
   y2="206.6"
   id="line4844" />
<line
   class="st0"
   x1="478.2"
   y1="132.5"
   x2="577.3"
   y2="123.6"
   id="line4846" />
<line
   class="st0"
   x1="511.3"
   y1="171.5"
   x2="552.1"
   y2="167.5"
   id="line4848" />
<path
   class="st0"
   d="M568,177.6c0,0,1.5,13.6,16.3,14.8s69,3.8,75.9,12.7c7,8.8,39.1,111.2,39.1,111.2"
   id="path4850" />
<path
   class="st0"
   d="M494.9,178.4c0,0,3.3,8.2-6.1,17s-57.2,20.9-64.8,24.5c-7.6,3.6-12.7,25.1-14.5,40.9  c-1.8,15.7-21.2,73.9-25.7,85.1s-4.5,11.2-4.5,11.2s-44.5-31.8-66.3-74.2s10.6-34.2-26.6-80l-16.1-14.2"
   id="path4852" />
<path
   class="st0"
   d="M296.5,231.4c0,0-5.8-12.1-8.2-16.7c-2.4-4.5-18.8-14.5-18.8-14.5s-5.1,6.7,1.2,13.3c6.4,6.7,12.9,16,11.3,19.4  c-1.6,3.3-11.3,12.7-2.2,30"
   id="path4854" />
<path
   class="st0"
   d="M270.2,274.1c0,0,0.6,9.1,7.3,11.8c6.7,2.7,25.7,46.6,25.7,46.6s29.1,60,56.3,78.4c27.3,18.5,26.7,23,43.6,5.8  c17-17.3,40.3-62.7,40.3-62.7"
   id="path4856" />
<path
   class="st0"
   d="M440.4,449.5c0,0,11.8-72.1-2.4-123.3"
   id="path4858" />
<path
   class="st0"
   d="M647.2,337.4c0,0,23.3,43.6,34.5,55.1s20.8,21.3,29.7,21.8c0,0,16.6-14.8,22.4-44.8c9.7-50.1,7-126,7-126  l4.5-10.4"
   id="path4860" />
<path
   class="st0"
   d="M696.3,342.9c0,0,1.2-16.4,5.8-38.5s7.9-59.1,7.6-68.1s12.8-88.6,34.6-108.5c0,0,1.4,4-0.4,10.1  c-1.8,6.1-6.3,27.9-6.3,27.9"
   id="path4862" />
<path
   class="st0"
   d="M725.9,184.5l9.8-17c0,0,9.4-9.1,13.3-10.9c3.9-1.8,2.7,13-1.5,17.3c-4.2,4.2-7.6,13.6-7.6,13.6s6.9,9.6,4.3,26  c-1.9,12.3-12.5,17.3-12.5,17.3"
   id="path4864" />
<line
   class="st1"
   x1="270.2"
   y1="449.5"
   x2="270.2"
   y2="212.7"
   id="line4866" />
<line
   class="st1"
   x1="270.2"
   y1="200.3"
   x2="270.2"
   y2="-2.7"
   id="line4868" />
<line
   class="st1"
   x1="745.4"
   y1="159"
   x2="745.4"
   y2="-2.7"
   id="line4870" />
<line
   class="st1"
   x1="745.4"
   y1="451.3"
   x2="745.4"
   y2="178.3"
   id="line4872" />
<path
   class="st0"
   d="M647.2,313c0.6,2.6-3,97.9,6.7,134.7"
   id="path4874" />
</svg>