<?xml version="1.0" encoding="UTF-8" standalone="no"?>
<!-- Generator: Adobe Illustrator 19.2.0, SVG Export Plug-In . SVG Version: 6.00 Build 0)  -->

<svg
   xmlns:dc="http://purl.org/dc/elements/1.1/"
   xmlns:cc="http://creativecommons.org/ns#"
   xmlns:rdf="http://www.w3.org/1999/02/22-rdf-syntax-ns#"
   xmlns:svg="http://www.w3.org/2000/svg"
   xmlns="http://www.w3.org/2000/svg"
   xmlns:sodipodi="http://sodipodi.sourceforge.net/DTD/sodipodi-0.dtd"
   xmlns:inkscape="http://www.inkscape.org/namespaces/inkscape"
   version="1.1"
   id="Layer_1"
   x="0px"
   y="0px"
   width="800px"
   height="450px"
   viewBox="0 0 800 450"
   style="enable-background:new 0 0 800 450;"
   xml:space="preserve"
   inkscape:version="0.48.3.1 r9886"
   sodipodi:docname="overlay__Portrait 7.svg"><metadata
   id="metadata4963"><rdf:RDF><cc:Work
       rdf:about=""><dc:format>image/svg+xml</dc:format><dc:type
         rdf:resource="http://purl.org/dc/dcmitype/StillImage" /></cc:Work></rdf:RDF></metadata><defs
   id="defs4961" /><sodipodi:namedview
   pagecolor="#ffffff"
   bordercolor="#666666"
   borderopacity="1"
   objecttolerance="10"
   gridtolerance="10"
   guidetolerance="10"
   inkscape:pageopacity="0"
   inkscape:pageshadow="2"
   inkscape:window-width="640"
   inkscape:window-height="480"
   id="namedview4959"
   showgrid="false"
   inkscape:zoom="0.405"
   inkscape:cx="400"
   inkscape:cy="225"
   inkscape:window-x="226"
   inkscape:window-y="24"
   inkscape:window-maximized="0"
   inkscape:current-layer="Layer_1" />
<style
   type="text/css"
   id="style4883">
	.st0{fill:none;stroke:#FAAF40;stroke-width:3;stroke-miterlimit:10;}
</style>
<path
   class="st0"
   d="M383.9,442.4c0,0,20.9-29,23.9-55"
   id="path4885" />
<path
   class="st0"
   d="M507.3,48.2c0,0-36.6,21.1-30.2,71.4c7.3,57.4,5.8,96.5,54,128.2c37.5,24.7,65.9-15.6,82.4-38.5  s12.8-36.6,12.8-36.6s18.3-12.8,11.9-39.4s-24.7-10.1-24.7-10.1s-7.3,13.7-11-20.1c-3.7-33.9-26.9-70.5-49.2-69.6  s-29.5,19.8-34.2,22C509.9,59.9,515.6,41.8,507.3,48.2z"
   id="path4887" />
<path
   class="st0"
   d="M479.4,139.7c0,0-4.8-0.7-6.9-8.2c-5-17.9-10.4-23.9-4.5-36.7c5.8-12.8,2.3-43.9,32.9-54.9  c27.4-9.8,19.1-22.9,47.2-21s59.4,24.7,78.6,46.7c21.5,24.7,12.9,85.2,12.9,85.2"
   id="path4889" />
<path
   class="st0"
   d="M517.2,56.2c0,0-18.2,105.6,36.1,199.4"
   id="path4891" />
<path
   class="st0"
   d="M479.7,142.5c0,0,62.5,0.2,125-25.6"
   id="path4893" />
<path
   class="st0"
   d="M518.3,207.1c0,0,15.7,4.6,39.7-6.4"
   id="path4895" />
<path
   class="st0"
   d="M631.9,169.3c0,0-4.2,18.7,2.6,43.1c0,0-17.5,10.7-28.9,18.3s-23.4,19.2-35,24.4s-17.3,9.5-22,9.9  c-4.7,0.3-11.1,0.7-10.4,5.4c0.7,4.7-1.7,10.2-1.7,10.2s-2.6,18.1-4.9,22.7c-1.4,2.8-0.9-5.9-0.9-5.9c2.6-12.5-2.9-47.4-2.9-47.4"
   id="path4897" />
<path
   class="st0"
   d="M425.9,232.5c4.5,5.8,15.9,8.4,15.9,8.4c-1.8,3.9,0.5,9,0.5,9c-4.8,0-5.2,5.2-5.2,5.2s-0.8,5.5,7.8,4  c8.6-1.6,13.5-4.7,13.5-4.7s-0.3,1.3-3.6,5.5c-3.4,4.1-6,11.2,3.1,10.1c9.1-1,13.8-7.5,13.8-7.5c8.8,0,12.5-5.2,18.4-13.5  c5.9-8.3,1.8-20,1.3-27.5s-2.3-11.5-6-14.4c-3.6-2.9-18.7-10.8-34.5-14c-15.8-3.1-11.2,4.7-19.2,4.9c-8,0.3-3.4,9.1-8.6,9  s-10.9,10.4-13.2,15.8c-2.3,5.4-10.1,20.4-12.9,28.4c-2.8,8-13.9,21.1-17.6,24.9c-3.8,3.8-6.9,19.7-6.9,19.7s-15.9,30.5-22.8,41.2  s-17.3,36.7-21.1,47.8c-3.8,11.1-16.6,55.7-14.9,64.2"
   id="path4899" />
<path
   class="st0"
   d="M442.4,249.9c0,0,2.1,3.7,5.2,4.8"
   id="path4901" />
<path
   class="st0"
   d="M437.2,214.2c0,0,17.4,10.1,21.3,14.3c3.9,4.1,0.9,24.2,0,26"
   id="path4903" />
<path
   class="st0"
   d="M449.9,204.8c0,0,19.7,10.4,23.4,13.5c3.6,3.1,7,6.2,6.6,10.6c-0.4,4.4-0.4,20-2.1,24.1  c-1.7,4.2-6.1,9.3-6.1,9.3"
   id="path4905" />
<path
   class="st0"
   d="M485.5,207.1c0,0-3.7,1.1-4.9,5.3"
   id="path4907" />
<path
   class="st0"
   d="M484.2,219.9c0,0,4.9,0,6.5-3.8"
   id="path4909" />
<path
   class="st0"
   d="M466.8,225.3c0,0,4.1-5.7,9.1-4.7"
   id="path4911" />
<path
   class="st0"
   d="M471.3,230.3c0,0,2.4,1,8.5-1.3"
   id="path4913" />
<path
   class="st0"
   d="M449.9,232.4c0,0,1-5.2,6.3-5.8"
   id="path4915" />
<path
   class="st0"
   d="M453.1,236.5c0,0,4.2,1.3,7.1-1"
   id="path4917" />
<path
   class="st0"
   d="M454.5,193.9c0,0,19.3-12.4,30.3-16"
   id="path4919" />
<path
   class="st0"
   d="M482.1,190.8c0,0,0.9,10.6,5.3,18.2"
   id="path4921" />
<line
   class="st0"
   x1="480.4"
   y1="203.9"
   x2="484.4"
   y2="202.1"
   id="line4923" />
<path
   class="st0"
   d="M493.3,240.9c0,0,7.2-7.5,14.3-10.2"
   id="path4925" />
<path
   class="st0"
   d="M491.6,222.9c0,0,1.7-2.4,5.6-3"
   id="path4927" />
<path
   class="st0"
   d="M496.3,219c0,0-4.2,0.3-5.5-2.9"
   id="path4929" />
<path
   class="st0"
   d="M401.9,283.5c0,0,12.8,10.7,35.3-1.6c0,0,27.2-4.2,38.7-19.5"
   id="path4931" />
<path
   class="st0"
   d="M437.2,281.9c-5.2,4.9-14.8,20.2-15.3,21c0,0-2.7,10.4-3.4,17.8c-0.7,7.4-7.3,19.8-6.6,30.2  c0.7,10.4-4.1,16.6-4.1,16.6s1,9.3,0,19.7c0,0,20.3-22.2,28.3-32.9c8-10.7,23.6-40.5,30.7-48.1s34.4-22.5,44.8-24.4  c0,0-4.3-5.9-4-14.6c0.3-8.9,3.3-13.7,7.4-9.3l13.5-7.2"
   id="path4933" />
<path
   class="st0"
   d="M416.2,235.5c0,0,10.8,6.2,19.9,3.6"
   id="path4935" />
<path
   class="st0"
   d="M454.5,269.9c0,0,4-4.4,7.1-5s7.2,0.6,7.2,0.6"
   id="path4937" />
<path
   class="st0"
   d="M484.8,256c0,0-7.6,0.4-9.7,2"
   id="path4939" />
<path
   class="st0"
   d="M371,298.7c0,0-1,16.1-4.8,20.3c-3.8,4.3-10,15.3-10.4,18.8c-0.3,3.5-0.7,15.6,12.5,17s23.5-5.2,27-14.5  s15.4-31.6,25.9-34.5"
   id="path4941" />
<path
   class="st0"
   d="M424.7,449.1c2.1-13.7,19.7-47.9,27-57.2c7.3-9.3,18.3-34.3,28.2-45.4c9.9-11.1,39.6-47.8,39.6-47.8  s6.6-19.9,2.4-28.8C517.7,261,515,258,515,258"
   id="path4943" />
<path
   class="st0"
   d="M520,297.4c0,0-3.2-10.4-8.4-15.4"
   id="path4945" />
<path
   class="st0"
   d="M434.4,449.1c0,0,26.6-32.4,43.4-50.4s95.7-99.7,101.6-112.8c5.9-13.1,29.8-43.4,39.1-53.6  c9.3-10.1,29.6-25.2,15.1-23.3"
   id="path4947" />
<path
   class="st0"
   d="M633.2,207.1c0,0,6.2-0.6,8.6,0c2.4,0.6,13.5,27.3,15.6,32.6c2.1,5.4-10.4,18.5-14.2,27.2s-29.4,34.6-42.9,39.1  s-13.5,4.5-13.5,4.5s6.6,28,5.2,31.8c-1.4,3.8-46,41.9-67.1,54.7c-21.1,12.8-59.1,46.4-64.3,52.6"
   id="path4949" />
<path
   class="st0"
   d="M545.9,265.2c0,0,5.2,1.3,4.5,6.5s1,25.3,3.5,32.5l25.2-17.5"
   id="path4951" />
<path
   class="st0"
   d="M530.6,303.3c0,0,1,7.4-10.7,23.5s-56,71.9-69.5,88.3c-13.5,16.3-18.4,28-20.8,34"
   id="path4953" />
<path
   class="st0"
   d="M656.6,244.9c0,0,17.4,5,30.2,2.6s31.8-1.8,43.3,3.2c11.4,5.1,15.2,12.8,22.2,14.5c6.9,1.7,14.9,8.9,17.3,16.7  c2.4,7.8,29.6,38.8,29.6,38.8"
   id="path4955" />
<path
   class="st0"
   d="M723.8,248.6c0,0-16.2-1.5-34.6,23.8c-18.3,25.3-32.9,44.3-35,73s-6,80.3,2.4,104.2"
   id="path4957" />
</svg>