<?xml version="1.0" encoding="UTF-8" standalone="no"?>
<!-- Generator: Adobe Illustrator 19.2.0, SVG Export Plug-In . SVG Version: 6.00 Build 0)  -->

<svg
   xmlns:dc="http://purl.org/dc/elements/1.1/"
   xmlns:cc="http://creativecommons.org/ns#"
   xmlns:rdf="http://www.w3.org/1999/02/22-rdf-syntax-ns#"
   xmlns:svg="http://www.w3.org/2000/svg"
   xmlns="http://www.w3.org/2000/svg"
   xmlns:sodipodi="http://sodipodi.sourceforge.net/DTD/sodipodi-0.dtd"
   xmlns:inkscape="http://www.inkscape.org/namespaces/inkscape"
   version="1.1"
   id="Layer_1"
   x="0px"
   y="0px"
   width="800px"
   height="450px"
   viewBox="0 0 800 450"
   style="enable-background:new 0 0 800 450;"
   xml:space="preserve"
   inkscape:version="0.48.3.1 r9886"
   sodipodi:docname="overlay__Portrait 3.svg"><metadata
   id="metadata4759"><rdf:RDF><cc:Work
       rdf:about=""><dc:format>image/svg+xml</dc:format><dc:type
         rdf:resource="http://purl.org/dc/dcmitype/StillImage" /></cc:Work></rdf:RDF></metadata><defs
   id="defs4757" /><sodipodi:namedview
   pagecolor="#ffffff"
   bordercolor="#666666"
   borderopacity="1"
   objecttolerance="10"
   gridtolerance="10"
   guidetolerance="10"
   inkscape:pageopacity="0"
   inkscape:pageshadow="2"
   inkscape:window-width="640"
   inkscape:window-height="480"
   id="namedview4755"
   showgrid="false"
   inkscape:zoom="0.405"
   inkscape:cx="400"
   inkscape:cy="225"
   inkscape:window-x="299"
   inkscape:window-y="24"
   inkscape:window-maximized="0"
   inkscape:current-layer="Layer_1" />
<style
   type="text/css"
   id="style4731">
	.st0{fill:none;stroke:#FAAF40;stroke-width:3;stroke-miterlimit:10;}
</style>
<path
   class="st0"
   d="M114.7,234.4c0,0,24-19.6,27.6-46.5c3.6-26.8,16.2-105,26.4-126.6s34.8-39.4,56.5-40.9c9-0.6,24-1.2,45.1,12  c21,13.2,24,27.6,27.7,48.1c3.6,20.4,3.6,22.4,7.2,42.2s8.4,37.8,9,58.2s-13.8,77.5,3,106.4s2.6,46.5,2.6,46.5s-6.2-32.2-17.1-45.9  c-10.9-13.8-18.9-30.9-18.9-42.3"
   id="path4733" />
<path
   class="st0"
   d="M99.6,445.9c-1.8-1.2-3.6-89-6-118.4s1.8-76.9,6-81.7s21-14.4,43.3-24.6c22.2-10.2,36.1-36.7,37.3-58.9  c0,0,62.8,43.4,87.3,61.7c27.4,20.6,14.3,39.2,14.3,48.2s4.8,23.4,10.2,31.9c5.4,8.4,16.1,64.9,2.9,144.7"
   id="path4735" />
<path
   class="st0"
   d="M183.8,148.4c3,6.6,3,18.4,3,18.4"
   id="path4737" />
<path
   class="st0"
   d="M249.6,46.8c29.7-2.2,42.4,31.3,44.8,50.5s-6,15.6-1.8,30.1c4.2,14.4-1.6,21-10,39.4  c-8.1,17.7-21.5,29-34.7,25.4s-50.4-20.8-55.1-30.5c-0.7-1.5-3.1-15.1-3.1-15.1c-5.7,2.7-5.9,1.9-13.1-2.7  c-7.2-4.6-8.4-10.4-10-21.2c-1.6-10.7-0.4-18.5,6.4-20.1c6.8-1.6,10.8,7.6,10.8,7.6l4.3,9.6c0,0-1.1-30.2,10.5-47.1  C198.6,72.7,209.6,49.9,249.6,46.8z"
   id="path4739" />
<path
   class="st0"
   d="M258.7,192.2c-4.7,4.7-6.6,20.6-6.6,20.6"
   id="path4741" />
<path
   class="st0"
   d="M185.3,305.5c3,46.3,5.1,143.3,5.1,143.3"
   id="path4743" />
<path
   class="st0"
   d="M329.6,448.8c0,0,3.3-41.7-9.8-115"
   id="path4745" />
<path
   class="st0"
   d="M164.1,204c0,0,9.7,5.7,22.7,20.1c13,14.3,53.3,43.4,93.3,49.3"
   id="path4747" />
<path
   class="st0"
   d="M258.7,192.2c0,0,47.9-62-9.1-145.3"
   id="path4749" />
<path
   class="st0"
   d="M291.4,119.7c0,0-32.7,13.6-102.6-20.4"
   id="path4751" />
<path
   class="st0"
   d="M258.7,165c0,0,12.1,1.2,21.4,0"
   id="path4753" />
</svg>