<?xml version="1.0" encoding="UTF-8" standalone="no"?>
<!-- Generator: Adobe Illustrator 19.2.0, SVG Export Plug-In . SVG Version: 6.00 Build 0)  -->

<svg
   xmlns:dc="http://purl.org/dc/elements/1.1/"
   xmlns:cc="http://creativecommons.org/ns#"
   xmlns:rdf="http://www.w3.org/1999/02/22-rdf-syntax-ns#"
   xmlns:svg="http://www.w3.org/2000/svg"
   xmlns="http://www.w3.org/2000/svg"
   xmlns:sodipodi="http://sodipodi.sourceforge.net/DTD/sodipodi-0.dtd"
   xmlns:inkscape="http://www.inkscape.org/namespaces/inkscape"
   version="1.1"
   id="Layer_1"
   x="0px"
   y="0px"
   width="800px"
   height="450px"
   viewBox="0 0 800 450"
   style="enable-background:new 0 0 800 450;"
   xml:space="preserve"
   inkscape:version="0.48.3.1 r9886"
   sodipodi:docname="overlay__Portrait 5.svg"><metadata
   id="metadata4835"><rdf:RDF><cc:Work
       rdf:about=""><dc:format>image/svg+xml</dc:format><dc:type
         rdf:resource="http://purl.org/dc/dcmitype/StillImage" /></cc:Work></rdf:RDF></metadata><defs
   id="defs4833" /><sodipodi:namedview
   pagecolor="#ffffff"
   bordercolor="#666666"
   borderopacity="1"
   objecttolerance="10"
   gridtolerance="10"
   guidetolerance="10"
   inkscape:pageopacity="0"
   inkscape:pageshadow="2"
   inkscape:window-width="640"
   inkscape:window-height="480"
   id="namedview4831"
   showgrid="false"
   inkscape:zoom="0.405"
   inkscape:cx="400"
   inkscape:cy="225"
   inkscape:window-x="242"
   inkscape:window-y="24"
   inkscape:window-maximized="0"
   inkscape:current-layer="Layer_1" />
<style
   type="text/css"
   id="style4787">
	.st0{fill:none;stroke:#FAAF40;stroke-width:3;stroke-miterlimit:10;}
	.st1{fill:none;stroke:#00A69C;stroke-width:3;stroke-miterlimit:10;}
</style>
<path
   class="st0"
   d="M317.1,86c0.9-17.8-4.3-41.4-30-40s-39,35.2-39,35.2c-7.1-2.4-9.5,0-9,11.4s9.9,10.2,9.9,10.2s4,18.6,16.4,31.3  c12.1,12.4,20,15.5,33.3,4.4C298.7,138.6,315,129.4,317.1,86z"
   id="path4789" />
<path
   class="st0"
   d="M317.8,82.8c0,0,21.2-40.1-35.8-55.8c-17-4.7-35.3,3.3-42.9,19c-7.6,15.7-1.4,15.8-17.5,30.5  s-23.3,32.8-11.4,49.9c11.9,17.1-10.5,19,1.9,30c12.4,10.9,26.2,36.6,41.9,42.8s24.7,20.5,16.6-12.4s-28.4-48.2-21.5-84"
   id="path4791" />
<path
   class="st0"
   d="M287.1,145.1c0,0,25.7-41.7,5.7-99.2"
   id="path4793" />
<path
   class="st0"
   d="M316.5,94.6c0,0-22,10.5-68.3-13.3"
   id="path4795" />
<path
   class="st0"
   d="M282,123.1c0,0,11.8,4.8,20.2,1.7"
   id="path4797" />
<path
   class="st0"
   d="M212,156.4c0,0-16.3,12.7-19.8,18.4s-10.5,17.4,0,45.3s23.5,69.4,36.5,86.9c13,17.4,37.1,55.8,55.5,70.4  c18.4,14.6,21.6,18.1,21.6,18.1s2.2-14.3,7.3-19.7c5.1-5.4,10.1-9.8,13.6-8.2c3.5,1.6,7,1.9,0-6s-31.7-31.4-38.1-36.5  c-6.3-5.1-22.8-33.3-22.8-33.3l-28.9-69.1"
   id="path4799" />
<path
   class="st0"
   d="M206,258.2c0,0-7.1,29.1-14.7,42.7s-13.3,51.7-1.6,69.4s29.2,29.2,62.5,29.2s69.5,3.2,69.5,3.2"
   id="path4801" />
<path
   class="st0"
   d="M305.7,395.5c0,0,25.1,12.4,35.8,17.8s24.4,11.1,36.8,6s19-10.1,18.4-14.6s-3.2-3.5-3.2-3.5s6.3-8.6,5.4-13.9  c-1-5.4,0-7-9.5-3.5s-15.9,4.8-30.8-3.8c0,0,17.8,1,23.1,0c5.4-1,12.1-5.4-0.3-7.9s-19.5-3.5-25.8-5.4s-9.1,1.3-16.4,2.9  s-12.7-1.9-12.7-1.9"
   id="path4803" />
<path
   class="st0"
   d="M398.6,385.3c0,0-5.4,7.3-13,10.2s-19.3,2.5-19.3,2.5"
   id="path4805" />
<path
   class="st0"
   d="M364.7,408.5c0,0,20.3,1.3,28.9-7.3"
   id="path4807" />
<path
   class="st0"
   d="M359.3,415.1c0,0,21,3.2,25.4,1.3"
   id="path4809" />
<path
   class="st0"
   d="M374.6,370.6c0,0,8.2-5.6-4.5-18.3c0,0-24.1-14.9-49.8-25.4c-25.7-10.5-41.1-13.8-41.1-13.8"
   id="path4811" />
<path
   class="st0"
   d="M397.9,382.6c0,0,3.9-4.5,2.6-12s-11.9-31.1-11.9-31.1"
   id="path4813" />
<path
   class="st0"
   d="M320.2,239.5c0,0,7.8,35.8,10.4,43.1c2.6,7.3,29.9,50.7,34,57.7s4.1,7,4.1,7s15.1-7.9,22-7.9  c0,0-4-15.4-5.2-20.8c0,0-14.3-38.2-24.1-52.1c-9.8-14-11.4-60.9-17.1-82.8s-15.5-33-27.9-32.6c-12.4,0.4-26-5.9-26-5.9"
   id="path4815" />
<path
   class="st0"
   d="M191.2,301c0,0,16.2,7.6,37.4,6"
   id="path4817" />
<path
   class="st0"
   d="M272,302.1c0,0,16-3.4,33.7-10.3c0,0,21,20.4,34.9,44.4"
   id="path4819" />
<path
   class="st0"
   d="M305.7,291.8c0,0-4.1-27.9,3.8-33.6c10.2-7.3,13.5-12,8.2-36.8"
   id="path4821" />
<path
   class="st0"
   d="M340.6,412.8c0.9,0.4,8.5,26.7,24,37.2"
   id="path4823" />
<path
   class="st0"
   d="M397,395.5c0,0,11.2,33.6,17.8,54.5"
   id="path4825" />
<path
   class="st1"
   d="M287.6,401.2c0,0,15.9,26.3,17,48.8"
   id="path4827" />
<line
   class="st1"
   x1="287.6"
   y1="401.2"
   x2="0"
   y2="401.2"
   id="line4829" />
</svg>