<?xml version="1.0" encoding="UTF-8" standalone="no"?>
<!-- Generator: Adobe Illustrator 19.1.0, SVG Export Plug-In . SVG Version: 6.00 Build 0)  -->

<svg
   xmlns:dc="http://purl.org/dc/elements/1.1/"
   xmlns:cc="http://creativecommons.org/ns#"
   xmlns:rdf="http://www.w3.org/1999/02/22-rdf-syntax-ns#"
   xmlns:svg="http://www.w3.org/2000/svg"
   xmlns="http://www.w3.org/2000/svg"
   xmlns:sodipodi="http://sodipodi.sourceforge.net/DTD/sodipodi-0.dtd"
   xmlns:inkscape="http://www.inkscape.org/namespaces/inkscape"
   version="1.1"
   id="Layer_1"
   x="0px"
   y="0px"
   width="800px"
   height="450px"
   viewBox="0 0 800 450"
   xml:space="preserve"
   inkscape:version="0.48.3.1 r9886"
   sodipodi:docname="overlay__Posed Portrait 1.svg"><metadata
   id="metadata25"><rdf:RDF><cc:Work
       rdf:about=""><dc:format>image/svg+xml</dc:format><dc:type
         rdf:resource="http://purl.org/dc/dcmitype/StillImage" /></cc:Work></rdf:RDF></metadata><defs
   id="defs23" /><sodipodi:namedview
   pagecolor="#ffffff"
   bordercolor="#666666"
   borderopacity="1"
   objecttolerance="10"
   gridtolerance="10"
   guidetolerance="10"
   inkscape:pageopacity="0"
   inkscape:pageshadow="2"
   inkscape:window-width="640"
   inkscape:window-height="480"
   id="namedview21"
   showgrid="false"
   inkscape:zoom="0.405"
   inkscape:cx="400"
   inkscape:cy="225"
   inkscape:window-x="429"
   inkscape:window-y="24"
   inkscape:window-maximized="0"
   inkscape:current-layer="Layer_1" />
<style
   type="text/css"
   id="style3">
	.st0{fill:#F1F2F2;stroke:#F1F2F2;stroke-miterlimit:10;}
	.st1{fill:#F1F2F2;stroke:#F1F2F2;stroke-width:3;stroke-miterlimit:10;}
	.st2{fill:#F4F4F4;}
	.st3{fill:none;stroke:#F1F2F2;stroke-miterlimit:10;}
	.st4{fill:#F4F4F4;stroke:#F1F2F2;stroke-miterlimit:10;}
	.st5{fill:none;stroke:#F1F2F2;stroke-width:3;stroke-miterlimit:10;}
	.st6{fill:#FFFFFF;stroke:#F1F2F2;stroke-width:3;stroke-miterlimit:10;}
	.st7{fill:#414042;stroke:#F1F2F2;stroke-miterlimit:10;}
	.st8{fill:#FFFFFF;stroke:#F1F2F2;stroke-width:2;stroke-miterlimit:10;}
	.st9{fill:none;stroke:#00A69C;stroke-width:2;stroke-miterlimit:10;}
	.st10{fill:none;stroke:#FAAF40;stroke-width:2;stroke-miterlimit:10;}
	.st11{fill:url(#);stroke:#00A69C;stroke-miterlimit:10;}
	.st12{fill:none;stroke:#FAAF40;stroke-width:3;stroke-miterlimit:10;}
	.st13{fill:none;stroke:#00A69C;stroke-width:1.5;stroke-miterlimit:10;}
</style>
<line
   class="st9"
   x1="670.5"
   y1="355.6"
   x2="800"
   y2="349.1"
   id="line5" />
<line
   class="st9"
   x1="0"
   y1="391.2"
   x2="335.5"
   y2="374.8"
   id="line7" />
<path
   class="st10"
   d="M475.1,66.3c0,0-10.4,34.5,2.9,101.7c10.9,55.3,63.2,82.6,88.4,82.6c18.7,0,38.1-7,61.7-68.4  c9.7-25.1,0.3-31.2,0.8-66.7c1.4-93-57.8-112.1-86.2-106.7C516.4,13.8,488.8,25.7,475.1,66.3z"
   id="path9" />
<path
   class="st10"
   d="M548,8c0,0,24.2,18.4,32,73c8.1,57.1,11.2,150.6,1.3,167.2"
   id="path11" />
<path
   class="st10"
   d="M472.4,129.3c0,0,53,15.3,113.2,6.7c46.7-6.7,43.6-7.8,43.6-7.8"
   id="path13" />
<path
   class="st10"
   d="M559.9,211.4c8.3-0.4,16.9-1.1,25.7-2.4c7.7-1.1,14-2.1,19.3-2.9"
   id="path15" />
<path
   class="st10"
   d="M494.4,206.4c0,0-4.9,29.1-30.1,33.8c-25.1,4.7-70.4,7.9-83,16.7c-12.6,8.8-28.7,37.2-39.9,87.5  C330.3,394.7,326.8,450,326.8,450"
   id="path17" />
<path
   class="st10"
   d="M585.4,248.3c0,0,9.7,11.3,33.4,20.6c23.7,9.3,38.4,11.9,45.6,50.3s14.7,100.6,21.2,130.8"
   id="path19" />
</svg>