<?xml version="1.0" encoding="UTF-8" standalone="no"?>
<!-- Generator: Adobe Illustrator 19.1.0, SVG Export Plug-In . SVG Version: 6.00 Build 0)  -->

<svg
   xmlns:dc="http://purl.org/dc/elements/1.1/"
   xmlns:cc="http://creativecommons.org/ns#"
   xmlns:rdf="http://www.w3.org/1999/02/22-rdf-syntax-ns#"
   xmlns:svg="http://www.w3.org/2000/svg"
   xmlns="http://www.w3.org/2000/svg"
   xmlns:sodipodi="http://sodipodi.sourceforge.net/DTD/sodipodi-0.dtd"
   xmlns:inkscape="http://www.inkscape.org/namespaces/inkscape"
   version="1.1"
   id="Layer_1"
   x="0px"
   y="0px"
   width="800px"
   height="450px"
   viewBox="0 0 800 450"
   xml:space="preserve"
   inkscape:version="0.48.3.1 r9886"
   sodipodi:docname="overlay__Posed Portrait 5.svg"><metadata
   id="metadata3180"><rdf:RDF><cc:Work
       rdf:about=""><dc:format>image/svg+xml</dc:format><dc:type
         rdf:resource="http://purl.org/dc/dcmitype/StillImage" /></cc:Work></rdf:RDF></metadata><defs
   id="defs3178" /><sodipodi:namedview
   pagecolor="#ffffff"
   bordercolor="#666666"
   borderopacity="1"
   objecttolerance="10"
   gridtolerance="10"
   guidetolerance="10"
   inkscape:pageopacity="0"
   inkscape:pageshadow="2"
   inkscape:window-width="640"
   inkscape:window-height="480"
   id="namedview3176"
   showgrid="false"
   inkscape:zoom="0.405"
   inkscape:cx="400"
   inkscape:cy="225"
   inkscape:window-x="311"
   inkscape:window-y="41"
   inkscape:window-maximized="0"
   inkscape:current-layer="Layer_1" />
<style
   type="text/css"
   id="style3114">
	.st0{fill:#F1F2F2;stroke:#F1F2F2;stroke-miterlimit:10;}
	.st1{fill:#F1F2F2;stroke:#F1F2F2;stroke-width:3;stroke-miterlimit:10;}
	.st2{fill:#F4F4F4;}
	.st3{fill:none;stroke:#F1F2F2;stroke-miterlimit:10;}
	.st4{fill:#F4F4F4;stroke:#F1F2F2;stroke-miterlimit:10;}
	.st5{fill:none;stroke:#F1F2F2;stroke-width:3;stroke-miterlimit:10;}
	.st6{fill:#FFFFFF;stroke:#F1F2F2;stroke-width:3;stroke-miterlimit:10;}
	.st7{fill:#414042;stroke:#F1F2F2;stroke-miterlimit:10;}
	.st8{fill:#FFFFFF;stroke:#F1F2F2;stroke-width:2;stroke-miterlimit:10;}
	.st9{fill:none;stroke:#00A69C;stroke-width:2;stroke-miterlimit:10;}
	.st10{fill:none;stroke:#FAAF40;stroke-width:2;stroke-miterlimit:10;}
	.st11{fill:url(#);stroke:#00A69C;stroke-miterlimit:10;}
	.st12{fill:none;stroke:#FAAF40;stroke-width:3;stroke-miterlimit:10;}
	.st13{fill:none;stroke:#00A69C;stroke-width:1.5;stroke-miterlimit:10;}
</style>
<line
   class="st13"
   x1="424.9"
   y1="84.4"
   x2="432.7"
   y2="-1"
   id="line3116" />
<path
   class="st13"
   d="M70,387.1l50-112.8l110.7-3.2l-24.1,119.7L70,401 M200,383.3l20.9-103.9l-95.6,2.8L76.4,392.5L200,383.3z"
   id="path3118" />
<path
   class="st13"
   d="M247,166l-11.6,63h-95.5l27.9-63H247z M230.4,223l9.4-50.9h-68.1L149.1,223H230.4z"
   id="path3120" />
<path
   class="st13"
   d="M330.4,229h-71.6l8.5-63h48.9 M310.9,172.1h-38.3l-6.9,50.9h53.7"
   id="path3122" />
<path
   class="st13"
   d="M336,145.7h-66.7l6.7-38.9h54.2L336,145.7z M274,141.7h57.1l-4.2-30.9h-47.6L274,141.7z"
   id="path3124" />
<path
   class="st13"
   d="M259,106.9l-9.2,38.8H181l17.2-38.8H259z M246.5,141.7l7.7-30.8h-53.4l-13.6,30.8H246.5z"
   id="path3126" />
<path
   class="st13"
   d="M369.6,379.6l-132.3,9.1l16.3-120l102-3.3L369.6,379.6z M246.5,380.1l114.1-7.9l-12.1-98.5l-88,2.8  L246.5,380.1z"
   id="path3128" />
<line
   class="st13"
   x1="70"
   y1="84.4"
   x2="445"
   y2="84.4"
   id="line3130" />
<polyline
   class="st13"
   points="575.5,449 523.2,341.9 529.9,315.5 "
   id="polyline3132" />
<line
   class="st13"
   x1="538.4"
   y1="279.4"
   x2="573.7"
   y2="128"
   id="line3134" />
<line
   class="st13"
   x1="588.8"
   y1="73.7"
   x2="603.8"
   y2="-1"
   id="line3136" />
<path
   class="st10"
   d="M305.3,194.7c0,0-0.4,35.6,40.3,36.7c40.6,1.1,39.9,0.7,55.7-9.4c15.8-10.1,23.3-10.6,23.4-27.7  c0.1-16.9-24.5-38.1-41.3-39.6c-16.9-1.4-42.2-4.4-55.4,2.2C307.8,167.1,304.8,184.5,305.3,194.7z"
   id="path3138" />
<path
   class="st10"
   d="M305.3,192.4c0,0,14,5.6,54.7,6.7c40.7,1.1,64.7-2.3,64.7-2.3"
   id="path3140" />
<path
   class="st10"
   d="M363.7,231.8c0,0-3.1-63.7,7.2-78.1"
   id="path3142" />
<path
   class="st10"
   d="M402.1,206.6c0,0,1.1-8,0-20.8"
   id="path3144" />
<path
   class="st10"
   d="M399.2,160.5c0,0,9.9-1.2,13.8-29c3.7-26,15.8-35.6,15.8-35.6s3.9-8.5,100.1-19.5c69.1-7.9,68.6-4.5,74.9,17.5  c3.2,11.1,16.1,73.1,23,112.7c4.2,24.1,20.8,44.3,20.8,44.3"
   id="path3146" />
<path
   class="st10"
   d="M587.3,255.7c0,0,4.7-14.1,6.3-19.7c2.4-8,3-36.4-0.7-49.8c-11.4-41.9-17.5-55.9-27-74.1  c0,0-39.6,5.5-63.6,9.9"
   id="path3148" />
<path
   class="st10"
   d="M605.9,300c0,0-19.7,11.7-39.7,18.7s-33.2-1.3-48.8-9.4c-15.5-8-95.2-52.1-102.2-58.6  c-7-6.5-8.9-32.7-8.9-32.7"
   id="path3150" />
<path
   class="st10"
   d="M482.4,233.7c0,0,47,37.5,53.1,43.5c6,6,8.3-0.6,48.9,0.1"
   id="path3152" />
<path
   class="st10"
   d="M473,234.9c0,0,28.5-3.7,37.8-5.3c16.3-2.8,33.9-10.2,42.6-14.9"
   id="path3154" />
<path
   class="st10"
   d="M634.6,278.2c0,0,2.9-4.4,3.1-5.9c0.2-1.5,1.4-4.8,1.7-10.3c0.3-5.5,1.2-11,6.7-11.4c5.5-0.3,4,12,3,18.9  c-1,7-4.2,13.6-4.2,13.6s-9.4,11.9-9.9,9.6"
   id="path3156" />
<path
   class="st10"
   d="M607.2,281.8c0,0,0.7,5,0,9.9c-0.7,4.8-2.8,12.4,1.5,14c4.3,1.7,9-1,9.4-14.5c0.3-13.5,0-15.4,0-15.4  s2.7-8.2,4.3-14.7c1.7-6.5,4.2-9.9,7.3-9.5c3.2,0.3,5,4,3.8,11.5c-1.2,7.5-3.5,21.2-5.7,24.4c-2.2,3.2-9.9,5.8-9.9,5.8"
   id="path3158" />
<path
   class="st10"
   d="M594.3,281.9c0,0-1.3,3.2,1.2,5.2s6.9,4.4,12.9-8.3c6-12.7,7.3-16.4,4.3-20.9  C609.9,253.4,595.6,275.1,594.3,281.9z"
   id="path3160" />
<path
   class="st10"
   d="M615.6,303.1c0,0,0.4,5.4,4.4,5c4.1-0.3,8.7-5.3,14.6-15.2c0,0,1.3-7.4,0-14.7c0,0-3.1-0.9-3-3.6"
   id="path3162" />
<path
   class="st10"
   d="M625.4,305.4c0,0,0.8,5.1,7.6,0.7c6.8-4.4,15.9-11.4,16-16.7c0.1-5.3-3.7-6.7-3.7-6.7"
   id="path3164" />
<path
   class="st10"
   d="M647.6,284.5c0,0,8.9-14.3,8.3-24.2c-0.7-11.1-4.1-7.6-5.8-3.7"
   id="path3166" />
<path
   class="st10"
   d="M600.5,269.3c0,0-6.1-14.5-6-17.7"
   id="path3168" />
<path
   class="st10"
   d="M585.7,254.4c0,0,4.6,2.3,2.6,7.8c-2,5.6-4.2,5.4-6.6,5.3c-2.4-0.1-6.4-2.7-6.7-5.7c-0.3-3,0.5-4.6,2.2-5.2  C578.8,256.1,584.1,253.2,585.7,254.4z"
   id="path3170" />
<path
   class="st10"
   d="M581.7,267.6c0,0,1.9,7.1,2.8,10.3c1.9,6.9,1.3,6.8,2.5,9.9c1,2.6,6.6-1.5,7.1-5.4c0.8-7-0.8-9.9-0.8-12.8  c-0.1-3.7,4-8.8,4-8.8"
   id="path3172" />
<path
   class="st10"
   d="M575.7,263.9c0,0,7.4,9.2,8.1,12"
   id="path3174" />
</svg>