<?xml version="1.0" encoding="UTF-8" standalone="no"?>
<!-- Generator: Adobe Illustrator 19.1.0, SVG Export Plug-In . SVG Version: 6.00 Build 0)  -->

<svg
   xmlns:dc="http://purl.org/dc/elements/1.1/"
   xmlns:cc="http://creativecommons.org/ns#"
   xmlns:rdf="http://www.w3.org/1999/02/22-rdf-syntax-ns#"
   xmlns:svg="http://www.w3.org/2000/svg"
   xmlns="http://www.w3.org/2000/svg"
   xmlns:sodipodi="http://sodipodi.sourceforge.net/DTD/sodipodi-0.dtd"
   xmlns:inkscape="http://www.inkscape.org/namespaces/inkscape"
   version="1.1"
   id="Layer_1"
   x="0px"
   y="0px"
   width="800px"
   height="450px"
   viewBox="0 0 800 450"
   xml:space="preserve"
   inkscape:version="0.48.3.1 r9886"
   sodipodi:docname="overlay__Posed Portrait 3.svg"><metadata
   id="metadata3090"><rdf:RDF><cc:Work
       rdf:about=""><dc:format>image/svg+xml</dc:format><dc:type
         rdf:resource="http://purl.org/dc/dcmitype/StillImage" /></cc:Work></rdf:RDF></metadata><defs
   id="defs3088"><inkscape:perspective
     sodipodi:type="inkscape:persp3d"
     inkscape:vp_x="0 : 225 : 1"
     inkscape:vp_y="0 : 1000 : 0"
     inkscape:vp_z="800 : 225 : 1"
     inkscape:persp3d-origin="400 : 150 : 1"
     id="perspective3233" /></defs><sodipodi:namedview
   pagecolor="#ffffff"
   bordercolor="#666666"
   borderopacity="1"
   objecttolerance="10"
   gridtolerance="10"
   guidetolerance="10"
   inkscape:pageopacity="0"
   inkscape:pageshadow="2"
   inkscape:window-width="640"
   inkscape:window-height="480"
   id="namedview3086"
   showgrid="false"
   inkscape:zoom="0.405"
   inkscape:cx="400"
   inkscape:cy="225"
   inkscape:window-x="406"
   inkscape:window-y="47"
   inkscape:window-maximized="0"
   inkscape:current-layer="Layer_1" />
<style
   type="text/css"
   id="style3054">
	.st0{fill:#F1F2F2;stroke:#F1F2F2;stroke-miterlimit:10;}
	.st1{fill:#F1F2F2;stroke:#F1F2F2;stroke-width:3;stroke-miterlimit:10;}
	.st2{fill:#F4F4F4;}
	.st3{fill:none;stroke:#F1F2F2;stroke-miterlimit:10;}
	.st4{fill:#F4F4F4;stroke:#F1F2F2;stroke-miterlimit:10;}
	.st5{fill:none;stroke:#F1F2F2;stroke-width:3;stroke-miterlimit:10;}
	.st6{fill:#FFFFFF;stroke:#F1F2F2;stroke-width:3;stroke-miterlimit:10;}
	.st7{fill:#414042;stroke:#F1F2F2;stroke-miterlimit:10;}
	.st8{fill:#FFFFFF;stroke:#F1F2F2;stroke-width:2;stroke-miterlimit:10;}
	.st9{fill:none;stroke:#00A69C;stroke-width:2;stroke-miterlimit:10;}
	.st10{fill:none;stroke:#FAAF40;stroke-width:2;stroke-miterlimit:10;}
	.st11{fill:url(#);stroke:#00A69C;stroke-miterlimit:10;}
	.st12{fill:none;stroke:#FAAF40;stroke-width:3;stroke-miterlimit:10;}
	.st13{fill:none;stroke:#00A69C;stroke-width:1.5;stroke-miterlimit:10;}
</style>
<path
   class="st10"
   d="M542.5,147.7c1.6-6,2.8-12.8,3.3-19c3.7-50.9-2.3-106.7-50.4-117c0,0-75.6-12.6-81.7,81.7  s20.1,117.2,51.4,126.1c20.6,5.8,48.1-14.1,65.1-42.5"
   id="path3056" />
<path
   class="st10"
   d="M485.6,11.2c0,0-17.3,8.5-18.7,69.6c-1,44.8-4.8,106.7,5.4,139.5"
   id="path3058" />
<path
   class="st10"
   d="M546.7,104.5c-11.8,16.8-133.9,8.8-133.9,8.8"
   id="path3060" />
<line
   class="st10"
   x1="450.9"
   y1="177"
   x2="484.2"
   y2="177"
   id="line3062" />
<path
   class="st10"
   d="M570.7,138.5c0,0-10.8-21.1-17.4-39c-6.6-18.1-8.8,3.2-5,16.3c3.9,13.3,7.5,27.3,7.5,27.3"
   id="path3064" />
<path
   class="st10"
   d="M541.5,194.1c-0.2,5.3-6.3,6.8-7,4.6c-0.7-2.3-4.2-12.6-4.7-17c-0.5-4.4,6-31.5,12.8-34.1  c6.9-2.5,36.2-12.5,41.8-12.2c5.6,0.4,14,10.2,26.3,21s35.5,26.4,35.5,26.4c1.6,1.8,10.7,19.1,10.7,19.1"
   id="path3066" />
<path
   class="st10"
   d="M570.7,147.6c0,0-24,11.7-26.1,13.1s-3.3,8.6-3.3,15.2s-1.6,14.6,1.8,23.8c3.3,9.1,5.6,17.5,10.3,11.8  s0.6-16.1,0.6-16.1"
   id="path3068" />
<path
   class="st10"
   d="M579.3,152.5c0,0-19.1,5.6-22.6,7s-8,10-9.9,16.1c-2,6.1,3.1,20.3,5.2,20.3s6-1.8,5.3-7.4  c-0.7-5.6-1.4-8.9-1.4-8.9s4-6.5,5.8-9.6c1.8-3.2,17.7,1.8,21.2,2.1c5.9,0.6,13.1,24.2,31.3,21.4"
   id="path3070" />
<path
   class="st10"
   d="M556.7,184.9c0,0,10.1,7.3,13.3,11c3.2,3.7,12.8,9.5,35.7,10.3c9.8,0.4,17.5,15.1,17.5,15.1"
   id="path3072" />
<polyline
   class="st10"
   points="559.1,172.9 568.8,177 564,168.8 "
   id="polyline3074" />
<path
   class="st10"
   d="M429.6,195.6c0,0-2.6,8.2-30,7.8c-27.3-0.5-75.4,2.6-84.3,11.5c-8.9,8.9-31.5,35.7-54.2,91.5  S204.6,450,204.6,450"
   id="path3076" />
<path
   class="st10"
   d="M541.9,450c0,0,16.6-72.9,22.4-79c5.8-6.1,13.3-11.2,28.5,2.3c15.2,13.5,42.5,34.3,70.3,44.4  c27.8,10,88.2,18.2,102.2,7.2s16.6-21,16.3-39.7s-22.4-72.1-51.4-105.5c-28.9-33.4-48.8-46.9-54.2-59.5  c-5.4-12.6-6.9-18.2-13.1-18.2c-6.2,0-17.7,2.3-25.7,7.2c-7.9,4.9-23.3,17-19.1,22.9c4.2,5.8,17.7,28.7,18,34.3  c0.2,5.6,0.5,27.5,2.8,36.9c2.3,9.3,12.8,36.2,21.5,43.7"
   id="path3078" />
<path
   class="st10"
   d="M518.6,193.2c0,0,1.1,21.9,7.9,24c6.8,2.1,19.1,9.6,32.7,11s51.5,10,62.3,8.8"
   id="path3080" />
<path
   class="st10"
   d="M414.4,203.1c0,0-9.1,16.9,7,31.3c13.5,12.1,35.2,17.6,58.4,14.7c27.8-3.5,42-20.8,45-33"
   id="path3082" />
<path
   class="st10"
   d="M289.5,450c0,0,20.7-52.2,27.6-77.4"
   id="path3084" />
</svg>