<?xml version="1.0" encoding="UTF-8" standalone="no"?>
<!-- Generator: Adobe Illustrator 19.1.0, SVG Export Plug-In . SVG Version: 6.00 Build 0)  -->

<svg
   xmlns:dc="http://purl.org/dc/elements/1.1/"
   xmlns:cc="http://creativecommons.org/ns#"
   xmlns:rdf="http://www.w3.org/1999/02/22-rdf-syntax-ns#"
   xmlns:svg="http://www.w3.org/2000/svg"
   xmlns="http://www.w3.org/2000/svg"
   xmlns:xlink="http://www.w3.org/1999/xlink"
   xmlns:sodipodi="http://sodipodi.sourceforge.net/DTD/sodipodi-0.dtd"
   xmlns:inkscape="http://www.inkscape.org/namespaces/inkscape"
   version="1.1"
   id="Layer_1"
   x="0px"
   y="0px"
   width="800px"
   height="450px"
   viewBox="0 0 800 450"
   xml:space="preserve"
   inkscape:version="0.48.3.1 r9886"
   sodipodi:docname="overlay__Posed Portrait 2.svg"><metadata
   id="metadata3051"><rdf:RDF><cc:Work
       rdf:about=""><dc:format>image/svg+xml</dc:format><dc:type
         rdf:resource="http://purl.org/dc/dcmitype/StillImage" /></cc:Work></rdf:RDF></metadata><defs
   id="defs3049" /><sodipodi:namedview
   pagecolor="#ffffff"
   bordercolor="#666666"
   borderopacity="1"
   objecttolerance="10"
   gridtolerance="10"
   guidetolerance="10"
   inkscape:pageopacity="0"
   inkscape:pageshadow="2"
   inkscape:window-width="640"
   inkscape:window-height="480"
   id="namedview3047"
   showgrid="false"
   inkscape:zoom="0.405"
   inkscape:cx="400"
   inkscape:cy="225"
   inkscape:window-x="266"
   inkscape:window-y="35"
   inkscape:window-maximized="0"
   inkscape:current-layer="Layer_1" />
<style
   type="text/css"
   id="style3003">
	.st0{fill:none;}
	.st1{fill:none;stroke:#231F20;stroke-width:0.5;stroke-miterlimit:10;}
	.st2{fill:#F1F2F2;stroke:#F1F2F2;stroke-miterlimit:10;}
	.st3{fill:#F1F2F2;stroke:#F1F2F2;stroke-width:3;stroke-miterlimit:10;}
	.st4{fill:#F4F4F4;}
	.st5{fill:none;stroke:#F1F2F2;stroke-miterlimit:10;}
	.st6{fill:#F4F4F4;stroke:#F1F2F2;stroke-miterlimit:10;}
	.st7{fill:none;stroke:#F1F2F2;stroke-width:3;stroke-miterlimit:10;}
	.st8{fill:#FFFFFF;stroke:#F1F2F2;stroke-width:3;stroke-miterlimit:10;}
	.st9{fill:#414042;stroke:#F1F2F2;stroke-miterlimit:10;}
	.st10{fill:#FFFFFF;stroke:#F1F2F2;stroke-width:2;stroke-miterlimit:10;}
	.st11{fill:none;stroke:#00A69C;stroke-width:2;stroke-miterlimit:10;}
	.st12{fill:none;stroke:#FAAF40;stroke-width:2;stroke-miterlimit:10;}
	.st13{fill:url(#SVGID_1_);stroke:#00A69C;stroke-miterlimit:10;}
	.st14{fill:none;stroke:#FAAF40;stroke-width:3;stroke-miterlimit:10;}
	.st15{fill:none;stroke:#00A69C;stroke-width:1.5;stroke-miterlimit:10;}
</style>
<pattern
   x="507"
   y="-2484"
   width="11.3"
   height="81.7"
   patternUnits="userSpaceOnUse"
   id="New_Pattern_Swatch_1"
   viewBox="0 -91.7 11.3 81.7"
   style="overflow:visible;">
	<g
   id="g3006">
		<polygon
   class="st0"
   points="11.3,-10 0,-10 0,-91.7 11.3,-91.7   "
   id="polygon3008" />
		<line
   class="st1"
   x1="5.6"
   y1="-109.4"
   x2="5.6"
   y2="0"
   id="line3010" />
	</g>
</pattern>
<pattern
   id="SVGID_1_"
   xlink:href="#New_Pattern_Swatch_1"
   patternTransform="matrix(0.3536 -0.3536 0.3536 0.3536 -2873.283 -5161.9258)">
</pattern>
<path
   class="st13"
   d="M87.7-0.1v288l106.7-1.9c-0.5-12.1-1-23-1.2-29.9c-0.4-15.9,2.2-52.1,5.2-83.3c3.1-31.2,20.3-35.3,29-37.1  c8.7-1.7,40.6-3.1,47.3-5.2c6.8-2.2,7-13.5,7-13.5l0,0c-2.8-4.9-5-10.4-6.4-16.1c-4.8-19.2,0-40.1,0-40.1c5.2-35.3,38.8-45.8,58-34  s16.1,44.9,13.1,64.5c-1.8,11.5-6.3,25.2-13.4,34.6c0,0-1.4,12.8,0,15.1c1.4,2.3,35.4,18.3,45.2,21.9c9.8,3.6,10.8,3.3,20.3,29.1  s13.1,57.9,18.3,66.7c1.7,2.9,4.3,11.8,6.8,22.9h0l291.8-5.2V108.3V-0.1H87.7z"
   id="path3013" />
<line
   class="st11"
   x1="423.7"
   y1="281.9"
   x2="800"
   y2="275.2"
   id="line3015" />
<line
   class="st11"
   x1="0.7"
   y1="290.2"
   x2="194.4"
   y2="286.8"
   id="line3017" />
<line
   class="st11"
   x1="172.6"
   y1="419.9"
   x2="-8.4"
   y2="393.3"
   id="line3019" />
<line
   class="st11"
   x1="361.5"
   y1="450.1"
   x2="231.1"
   y2="430.9"
   id="line3021" />
<path
   class="st12"
   d="M275.4,61.3c0,0-4.8,20.9,0,40.1c4.8,19.2,17.4,36.1,38.4,36.2c18.8,0.1,29.7-26.2,32.7-45.8  s6.1-52.8-13.1-64.5S280.6,26,275.4,61.3z"
   id="path3023" />
<path
   class="st12"
   d="M312.9,137.6c0,0,9.6-61.5,4.4-114.9"
   id="path3025" />
<path
   class="st12"
   d="M273.8,72.6c0,0,39.2,10.9,75,5.7"
   id="path3027" />
<path
   class="st12"
   d="M306.8,114.2c0,0,9.8,1.6,18.5,0.7"
   id="path3029" />
<path
   class="st12"
   d="M281.8,117.5c0,0-0.3,11.3-7,13.5c-6.8,2.2-38.6,3.5-47.3,5.2c-8.7,1.7-25.9,5.9-29,37.1  c-3.1,31.2-5.7,67.4-5.2,83.3c0.4,15.9,2.2,53.2,3.5,76.5c1.3,23.3,3.1,56.1,3.1,71.6c0,15.5-1.5,8.2-7.9,11  c-6.3,2.8-19.8,4.4-20.9,5.5c-1.1,1.1-3.5,5.4,4.6,7c8.1,1.5,8.7,1.3,11.8,3.9c3.1,2.6,7.6,6.1,21.4,3.1s11.9-1.7,17.1-2.2  c5.2-0.4,7.5-0.3,5.3-15.7c0,0,4.3,0.1,4.7-2.7s15.4-62,14.8-72.5c4.3,22.2,7.7,43.4,18.1,52.8c0,0-0.7,24.4,4.4,41.5"
   id="path3031" />
<path
   class="st12"
   d="M333.1,126.4c0,0-1.4,12.8,0,15.1c1.4,2.3,35.4,18.3,45.2,21.9c9.8,3.6,10.8,3.3,20.3,29.1  s13.1,57.9,18.3,66.7c5.2,8.8,18.6,72.3,10.1,89.6s-13.7,18-13.7,18s-10.8,2.3-17.7-3.6c0,0,6.2-4.6,9.8-11.1c3.6-6.5-2-17.3-2-23.2  c0-5.9,4.9-18-9.8-39.6c-14.7-21.6-13.3-28.8-12.6-47.1"
   id="path3033" />
<path
   class="st12"
   d="M414.3,367.3c0,0,4.3,26.5-18.3,82.8"
   id="path3035" />
<path
   class="st12"
   d="M268.7,394.9c0,0,15.6,5.3,27.6,6c12,0.7,50.6-2.9,99.4-37.6"
   id="path3037" />
<path
   class="st12"
   d="M274.8,131.1c0,0-2.6,6.9,7,15.7c10.2,9.3,69,18.8,51.3-5.2"
   id="path3039" />
<path
   class="st12"
   d="M250.6,342.1c0,0-3.4-12.9-4.7-34.4c-1.3-21.6-1-72.9-1-72.9"
   id="path3041" />
<path
   class="st12"
   d="M231.1,417.3c0,0-24.6,0.1-33.5-2.2"
   id="path3043" />
<path
   class="st12"
   d="M405.3,338c0,0,1.4-5.1,6.2-3.8c4.8,1.3,13.3,3.7,15.6,14.6"
   id="path3045" />
</svg>