<?xml version="1.0" encoding="UTF-8" standalone="no"?>
<!-- Generator: Adobe Illustrator 19.1.0, SVG Export Plug-In . SVG Version: 6.00 Build 0)  -->

<svg
   xmlns:dc="http://purl.org/dc/elements/1.1/"
   xmlns:cc="http://creativecommons.org/ns#"
   xmlns:rdf="http://www.w3.org/1999/02/22-rdf-syntax-ns#"
   xmlns:svg="http://www.w3.org/2000/svg"
   xmlns="http://www.w3.org/2000/svg"
   xmlns:sodipodi="http://sodipodi.sourceforge.net/DTD/sodipodi-0.dtd"
   xmlns:inkscape="http://www.inkscape.org/namespaces/inkscape"
   version="1.1"
   id="Layer_1"
   x="0px"
   y="0px"
   width="800px"
   height="450px"
   viewBox="0 0 800 450"
   xml:space="preserve"
   inkscape:version="0.48.3.1 r9886"
   sodipodi:docname="overlay__Posed Portrait 4.svg"><metadata
   id="metadata3111"><rdf:RDF><cc:Work
       rdf:about=""><dc:format>image/svg+xml</dc:format><dc:type
         rdf:resource="http://purl.org/dc/dcmitype/StillImage" /></cc:Work></rdf:RDF></metadata><defs
   id="defs3109" /><sodipodi:namedview
   pagecolor="#ffffff"
   bordercolor="#666666"
   borderopacity="1"
   objecttolerance="10"
   gridtolerance="10"
   guidetolerance="10"
   inkscape:pageopacity="0"
   inkscape:pageshadow="2"
   inkscape:window-width="640"
   inkscape:window-height="480"
   id="namedview3107"
   showgrid="false"
   inkscape:zoom="0.405"
   inkscape:cx="400"
   inkscape:cy="225"
   inkscape:window-x="445"
   inkscape:window-y="31"
   inkscape:window-maximized="0"
   inkscape:current-layer="Layer_1" />
<style
   type="text/css"
   id="style3093">
	.st0{fill:#F1F2F2;stroke:#F1F2F2;stroke-miterlimit:10;}
	.st1{fill:#F1F2F2;stroke:#F1F2F2;stroke-width:3;stroke-miterlimit:10;}
	.st2{fill:#F4F4F4;}
	.st3{fill:none;stroke:#F1F2F2;stroke-miterlimit:10;}
	.st4{fill:#F4F4F4;stroke:#F1F2F2;stroke-miterlimit:10;}
	.st5{fill:none;stroke:#F1F2F2;stroke-width:3;stroke-miterlimit:10;}
	.st6{fill:#FFFFFF;stroke:#F1F2F2;stroke-width:3;stroke-miterlimit:10;}
	.st7{fill:#414042;stroke:#F1F2F2;stroke-miterlimit:10;}
	.st8{fill:#FFFFFF;stroke:#F1F2F2;stroke-width:2;stroke-miterlimit:10;}
	.st9{fill:none;stroke:#00A69C;stroke-width:2;stroke-miterlimit:10;}
	.st10{fill:none;stroke:#FAAF40;stroke-width:2;stroke-miterlimit:10;}
	.st11{fill:url(#);stroke:#00A69C;stroke-miterlimit:10;}
	.st12{fill:none;stroke:#FAAF40;stroke-width:3;stroke-miterlimit:10;}
	.st13{fill:none;stroke:#00A69C;stroke-width:1.5;stroke-miterlimit:10;}
</style>
<path
   class="st12"
   d="M237.1,135.2c0,0,44.4,2.4,90.1,16.2c44.7,13.5,83.8,73.2,85.2,95.9c3,48-28,46.5-69.7,71.3  c-41.7,24.8-60.2,26.9-128.8,26.4c-68.6-0.5-88.7-23.2-88.7-23.2s-66.1-43.3-32.4-130C119.7,122.6,237.1,135.2,237.1,135.2z"
   id="path3095" />
<path
   class="st12"
   d="M412.6,262.9c0,0-273.4,42.9-329.4-21.4"
   id="path3097" />
<path
   class="st12"
   d="M252.6,345.1c0,0-13.4-105.4,12.1-207.1"
   id="path3099" />
<path
   class="st12"
   d="M353.5,291.2c0,0,0.8-14.2,1.3-49.6"
   id="path3101" />
<path
   class="st12"
   d="M332.3,153.2c0,0,29.4,21.5,48.4-32.7S433.5,0,433.5,0"
   id="path3103" />
<path
   class="st12"
   d="M367.1,305.9c0,0,19.9,77.2,38.9,104.6c19,27.5,97.9,39.5,97.9,39.5"
   id="path3105" />
</svg>