<?xml version="1.0" encoding="UTF-8" standalone="no"?>
<!-- Generator: Adobe Illustrator 19.1.0, SVG Export Plug-In . SVG Version: 6.00 Build 0)  -->

<svg
   xmlns:dc="http://purl.org/dc/elements/1.1/"
   xmlns:cc="http://creativecommons.org/ns#"
   xmlns:rdf="http://www.w3.org/1999/02/22-rdf-syntax-ns#"
   xmlns:svg="http://www.w3.org/2000/svg"
   xmlns="http://www.w3.org/2000/svg"
   xmlns:sodipodi="http://sodipodi.sourceforge.net/DTD/sodipodi-0.dtd"
   xmlns:inkscape="http://www.inkscape.org/namespaces/inkscape"
   version="1.1"
   id="Layer_1"
   x="0px"
   y="0px"
   width="800px"
   height="450px"
   viewBox="0 0 800 450"
   xml:space="preserve"
   inkscape:version="0.48.3.1 r9886"
   sodipodi:docname="overlay__Posed Portrait 6.svg"><metadata
   id="metadata3225"><rdf:RDF><cc:Work
       rdf:about=""><dc:format>image/svg+xml</dc:format><dc:type
         rdf:resource="http://purl.org/dc/dcmitype/StillImage" /></cc:Work></rdf:RDF></metadata><defs
   id="defs3223" /><sodipodi:namedview
   pagecolor="#ffffff"
   bordercolor="#666666"
   borderopacity="1"
   objecttolerance="10"
   gridtolerance="10"
   guidetolerance="10"
   inkscape:pageopacity="0"
   inkscape:pageshadow="2"
   inkscape:window-width="742"
   inkscape:window-height="550"
   id="namedview3221"
   showgrid="false"
   inkscape:zoom="0.405"
   inkscape:cx="400"
   inkscape:cy="225"
   inkscape:window-x="465"
   inkscape:window-y="106"
   inkscape:window-maximized="0"
   inkscape:current-layer="Layer_1" />
<style
   type="text/css"
   id="style3183">
	.st0{fill:#F1F2F2;stroke:#F1F2F2;stroke-miterlimit:10;}
	.st1{fill:#F1F2F2;stroke:#F1F2F2;stroke-width:3;stroke-miterlimit:10;}
	.st2{fill:#F4F4F4;}
	.st3{fill:none;stroke:#F1F2F2;stroke-miterlimit:10;}
	.st4{fill:#F4F4F4;stroke:#F1F2F2;stroke-miterlimit:10;}
	.st5{fill:none;stroke:#F1F2F2;stroke-width:3;stroke-miterlimit:10;}
	.st6{fill:#FFFFFF;stroke:#F1F2F2;stroke-width:3;stroke-miterlimit:10;}
	.st7{fill:#414042;stroke:#F1F2F2;stroke-miterlimit:10;}
	.st8{fill:#FFFFFF;stroke:#F1F2F2;stroke-width:2;stroke-miterlimit:10;}
	.st9{fill:none;stroke:#00A69C;stroke-width:2;stroke-miterlimit:10;}
	.st10{fill:none;stroke:#FAAF40;stroke-width:2;stroke-miterlimit:10;}
	.st11{fill:url(#);stroke:#00A69C;stroke-miterlimit:10;}
	.st12{fill:none;stroke:#FAAF40;stroke-width:3;stroke-miterlimit:10;}
	.st13{fill:none;stroke:#00A69C;stroke-width:1.5;stroke-miterlimit:10;}
</style>
<path
   class="st13"
   d="M528.4,30.1l-51.7,112.2l-123.2-6.6l6.6-116.1L528.4,30.1z M472.8,135.7l46-100l-152.7-9.5l-5.9,103.4  L472.8,135.7z"
   id="path3185" />
<path
   class="st13"
   d="M338.4,229.2l-53.3-1.8l-9.9-29.2l74.3,1.7 M348.2,203l-69-2.1l7.9,24.1l52.1,2"
   id="path3187" />
<polyline
   class="st13"
   points="352.5,192.2 272.2,189.6 259,149 432.9,155.2 427.4,166.3 "
   id="polyline3189" />
<polyline
   class="st13"
   points="422.5,166.6 426.2,159.1 264.7,153.4 275.1,186.7 353.9,188.9 "
   id="polyline3191" />
<path
   class="st13"
   d="M339.1,18.6V136l-130.4-4.4L156.3,5.5L339.1,18.6z M332.8,129.4v-105L166,12.5l46.9,113L332.8,129.4z"
   id="path3193" />
<path
   class="st10"
   d="M245.2,248.9c27.2,2.5,77.9,8.9,77.6,55c-0.1,15.1-12.6,30.4-52.4,38.8s-81.2-3.7-91.2-19.4  c-3.7-5.8-19.2-31.4,7.3-59.8C198.2,251.1,233.3,247.8,245.2,248.9z"
   id="path3195" />
<path
   class="st10"
   d="M322.8,304c0,0-112.7,5.8-151.2-11.1"
   id="path3197" />
<path
   class="st10"
   d="M238.9,345.4c0,0,5.8-60.8,6.3-96.5"
   id="path3199" />
<path
   class="st10"
   d="M290.8,320.5c1-7.6,2-12.2,2-31.1"
   id="path3201" />
<path
   class="st10"
   d="M294.8,260.3c0,0,27.2,3.8,34.5-9.8c7.3-13.6,21.2-56.9,27.5-67.9c6.3-11,45.6-16.8,86.8-16.3  S570,193.6,573.9,203c3.9,9.4,12.1,70.5,0,98c-12.1,27.5-37.5,73.1-40.6,77.1s-12.3,19.7-21.2,16c-8.9-3.7-12.1-7.1-11.8-14.9  c0.3-7.9,7.9-28.8,11.8-45.1c3.9-16.3,11.3-46.1,10.7-71.3c-0.5-25.2-2.9-39.8-5.6-47.6c-7.9-22.2-10.4-6.1-9.8-3.8"
   id="path3203" />
<path
   class="st10"
   d="M572.7,303.9c0,0,8.4,35.2,0,85.5c-8.4,50.3-9.5,56.1-25.5,57.4c-16,1.3-72.9-5.2-83.1-7.3  c-10.2-2.1-84.9-22-95.2-29.1c-10.2-7.1-13.6-10-21-32c0,0-11.8-38-14.9-46.1c-3.1-8.1-1.8-13.6-16.6-11.3"
   id="path3205" />
<path
   class="st10"
   d="M422.3,378.4c0,0,64.6,16.3,81.3,10.8"
   id="path3207" />
<path
   class="st10"
   d="M522.8,261.4c0,0-18-12.3-24.2-14.8c-6.2-2.5-17.2-8-18.9-16.1c-3.1-14.7-6.5-17.6-4.1-20.1  c2.4-2.4,6.8-4.1,15.6,21.2c0,0-4.8-27.7-3.8-31.3c0.9-3.7,7.3-6.2,10.6,4.3c0,0-1.4-7.5,3.7-6c5.1,1.5,5.6,12.8,5.6,12.8l1.8,13.3"
   id="path3209" />
<line
   class="st10"
   x1="498"
   y1="204.6"
   x2="501.3"
   y2="227.3"
   id="line3211" />
<path
   class="st10"
   d="M573.9,203c0,0,73.1-8.7,156.1,1.6"
   id="path3213" />
<path
   class="st10"
   d="M570.8,403.9c0,0,80.4,25.9,159.2,11.2"
   id="path3215" />
<path
   class="st10"
   d="M688.2,419.5c0,0,15.7-126.6,6.3-218.2"
   id="path3217" />
<path
   class="st10"
   d="M477.2,220.9c0,0-34.4-5.7-55.4-2.4"
   id="path3219" />
</svg>